<svg width="20" height="23" viewBox="0 0 20 23" fill="none" xmlns="http://www.w3.org/2000/svg">
<g clip-path="url(#clip0_192_2648)">
<path d="M17.259 0.861206H15.1351V3.63164C15.1351 4.31563 14.5037 4.85201 13.7001 4.85201C12.8964 4.85201 12.265 4.31563 12.265 3.63164V0.861206H7.73978V3.63164C7.73978 4.31563 7.10835 4.85201 6.30471 4.85201C5.50108 4.85201 4.86965 4.31563 4.86965 3.63164V0.861206H2.74575C1.23415 0.861206 0 2.12586 0 3.68085V20.1804C0 21.7354 1.23415 23.0001 2.74575 23.0001H17.259C18.7706 23.0001 20 21.7354 20 20.1804V3.68085C20 2.12586 18.7706 0.861206 17.259 0.861206ZM18.5649 20.1804C18.5649 20.9235 17.9766 21.5238 17.259 21.5238H2.74575C2.02344 21.5238 1.43506 20.9235 1.43506 20.1804V5.72792H18.5649V20.1804Z" fill="black"/>
<path d="M8.64388 19.7621H3.96558C3.56854 19.7621 3.24805 19.4324 3.24805 19.024C3.24805 18.6156 3.56854 18.2859 3.96558 18.2859H8.64388C9.04092 18.2859 9.36142 18.6156 9.36142 19.024C9.36142 19.4324 9.04092 19.7621 8.64388 19.7621Z" fill="black"/>
<path d="M16.3958 19.7621H11.7175C11.3205 19.7621 11 19.4324 11 19.024C11 18.6156 11.3205 18.2859 11.7175 18.2859H16.3958C16.7929 18.2859 17.1134 18.6156 17.1134 19.024C17.1134 19.4324 16.7929 19.7621 16.3958 19.7621Z" fill="black"/>
<path d="M7.02247 0.482242V3.63158C7.02247 3.8973 6.70197 4.11382 6.30493 4.11382C5.9079 4.11382 5.5874 3.8973 5.5874 3.63158V0.482242C5.5874 0.216517 5.9079 0 6.30493 0C6.70197 0 7.02247 0.216517 7.02247 0.482242Z" fill="black"/>
<path d="M14.4175 0.482242V3.63158C14.4175 3.8973 14.0922 4.11382 13.7 4.11382C13.3077 4.11382 12.9824 3.8973 12.9824 3.63158V0.482242C12.9824 0.216517 13.3029 0 13.7 0C14.097 0 14.4175 0.216517 14.4175 0.482242Z" fill="black"/>
</g>
<defs>
<clipPath id="clip0_192_2648">
<rect width="20" height="23" fill="white"/>
</clipPath>
</defs>
</svg>
