<svg width="85" height="20" viewBox="0 0 85 20" fill="none" xmlns="http://www.w3.org/2000/svg">
<path d="M41.2502 3.33325L43.0276 8.80353L48.7794 8.80353L44.1261 12.1844L45.9035 17.6546L41.2502 14.2738L36.5969 17.6546L38.3743 12.1844L33.721 8.80353L39.4728 8.80353L41.2502 3.33325Z" fill="black"/>
<path d="M74.5832 3.33325L76.3606 8.80353L82.1124 8.80353L77.4591 12.1844L79.2365 17.6546L74.5832 14.2738L69.9299 17.6546L71.7073 12.1844L67.054 8.80353L72.8058 8.80353L74.5832 3.33325Z" fill="black"/>
<path d="M57.9167 3.33325L59.6941 8.80353L65.4459 8.80353L60.7926 12.1844L62.57 17.6546L57.9167 14.2738L53.2634 17.6546L55.0408 12.1844L50.3875 8.80353L56.1393 8.80353L57.9167 3.33325Z" fill="black"/>
<path d="M7.91667 3.33325L9.69407 8.80353L15.4459 8.80353L10.7926 12.1844L12.57 17.6546L7.91667 14.2738L3.26337 17.6546L5.04077 12.1844L0.387469 8.80353L6.13926 8.80353L7.91667 3.33325Z" fill="black"/>
<path d="M24.5832 3.33325L26.3606 8.80353L32.1124 8.80353L27.4591 12.1844L29.2365 17.6546L24.5832 14.2738L19.9299 17.6546L21.7073 12.1844L17.054 8.80353L22.8058 8.80353L24.5832 3.33325Z" fill="black"/>
<rect x="75" width="10" height="20" fill="white"/>
</svg>
