<svg width="20" height="23" viewBox="0 0 20 23" fill="none" xmlns="http://www.w3.org/2000/svg">
<g clip-path="url(#clip0_192_2620)">
<path d="M17.259 0.861206H15.1351V3.63164C15.1351 4.31563 14.5037 4.85201 13.7001 4.85201C12.8964 4.85201 12.265 4.31563 12.265 3.63164V0.861206H7.73978V3.63164C7.73978 4.31563 7.10835 4.85201 6.30471 4.85201C5.50108 4.85201 4.86965 4.31563 4.86965 3.63164V0.861206H2.74575C1.23415 0.861206 0 2.12586 0 3.68085V20.1804C0 21.7354 1.23415 23.0001 2.74575 23.0001H17.259C18.7706 23.0001 20 21.7354 20 20.1804V3.68085C20 2.12586 18.7706 0.861206 17.259 0.861206ZM18.5649 20.1804C18.5649 20.9235 17.9766 21.5238 17.259 21.5238H2.74575C2.02344 21.5238 1.43506 20.9235 1.43506 20.1804V5.72792H18.5649V20.1804Z" fill="black"/>
<path d="M8.64388 19.7621H3.96558C3.56854 19.7621 3.24805 19.4324 3.24805 19.024C3.24805 18.6156 3.56854 18.2859 3.96558 18.2859H8.64388C9.04092 18.2859 9.36142 18.6156 9.36142 19.024C9.36142 19.4324 9.04092 19.7621 8.64388 19.7621Z" fill="black"/>
<path d="M16.0394 19.7621H11.3611C10.9641 19.7621 10.6436 19.4324 10.6436 19.024C10.6436 18.6156 10.9641 18.2859 11.3611 18.2859H16.0394C16.4364 18.2859 16.7569 18.6156 16.7569 19.024C16.7569 19.4324 16.4364 19.7621 16.0394 19.7621Z" fill="black"/>
<path d="M8.64388 17.0803H3.96558C3.56854 17.0803 3.24805 16.7506 3.24805 16.3421C3.24805 15.9337 3.56854 15.604 3.96558 15.604H8.64388C9.04092 15.604 9.36142 15.9337 9.36142 16.3421C9.36142 16.7506 9.04092 17.0803 8.64388 17.0803Z" fill="black"/>
<path d="M16.0394 17.0803H11.3611C10.9641 17.0803 10.6436 16.7506 10.6436 16.3421C10.6436 15.9337 10.9641 15.604 11.3611 15.604H16.0394C16.4364 15.604 16.7569 15.9337 16.7569 16.3421C16.7569 16.7506 16.4364 17.0803 16.0394 17.0803Z" fill="black"/>
<path d="M8.64388 14.4033H3.96558C3.56854 14.4033 3.24805 14.0736 3.24805 13.6651C3.24805 13.2567 3.56854 12.927 3.96558 12.927H8.64388C9.04092 12.927 9.36142 13.2567 9.36142 13.6651C9.36142 14.0736 9.04092 14.4033 8.64388 14.4033Z" fill="black"/>
<path d="M16.0394 14.4033H11.3611C10.9641 14.4033 10.6436 14.0736 10.6436 13.6651C10.6436 13.2567 10.9641 12.927 11.3611 12.927H16.0394C16.4364 12.927 16.7569 13.2567 16.7569 13.6651C16.7569 14.0736 16.4364 14.4033 16.0394 14.4033Z" fill="black"/>
<path d="M8.64388 11.7215H3.96558C3.56854 11.7215 3.24805 11.3918 3.24805 10.9834C3.24805 10.5749 3.56854 10.2452 3.96558 10.2452H8.64388C9.04092 10.2452 9.36142 10.5749 9.36142 10.9834C9.36142 11.3918 9.04092 11.7215 8.64388 11.7215Z" fill="black"/>
<path d="M16.0394 11.7215H11.3611C10.9641 11.7215 10.6436 11.3918 10.6436 10.9834C10.6436 10.5749 10.9641 10.2452 11.3611 10.2452H16.0394C16.4364 10.2452 16.7569 10.5749 16.7569 10.9834C16.7569 11.3918 16.4364 11.7215 16.0394 11.7215Z" fill="black"/>
<path d="M7.02247 0.482242V3.63158C7.02247 3.8973 6.70197 4.11382 6.30493 4.11382C5.9079 4.11382 5.5874 3.8973 5.5874 3.63158V0.482242C5.5874 0.216517 5.9079 0 6.30493 0C6.70197 0 7.02247 0.216517 7.02247 0.482242Z" fill="black"/>
<path d="M14.4175 0.482242V3.63158C14.4175 3.8973 14.0922 4.11382 13.7 4.11382C13.3077 4.11382 12.9824 3.8973 12.9824 3.63158V0.482242C12.9824 0.216517 13.3029 0 13.7 0C14.097 0 14.4175 0.216517 14.4175 0.482242Z" fill="black"/>
<path d="M8.64388 9.04449H3.96558C3.56854 9.04449 3.24805 8.71479 3.24805 8.30636C3.24805 7.89793 3.56854 7.56824 3.96558 7.56824H8.64388C9.04092 7.56824 9.36142 7.89793 9.36142 8.30636C9.36142 8.71479 9.04092 9.04449 8.64388 9.04449Z" fill="black"/>
<path d="M16.0394 9.04449H11.3611C10.9641 9.04449 10.6436 8.71479 10.6436 8.30636C10.6436 7.89793 10.9641 7.56824 11.3611 7.56824H16.0394C16.4364 7.56824 16.7569 7.89793 16.7569 8.30636C16.7569 8.71479 16.4364 9.04449 16.0394 9.04449Z" fill="black"/>
</g>
<defs>
<clipPath id="clip0_192_2620">
<rect width="20" height="23" fill="white"/>
</clipPath>
</defs>
</svg>
