<svg width="114" height="33" viewBox="0 0 114 33" fill="none" xmlns="http://www.w3.org/2000/svg">
<g clip-path="url(#clip0_305_2593)">
<path fill-rule="evenodd" clip-rule="evenodd" d="M113.764 17.5557C113.764 17.2505 113.633 16.9896 113.523 16.7498C113.392 16.5545 113.128 16.3575 113.128 16.0524L113.304 15.5519C113.304 15.1596 112.997 14.746 112.865 14.398L112.404 13.0259C112.207 12.568 111.966 12.0887 111.725 11.6964C111.33 11.0859 110.628 10.9988 110.322 10.7592L110.015 10.1274C109.247 9.67093 108.414 9.16878 107.558 8.82099C107.317 8.75518 106.922 8.68954 106.659 8.58119C106.484 8.51556 106.155 8.38594 106.155 8.38594C105.98 8.34158 105.914 8.25468 105.761 8.14633C105.453 7.90671 105.125 7.64399 104.555 7.64399C104.247 7.64399 104.051 7.75399 103.786 7.81816C103.611 7.86234 103.415 7.86234 103.327 7.86234L102.757 7.75418C102.559 7.64418 102.559 7.64418 102.362 7.64418C101.989 7.64418 101.353 7.70981 101.024 7.88379C100.892 7.94943 100.695 8.25468 100.586 8.29739C100.586 8.29739 100.014 8.18904 99.7517 8.18904C99.4229 8.23341 98.6777 8.36303 98.6777 8.36303C97.7557 8.84226 96.6604 9.62674 95.8046 10.28C95.5849 10.4541 95.7386 10.8036 95.5634 10.9563C95.3881 11.1088 94.8843 11.0432 94.7523 11.1515C94.116 11.762 93.546 12.6763 93.2173 13.4164C93.2173 13.4164 92.867 14.9641 92.801 15.0725C92.6687 15.2694 92.5151 15.573 92.4937 15.7044C92.4937 15.7044 92.1649 16.2706 91.9897 16.5316C91.7486 17.034 91.6824 17.4261 91.6163 17.6214L91.661 18.5586C91.661 18.8853 91.8362 19.0591 91.8362 19.0591C91.8362 19.3858 91.6377 19.6696 91.5949 19.7994C91.5287 20.0619 91.4627 20.2573 91.4627 20.5626C91.4627 20.8022 92.0327 23.6334 92.0327 23.6334C92.34 24.5919 92.844 25.2895 93.3049 26.0296C93.6123 26.5532 93.9194 27.0539 94.1823 27.5544C94.2483 27.6856 94.3573 27.9252 94.3787 28.2305C94.4894 28.6655 94.5556 29.1021 94.8183 29.4288C95.5635 30.1034 96.3531 30.7565 97.5377 31.193L98.2829 31.3013C98.458 31.3013 99.1156 31.3228 99.1817 31.3884C99.1817 31.3884 99.3137 31.6937 99.5104 31.8676C99.8393 32.1729 100.388 32.5438 100.388 32.5438C101.265 32.7179 102.339 32.7392 102.668 32.7392C102.909 32.7392 103.129 32.6734 103.436 32.6094C103.633 32.4781 103.897 32.4994 104.072 32.4781C104.335 32.4338 104.621 32.1942 105.212 32.5438C105.321 32.6094 105.475 32.6094 105.585 32.6094C106.286 32.6094 107.492 31.9333 109.686 30.7794C109.751 30.7794 109.927 30.5825 109.949 30.5825L110.453 30.4085C110.914 30.2132 111.637 30.0162 112.054 29.3844C112.997 27.794 113.26 27.2935 113.26 25.877C113.26 25.2451 113.085 24.81 112.799 24.4392C112.273 23.8074 111.418 23.9174 110.651 23.9174H110.41C110.299 23.9174 109.599 23.9174 109.4 24.3523C109.4 24.3523 108.698 25.1809 108.26 25.6603C107.866 26.1608 107.866 26.335 107.558 26.6828C107.383 26.8584 107.033 27.0539 106.879 27.2508C106.747 27.5116 106.309 27.8811 106.309 27.8811C106.002 28.1207 105.562 28.0123 105.169 28.0565C104.971 28.0992 104.774 28.0992 104.597 28.1207C104.467 28.1863 104.094 28.3176 103.919 28.3832C103.743 28.4474 103.349 28.3832 103.304 28.3832C103.239 28.3832 103.107 28.3388 102.932 28.2076C102.603 27.968 102.427 27.904 102.055 27.904C101.66 27.904 101.024 27.7727 101.024 27.7727C100.827 27.5331 100.563 27.2722 100.213 26.9668C99.95 26.7272 99.489 26.8799 99.1387 26.7715C98.1293 26.3136 97.822 25.1582 97.822 25.1582C97.822 25.1582 97.6914 24.6575 97.6914 24.4835C97.6467 24.2439 97.4931 23.612 97.4931 23.612C97.361 23.2411 97.252 23.0458 97.252 22.4795C97.252 22.4795 98.0631 22.0217 98.4366 22.0217C98.5026 22.0217 98.6777 22.0659 98.8314 22.0874C99.028 22.1299 99.2261 22.2186 99.4674 22.2186C99.7087 22.2186 99.9267 22.0874 100.147 22.0217C100.279 21.979 100.52 21.9134 100.52 21.9134C100.761 21.9134 100.979 21.9134 101.156 22.0215C101.287 22.0874 101.485 22.2186 101.726 22.2186C101.967 22.2186 102.121 22.0874 102.559 21.9134C102.8 21.7163 103.261 21.6081 103.391 21.6081C103.391 21.6081 104.796 21.7163 105.366 21.8034C106.615 21.9346 107.208 22.0003 107.449 22.0003C107.646 22.0003 107.844 21.9346 108.393 21.8034C108.698 21.695 109.138 21.6081 109.138 21.6081C109.379 21.6081 109.751 21.6738 109.883 21.7163C110.145 21.8477 110.41 21.9134 110.564 21.9134C111.571 21.9134 113.085 21.0418 113.217 19.7781C113.26 19.3858 113.61 18.9934 113.787 18.4717C113.917 18.0137 113.764 17.7526 113.764 17.5557ZM91.77 15.4419C91.77 15.1152 91.704 14.8116 91.5287 14.4849C91.4843 14.2453 91.3966 14.0269 91.3966 13.8515C91.3537 13.7217 91.3537 13.4821 91.3537 13.2852C91.3966 12.8519 91.3966 12.3496 91.309 11.8475C91.1338 11.4141 90.9143 11.0859 90.696 10.8446C90.5854 10.7805 90.4977 10.6705 90.4977 10.6067C90.3889 10.4754 90.3013 10.3456 90.1906 10.1716C89.7313 9.27878 89.1166 8.27429 88.4376 8.23341C88.1303 8.23341 87.9106 8.36138 87.7354 8.47303L87.3406 8.40574C87.0117 8.21196 86.8366 8.08069 86.6383 8.08069C86.2666 8.08069 84.973 8.40574 84.4906 8.57973L83.7437 9.10479C83.6349 9.16896 83.5685 9.56111 83.5685 9.56111C83.5685 9.56111 83.2613 9.47421 83.1953 9.47421C82.8896 9.53819 82.166 9.53819 81.88 9.90908C81.88 9.90908 81.5513 10.2783 81.4191 10.4327C80.8491 10.9988 80.7402 11.1959 80.3237 11.1744C80.0594 11.1744 79.995 11.1286 79.8183 10.3014C79.6877 9.49713 79.425 8.16759 77.7794 8.14633C77.4077 8.10049 77.0127 8.10049 76.8146 8.10049L76.1354 8.47303C75.8943 8.47303 75.6084 7.83943 75.1706 8.03633L72.5603 8.21196C72.1653 8.14633 71.7274 7.97069 71.4417 7.99196C71.0469 8.01341 70.8717 8.27429 70.718 8.29739C69.644 8.55828 68.965 9.62674 68.942 10.4539C68.899 11.1499 69.4474 11.8277 69.7763 12.1971C70.039 12.5023 70.9593 13.3952 71.9903 13.4395C72.2974 13.4395 72.5603 13.3064 72.9997 13.1128C73.1303 13.0455 73.3284 12.9159 73.3284 12.9159C73.3284 12.9159 74.513 13.4821 75.0384 13.9188C75.4331 14.6803 75.3673 15.5748 75.3457 16.5102C75.3011 16.814 75.3011 17.1421 75.3011 17.513L75.2583 19.6681V21.7607L75.1476 22.5239C75.0384 22.8489 75.017 23.3298 75.0384 23.7203C75.0384 24.0256 75.083 24.5279 75.1706 24.9611C75.2136 25.094 75.2797 25.3993 75.2797 25.4634C75.2797 25.4634 75.0384 26.9864 74.8849 27.4887C74.7543 27.7513 74.3594 27.9467 74.0074 28.1223C73.877 28.1863 73.6787 28.3176 73.6787 28.3176C73.7233 28.2749 73.1533 28.1419 73.1533 28.1419C72.7586 28.0338 72.5387 28.0123 72.4066 28.0123C71.9687 27.9696 70.4553 28.2519 70.3893 29.9505C70.3893 30.561 70.5214 31.019 70.8287 31.2801C70.8287 31.2801 71.5293 32.2829 72.0347 32.2829C72.276 32.2829 72.4726 32.1729 72.9766 31.9776C73.1533 31.8676 73.2837 32.0185 73.2837 32.0185C73.2837 32.0185 73.6573 31.8889 73.7449 31.9104C74.0074 32.1073 74.3149 32.1516 74.556 32.1516C74.7973 32.1516 75.126 32.2156 75.4547 32.1073C75.587 32.0645 76.0909 31.8249 76.0909 31.8249C76.5733 32.1073 76.9897 32.3469 77.2309 32.3698H79.5126C79.8183 32.3698 80.1254 32.3698 80.5419 32.1729C80.7186 32.1073 80.74 31.8889 80.8063 31.8676L81.3763 32.1073C81.6121 32.2131 81.8638 32.2796 82.1213 32.3042C82.4286 32.3042 82.6913 32.1942 82.9326 32.1302L83.4364 32.0645C83.5471 32.0187 83.8097 31.9316 84.0082 31.9545H84.512C85.5197 31.8889 86.2666 30.4283 86.288 29.8209C86.288 29.3186 86.0254 28.8181 85.6734 28.4916C85.4107 28.1223 84.973 27.9252 84.578 27.8811C84.3137 27.8811 84.0726 27.9467 83.8313 28.0123C83.7007 28.0549 83.2183 28.1223 83.2183 28.1223C82.8236 28.0763 81.6174 28.0763 81.0689 27.9252C80.4543 27.6856 79.7306 27.0539 79.3589 26.6844C79.1606 26.2463 79.2927 25.1811 79.3589 24.5919C79.3589 24.3523 79.425 24.1995 79.425 23.9814L79.468 23.3511C79.534 22.5435 79.5768 21.0418 79.5768 21.0418C79.5768 21.0418 79.5768 20.5838 79.534 20.4755C79.534 20.3442 79.468 20.2146 79.468 20.149C79.468 20.0177 79.2713 19.0805 79.6432 18.8425C79.8843 18.6455 79.8183 18.3189 80.0826 18.1006C80.9153 17.4901 81.2654 17.1421 81.6603 16.2706C81.8371 15.9013 82.0551 15.3352 82.0551 15.3352C82.2534 15.0954 83.1523 14.5293 83.7223 14.0269C83.985 13.6577 84.0957 13.6346 84.3583 13.4608C84.6657 13.1983 85.0374 13.1555 85.0374 13.1555L85.1696 13.4821C85.1696 13.6577 85.1034 13.8088 85.0374 13.94C84.7963 14.5063 84.7317 14.8756 84.7317 15.1808C84.6871 15.944 85.8717 17.4901 86.5507 17.8841C86.858 18.0564 87.1869 18.1433 87.4943 18.186L87.6263 18.2533C87.8676 18.4502 88.0643 18.6456 88.393 18.6456C88.6557 18.6456 89.0076 18.4715 89.2257 18.186C89.4669 17.925 89.7311 18.186 89.8617 17.925C89.8617 17.925 90.169 17.5345 90.4763 17.4032C90.7837 17.229 91.0017 17.0748 91.243 16.7712C91.6377 16.3807 91.77 15.8144 91.77 15.4419ZM70.1497 29.7551C70.1497 27.7298 68.5057 27.5985 67.4963 27.5329C67.189 27.4902 66.8603 27.4902 66.7511 27.4246C66.4223 27.2933 66.1366 27.0322 66.1366 26.7926C66.1366 26.7926 66.2454 26.2921 66.3117 26.0294C66.4869 25.3547 66.3777 25.0284 66.3777 24.8313C66.3777 24.5704 66.4867 24.265 66.3117 23.8301C66.2687 23.6989 66.2456 23.5692 66.2026 23.5036C66.2026 23.5036 66.2687 23.2425 66.3117 23.0456C66.3777 22.8502 66.4223 22.6533 66.4223 22.4351C66.4223 22.0657 66.2903 21.6948 66.158 21.3681C66.115 21.26 66.0934 21.1729 66.049 21.1073L66.006 20.5837C66.049 20.454 66.049 20.454 66.049 20.1913C66.049 19.9961 66.006 19.5168 66.115 19.3199C66.1811 19.2116 66.224 19.0803 66.2903 18.9932C66.4653 18.7324 66.6636 18.3615 66.6636 18.0579C66.6636 18.0579 66.9047 14.5931 66.9047 14.2895V14.0498C66.9477 13.4393 66.9477 12.7418 66.8603 12.2411V12.3723C66.8603 12.0442 66.728 11.8046 66.619 11.6306L66.576 11.2382C66.5314 10.5636 66.5314 9.80054 65.9614 9.47403C65.3253 9.08169 64.2067 8.97353 63.944 8.97353C63.7457 8.97353 63.5493 9.01753 63.308 9.03898C63.1328 9.03898 63.0007 8.99461 62.9132 8.99461C62.9132 8.99461 62.6504 8.92898 62.4753 8.86499C62.0357 8.62538 61.7731 8.49411 61.5106 8.49411C61.246 8.49411 61.1817 8.77809 60.9406 8.90771C60.8083 8.95208 60.3257 8.79954 60.3043 8.79954L59.7343 8.66809C59.361 8.55993 59.1627 8.49411 58.966 8.49411C58.0227 8.49411 55.8517 10.8246 55.8517 11.8489C55.8517 12.2413 56.0269 12.6121 56.3571 12.9387C56.9917 13.5706 58.0229 13.8742 58.5283 13.8742C58.9 13.8742 59.2735 13.7002 59.361 13.7002L60.1937 14.1795L60.501 14.2451C60.6993 14.3107 60.8083 14.3534 61.0049 14.3534C61.1156 14.3978 61.4443 14.4191 61.5104 14.4634L61.7517 14.9198C61.7517 14.9198 61.7946 15.2906 61.3123 15.5515L61.071 15.6828L60.962 15.9439C60.8297 16.51 61.0924 17.0123 61.2907 17.339C61.3567 17.4472 61.4873 17.7739 61.4873 17.8395L61.3121 18.6011C61.2032 18.9934 61.1156 19.4298 61.137 19.8648L61.3997 20.5409C61.4657 20.6707 61.598 20.9333 61.598 20.9333C61.598 20.9333 61.071 22.806 60.6546 23.5249C60.2813 24.201 59.7773 24.7886 59.2734 25.4205C58.966 25.7898 58.6373 26.1821 58.33 26.5957C58.0887 26.9666 57.4527 27.8382 57.0148 27.8382H56.8827C55.6337 27.8382 55.2157 27.7725 55.2157 27.7725C54.5151 27.4458 54.0327 26.8797 53.4627 26.1394L53.418 26.095C53.0893 25.6602 53.1554 24.265 53.1769 23.6332C53.1769 23.3936 53.2214 23.1113 53.243 22.806C53.352 22.0001 53.3751 21.5421 53.286 21.2156V21.15C53.1554 20.8233 52.9803 20.628 52.848 20.4753C52.7392 20.3671 52.7392 20.3671 52.7392 20.2357C52.7392 20.0617 53.1107 18.5796 53.1107 18.5796C53.1554 18.5796 53.4843 18.1448 53.5057 18.1219L53.6809 17.5999C53.7916 17.229 53.4843 16.9236 53.2216 16.5758C53.0893 16.4016 52.9803 16.2064 52.9143 16.0753L52.848 15.8142V15.0083C52.848 14.3978 52.9571 14.2007 53.0893 13.9186C53.2646 13.6131 53.4627 13.2423 53.4627 12.5463C53.4627 12.0229 53.352 11.1086 53.0679 10.7165C52.9357 10.5194 52.8034 10.4767 52.6283 10.3241C51.751 9.36568 50.7217 8.75499 49.5371 8.75499C49.3389 8.75499 49.1423 8.82081 48.7689 8.88644C48.6383 8.92898 48.4849 9.21296 48.3971 9.21296L47.6291 8.84226C47.168 8.71264 46.9269 8.64701 46.7302 8.64701C46.4229 8.64701 44.5592 9.32149 44.5592 10.39C44.5592 10.7592 44.5148 11.2828 44.4504 11.6964C44.4056 12.0231 44.4056 12.1969 44.4056 12.3069C44.4056 12.7419 44.6469 13.1997 45.1078 13.6791C45.5688 14.1796 46.4445 14.746 47.0805 14.746C47.4092 14.746 47.6075 14.6162 47.7612 14.5063C47.9364 14.398 48.3742 15.3992 48.3742 17.4688L48.4402 18.5373C48.4849 19.2989 48.5509 19.9306 48.5509 19.9306C48.5064 19.975 48.4849 20.1702 48.4402 20.1917C48.3742 20.3673 48.3314 20.5182 48.3314 20.8022V24.7231C48.3314 25.1597 48.5939 25.3995 48.5939 25.6603L48.7691 26.1608C48.8352 26.4663 48.9672 26.9241 48.9672 26.9241C48.9672 26.9668 51.3135 32.3911 53.7041 32.3911C53.9008 32.3911 54.1635 32.3469 54.383 32.3256C54.4922 32.2829 54.6458 32.0202 54.7119 32.0202C54.7119 32.0202 54.9532 32.3469 55.0852 32.3912C55.3926 32.4994 55.6552 32.5865 55.8965 32.5865C56.1592 32.5865 56.4219 32.4783 56.7292 32.3912C56.8615 32.3469 57.0365 32.2598 57.1026 32.2598L57.5405 32.3698C57.8048 32.4354 58.0459 32.4996 58.2426 32.4996C58.5499 32.4996 58.7037 32.4996 58.9448 32.3912L59.0538 32.2829C59.3165 32.086 59.6685 31.8906 59.9972 31.6724C60.392 31.4113 60.962 30.9748 60.962 30.9748C61.2032 30.8006 61.7072 30.5825 61.8609 30.3658C61.9699 30.2345 62.0361 30.3001 62.0361 30.3001C62.0361 30.3001 62.1682 30.4743 62.2112 30.6268C62.2772 30.8008 62.3218 30.9321 62.3879 31.0192L62.4969 31.193L62.6292 31.2588C62.8258 31.367 63.4404 31.454 63.6369 31.5853C64.4696 32.0202 64.7339 32.1073 64.9092 32.1073C65.1058 32.1073 65.3701 32.0431 65.4345 31.9989L66.1152 32.2385C66.7282 32.4354 66.9479 32.5438 67.1462 32.5438C67.7162 32.5438 67.8468 32.2598 68.4168 31.564L68.7901 31.5197C68.7901 31.5197 68.9222 31.2588 69.0312 31.2588C69.4262 31.2588 69.6675 31.0617 69.7995 30.8877C69.9962 30.6054 70.1498 30.256 70.1498 29.7553L70.1497 29.7551ZM21.1322 27.2654C21.098 27.2464 21.0641 27.2267 21.0306 27.2064C20.7017 27.0308 20.591 27.2918 20.3069 27.1408C19.9334 26.9651 19.8674 27.0766 19.6707 27.1178C19.1883 27.2064 19.4512 27.2918 19.1437 27.4675C18.7934 27.6644 18.7489 28.1632 18.7489 28.1632C18.7489 28.1632 18.0913 28.5572 18.0483 27.858L17.85 27.3377C17.7412 26.9651 17.3463 26.6403 17.5427 26.509L17.9377 25.7687C17.9823 25.5076 18.136 25.3107 18.0697 25.0267C17.9377 24.7888 17.8716 24.5033 17.8286 24.395C17.8286 24.395 17.675 23.8516 17.741 23.7434C17.9163 23.4823 18.0697 23.4823 18.0697 23.2182C18.0037 22.6962 17.9377 22.327 18.136 21.7805C18.3112 21.4127 17.9607 20.7809 17.9607 20.7809C18.0697 20.1704 18.3326 20.2573 18.2896 19.2758C18.245 18.8853 18.4863 18.5125 18.1789 18.1662C18.1789 18.1662 18.0037 17.9693 18.0697 17.9037L18.2898 17.4901C18.3542 17.2292 18.3328 16.9238 18.2005 16.5956L18.0039 16.3347L18.0255 15.944C18.1575 15.5748 18.0699 15.2694 18.0699 14.9856C17.9825 14.2453 17.0836 12.6123 17.0836 12.6123C16.8425 12.3496 16.7549 12.0231 16.5136 11.8475C16.3369 11.762 16.1188 11.7408 16.0956 11.6751C16.0312 11.6537 16.0081 11.3895 16.0081 11.3255C15.8329 11.0203 15.6364 10.8036 15.2629 10.6508C15.2629 10.6508 14.7591 10.3685 14.5178 10.3456C14.3426 10.3243 14.1445 10.2783 14.0124 10.2143L13.7711 10.0174C13.6405 9.77946 13.3992 9.69073 13.0919 9.62693C13.0919 9.62693 12.7186 9.56111 12.3898 9.58403C12.1932 9.58403 11.9951 9.51839 11.8198 9.56111C11.7538 9.60548 11.7108 9.60548 11.6892 9.60548L11.2712 9.45111C10.9211 9.25751 10.7675 9.23294 10.5048 9.25751C10.0652 9.25751 9.91154 9.58403 9.62747 9.82364C9.56124 9.88781 8.96984 9.88781 8.88222 9.86636C8.70698 9.84509 8.61788 9.79908 8.37679 9.82364C8.1355 9.82364 7.96045 9.86636 7.4349 10.1043C7.23679 10.1716 6.82045 10.1716 6.82045 10.1716C6.82045 10.1716 6.51313 10.2143 6.38252 10.1914C6.11818 10.1291 5.65886 10.0403 5.46056 10.0403C5.08886 10.0403 4.95679 10.5179 4.40818 10.7806C4.27592 10.8906 4.03483 10.8479 3.85958 10.9563C3.79354 10.9988 3.66313 11.3699 3.5969 11.4141C3.0269 11.8277 2.89483 12.394 2.41245 12.3283C2.32483 12.3283 1.90849 12.5892 1.84245 12.6532C1.4475 13.0045 1.18483 13.4395 1.18483 13.4395C0.922146 13.7857 0.746903 14.3749 0.746903 14.6589C0.746903 14.7032 0.723845 14.8968 0.723845 14.9641C0.723845 15.9013 0.746903 17.034 1.05256 17.7314C1.27245 18.2977 2.4569 19.1691 3.06988 19.1461C3.24679 19.1461 3.28958 18.9934 3.46464 18.9934C3.64173 18.9934 3.77215 18.8638 3.85958 19.0805C3.85958 19.0805 4.03483 19.1461 4.12392 19.1691C4.38679 19.2332 4.62788 19.2989 4.82452 19.2758C5.35154 19.2545 6.25045 18.2089 6.2949 17.8397C6.38252 17.2948 6.47015 16.402 6.4469 16.1409C6.4469 15.7471 6.22886 15.4861 6.09679 15.3563C5.96452 15.2023 5.90015 15.2023 5.8769 14.9641C5.8769 14.6589 6.14124 14.5293 6.16283 14.4849L7.06154 14.178C7.4349 14.178 8.22479 14.7443 8.48747 14.4422C8.48747 14.4422 8.72856 14.3749 8.81618 14.4422C9.18788 14.7032 9.05747 14.8756 9.4952 14.8558C9.73649 14.8558 10.2189 14.7032 10.5922 14.4849L10.987 14.5063C11.2284 14.636 11.0748 14.7689 11.3375 14.8329C11.6001 14.897 11.9735 14.9412 12.2362 14.9856L12.7416 14.8756C13.4422 15.1808 13.4208 16.1624 13.4869 16.7071C13.4869 16.9681 13.2456 18.2089 13.1795 18.7965L12.8062 18.9722C12.5649 19.233 12.1486 18.8194 11.9949 18.8194C11.6662 18.8194 11.5572 18.8425 10.6798 19.5154L10.2189 19.691C9.89015 19.8206 9.84717 19.8421 9.67045 20.0815C9.60588 20.1261 9.21113 19.8421 9.21113 19.8421C8.74996 19.6041 8.31222 20.2146 8.04788 20.2146C7.14916 20.2146 7.17056 19.929 6.66679 20.5411C6.66679 20.5411 5.57124 20.6053 5.43917 20.6478C4.99958 20.8235 4.91215 20.6053 4.34215 20.8678C3.79354 21.1287 3.90422 21.5194 3.77215 21.5867C3.81679 21.5867 3.42184 21.4341 3.42184 21.4341C3.3772 21.4341 3.22354 21.4783 3.11452 21.4783C2.78581 21.5194 2.17117 22.1072 2.17117 22.1072C1.09702 22.632 0 25.3318 0 25.8129C0 26.0738 0.11068 26.3577 0.219699 26.6186C0.328718 26.8139 0.0876214 26.9862 0.132262 27.1635C0.132262 27.3589 0.175058 27.62 0.175058 27.8578C0.219699 28.163 0.219699 28.4241 0.241282 28.6654C0.241282 28.6654 0.57 29.7322 1.05238 29.9947L1.3597 30.1689C1.47038 30.2343 1.79928 30.4739 1.79928 30.4739C2.10494 31.0403 2.4997 31.4982 2.89464 31.6706C3.22336 31.8035 3.46464 31.6491 3.79336 31.6935C4.10068 31.7576 4.49562 32.13 4.49562 32.13C4.6063 32.1942 4.7583 32.3042 4.89038 32.3911C5.50502 32.7816 5.85514 32.9999 6.20562 32.9999C6.57898 32.9999 6.84166 32.8276 7.14898 32.6749C7.19362 32.6307 7.85106 32.4336 7.89422 32.4336L10.2849 32.3236C10.3509 32.3236 10.483 32.3236 10.6583 32.3696C10.8333 32.4123 11.03 32.4338 11.1836 32.4338C11.6446 32.4338 11.9517 32.2596 12.127 32.194L12.4343 31.9544C12.5647 31.7804 12.8291 31.5639 12.9383 31.5195L13.2454 31.4522C13.5743 31.388 14.012 31.3226 14.3426 30.9975V31.0403C14.6053 30.799 14.7803 30.5379 14.8464 30.4083C14.8464 30.4083 15.4164 30.5379 15.6791 30.7136L16.008 31.1042C16.14 31.3011 16.3153 31.5639 16.535 31.7378C17.171 32.1302 17.566 32.3465 18.0697 32.3465C18.2664 32.3465 19.1009 32.304 19.2097 32.2827L19.7137 32.1514C20.021 32.2827 20.0426 32.3911 20.2407 32.3911C20.5294 32.3911 20.9118 32.0882 21.1193 31.9228C21.3208 31.8961 21.5519 31.8504 21.731 31.7787C21.8633 31.7147 22.1258 31.6491 22.192 31.6047L22.653 31.8018C22.7834 32.0627 23.0907 32.1711 23.266 32.1711C23.4643 32.1283 23.5303 32.2154 23.7714 32.1069C23.8806 32.0629 24.2969 31.9314 24.4076 32.0414C24.9114 32.3023 25.1743 32.4763 25.4814 32.4763C25.678 32.4763 25.8763 32.3681 26.2927 32.2367C26.4249 32.1711 26.6874 32.0627 26.7537 32.0414C26.7537 32.0414 26.9503 32.1496 27.3237 32.1711C28.5066 32.3023 28.9014 32.3467 29.0337 32.3467C29.2303 32.3467 29.4284 32.3023 29.7357 32.2154C29.802 32.1711 30.0646 32.1071 30.0646 32.1071C30.0646 32.1071 30.8313 32.2367 31.1386 32.2811C31.8407 32.455 31.7531 32.5207 31.8837 32.5207C32.0604 32.5207 32.2784 32.4107 32.784 32.2154C32.9807 32.1498 33.6829 32.0413 33.6829 32.0413C33.858 32.1071 34.0546 32.1711 34.2957 32.1711C34.6031 32.1711 34.8676 31.9971 35.1087 31.7362C35.1517 31.6918 35.2177 31.6278 35.2393 31.562L35.4804 31.6706C35.6126 31.9314 35.9415 32.0414 36.1166 32.0414C36.3131 31.9971 36.5774 32.0842 36.8187 31.9758C36.8187 31.9758 37.126 31.8016 37.2134 31.9102C37.7174 32.1711 37.9803 32.3465 38.2874 32.3465C38.484 32.3465 38.6823 32.2367 39.0987 32.1071C39.2309 32.0414 39.5597 31.9314 39.6257 31.9102C39.6257 31.9102 40.3923 32.0183 40.7657 32.0414C41.9503 32.1711 42.3436 32.2154 42.4757 32.2154C42.674 32.2154 42.8705 32.1711 43.178 32.0842C43.244 32.0414 43.5067 31.9758 43.5067 31.9758C43.5067 31.9758 44.2733 32.1071 44.5806 32.1498C45.2827 32.3238 45.1953 32.3894 45.3259 32.3894C45.5026 32.3894 45.7206 32.2811 46.2261 32.0842C46.4227 32.0183 47.125 31.91 47.125 31.91C47.3002 31.9758 47.4967 32.0414 47.738 32.0414C48.0453 32.0414 48.3096 31.8673 48.5507 31.6047C49.0763 31.1699 49.4712 30.2541 49.4712 29.8191C49.4712 29.079 49.2744 28.5554 48.8564 28.163C48.2434 27.5542 48.156 27.7707 47.6734 27.5313L46.598 27.5754C46.3353 27.5754 45.6332 27.7069 45.1506 27.8365C45.1506 27.8365 44.7559 28.0105 44.6253 28.0761C44.5591 28.1205 44.1213 27.9678 44.1213 27.9678C43.748 27.8365 43.7909 27.7282 43.5943 27.7282H42.9797L42.5203 26.9222C42.322 26.1165 42.5849 25.6798 42.5633 25.4189L42.6954 24.4161C42.892 23.7414 43.0027 23.4576 43.0027 23.2409C43.0027 22.8486 42.8706 22.5648 42.7384 22.4351C42.674 22.2381 42.5631 22.0641 42.8046 21.0612C42.8706 20.7576 42.7616 20.1684 42.7616 20.1684C42.7616 20.1028 42.6509 19.7992 42.6294 19.7335C42.5203 19.5366 42.3883 19.1672 42.3667 19.0574L42.5633 18.5355C42.7386 18.035 42.8706 17.7722 42.8706 17.5112C42.8706 17.1403 42.7384 16.9007 42.5633 16.6398C42.4327 16.3131 42.256 15.8995 42.256 15.0067C42.213 14.8327 42.3006 13.7642 42.256 12.8057L42.3006 11.4124C42.3006 11.4124 42.4097 11.1726 42.4973 11.0413C42.608 10.8017 42.7384 10.5408 42.8046 10.2141C42.8706 9.84326 42.8491 9.45093 42.8046 9.12441C42.7616 8.95024 42.7616 8.66644 42.7616 8.66644C42.8046 8.40556 42.9369 8.05759 43.0903 7.77361C43.3977 6.90204 43.5283 6.59844 43.5283 6.33591C43.5283 6.07484 43.353 5.76959 43.0243 5.31163C42.9583 5.18201 42.8491 4.98511 42.826 4.92113C42.826 4.92113 42.6954 4.22354 42.5847 3.78703C42.4097 3.15508 42.256 2.52478 42.1916 1.95699L42.147 1.76156L42.0147 1.63029C41.9059 1.56631 41.3359 0.955626 40.8087 0.955626C40.4139 0.998343 40.3047 0.955626 39.976 1.26106H39.5383C39.5383 1.26106 39.3614 0.955809 38.9236 0.955809C38.5947 0.955809 38.1553 0.890176 38.0247 1.02144L37.2136 1.08708C36.6436 0.758909 36.599 0.716193 36.3131 0.716193C36.1166 0.716193 35.9843 0.781826 35.8537 0.824359L35.2837 0.563476C34.7783 0.258226 34.537 0.171143 34.319 0.171143C32.9377 0.215509 31.9283 2.63313 31.9729 3.69994C31.9729 5.26909 32.9146 5.76978 33.6383 6.20611C33.749 6.20611 34.2083 6.14048 34.2957 6.20611C34.362 6.24883 34.4494 6.64116 34.5156 6.74951C34.7567 7.01204 34.9766 6.92514 35.1963 6.94641C35.1963 6.94641 35.2177 6.85933 35.459 6.79369C35.459 6.79369 36.095 7.18603 36.4237 7.18603C36.7526 7.18603 36.7956 6.92514 37.06 6.72806L37.2566 7.12039C37.3226 7.36001 37.3673 7.62089 37.4547 7.88361C37.4547 7.88361 37.7174 8.55828 37.9587 8.88461L38.1339 9.32131C38.0247 9.51656 37.7174 9.71181 37.7174 9.97453C37.7174 10.1485 37.9373 10.4094 37.9803 10.5834C38.0247 10.7805 38.0247 11.0857 38.0247 11.2153L37.8497 11.6518C37.6729 11.8915 37.5853 12.1523 37.5853 12.4134C37.5853 12.937 37.914 13.285 38.1123 13.5033C38.2876 13.6986 38.3536 13.7642 38.3536 13.9382C38.3536 13.9382 38.2429 14.2434 38.1784 14.3962C38.1123 14.6358 38.0017 14.8539 38.0017 15.0937C37.8711 15.6599 37.9587 16.2689 38.0677 16.684C38.0677 16.7923 38.2429 17.4899 38.2429 17.5555L38.1784 19.0803C38.1784 19.3839 38.1337 19.6465 38.1337 19.9075C38.0887 20.181 38.0666 20.4577 38.0677 20.7347C38.0017 21.1927 37.9373 21.6719 37.9373 22.1299L38.375 22.5433C38.4411 22.6748 38.1123 23.0884 38.1123 23.1538C38.1123 23.2623 38.2214 23.4805 38.1123 23.6545C38.0351 23.8819 37.9765 24.1152 37.9371 24.3521C37.9371 24.7426 37.8926 25.158 37.8711 25.5272C37.8266 25.7898 37.805 26.0508 37.805 26.2248C37.805 26.3988 37.5637 26.5957 37.5637 26.7482C37.5193 26.9879 37.4977 27.4229 37.3887 27.5098L36.8187 27.3146C36.2487 27.1177 36.1166 27.2489 35.92 27.2489C35.8093 27.2489 35.4804 27.1177 35.3053 27.1389C34.8443 27.2046 34.494 27.3146 34.362 27.3146C34.362 27.3146 34.2314 27.2702 34.0993 27.2046C33.7043 27.1389 33.5293 27.1389 33.331 27.1389C32.6964 27.1389 32.2356 27.4671 31.9283 27.9021C31.8623 27.9021 31.796 27.9021 31.7317 27.9465C31.7317 27.9465 31.3369 28.1205 31.2046 28.1861C31.1386 28.2287 30.7007 28.0761 30.7007 28.0761C30.3273 27.9465 30.372 27.8365 30.1737 27.8365H29.5607L29.2963 27.0306C29.0551 26.2248 29.1657 25.7898 29.1211 25.5272L29.2534 24.5261C29.45 23.8497 29.5607 23.5676 29.5607 23.3492C29.5607 22.9569 29.4286 22.6746 29.3194 22.5433C29.2087 22.3481 29.1213 22.1724 29.3624 21.1712C29.4286 20.866 29.3194 20.2784 29.3194 20.2784C29.3194 20.2128 29.2087 19.9075 29.1873 19.8419C29.0783 19.6465 28.946 19.2756 28.9246 19.1672L29.1657 18.6438C29.2963 18.1431 29.4286 17.8822 29.4286 17.6195C29.4286 17.2503 29.2963 17.0107 29.1657 16.7481C28.989 16.4214 28.837 16.0078 28.837 15.115C28.837 14.941 28.88 13.8742 28.88 12.9157V11.5206C28.88 11.5206 28.989 11.281 29.0783 11.1497C29.1871 10.9101 29.3194 10.6492 29.384 10.3225C29.45 9.95161 29.4286 9.56093 29.384 9.23276C29.341 9.05859 29.341 8.77626 29.341 8.77626C29.384 8.51373 29.5162 8.16576 29.6697 7.88343C29.977 7.01204 30.1076 6.70679 30.1076 6.44573C30.1076 6.18319 29.9324 5.87794 29.6483 5.42163C29.5376 5.29036 29.45 5.09511 29.407 5.02929C29.407 5.02929 29.2749 4.33189 29.1657 3.89684C28.989 3.26508 28.837 2.63313 28.771 2.06681L28.7263 1.86991L28.5957 1.74029C28.4851 1.67466 27.9151 1.06416 27.3897 1.06416C26.9949 1.10834 26.8843 1.06416 26.5554 1.36941H26.1176C26.1176 1.36941 25.9424 1.06416 25.503 1.06416C25.1743 1.06416 24.7363 0.998343 24.6043 1.12979L23.793 1.19543C23.223 0.868726 22.9603 0.824543 22.653 0.824543C22.4547 0.824543 22.2796 0.890176 22.1475 0.934543L21.5344 0.671826C21.0074 0.368226 20.7663 0.279493 20.525 0.279493C19.0563 0.323859 17.5427 2.74148 17.5643 3.80994C17.6089 5.37744 18.5737 5.87794 19.342 6.31446C19.451 6.31446 19.9334 6.53263 20.0426 6.59679C20.1086 6.64116 20.1086 6.77243 20.1747 6.88078C20.416 7.14166 20.6126 7.16476 21.052 7.16476C21.4237 7.16476 21.5774 6.83659 21.8186 6.77243C21.8186 6.77243 22.4117 7.29438 22.7834 7.29438C23.1123 7.29438 23.3534 7.03331 23.6177 6.83641L23.8144 7.22874C23.8806 7.46836 23.9251 7.73108 24.0127 7.99196C24.0127 7.99196 24.2754 8.66644 24.5166 8.99296L24.6919 9.42966C24.5827 9.62491 24.2969 9.82199 24.2969 10.0829C24.2969 10.2569 24.4951 10.5194 24.538 10.6934C24.5827 10.8888 24.6043 11.1939 24.5827 11.3253L24.4074 11.7602C24.2307 11.9998 24.1433 12.2607 24.1433 12.5234C24.1877 13.0454 24.472 13.3933 24.6703 13.6117C24.8455 13.8086 24.9114 13.8742 24.9114 14.048C24.9114 14.048 24.8007 14.3518 24.7363 14.5045C24.6703 14.7441 24.6043 14.9623 24.5596 15.2019C24.429 15.7682 24.5166 16.3789 24.6703 16.7923C24.6703 16.9007 24.8007 17.5983 24.8007 17.6639L24.7363 19.1887C24.7363 19.4939 24.6917 19.7548 24.6917 20.0159C24.6467 20.2898 24.6246 20.567 24.6257 20.8445C24.5596 21.301 24.4951 21.7803 24.4951 22.2381L24.8669 22.6517C24.933 22.7829 24.6487 23.1965 24.6487 23.2622C24.6487 23.3705 24.7577 23.5889 24.6487 23.7628C24.5827 23.9597 24.5166 24.1994 24.5166 24.4604C24.472 24.8528 24.4506 25.2662 24.4076 25.6372C24.363 25.8981 24.3414 26.159 24.363 26.333C24.3205 26.5044 24.2983 26.6801 24.2969 26.8566C24.254 27.0962 24.0343 27.5313 23.9251 27.6182L23.3106 27.4229C22.8494 27.2275 22.7406 27.3573 22.5654 27.3573C22.4547 27.3573 22.192 27.2275 22.0599 27.2489C21.688 27.3146 21.7543 27.4229 21.688 27.4229C21.688 27.4229 21.556 27.3785 21.4237 27.3146C21.3272 27.2945 21.23 27.278 21.1322 27.2651V27.2654ZM107.142 14.1796C107.69 14.4405 107.756 15.1596 107.756 15.683C107.756 16.2049 107.449 16.4445 107.186 16.9469C106.922 17.4474 106.44 17.2292 106.177 17.3605C105.234 17.7528 104.16 17.9481 103.743 17.9481C103.479 17.9481 102.209 17.4261 101.923 17.4261C101.594 17.4261 101.156 17.687 100.827 17.687C100.563 17.687 99.9929 17.2947 99.6854 17.2947C99.3567 17.2947 98.5026 17.5345 98.1737 17.5345C97.4056 17.5345 97.2304 17.2734 97.2304 16.7285C97.2304 16.1837 97.7343 14.9641 98.6777 14.7032C98.9404 14.5932 99.5104 14.8114 99.8623 14.5276C99.9929 14.3536 100.104 13.7004 100.475 13.5264C101.31 13.0028 103.129 12.5023 103.436 12.5023C103.809 12.5023 104.313 12.8947 104.685 13.177C104.949 13.2424 105.3 13.1341 105.519 13.2424C105.98 13.4821 106.681 13.9613 107.142 14.1796ZM13.9246 23.6334L13.7494 25.268C13.7494 25.5931 12.9383 25.7685 12.5647 26.0952C12.302 26.2267 11.6891 26.6615 11.6891 26.6615C11.5123 26.7715 11.2283 26.9651 10.4384 28.2961C10.3937 28.4045 10.1757 28.5572 10.1097 28.5572C10.065 28.5572 9.91136 28.5145 9.78094 28.4916C9.51826 28.4472 9.01264 28.4243 8.8374 28.4243C8.64094 28.4243 8.2674 28.5359 7.6974 28.6885C7.52234 28.7295 7.41166 28.9495 7.30264 28.9937C7.25966 28.9264 6.71106 28.8181 6.64502 28.7755C6.14106 28.4474 6.38234 28.4474 5.96434 28.4474L5.28532 28.2961C4.91196 28.1223 4.8474 27.7513 4.49562 27.3147C4.3866 27.2066 4.51702 26.8372 4.3866 26.7468C4.21136 26.6188 4.51702 26.4203 4.51702 26.1806C4.51702 26.1806 4.32038 25.8341 4.7583 25.3995C5.06562 24.9613 5.13166 24.7659 5.13166 24.7659L5.65868 24.7888C5.65868 24.7888 5.9874 24.5033 6.0966 24.4606L6.95234 24.157C7.19362 23.9814 7.32404 23.8516 7.4563 23.7647C7.52234 23.7647 7.6974 23.6974 8.07094 23.6974C8.33362 23.6974 8.5963 23.3954 8.90362 23.4363C8.90362 23.4363 9.84698 23.5463 10.2417 23.5463C10.635 23.5463 11.8197 23.2427 12.8506 22.8489C12.9597 22.7848 13.1794 22.7406 13.2454 22.7191C13.3546 22.7635 13.442 22.6518 13.442 22.6766C13.6189 22.7191 13.7064 22.6322 13.7494 22.7406C13.7494 22.7406 13.8816 23.1311 13.9246 23.6334Z" fill="white"/>
</g>
<defs>
<clipPath id="clip0_305_2593">
<rect width="114" height="33" fill="white"/>
</clipPath>
</defs>
</svg>
