<svg width="117" height="32" viewBox="0 0 117 32" fill="none" xmlns="http://www.w3.org/2000/svg">
<g clip-path="url(#clip0_305_2619)">
<path d="M116.382 25.4576C110.609 31.7953 103.177 29.067 102.802 19.9833H116.647C117.132 16.0223 115.544 8.01113 107.599 8.01113C101.023 8.01113 96.9189 13.3964 96.9189 19.8053C96.9189 26.7038 101.597 32 107.776 32C111.263 32 115.235 29.5077 117 26.2142L116.382 25.4576ZM107.07 10.1919C109.321 10.1919 110.689 13.0403 110.865 18.025H102.824C103.093 13.4898 104.815 10.1919 107.07 10.1919ZM17.5213 15.3547V15.2656C21.0079 14.2865 23.7884 11.6161 23.7884 7.8331C23.7884 3.5605 20.2576 0.400556 13.6375 0.400556H0.0441343V1.82476C2.73633 2.04729 3.04527 2.18081 3.04527 3.69402V28.3505C3.04527 29.8192 2.73633 29.9527 0 30.1307V31.5549H14.9174C21.5375 31.5549 25.1124 28.2615 25.1124 23.5438C25.1124 19.9388 23.0381 16.5563 17.5213 15.3547ZM9.44474 2.26982H12.49C15.9766 2.26982 17.3006 4.89569 17.3006 8.23366C17.3006 11.9277 15.6677 14.3755 12.1369 14.3755L9.44474 14.331V2.26982ZM18.3157 23.5438C18.3157 26.7038 17.3006 29.7302 12.9755 29.7302H9.44474V16.4673H12.2693C16.5062 16.4673 18.3599 19.2267 18.3157 23.5438ZM57.507 12.5063C57.507 10.3255 59.493 9.12378 61.3908 9.12378C63.6416 9.12378 65.9808 10.7705 66.5104 14.1975H67.9668L67.5696 8.41168C65.6718 7.56606 62.8914 7.03199 60.5081 7.03199C54.9913 7.03199 52.1226 9.79138 52.1226 13.3964C52.1226 21.6745 63.6416 21.8081 63.6416 26.7038C63.6416 28.8846 61.6556 29.9527 59.5813 29.9527C57.1539 29.9527 54.1969 28.484 53.2701 23.2768H51.9019L52.4315 30.4423C54.241 31.3324 57.198 32 60.0226 32C65.6718 32 69.2026 29.3741 69.2026 25.1905C69.2026 17.58 57.507 17.4465 57.507 12.5063ZM48.2829 26.6147V7.65508H47.5768L38.7499 9.61335V10.904C41.8393 11.1266 42.1482 11.2601 42.1482 12.9513V25.7246C41.0449 26.7483 38.794 27.9499 36.808 27.9499C34.7778 27.9499 34.3365 26.7038 34.3365 24.701V7.65508H33.6303L25.6862 9.61335V10.8595C27.8929 11.0821 28.2018 11.2156 28.2018 12.9513V25.3686C28.2018 30.2197 30.9381 32 33.9834 32C37.5141 32 40.5153 29.5967 42.1482 27.3713H42.3689V31.911H43.1192L50.4455 30.0417L50.269 28.8401C49.0773 28.9736 48.2829 28.128 48.2829 26.6147ZM81.2071 29.1071C79.6183 29.1071 78.8238 27.8164 78.8238 25.235V10.6815H84.1641V8.41168H78.8238V1.69124H77.235C76.6613 4.2726 74.6311 8.10014 69.688 9.03477V10.726H72.6892V26.7038C72.6892 30.4423 74.6311 32 78.2942 32C80.854 32 82.6194 31.2434 84.473 28.5285L83.5462 27.5494C82.7077 28.573 82.0898 29.1071 81.2071 29.1071ZM93.7854 28.4395V0H93.0792L84.2524 1.95828V3.24896C87.3418 3.47149 87.6507 3.60501 87.6507 5.29624V28.4395C87.6507 29.9082 87.3418 30.0417 85.4881 30.2643V31.5549H95.9038V30.2643C94.0943 30.0417 93.7854 29.9082 93.7854 28.4395Z" fill="white"/>
</g>
<defs>
<clipPath id="clip0_305_2619">
<rect width="117" height="32" fill="white"/>
</clipPath>
</defs>
</svg>
