<svg width="31" height="33" viewBox="0 0 31 33" fill="none" xmlns="http://www.w3.org/2000/svg">
<g clip-path="url(#clip0_177_4488)">
<path d="M30.9424 1.3917C30.1487 -3.59014 22.8872 6.26116 21.473 8.12251C19.115 11.2228 16.8436 14.2828 15.0398 17.7548C14.3673 19.0457 10.4652 28.5685 9.14051 28.58C8.2487 28.5887 3.31917 11.851 0.0867005 16.7665C-0.533819 17.7116 2.48508 20.2645 2.83142 20.8263C4.68143 23.8172 5.67715 27.56 7.30493 30.7238C9.00198 34.0229 9.68311 33.8039 12.4336 29.6634C14.6761 26.2894 16.8176 22.849 19.0602 19.4836C20.9015 16.7233 31.8948 4.38253 30.9424 1.39746C30.9251 1.29085 30.9626 1.45797 30.9424 1.39746V1.3917Z" fill="black"/>
</g>
<defs>
<clipPath id="clip0_177_4488">
<rect width="31" height="33" fill="white"/>
</clipPath>
</defs>
</svg>
