<?xml version="1.0" encoding="utf-8"?>
<!-- Generator: Adobe Illustrator 27.8.1, SVG Export Plug-In . SVG Version: 6.00 Build 0)  -->
<svg version="1.1" id="Layer_1" xmlns="http://www.w3.org/2000/svg" xmlns:xlink="http://www.w3.org/1999/xlink" x="0px" y="0px"
	 viewBox="0 0 49.86 41.39" style="enable-background:new 0 0 49.86 41.39;" xml:space="preserve">
<style type="text/css">
	.st0{clip-path:url(#SVGID_00000129197583538585807710000014902231365637946764_);}
	.st1{fill:#FFFFFF;}
</style>
<g>
	<defs>
		<rect id="SVGID_1_" x="3.16" y="0.17" width="42.4" height="41.04"/>
	</defs>
	<clipPath id="SVGID_00000065058799800246581160000003529253742742456237_">
		<use xlink:href="#SVGID_1_"  style="overflow:visible;"/>
	</clipPath>
	<g style="clip-path:url(#SVGID_00000065058799800246581160000003529253742742456237_);">
		<path class="st1" d="M13.99,12.27c0,0-0.11-3.23,4.12-6.01c-4.23-2.78-4.12-6.01-4.12-6.01s0.11,3.23-4.12,6.01
			C14.1,9.04,13.99,12.27,13.99,12.27z"/>
		<path class="st1" d="M26.56,41.21c-1.16-0.15-2.33-0.24-3.48-0.45C13.1,38.97,6.77,33.03,3.62,23.53
			c-0.16-0.49-0.29-0.98-0.46-1.56c0.41-0.09,0.8-0.2,1.2-0.25c3.75-0.55,7.52-0.76,11.27-0.07c6.13,1.13,10.7,4.48,13.76,9.91
			c1.42,2.53,2.46,5.16,2.58,8.29c-0.23-0.36-0.39-0.58-0.53-0.8c-1.91-3-4.12-5.74-7.09-7.77c-2.39-1.64-5.04-2.56-7.99-2.74
			c0.2,0.12,0.41,0.23,0.61,0.35c2.1,1.25,4.31,2.35,6.29,3.77c2.67,1.92,4.41,4.63,5.47,7.74c0.08,0.23-0.07,0.54-0.11,0.81H26.56z
			"/>
		<path class="st1" d="M45.57,15.6c0.02,2.61-0.19,5.18-1.04,7.67c-1.67,4.91-4.98,8.28-9.68,10.35c-0.06,0.03-0.14,0.03-0.29,0.06
			c0.39-3.75,0.98-7.39,3.59-10.35c-0.06-0.06-0.12-0.11-0.17-0.17c-0.72,0.64-1.51,1.23-2.14,1.95c-0.64,0.73-1.2,1.56-1.63,2.42
			c-0.45,0.89-0.75,1.85-1.03,2.81c-0.27,0.92-0.42,1.88-0.64,2.91c-1.22-3.79-1.14-7.49,0.42-11.05c1.5-3.4,4.44-5.1,7.9-5.99
			c1.1-0.28,2.25-0.42,3.37-0.62c0.44,0,0.88,0,1.33,0L45.57,15.6z"/>
		<path class="st1" d="M28.2,23.04c0,0-0.21-6.14,7.84-11.44C27.98,6.31,28.2,0.17,28.2,0.17s0.21,6.14-7.84,11.44
			C28.41,16.9,28.2,23.05,28.2,23.04L28.2,23.04z"/>
	</g>
</g>
</svg>
