<svg width="38" height="38" viewBox="0 0 38 38" fill="none" xmlns="http://www.w3.org/2000/svg">
<g clip-path="url(#clip0_1001_611)">
<path d="M9.68998 20.8533C9.50079 20.6409 9.29337 20.4454 9.0701 20.2691C8.93948 20.1646 8.80014 20.0688 8.66952 19.9722C7.82243 19.3879 6.91598 18.9953 6.39268 18.054C6.28818 18.6121 6.12273 20.0601 6.19239 21.1328C6.20974 21.5136 6.27111 21.8911 6.37527 22.2577C6.64602 23.165 7.08223 23.9931 7.71873 24.5773C7.91031 24.761 8.1201 24.9177 8.34652 25.0658C8.56423 25.2138 8.80014 25.3365 9.03527 25.4584C9.27118 25.5717 9.51502 25.6762 9.75964 25.7719C9.80318 25.7902 9.83802 25.7989 9.87285 25.8163C10.0644 25.8947 10.2655 25.9643 10.4571 26.034L10.5703 26.0775C10.5703 26.0775 10.7271 25.441 10.7975 24.8655C10.8456 24.3893 10.8368 23.9091 10.7714 23.4349C10.6487 22.5016 10.3091 21.5777 9.68127 20.8541H9.68918L9.68998 20.8533ZM7.46539 15.2539C7.46539 15.4898 7.49231 15.7162 7.53585 15.9252C7.71002 16.8594 8.05835 17.7302 8.62598 18.3762C8.80014 18.5765 8.99252 18.7602 9.19281 18.9256C9.3931 19.0919 9.6116 19.2486 9.82931 19.3879C10.0478 19.5273 10.2829 19.6587 10.5101 19.7806C10.545 19.798 10.5885 19.8154 10.6234 19.8416C10.8062 19.9374 10.9978 20.0244 11.1815 20.121L11.2947 20.1733C11.2947 20.1733 11.4079 19.9025 11.5037 19.5447C11.5741 19.1441 11.6525 18.734 11.7483 18.3152C11.7744 18.0619 11.7744 17.8181 11.7744 17.5655C11.7483 16.6234 11.5132 15.6639 10.9717 14.8873C10.8098 14.655 10.6258 14.4389 10.4223 14.2421C10.3004 14.1202 10.1784 14.0157 10.0565 13.9017C9.62902 13.5359 9.15798 13.2304 8.7661 12.8298C8.57373 12.6374 7.86677 11.8703 7.94593 11.5908C7.77968 12.1402 7.51843 13.7188 7.47489 14.8002V15.2713L7.46539 15.2539ZM12.1924 14.539L12.1054 14.4519C11.9584 14.305 11.8158 14.1537 11.6779 13.9983C11.6517 13.9634 11.6256 13.9373 11.5908 13.9025C11.4166 13.7101 11.2424 13.5098 11.0849 13.3008C10.9281 13.091 10.7793 12.8733 10.64 12.6461C10.5056 12.4184 10.3917 12.1791 10.2996 11.9312C9.99477 11.1285 9.96864 10.1864 10.1254 9.25382C10.1629 9.03063 10.2212 8.81144 10.2996 8.59911C10.3526 8.45107 10.4049 8.30303 10.4658 8.1637C10.8846 7.16066 11.6866 5.73882 12.027 5.27649C11.8528 5.51161 12.2447 6.48853 12.3492 6.74107C12.5764 7.26516 12.916 7.72749 13.1963 8.21595C13.2739 8.36399 13.3522 8.51203 13.4219 8.66086C13.5446 8.91341 13.6404 9.17545 13.7188 9.46282C13.9539 10.3788 13.8494 11.3644 13.5446 12.2534C13.3911 12.7055 13.1863 13.1384 12.9342 13.5439C12.6199 14.0331 12.2099 14.5477 12.1924 14.5303V14.539Z" fill="white"/>
<path d="M13.5442 12.2534C13.849 11.3644 13.9543 10.3788 13.7184 9.46282C13.6472 9.18614 13.548 8.91743 13.4223 8.66086C13.35 8.51082 13.2743 8.36247 13.1951 8.21595C12.9164 7.71878 12.576 7.25645 12.3496 6.74186C12.2356 6.48853 11.8524 5.51161 12.0266 5.27649C11.6862 5.73011 10.8842 7.16066 10.4654 8.1637C10.4045 8.31174 10.3522 8.45107 10.2992 8.59911C10.23 8.81424 10.1719 9.03276 10.125 9.25382C9.96828 10.1864 9.9857 11.1285 10.2992 11.9312C10.3958 12.1751 10.509 12.4197 10.6396 12.6461C10.771 12.8733 10.9191 13.091 11.0845 13.3C11.2413 13.5098 11.4162 13.7101 11.5912 13.9017C11.6165 13.9286 11.6514 13.9634 11.6783 13.9983C11.8176 14.155 11.9657 14.3031 12.1058 14.4519L12.1929 14.539C12.1929 14.539 12.6204 14.0418 12.9339 13.5534C13.1951 13.152 13.3962 12.7071 13.5434 12.2629L13.5442 12.2534ZM19.492 9.07886C18.9862 9.3322 18.4193 9.46282 17.896 9.67261C17.7393 9.73357 17.5825 9.79453 17.4337 9.8642C17.1737 9.98295 16.9256 10.1261 16.6927 10.2917C16.091 10.7192 15.6287 11.3034 15.297 11.9574C15.1751 12.2447 15.0532 12.5416 14.9399 12.8472C14.9051 12.9343 14.8782 13.0214 14.8529 13.1005C14.7729 13.3686 14.7144 13.6426 14.6779 13.9199C14.5987 14.4954 14.5908 15.1581 14.6082 15.1494H14.7302C14.9399 15.1145 15.1489 15.0971 15.3492 15.0623C15.3928 15.0623 15.4363 15.0536 15.4719 15.0449C15.7332 15.01 15.9865 14.9657 16.2478 14.9047C16.5011 14.8438 16.7537 14.7741 17.007 14.687C17.2595 14.5999 17.4947 14.4867 17.7306 14.3648C18.4803 13.9452 19.1002 13.2391 19.5791 12.4197C19.6943 12.2258 19.7908 12.0214 19.8673 11.8093C19.9195 11.6692 19.9718 11.5212 20.024 11.3644C20.347 10.3265 20.6518 8.72182 20.6787 8.14628C20.6613 8.43366 19.7367 8.93953 19.492 9.06145V9.07886ZM18.1921 17.3644C18.1755 17.7397 18.2277 18.0888 18.3322 18.4197L18.3671 18.3849C18.5064 18.2187 18.6283 18.0271 18.751 17.8268C18.8294 17.6962 18.8991 17.5568 18.9687 17.4167C19.4485 16.4398 19.9892 14.896 20.1024 14.3379C20.0414 14.6261 19.0471 14.9752 18.7859 15.0623C18.2452 15.2364 17.6696 15.28 17.1194 15.4027C16.9539 15.4367 16.7972 15.4811 16.6317 15.5246C16.361 15.603 16.0997 15.6988 15.8377 15.8294C14.9914 16.2569 14.3201 16.9892 13.8585 17.8007C13.6179 18.2155 13.4274 18.6574 13.2909 19.1172C13.1247 19.6761 13.0114 20.3205 13.0376 20.3205H13.1603C13.3693 20.3387 13.5791 20.3474 13.7881 20.3474H13.91C14.1712 20.3474 14.4333 20.3474 14.6953 20.33C14.9566 20.3126 15.2178 20.2778 15.4799 20.2342C15.7411 20.182 15.9944 20.1115 16.2478 20.0244C16.2739 20.0165 16.3087 19.9983 16.3349 19.9896C16.3523 19.9548 16.3697 19.9112 16.3958 19.8764C16.9104 18.9264 17.8177 17.7919 18.2008 17.3732L18.1929 17.3652L18.1921 17.3644ZM13.1785 23.5838C12.9425 23.9997 12.7552 24.4415 12.6204 24.9003C12.5693 25.0787 12.5255 25.2591 12.4889 25.441C12.4889 25.6674 12.4889 25.8947 12.4977 26.1124C12.7074 26.1211 12.9172 26.1298 13.1262 26.1298H13.2482C13.5094 26.1298 13.7707 26.1298 14.0327 26.1037C14.2939 26.0862 14.556 26.0514 14.8085 25.9992C15.0706 25.9469 15.3231 25.8772 15.5685 25.7807C15.9316 25.6387 16.2721 25.4448 16.5795 25.2051C16.5447 25.1529 16.5098 25.1006 16.475 25.0397C16.3381 24.8167 16.2128 24.5868 16.0997 24.3509C15.9892 24.1116 15.8989 23.8635 15.8298 23.6091C15.6287 22.8855 15.6635 22.0915 15.8298 21.2974C15.5852 21.3766 15.35 21.4637 15.1228 21.5856C14.2773 22.0218 13.6226 22.7636 13.1611 23.583L13.1785 23.5838ZM19.3875 20.0593C19.3701 20.1384 19.2743 20.2334 19.1437 20.3205C19.1785 20.4084 19.2134 20.4955 19.2482 20.5913C19.3092 20.3736 19.3614 20.1907 19.3875 20.0688V20.0593ZM11.6514 18.9866C11.7036 18.7602 11.7305 18.5424 11.7567 18.3065C11.6696 18.7253 11.5825 19.1354 11.512 19.536C11.5643 19.3618 11.6078 19.1702 11.6514 18.9779V18.9866Z" fill="white"/>
<path d="M15.2981 11.9574C15.2022 12.1481 15.115 12.343 15.0368 12.5416C14.9664 12.7245 14.9054 12.9169 14.8445 13.1085C14.8793 13.0214 14.9054 12.9343 14.9316 12.8551C15.0535 12.5416 15.1762 12.2535 15.2894 11.9661L15.2981 11.9574ZM12.3848 26.1124H12.5067C12.5067 25.8947 12.498 25.6675 12.498 25.4411C12.4188 25.8068 12.3753 26.1124 12.3935 26.1124H12.3848Z" fill="white"/>
<path d="M11.9919 26.4006C11.9223 26.3048 11.8257 26.1734 12.0094 25.3714C12.0094 24.8648 12.0094 24.3502 12.0355 23.8451C12.1051 22.2056 12.3403 20.5747 12.6451 18.97C13.0821 16.9291 13.6837 14.923 14.3899 12.9605C14.5099 12.5418 14.6706 12.1358 14.8696 11.7484C15.1404 11.1286 15.4278 10.5182 15.7508 9.92522C15.9511 9.84685 16.1862 9.75897 16.4047 9.65527C16.6815 9.52644 16.9471 9.37471 17.1987 9.20164C17.3555 9.09714 17.5035 8.98314 17.6516 8.86993C18.3934 8.26827 19.0037 7.47502 19.2571 6.55035C19.5531 5.45152 19.318 4.33447 19.3267 3.22693C19.3267 3.0876 19.3093 2.59043 19.4217 2.33789C19.2745 2.56431 18.847 2.82635 18.733 2.89602C17.8091 3.49768 16.7451 3.91647 15.978 4.76197C15.332 5.47764 15.0003 6.41893 14.8958 7.36972C14.8405 7.85991 14.8464 8.35506 14.9132 8.84381C14.9654 9.20164 15.0438 9.57689 15.1056 9.82072C15.123 9.87297 15.1317 9.92522 15.1404 9.96006C14.2854 11.469 13.7447 13.1267 13.2127 14.7655C12.8311 15.9532 12.5051 17.1581 12.2358 18.3763C12.2108 18.6133 12.1759 18.8491 12.1313 19.0832C12.0877 19.2835 12.0355 19.4846 11.9919 19.6413C11.9397 19.9374 11.8961 20.2343 11.8518 20.5312C11.5716 22.2078 11.452 23.9073 11.4948 25.6066C11.4948 26.1734 11.5296 26.7497 11.5644 27.3166C11.6254 28.4328 11.7125 29.5491 11.9128 30.6479C12.1748 32.0088 12.4717 33.3601 12.9245 34.6688C13.1953 35.4968 13.5096 36.0201 14.0851 36.6749C14.0329 36.4651 13.9537 36.2553 13.884 36.0463C13.7617 35.6378 13.6249 35.2338 13.4739 34.835C13.0646 33.5786 12.7773 32.2961 12.5065 31.0057C12.3229 30.0811 12.2184 29.139 12.14 28.1969C12.0878 27.6109 12.0529 27.0235 12.0355 26.4354C12.0181 26.418 12.0094 26.4006 11.9919 26.3919V26.4006Z" fill="white" stroke="white" stroke-width="0.4" stroke-miterlimit="10"/>
<path d="M12.2356 18.3849C12.1398 18.8037 12.0615 19.2312 11.9823 19.6587C12.0266 19.5011 12.0789 19.3008 12.1224 19.0998C12.1747 18.8733 12.2095 18.6382 12.2269 18.3936L12.2356 18.3857V18.3849ZM14.3906 12.9517C14.4254 12.8559 14.4602 12.7688 14.4863 12.6722C14.6083 12.3587 14.731 12.0531 14.8616 11.7396C14.6625 12.1267 14.5018 12.5324 14.3818 12.9509H14.3906V12.9517ZM11.9918 26.4005C11.9918 26.4005 12.0179 26.4353 12.0353 26.4441L12.0092 25.3626C11.8256 26.1646 11.9221 26.3047 11.9918 26.3918V26.4005ZM16.4053 20.4781C16.2921 20.5216 16.1781 20.5572 16.057 20.5913C16.0388 20.6435 16.0127 20.7053 15.9953 20.7575C16.0911 20.7314 16.1963 20.7053 16.3096 20.6783C16.5186 20.6261 16.7371 20.5913 16.9461 20.5564C17.2944 20.4955 17.6269 20.4345 17.9317 20.3387C18.3592 20.1994 18.8128 19.9809 18.9434 19.8677C18.7946 19.5534 18.6466 19.2486 18.5159 18.943C17.862 19.6848 17.1551 20.1986 16.4053 20.4781ZM18.489 23.8015C18.367 24.0218 18.2272 24.2318 18.071 24.4293C17.7266 24.8756 17.3247 25.2744 16.8756 25.6152C16.893 25.6413 16.9191 25.6761 16.9373 25.7023L17.0157 25.8076C17.1376 25.973 17.2691 26.1385 17.3989 26.3047L17.4781 26.3997C17.4781 26.3997 17.9483 25.9469 18.3148 25.4933C18.6099 25.1143 18.8589 24.7016 19.0566 24.2638C19.4485 23.4088 19.6496 22.4406 19.5095 21.4985C19.5095 21.4811 19.5095 21.455 19.5016 21.4376C19.2743 22.0915 18.9949 22.8151 18.7336 23.3566C18.6655 23.5102 18.5867 23.6589 18.4977 23.8015H18.4898H18.489ZM18.3323 18.4205C18.2276 18.0789 18.1805 17.7223 18.1929 17.3652C17.809 17.7832 16.9025 18.9169 16.3879 19.8677C16.3697 19.9025 16.3436 19.9468 16.3262 19.9817C17.0846 19.6761 17.7567 19.1093 18.3323 18.4205ZM15.8472 23.6099C15.9169 23.8632 16.0127 24.1158 16.1172 24.3509C16.2304 24.586 16.3531 24.8219 16.4924 25.0396C16.5293 25.0938 16.5641 25.1492 16.5969 25.2059C16.9983 24.9003 17.3648 24.5338 17.6871 24.1158C17.8272 23.9416 17.9483 23.7492 18.0623 23.5489C18.1415 23.4175 18.2103 23.2782 18.28 23.1293C18.6378 22.3796 19.0305 21.2808 19.2482 20.5659C19.2134 20.4788 19.1786 20.3823 19.1437 20.2952C18.8207 20.5137 18.2626 20.714 18.0797 20.7749C17.539 20.9586 16.9635 21.0108 16.4141 21.1328C16.2478 21.1676 16.0911 21.2111 15.9256 21.2634C15.8995 21.2634 15.8733 21.2808 15.8464 21.2895C15.6723 22.0836 15.6461 22.8768 15.8464 23.6012V23.6091L15.8472 23.6099ZM20.583 15.5681C20.469 15.7651 20.367 15.9686 20.2774 16.1777C19.9291 17.0596 19.7541 17.9835 19.8934 18.8385C19.937 19.0998 19.9979 19.3531 20.0858 19.6064C20.1729 19.859 20.2679 20.0949 20.3819 20.3387C20.4951 20.5738 20.6178 20.8098 20.7571 21.0275C20.7807 21.0606 20.8011 21.0958 20.8181 21.1328C20.9226 21.3148 21.0358 21.4898 21.1498 21.6648L21.2195 21.7693C21.2195 21.7693 21.742 21.3679 22.1441 20.9578C22.4751 20.6174 22.7632 20.2255 23.0071 19.8154C23.4868 19.004 23.7924 18.0627 23.7488 17.1206C23.73 16.8357 23.689 16.5528 23.6261 16.2743C23.5913 16.1081 23.5391 15.9521 23.4955 15.7858C23.3293 15.2538 23.0941 14.7393 22.973 14.1898C22.9113 13.9286 22.7197 12.8994 22.9374 12.7071C22.5099 13.0823 21.4459 14.2769 20.8355 15.1668C20.7484 15.2974 20.6613 15.428 20.5822 15.5594V15.5673L20.583 15.5681ZM24.7954 16.606L24.8216 16.7279C24.8564 16.929 24.9007 17.138 24.9435 17.3383L24.9696 17.461C24.9696 17.461 25.5982 17.2686 26.1215 17.0161C26.5529 16.811 26.9571 16.5531 27.3248 16.2482C28.0571 15.6552 28.6683 14.8786 28.9556 13.9721C29.0427 13.6935 29.095 13.414 29.1298 13.1433C29.1472 12.9778 29.1646 12.8123 29.1741 12.6469C29.2003 12.0793 29.1559 11.5037 29.2438 10.9456C29.2873 10.6756 29.4702 9.63776 29.7497 9.53247C29.2177 9.74226 27.7784 10.5181 26.8886 11.1467C26.758 11.2338 26.6353 11.3296 26.5133 11.4341C26.3305 11.5821 26.165 11.7396 26.0162 11.8964C25.3797 12.6026 24.8999 13.4053 24.7345 14.2516C24.6822 14.5128 24.6553 14.7741 24.6474 15.0361C24.6474 15.2974 24.6474 15.5594 24.6735 15.8215C24.6996 16.0827 24.7345 16.344 24.778 16.5973L24.7954 16.606ZM34.0571 16.7279C33.4903 16.6757 32.9496 16.4841 32.3915 16.3796C32.2272 16.3447 32.0613 16.3183 31.8943 16.3004C31.6156 16.2656 31.3362 16.2482 31.0393 16.2656C30.0893 16.3178 29.1908 16.7279 28.4323 17.2868C28.0469 17.5706 27.6957 17.8982 27.3858 18.263C27.0192 18.7166 26.6527 19.2573 26.6701 19.2747L26.7841 19.327C26.9662 19.4228 27.1586 19.5106 27.3501 19.5977C27.3858 19.6151 27.4293 19.6326 27.4641 19.65C27.6993 19.7545 27.9439 19.859 28.1964 19.9461C28.6925 20.1284 29.2126 20.2372 29.7402 20.2691C30.6031 20.3126 31.5016 20.0506 32.3392 19.6064C32.5308 19.5019 32.7232 19.3792 32.9148 19.2399C33.0367 19.1528 33.1594 19.0483 33.2813 18.9517C34.1007 18.2456 35.2177 17.0422 35.5486 16.5799C35.3832 16.815 34.3279 16.7461 34.0571 16.7192V16.7279ZM30.2809 21.4114C29.7315 21.2721 29.2169 21.0013 28.6849 20.8098C28.5281 20.7483 28.3679 20.696 28.2051 20.653C27.9319 20.5738 27.6517 20.521 27.3683 20.4955C26.4263 20.4084 25.4668 20.6696 24.6379 21.1146C24.2165 21.3404 23.8217 21.6126 23.4607 21.926C23.0253 22.31 22.5883 22.7984 22.6057 22.8158L22.711 22.8855C22.8851 23.0074 23.0514 23.1206 23.2256 23.2338C23.2604 23.2608 23.2952 23.2782 23.3301 23.3043C23.5478 23.4436 23.775 23.583 24.0014 23.7049C24.2365 23.8276 24.4724 23.9408 24.7163 24.0374C24.9609 24.1324 25.2134 24.2116 25.4755 24.263C26.3218 24.4372 27.2456 24.3073 28.1442 24.0018C28.3532 23.9321 28.563 23.8355 28.7633 23.7318C28.9026 23.6613 29.034 23.583 29.1733 23.4959C30.0893 22.9291 31.371 21.8999 31.7724 21.4898C31.5721 21.6996 30.5429 21.4724 30.2722 21.4027L30.2809 21.4114ZM26.6353 25.8946C26.0858 25.7632 25.5713 25.502 25.0393 25.3096C24.881 25.2551 24.721 25.2057 24.5595 25.1616C24.285 25.0868 24.0049 25.0343 23.7219 25.0048C22.7798 24.9256 21.8298 25.1964 21.001 25.65C20.5789 25.8738 20.1864 26.1493 19.8325 26.4702C19.405 26.8621 18.9688 27.3505 18.9862 27.3687L19.0907 27.4384C19.2648 27.5603 19.4311 27.6735 19.614 27.7867C19.6488 27.8128 19.6836 27.8303 19.7193 27.8564C19.937 27.9965 20.1634 28.1271 20.3993 28.2491C20.6344 28.371 20.8703 28.485 21.1142 28.5721C21.3588 28.6671 21.6208 28.7383 21.8734 28.7898C22.7189 28.956 23.6436 28.8159 24.5413 28.5024C24.7511 28.4319 24.9514 28.3361 25.1612 28.2229C25.3005 28.1533 25.4311 28.0749 25.5626 27.9878C26.4785 27.4028 27.7515 26.3744 28.1434 25.9556C27.9431 26.1646 26.9139 25.9556 26.644 25.8859L26.6353 25.8946ZM36.6918 11.0849C35.5835 11.1023 34.4672 10.8933 33.3684 11.1981C32.4445 11.4602 31.6592 12.0793 31.0662 12.829C30.7576 13.2132 30.4995 13.6355 30.2983 14.0853C30.1503 14.4083 30.0196 14.7741 29.9413 15.0187C29.9238 15.071 29.9064 15.1232 29.8977 15.1581C30.1067 15.0448 30.3157 14.9403 30.5255 14.8358C30.7693 14.7218 31.014 14.6086 31.2665 14.539C31.5895 14.4432 31.9125 14.4171 32.2434 14.4171H32.3566H32.3218C32.255 14.4311 32.1905 14.4546 32.1302 14.4867C31.869 14.6086 31.6418 14.7828 31.3979 14.9316C31.3108 14.9839 31.2317 15.0266 31.1446 15.0797C30.9095 15.1929 30.6736 15.3243 30.4384 15.4462C30.6474 15.4898 30.9008 15.5333 31.1359 15.5681C31.4415 15.6117 31.7463 15.6204 32.0518 15.6117C32.2347 15.6117 32.4271 15.5943 32.61 15.5681C33.56 15.4549 34.5021 15.1058 35.2003 14.4519C36.0371 13.6761 36.4385 12.6113 37.0227 11.6787C37.0932 11.5647 37.3457 11.1285 37.5721 10.9804C37.3283 11.0936 36.8311 11.0849 36.6918 11.0849Z" fill="white"/>
<path d="M29.8796 15.3061C29.8796 15.3061 29.8796 15.2538 29.9144 15.1667C28.3968 15.9869 27.0454 17.1032 25.7193 18.2107C24.2104 19.4932 22.772 20.8533 21.4895 22.3709C20.3654 23.6452 19.361 25.0204 18.4891 26.4789C18.1955 26.9664 17.9136 27.4608 17.6436 27.9617C17.1028 28.9386 16.5796 29.9329 16.1695 30.97C15.6628 32.2612 15.2013 33.5611 14.8957 34.9125C14.678 35.7588 14.6693 36.3692 14.8086 37.2321C14.8696 37.0231 14.9131 36.8141 14.9748 36.5956C15.0881 36.1776 15.1838 35.7936 15.2709 35.3574C15.5852 34.0749 16.0301 32.8367 16.4838 31.5986C16.8242 30.7175 17.2335 29.8625 17.661 29.0257C18.3253 27.727 19.071 26.4716 19.8935 25.2668C20.8268 23.9147 21.8908 22.6591 23.0071 21.4637C24.5334 19.8938 26.1817 18.4632 27.9083 17.1206C28.7198 16.5189 29.5573 15.9434 30.4377 15.4549C30.1155 15.3852 29.8708 15.3243 29.8796 15.3061Z" fill="white" stroke="white" stroke-width="0.4" stroke-miterlimit="10"/>
<path d="M31.4061 14.9404C31.6508 14.7915 31.8772 14.6174 32.1392 14.4954C32.2002 14.4693 32.2611 14.4432 32.3308 14.4258H32.3656H32.2524C31.9294 14.4258 31.5985 14.4519 31.2755 14.5477C31.0143 14.6174 30.7783 14.7306 30.5345 14.8438C30.316 14.9491 30.107 15.0536 29.9059 15.1668C29.8798 15.2539 29.8711 15.3061 29.8711 15.3061C29.8711 15.3061 30.107 15.3853 30.43 15.4549C30.6651 15.3235 30.9003 15.2016 31.1362 15.0884C31.2233 15.0449 31.3103 14.9926 31.3895 14.9404H31.4061Z" fill="white"/>
<path d="M0.619141 0.619141L8.51206 8.51206M28.1707 28.1707L36.0636 36.0636" stroke="white" stroke-width="2.01" stroke-miterlimit="10"/>
</g>
<defs>
<clipPath id="clip0_1001_611">
<rect width="38" height="38" fill="white"/>
</clipPath>
</defs>
</svg>
