<svg width="93" height="37" viewBox="0 0 93 37" fill="none" xmlns="http://www.w3.org/2000/svg">
<g clip-path="url(#clip0_305_2629)">
<path fill-rule="evenodd" clip-rule="evenodd" d="M3.41717 35.8292H0.620117V36.3568H16.1083V26.8602H15.6491C15.6491 26.8602 15.6491 32.339 13.7704 34.1247C12.184 35.6668 10.5142 35.7886 7.80061 35.7886V18.2971C7.80061 18.2971 9.67922 18.1754 10.5977 19.0682C12.0171 20.4481 12.184 22.2337 12.184 24.7093H12.685V11.3168H12.184C12.184 13.7924 12.0588 15.5781 10.5977 16.9579C9.67922 17.8507 7.80061 17.729 7.80061 17.729V1.13037C10.5142 1.13037 11.8083 1.2927 13.3947 2.79429C15.2316 4.57996 15.2733 10.0587 15.2733 10.0587H15.7325V0.602783H0.620117V1.13037H3.41717V35.8292Z" fill="white"/>
<path fill-rule="evenodd" clip-rule="evenodd" d="M33.6839 1.13037V35.8292C36.3975 35.8292 38.0673 35.6668 39.6537 34.1653C41.4906 32.3796 41.5324 26.9008 41.5324 26.9008H41.9916V36.3973H26.5034V35.8698H29.3005V1.08978H26.5034V0.602783H36.2305V1.13037H33.6839Z" fill="white"/>
<path fill-rule="evenodd" clip-rule="evenodd" d="M58.5648 1.13037V35.8292C61.2783 35.8292 62.9482 35.6668 64.5346 34.1653C66.3715 32.3796 66.4132 26.9008 66.4132 26.9008H66.8724V36.3973H51.3843V35.8698H54.1813V1.08978H51.3843V0.602783H61.1113V1.13037H58.5648Z" fill="white"/>
<path fill-rule="evenodd" clip-rule="evenodd" d="M79.6891 35.8292H76.8921V36.3568H92.3802V26.8602H91.921C91.921 26.8602 91.921 32.339 90.0424 34.1247C88.456 35.6668 86.7861 35.7886 84.0726 35.7886V18.2971C84.0726 18.2971 85.9512 18.1754 86.8696 19.0682C88.289 20.4481 88.456 22.2337 88.456 24.7093H88.957V11.3168H88.456C88.456 13.7924 88.3308 15.5781 86.8696 16.9579C85.9512 17.8507 84.0726 17.729 84.0726 17.729V1.13037C86.7861 1.13037 88.0803 1.2927 89.6667 2.79429C91.5036 4.57996 91.5453 10.0587 91.5453 10.0587H92.0045V0.602783H76.8921V1.13037H79.6891V35.8292Z" fill="white"/>
</g>
<defs>
<clipPath id="clip0_305_2629">
<rect width="93" height="37" fill="white"/>
</clipPath>
</defs>
</svg>
