<svg width="70" height="70" viewBox="0 0 70 70" fill="none" xmlns="http://www.w3.org/2000/svg">
<circle cx="35" cy="35" r="34.5" transform="matrix(-1 0 0 1 70 0)" fill="white" stroke="black"/>
<g clip-path="url(#clip0_511_2693)">
<path d="M31.05 44.7101C28.65 44.5001 26.62 43.6901 25 42.3401C25.1 43.6901 25.4 44.9601 25.9 46.1001C27.12 48.8601 29.56 50.9101 32.59 51.7001C35.47 52.4601 38.49 52.0101 40.83 50.5201C39.49 47.0701 36.28 45.1601 31.05 44.7001V44.7101Z" fill="black"/>
<path d="M33.5002 40.3801C30.2302 40.0901 27.6502 38.7101 25.8502 36.3201C25.6602 36.9001 25.4802 37.4901 25.3402 38.1001C25.2802 38.3901 25.2302 38.6801 25.1802 38.9601C26.5802 40.9501 28.5902 42.0501 31.2702 42.2901C37.1002 42.8001 40.9502 45.0201 42.7802 48.8901C43.1402 48.5001 43.4602 48.0901 43.7502 47.6501C43.7302 47.6001 43.7002 47.5601 43.6902 47.5001C42.6902 43.2201 39.3602 40.8901 33.5102 40.3801H33.5002Z" fill="black"/>
<path d="M35.94 36.05C32.47 35.75 29.78 34.2 27.97 31.53C27.61 32.19 27.27 32.86 26.96 33.55C28.35 36.23 30.58 37.69 33.71 37.96C39.48 38.46 43.32 40.65 45.17 44.45C45.41 43.5 45.54 42.48 45.54 41.43C44.1 38.26 40.95 36.49 35.95 36.05H35.94Z" fill="black"/>
<path d="M36.1501 33.63C39.7901 33.95 42.6601 34.94 44.7501 36.57C43.8301 33.68 42.3301 31.09 40.8601 28.56C40.1901 27.4 39.4901 26.2 38.8601 24.99C38.4201 24.15 37.9101 23.15 37.4401 22.08C37.0101 21.1 36.6001 20.07 36.2201 19.03C35.8701 18.05 35.5401 17.02 35.2401 15.99C35.0301 16.7 34.8101 17.43 34.5801 18.13C34.2201 19.18 33.8401 20.22 33.4201 21.21C33.0001 22.22 32.5401 23.22 32.0601 24.17C31.9201 24.45 31.7801 24.72 31.6301 24.99C31.0001 26.2 30.3101 27.4 29.6301 28.55C29.5301 28.72 29.4301 28.9 29.3301 29.08C30.7101 31.84 32.9601 33.34 36.1501 33.62V33.63Z" fill="black"/>
</g>
<defs>
<clipPath id="clip0_511_2693">
<rect width="20.54" height="36.07" fill="white" transform="translate(25 16)"/>
</clipPath>
</defs>
</svg>
