<svg width="143" height="32" viewBox="0 0 143 32" fill="none" xmlns="http://www.w3.org/2000/svg">
<path d="M32.8804 29.1622H28.0151V0H21.8271V30.9268H28.1568H32.8804V29.1622Z" fill="white"/>
<path d="M41.4305 0L34.1089 30.9268H35.9983L39.1632 17.5531H45.3983L47.9963 30.9268H54.2315L47.2405 0H41.4305ZM39.5883 15.742L42.6114 3.06482L45.0677 15.742H39.5883Z" fill="white"/>
<path d="M72.1341 0L67.1271 21.3144L62.6396 0H57.5854L55.7432 0.0464368V30.9268H57.5854V4.27217L58.719 8.68366L63.8206 30.9268H66.4658H66.7492L72.701 5.99033V30.9268H78.9361V0H72.1341Z" fill="white"/>
<path d="M87.2023 9.89101C87.2023 9.89101 87.1551 13.931 87.1551 15.5563C87.1551 17.1816 87.2023 21.0358 87.2023 21.0358C87.2023 25.5866 88.336 29.1158 91.4536 29.1158C94.5712 29.1158 95.7048 25.5866 95.7048 21.0358C95.7048 21.0358 95.7521 17.1816 95.7521 15.5563C95.7521 13.931 95.7048 9.89101 95.7048 9.89101C95.7048 5.34022 94.5712 1.81103 91.4536 1.81103C88.336 1.81103 87.2023 5.34022 87.2023 9.89101ZM101.987 15.4634C101.987 30.4625 93.1541 30.9268 91.4536 30.9268C89.7531 30.9268 80.9199 30.4625 80.9199 15.4634C80.9199 0.464368 89.7531 0 91.4536 0C93.1541 0 101.987 0.464368 101.987 15.4634Z" fill="white"/>
<path d="M115.024 28.7907C119.842 28.7907 119.417 20.3393 119.417 20.3393C119.417 18.0174 119.417 0.185747 119.417 0H121.212C121.212 0.185747 121.401 18.0174 121.401 20.3393C121.401 20.6179 121.401 20.8965 121.401 21.1751C121.354 23.7756 120.976 26.794 119.134 28.7443C119.039 28.8836 118.897 28.9765 118.756 29.1158C116.677 30.8804 113.371 31.1126 110.82 30.7411C108.222 30.3696 105.813 28.9765 104.821 26.3296C104.065 24.3328 104.018 22.1503 104.018 20.0606V0H110.206V22.2432V22.2896C110.206 22.336 110.112 28.7907 115.024 28.7907Z" fill="white"/>
<path d="M137.32 17.0887C138.217 16.7172 139.068 16.3458 139.682 15.6028C141.618 13.3274 141.618 10.8198 141.618 8.59083C141.618 4.36509 139.587 1.48602 135.808 0.325102C135.761 0.325102 135.714 0.278665 135.667 0.278665C135.667 0.278665 135.667 0.278665 135.619 0.278665C135.572 0.278665 135.525 0.278665 135.478 0.232228C135.431 0.232228 135.383 0.232228 135.336 0.185791C135.336 0.185791 135.336 0.185791 135.289 0.185791C135.242 0.185791 135.194 0.185791 135.147 0.185791C135.1 0.185791 135.053 0.185791 135.005 0.185791C135.005 0.185791 135.005 0.185791 134.958 0.185791C134.911 0.185791 134.864 0.185791 134.816 0.185791C134.769 0.185791 134.722 0.185791 134.675 0.185791C134.675 0.185791 134.675 0.185791 134.628 0.185791C134.58 0.185791 134.533 0.185791 134.486 0.185791C134.439 0.185791 134.391 0.185791 134.344 0.185791C134.297 0.185791 134.25 0.185791 134.202 0.185791C134.155 0.185791 134.155 0.185791 134.108 0.185791C134.061 0.185791 134.061 0.185791 134.013 0.185791C134.013 0.185791 133.966 0.185791 133.919 0.185791C133.919 0.185791 133.872 0.185791 133.825 0.185791H133.777H133.73C133.73 0.185791 133.73 0.185791 133.683 0.185791H130.093H123.952V31.1126H130.187V17.5531H131.746L135.761 30.8804V30.9269H142.327L137.32 17.0887ZM131.132 15.7421C131.038 15.7421 129.715 15.7421 129.715 15.7421C129.715 13.9775 129.715 1.85751 129.715 1.90395C130.235 1.90395 130.896 1.95038 131.463 2.04326C134.769 2.69337 135.997 6.03681 136.045 8.86945C136.045 10.3554 135.997 11.9807 135.431 13.3738C135.289 13.7453 135.005 14.1168 134.722 14.4418C134.439 14.7669 134.155 15.092 133.777 15.3241C132.974 15.7421 131.982 15.7421 131.132 15.7421Z" fill="white"/>
<path d="M17.4816 3.90068C18.2846 5.10803 19.1821 7.8478 19.1821 11.7485C17.6233 11.7485 15.0726 11.7485 13.75 11.7485V11.4234C13.75 10.1696 13.75 9.93745 13.75 9.93745C13.75 5.34022 12.7108 1.85747 10.3962 1.85747C7.46754 1.85747 6.42835 5.34022 6.42835 9.93745V18.9926C6.42835 20.2928 6.42835 21.3609 6.42835 21.3609C6.42835 26.051 7.65649 29.348 10.6324 29.348C13.6082 29.348 14.5057 26.051 14.5057 21.3609V21.1287C14.5057 20.0606 14.553 19.1783 14.5057 17.5531C13.0414 17.5531 11.2937 17.5531 9.82935 17.5531C9.82935 17.1351 9.82935 16.16 9.82935 15.7885C13.0414 15.7885 16.3007 15.7885 19.5128 15.7885C19.5128 21.1287 19.5128 25.633 19.5128 30.9733C18.2846 30.9733 16.8675 30.9733 15.6394 30.9733C15.5922 25.8188 15.6866 27.5369 15.5922 25.8188C15.3088 27.7227 14.3168 29.673 12.6163 30.7411C10.7741 31.8555 8.3178 31.8091 6.38111 30.9268C4.44443 29.9981 2.93287 28.3264 1.98815 26.4225C1.04343 24.5186 0.571064 22.3825 0.287646 20.2464C0.145938 18.4818 0.0514659 16.7172 0.145938 14.9062C0.287647 10.5876 1.23237 5.47953 4.68061 2.41471C6.19217 0.928734 8.22333 0 10.4907 0C12.5691 0 14.4585 0.789423 15.9228 2.08965C15.9228 2.08965 15.9228 2.08965 15.9701 2.13609C16.4897 2.64689 17.0565 3.20413 17.4816 3.90068Z" fill="white"/>
</svg>
