<svg width="34" height="48" viewBox="0 0 34 48" fill="none" xmlns="http://www.w3.org/2000/svg">
<g clip-path="url(#clip0_177_4452)">
<mask id="mask0_177_4452" style="mask-type:luminance" maskUnits="userSpaceOnUse" x="0" y="0" width="34" height="48">
<path d="M0 0H33.214V48H0V0Z" fill="white"/>
</mask>
<g mask="url(#mask0_177_4452)">
<path d="M26.1059 13.2989C26.1059 13.2989 26.1269 13.2659 26.1269 13.2549C26.1269 13.2549 26.1389 13.2329 26.1489 13.2219L26.0949 13.3099L26.1049 13.2989H26.1059ZM21.3909 35.2919C20.0789 34.0779 18.5149 33.6619 17.5089 33.5089C17.2124 33.4586 16.9126 33.4295 16.6119 33.4219H15.7699C15.6059 33.4219 15.2779 33.4219 14.8619 33.4769C13.8559 33.5969 12.2819 33.9689 10.9359 35.1499C8.40993 37.3589 8.96794 40.4429 9.02194 40.7599C9.08794 41.0879 9.44894 42.7399 10.8919 44.0739C11.7339 44.8609 12.3579 44.9709 13.7579 45.9989C14.8079 46.7749 15.5399 47.5079 15.9879 47.9889C16.4479 47.5189 17.2139 46.7969 18.2739 46.0639C19.6959 45.0689 20.3199 44.9709 21.1839 44.2159C22.6599 42.9259 23.0639 41.2859 23.1409 40.9569C23.2179 40.6399 23.8519 37.5769 21.3809 35.2919H21.3909ZM2.83193 11.1219C2.68993 10.3569 2.74494 9.57992 2.44993 8.84792C2.36118 8.63906 2.24335 8.44379 2.09993 8.26792C1.97993 8.12592 1.84794 7.99492 1.71694 7.85192C0.513935 6.47392 -0.361065 4.86692 0.141935 3.07292C0.480935 1.89192 1.33393 0.75492 2.62493 0.27292C4.25493 -0.35008 6.27694 0.17492 7.62194 1.12592C7.86294 1.29092 8.09194 1.46592 8.30093 1.66192C8.60693 1.95792 8.88094 2.29692 9.12094 2.63592C9.50394 3.22592 9.77693 3.86092 10.0609 4.49492C10.2249 4.85492 10.3889 5.21692 10.5969 5.56692C11.2639 6.69292 12.0739 7.66692 12.4569 8.92392C12.657 9.56843 12.7601 10.2391 12.7629 10.9139C12.7729 12.0079 12.5109 13.2549 12.9699 14.3039C13.1339 14.6769 13.3199 15.0379 13.4519 15.4089C13.8229 16.4489 13.7909 17.6079 13.8779 18.6689C13.8999 18.8759 13.9109 19.0839 13.9219 19.2919C14.0579 19.8223 14.1456 20.3638 14.1839 20.9099C14.2059 21.1069 14.2279 21.3149 14.2059 21.5229C14.1729 21.9389 14.2169 22.3649 14.1629 22.7809C14.0429 23.6339 13.9109 24.4539 13.9769 25.3069C13.8019 24.8259 13.7139 24.3339 13.5719 23.8519C13.3199 23.0219 12.8719 22.2009 12.4889 21.4349C12.4458 21.358 12.409 21.2778 12.3789 21.1949C12.3139 21.0529 12.2589 20.8989 12.2049 20.7569C12.1477 20.5984 12.0857 20.4417 12.0189 20.2869C11.7239 19.4999 11.4719 18.6899 11.1989 17.9029C11.1329 17.7169 11.0679 17.5309 10.9909 17.3449C10.9062 17.1521 10.8148 16.9624 10.7169 16.7759C10.6189 16.6019 10.5099 16.4159 10.3999 16.2409C10.2799 16.0549 10.1599 15.8689 10.0399 15.6709C9.9642 15.5513 9.89477 15.4278 9.83193 15.3009C9.75436 15.1679 9.68099 15.0325 9.61194 14.8949C9.55794 14.7859 9.51394 14.6769 9.45994 14.5669C9.40493 14.4369 9.33994 14.3049 9.28493 14.1739C9.22993 14.0539 9.18594 13.9329 9.13194 13.8019L8.99994 13.4399L8.95693 13.2979C8.86893 13.0579 8.79294 12.8059 8.70494 12.5649C8.61794 12.3249 8.51894 12.0729 8.44293 11.8319C8.37887 11.6274 8.3132 11.4234 8.24594 11.2199C7.92894 10.2029 7.62194 9.16392 7.12994 8.20092C7.08547 8.10641 7.03434 8.01518 6.97694 7.92792C6.92259 7.83085 6.8642 7.73611 6.80194 7.64392C6.74371 7.55008 6.68166 7.45867 6.61594 7.36992C6.55094 7.28292 6.47394 7.19492 6.39793 7.10792C6.35393 7.05292 6.30994 6.99792 6.25494 6.95492C6.25494 6.95492 6.25494 6.94392 6.24494 6.94392C6.24494 6.94392 6.28793 6.99792 6.29893 7.01992C6.36493 7.10792 6.41894 7.20592 6.48494 7.30492C6.55094 7.40292 6.59493 7.50092 6.65993 7.59992C6.76994 7.78592 6.86794 7.97192 6.96594 8.15792C7.00994 8.24492 7.05394 8.34292 7.09794 8.43092C7.15194 8.52892 7.19593 8.63892 7.23993 8.73692C7.28294 8.83592 7.31594 8.93392 7.34994 9.03192C7.39294 9.14192 7.42593 9.23992 7.46993 9.34992C7.50194 9.45892 7.54594 9.55692 7.57894 9.66692C7.61194 9.75392 7.64394 9.85292 7.67694 9.93992L7.77594 10.2349C7.80794 10.3449 7.84094 10.4429 7.87394 10.5419C7.90694 10.6399 7.95094 10.7499 7.98394 10.8479C8.01593 10.9459 8.04893 11.0559 8.07094 11.1539C8.12594 11.3619 8.19094 11.5589 8.24594 11.7669C8.37694 12.1819 8.51894 12.6089 8.65094 13.0239L8.84694 13.6479C8.91294 13.8449 8.98994 14.0409 9.06694 14.2379C9.14294 14.4349 9.22994 14.6429 9.31694 14.8399C9.40494 15.0369 9.50394 15.2119 9.60194 15.3979C10.0499 16.2179 10.5639 16.9399 10.9029 17.8139C11.2429 18.6999 11.5049 19.6079 11.8659 20.4829C12.1939 21.2929 12.5989 22.0689 12.9599 22.8669C13.2769 23.5889 13.4729 24.3329 13.7249 25.0769C13.7469 25.1639 13.7799 25.2399 13.8129 25.3169L13.8339 25.3709C13.7469 25.1639 13.4079 24.9449 13.2439 24.7589C13.0139 24.4859 12.8059 24.2009 12.5879 23.9169C12.1754 23.3639 11.741 22.8275 11.2859 22.3089C10.9139 21.8939 10.5539 21.4669 10.1709 21.0629C9.58093 20.4719 8.98993 19.8809 8.38793 19.2909C7.78693 18.7009 7.16294 18.1099 6.74794 17.3879C6.07994 16.2509 5.22794 15.3209 4.35294 14.3369C3.55394 13.4289 3.05093 12.2369 2.84293 11.0999L2.83293 11.1209L2.83193 11.1219Z" fill="black"/>
<path d="M30.185 11.4939C30.349 10.7389 30.316 9.96294 30.633 9.22994C30.732 9.02194 30.853 8.83594 31.005 8.66094C31.125 8.51894 31.268 8.39894 31.399 8.25694C32.635 6.91194 33.553 5.32594 33.094 3.52094C32.788 2.32894 31.968 1.18094 30.699 0.655941C29.091 -0.0110587 27.046 0.458941 25.679 1.37794C25.439 1.54194 25.198 1.70594 24.99 1.89194C24.6778 2.17954 24.3957 2.49818 24.148 2.84294C23.744 3.42294 23.459 4.05694 23.164 4.68094C22.989 5.04094 22.814 5.40194 22.606 5.74094C21.906 6.85694 21.075 7.79694 20.648 9.04394C20.4314 9.68266 20.3101 10.3498 20.288 11.0239C20.244 12.1169 20.474 13.3749 19.992 14.4039C19.817 14.7639 19.632 15.1239 19.489 15.4969C19.096 16.5249 19.096 17.6839 18.975 18.7449L18.91 19.3679C18.7584 19.8933 18.6556 20.4316 18.603 20.9759C18.581 21.1729 18.549 21.3809 18.56 21.5879C18.581 22.0039 18.527 22.4189 18.56 22.8459C18.647 23.6989 18.757 24.5189 18.68 25.3829C18.866 24.9129 18.975 24.4209 19.128 23.9399C19.402 23.1199 19.872 22.3099 20.277 21.5549C20.32 21.4789 20.353 21.4019 20.397 21.3249C20.463 21.1839 20.528 21.0409 20.583 20.8989C20.649 20.7459 20.714 20.5819 20.78 20.4289C21.097 19.6529 21.37 18.8539 21.666 18.0669C21.7333 17.8772 21.8101 17.691 21.896 17.5089C21.983 17.3229 22.081 17.1369 22.19 16.9509L22.519 16.4259C22.639 16.2399 22.77 16.0549 22.89 15.8689C22.967 15.7489 23.044 15.6279 23.11 15.5079C23.186 15.3759 23.262 15.2449 23.339 15.1029C23.394 14.9929 23.449 14.8949 23.503 14.7859C23.569 14.6549 23.623 14.5339 23.689 14.4029L23.853 14.0429C23.907 13.9219 23.951 13.8019 23.995 13.6809L24.05 13.5389C24.137 13.2989 24.225 13.0579 24.323 12.8169C24.422 12.5769 24.52 12.3369 24.607 12.0849C24.684 11.8879 24.75 11.6799 24.827 11.4719C25.177 10.4549 25.504 9.43794 26.029 8.48594C26.084 8.39894 26.128 8.30094 26.193 8.21294C26.248 8.11494 26.313 8.02694 26.368 7.93994C26.4834 7.75102 26.6233 7.57819 26.784 7.42594C26.828 7.37094 26.882 7.31594 26.926 7.27294L26.936 7.26194C26.936 7.26194 26.893 7.31594 26.871 7.33794C26.806 7.42594 26.741 7.52394 26.674 7.61194C26.609 7.70994 26.554 7.80794 26.5 7.89594C26.39 8.08194 26.28 8.25594 26.182 8.44294C26.139 8.52994 26.084 8.61794 26.04 8.71594C25.985 8.81494 25.942 8.92394 25.887 9.02194C25.843 9.12094 25.811 9.21894 25.767 9.30694C25.723 9.41594 25.679 9.51394 25.636 9.62394C25.592 9.72194 25.559 9.83194 25.516 9.92994C25.482 10.0179 25.439 10.1159 25.406 10.2039C25.373 10.3019 25.329 10.3999 25.296 10.4989C25.264 10.5969 25.22 10.7069 25.187 10.8049C25.143 10.9029 25.11 11.0129 25.077 11.1109C25.045 11.2099 25.012 11.3189 24.979 11.4169C24.914 11.6249 24.848 11.8219 24.782 12.0299C24.64 12.4449 24.487 12.8609 24.345 13.2769C24.268 13.4839 24.203 13.6919 24.126 13.8889L23.896 14.4789C23.809 14.6769 23.722 14.8729 23.623 15.0699C23.5295 15.2605 23.4274 15.4467 23.317 15.6279C22.847 16.4259 22.311 17.1479 21.95 18.0119C21.589 18.8869 21.294 19.7839 20.922 20.6589C20.572 21.4569 20.145 22.2229 19.762 23.0209C19.424 23.7309 19.205 24.4749 18.942 25.2079C18.9113 25.2887 18.8786 25.3687 18.844 25.4479L18.822 25.5029C18.921 25.2959 19.26 25.0879 19.435 24.9019C19.675 24.6399 19.894 24.3549 20.113 24.0709C20.55 23.5349 20.977 22.9989 21.458 22.4959C21.841 22.0909 22.212 21.6759 22.606 21.2709C23.208 20.6909 23.82 20.1229 24.432 19.5539C25.045 18.9739 25.679 18.4059 26.128 17.6939C26.828 16.5789 27.703 15.6719 28.599 14.7089C29.419 13.8229 29.955 12.6529 30.196 11.5159L30.185 11.4939ZM13.189 24.9679C14.0648 27.4851 14.6911 30.0823 15.059 32.7219V32.8089C15.442 32.7439 15.737 32.7329 15.879 32.7329H16.163C16.142 32.3609 16.065 31.4529 15.933 30.9389C15.715 30.0749 15.496 29.1889 15.267 28.3689C14.9005 27.0533 14.466 25.7575 13.965 24.4869C13.922 24.3769 13.878 24.2789 13.835 24.1689H12.894C12.981 24.4099 13.079 24.6719 13.189 24.9789V24.9679Z" fill="black"/>
<path d="M15.0699 32.9188C15.0699 32.9188 15.0259 32.9188 15.0039 32.8968C14.9829 32.8748 14.9609 32.8528 14.9609 32.8198V32.7428C14.5532 29.8228 13.8307 26.9554 12.8059 24.1908C12.7959 24.1578 12.8059 24.1148 12.8169 24.0808C12.8389 24.0488 12.8719 24.0378 12.9159 24.0378H13.8559C13.8559 24.0378 13.9439 24.0818 13.9549 24.1258C13.9759 24.1688 13.9979 24.2238 14.0199 24.2678C14.0419 24.3218 14.0639 24.3778 14.0969 24.4318C14.5999 25.6998 15.0369 27.0118 15.3979 28.3248C15.6169 29.1238 15.8359 29.9878 16.0439 30.8078L16.0649 30.8948C16.1969 31.4088 16.2619 32.2508 16.2949 32.7108C16.2949 32.7428 16.2949 32.7758 16.2619 32.7978C16.2382 32.8196 16.207 32.8314 16.1749 32.8308H15.8899C15.7809 32.8308 15.4859 32.8308 15.0919 32.9068H15.0699V32.9188ZM13.2979 24.9348C14.1723 27.4487 14.7987 30.042 15.1679 32.6778C15.5179 32.6228 15.7809 32.6118 15.8899 32.6118H16.0539C16.0219 32.1968 15.9559 31.4198 15.8359 30.9608L15.8139 30.8728C15.608 30.0432 15.393 29.2158 15.1689 28.3908C14.8074 27.0769 14.3727 25.7842 13.8669 24.5188L13.8009 24.3548C13.7909 24.3328 13.7799 24.3008 13.7689 24.2788H13.0689C13.1449 24.4758 13.2219 24.6938 13.3089 24.9458L13.2979 24.9348Z" fill="black"/>
<path d="M18.789 24.2239C18.745 24.3229 18.691 24.4319 18.647 24.5299C18.1103 25.7879 17.6393 27.073 17.236 28.3799C16.984 29.1999 16.744 30.0749 16.492 30.9399C16.35 31.4529 16.252 32.3599 16.208 32.7329H16.492C16.634 32.7329 16.93 32.7659 17.312 32.8419V32.7549C17.7492 30.126 18.4453 27.5468 19.39 25.0549C19.51 24.7489 19.61 24.4869 19.708 24.2349H18.768L18.789 24.2239Z" fill="black"/>
<path d="M17.3232 32.952H17.3022C17.039 32.8969 16.7718 32.8638 16.5032 32.853H16.2192C16.2192 32.853 16.1532 32.831 16.1312 32.809C16.1097 32.7852 16.0983 32.754 16.0992 32.722C16.1312 32.35 16.2292 31.432 16.3832 30.906L16.4052 30.819C16.6352 29.999 16.8752 29.146 17.1152 28.347C17.5189 27.0368 17.9902 25.7484 18.5272 24.487C18.5482 24.432 18.5812 24.377 18.6032 24.312C18.6252 24.268 18.6472 24.224 18.6692 24.17C18.6912 24.126 18.7232 24.104 18.7792 24.104H19.7192C19.7192 24.104 19.7952 24.137 19.8062 24.17C19.8282 24.202 19.8282 24.235 19.8172 24.279C19.7192 24.531 19.6202 24.793 19.5002 25.099C18.5567 27.583 17.8643 30.1551 17.4332 32.777V32.864C17.4332 32.864 17.4002 32.919 17.3782 32.941C17.3583 32.9528 17.3361 32.9599 17.3132 32.962L17.3232 32.952ZM16.3502 32.624H16.5142C16.6242 32.624 16.8862 32.645 17.2362 32.711C17.6763 30.0867 18.3723 27.5117 19.3142 25.023C19.4122 24.771 19.4892 24.563 19.5762 24.355H18.8762L18.8442 24.421C18.8442 24.421 18.7892 24.531 18.7672 24.585C18.2293 25.8376 17.7619 27.1192 17.3672 28.424C17.1272 29.211 16.8872 30.064 16.6572 30.884L16.6342 30.972C16.5042 31.432 16.4162 32.208 16.3722 32.623L16.3502 32.624Z" fill="black"/>
</g>
</g>
<defs>
<clipPath id="clip0_177_4452">
<rect width="34" height="48" fill="white"/>
</clipPath>
</defs>
</svg>
