<svg width="48" height="48" viewBox="0 0 48 48" fill="none" xmlns="http://www.w3.org/2000/svg">
<g clip-path="url(#clip0_177_4462)">
<path d="M12.2403 26.341C12.0013 26.0727 11.7393 25.8257 11.4573 25.603C11.2923 25.471 11.1163 25.35 10.9513 25.228C9.88125 24.49 8.73625 23.994 8.07525 22.805C7.94325 23.51 7.73425 25.339 7.82225 26.694C7.84417 27.175 7.92169 27.6519 8.05325 28.115C8.39525 29.261 8.94625 30.307 9.75025 31.045C9.99225 31.277 10.2573 31.475 10.5433 31.662C10.8183 31.849 11.1163 32.004 11.4133 32.158C11.7113 32.301 12.0193 32.433 12.3283 32.554C12.3833 32.577 12.4273 32.588 12.4713 32.61C12.7133 32.709 12.9673 32.797 13.2093 32.885L13.3523 32.94C13.3523 32.94 13.5503 32.136 13.6393 31.409C13.7 30.8075 13.6889 30.2009 13.6063 29.602C13.4513 28.423 13.0223 27.256 12.2293 26.342H12.2393L12.2403 26.341ZM9.43025 19.268C9.43025 19.566 9.46425 19.852 9.51925 20.116C9.73925 21.296 10.1793 22.396 10.8963 23.212C11.1163 23.465 11.3593 23.697 11.6123 23.906C11.8653 24.116 12.1413 24.314 12.4163 24.49C12.6923 24.666 12.9893 24.832 13.2763 24.986C13.3203 25.008 13.3753 25.03 13.4193 25.063C13.6503 25.184 13.8923 25.294 14.1243 25.416L14.2673 25.482C14.2673 25.482 14.4103 25.14 14.5313 24.688C14.6203 24.182 14.7193 23.664 14.8403 23.135C14.8733 22.815 14.8733 22.507 14.8733 22.188C14.8403 20.998 14.5433 19.786 13.8593 18.805C13.6548 18.5116 13.4224 18.2386 13.1653 17.99C13.0113 17.836 12.8573 17.704 12.7033 17.56C12.1633 17.098 11.5683 16.712 11.0733 16.206C10.8303 15.963 9.93725 14.994 10.0373 14.641C9.82725 15.335 9.49725 17.329 9.44225 18.695V19.29L9.43025 19.268ZM15.4013 18.365L15.2913 18.255C15.1056 18.0694 14.9256 17.8783 14.7513 17.682C14.7183 17.638 14.6853 17.605 14.6413 17.561C14.4213 17.318 14.2013 17.065 14.0023 16.801C13.8043 16.536 13.6163 16.261 13.4403 15.974C13.2705 15.6863 13.1266 15.3842 13.0103 15.071C12.6253 14.057 12.5923 12.867 12.7903 11.689C12.8376 11.4071 12.9113 11.1302 13.0103 10.862C13.0773 10.675 13.1433 10.488 13.2203 10.312C13.7493 9.04504 14.7623 7.24904 15.1923 6.66504C14.9723 6.96204 15.4673 8.19604 15.5993 8.51504C15.8863 9.17704 16.3153 9.76104 16.6693 10.378C16.7673 10.565 16.8663 10.752 16.9543 10.94C17.1093 11.259 17.2303 11.59 17.3293 11.953C17.6263 13.11 17.4943 14.355 17.1093 15.478C16.9153 16.049 16.6566 16.5959 16.3383 17.108C15.9413 17.726 15.4233 18.376 15.4013 18.354V18.365Z" fill="black"/>
<path d="M17.1091 15.478C17.4941 14.355 17.6271 13.11 17.3291 11.953C17.2392 11.6035 17.1139 11.2641 16.9551 10.94C16.8638 10.7505 16.7681 10.5631 16.6681 10.378C16.3161 9.75004 15.8861 9.16604 15.6001 8.51604C15.4561 8.19604 14.9721 6.96204 15.1921 6.66504C14.7621 7.23804 13.7491 9.04504 13.2201 10.312C13.1431 10.499 13.0771 10.675 13.0101 10.862C12.9227 11.1338 12.8493 11.4098 12.7901 11.689C12.5921 12.867 12.6141 14.057 13.0101 15.071C13.1321 15.379 13.2751 15.688 13.4401 15.974C13.6061 16.261 13.7931 16.536 14.0021 16.8C14.2001 17.065 14.4211 17.318 14.6421 17.56C14.6741 17.594 14.7181 17.638 14.7521 17.682C14.9281 17.88 15.1151 18.067 15.2921 18.255L15.4021 18.365C15.4021 18.365 15.9421 17.737 16.3381 17.12C16.6681 16.613 16.9221 16.051 17.1081 15.49L17.1091 15.478ZM24.6221 11.468C23.9831 11.788 23.2671 11.953 22.6061 12.218C22.4081 12.295 22.2101 12.372 22.0221 12.46C21.6938 12.61 21.3804 12.7909 21.0861 13C20.3261 13.54 19.7421 14.278 19.3231 15.104C19.1691 15.467 19.0151 15.842 18.8721 16.228C18.8281 16.338 18.7941 16.448 18.7621 16.548C18.6611 16.8866 18.5872 17.2327 18.5411 17.583C18.4411 18.31 18.4311 19.147 18.4531 19.136H18.6071C18.8721 19.092 19.1361 19.07 19.3891 19.026C19.4441 19.026 19.4991 19.015 19.5441 19.004C19.8741 18.96 20.1941 18.904 20.5241 18.827C20.8441 18.75 21.1631 18.662 21.4831 18.552C21.8021 18.442 22.0991 18.299 22.3971 18.145C23.3441 17.615 24.1271 16.723 24.7321 15.688C24.8776 15.4431 24.9995 15.185 25.0961 14.917C25.1621 14.74 25.2281 14.553 25.2941 14.355C25.7021 13.044 26.0871 11.017 26.1211 10.29C26.0991 10.653 24.9311 11.292 24.6221 11.446V11.468ZM22.9801 21.934C22.9591 22.408 23.0251 22.849 23.1571 23.267L23.2011 23.223C23.3771 23.013 23.5311 22.771 23.6861 22.518C23.7851 22.353 23.8731 22.177 23.9611 22C24.5671 20.766 25.2501 18.816 25.3931 18.111C25.3161 18.475 24.0601 18.916 23.7301 19.026C23.0471 19.246 22.3201 19.301 21.6251 19.456C21.4161 19.499 21.2181 19.555 21.0091 19.61C20.6671 19.709 20.3371 19.83 20.0061 19.995C18.9371 20.535 18.0891 21.46 17.5061 22.485C17.2022 23.0091 16.9615 23.5673 16.7891 24.148C16.5791 24.854 16.4361 25.668 16.4691 25.668H16.6241C16.8881 25.691 17.1531 25.702 17.4171 25.702H17.5711C17.9011 25.702 18.2321 25.702 18.5631 25.68C18.8931 25.658 19.2231 25.614 19.5541 25.559C19.8841 25.493 20.2041 25.404 20.5241 25.294C20.5571 25.284 20.6011 25.261 20.6341 25.25C20.6561 25.206 20.6781 25.151 20.7111 25.107C21.3611 23.907 22.5071 22.474 22.9911 21.945L22.9811 21.935L22.9801 21.934ZM16.6471 29.79C16.349 30.3154 16.1124 30.8735 15.9421 31.453C15.8776 31.6784 15.8223 31.9062 15.7761 32.136C15.7761 32.422 15.7761 32.709 15.7871 32.984C16.0521 32.995 16.3171 33.006 16.5811 33.006H16.7351C17.0651 33.006 17.3951 33.006 17.7261 32.973C18.0561 32.951 18.3871 32.907 18.7061 32.841C19.0371 32.775 19.3561 32.687 19.6661 32.565C20.1247 32.3857 20.5549 32.1408 20.9431 31.838C20.8991 31.772 20.8551 31.706 20.8111 31.629C20.6382 31.3474 20.48 31.057 20.3371 30.759C20.1975 30.4568 20.0835 30.1433 19.9961 29.822C19.7421 28.908 19.7861 27.905 19.9961 26.902C19.6871 27.002 19.3901 27.112 19.1031 27.266C18.0351 27.817 17.2081 28.754 16.6251 29.789L16.6471 29.79ZM24.4901 25.338C24.4681 25.438 24.3471 25.558 24.1821 25.668C24.2261 25.779 24.2701 25.889 24.3141 26.01C24.3911 25.735 24.4571 25.504 24.4901 25.35V25.338ZM14.7181 23.983C14.7841 23.697 14.8181 23.422 14.8511 23.124C14.7411 23.653 14.6311 24.171 14.5421 24.677C14.6081 24.457 14.6631 24.215 14.7181 23.972V23.983Z" fill="black"/>
<path d="M19.324 15.104C19.2029 15.3449 19.0928 15.5911 18.994 15.842C18.905 16.073 18.828 16.316 18.751 16.558C18.795 16.448 18.828 16.338 18.861 16.238C19.015 15.842 19.17 15.478 19.313 15.115L19.324 15.104ZM15.644 32.984H15.798C15.798 32.709 15.787 32.422 15.787 32.136C15.687 32.598 15.632 32.984 15.655 32.984H15.644Z" fill="black"/>
<path d="M15.1484 33.3479C15.0604 33.2269 14.9384 33.0609 15.1704 32.0479C15.1704 31.4079 15.1704 30.7579 15.2034 30.1199C15.2914 28.0489 15.5884 25.9889 15.9734 23.9619C16.5254 21.3839 17.2854 18.8499 18.1774 16.3709C18.329 15.842 18.532 15.3292 18.7834 14.8399C19.1254 14.0569 19.4884 13.2859 19.8964 12.5369C20.1494 12.4379 20.4464 12.3269 20.7224 12.1959C21.0721 12.0332 21.4076 11.8415 21.7254 11.6229C21.9234 11.4909 22.1104 11.3469 22.2974 11.2039C23.2344 10.4439 24.0054 9.44188 24.3254 8.27388C24.6994 6.88588 24.4024 5.47488 24.4134 4.07588C24.4134 3.89988 24.3914 3.27188 24.5334 2.95288C24.3474 3.23888 23.8074 3.56988 23.6634 3.65788C22.4964 4.41788 21.1524 4.94688 20.1834 6.01488C19.3674 6.91888 18.9484 8.10788 18.8164 9.30888C18.7466 9.92806 18.754 10.5535 18.8384 11.1709C18.9044 11.6229 19.0034 12.0969 19.0814 12.4049C19.1034 12.4709 19.1144 12.5369 19.1254 12.5809C18.0454 14.4869 17.3624 16.5809 16.6904 18.6509C16.2084 20.1512 15.7967 21.6732 15.4564 23.2119C15.4249 23.5113 15.3808 23.8092 15.3244 24.1049C15.2694 24.3579 15.2034 24.6119 15.1484 24.8099C15.0824 25.1839 15.0274 25.5589 14.9714 25.9339C14.6175 28.0517 14.4665 30.1984 14.5204 32.3449C14.5204 33.0609 14.5644 33.7889 14.6084 34.5049C14.6854 35.9149 14.7954 37.3249 15.0484 38.7129C15.3794 40.4319 15.7544 42.1389 16.3264 43.7919C16.6684 44.8379 17.0654 45.4989 17.7924 46.3259C17.7264 46.0609 17.6264 45.7959 17.5384 45.5319C17.3839 45.0159 17.2111 44.5056 17.0204 44.0019C16.5034 42.4149 16.1404 40.7949 15.7984 39.1649C15.5664 37.9969 15.4344 36.8069 15.3354 35.6169C15.2695 34.8767 15.2255 34.1347 15.2034 33.3919C15.1814 33.3699 15.1704 33.3479 15.1484 33.3369V33.3479Z" fill="black" stroke="black" stroke-width="0.4" stroke-miterlimit="10"/>
<path d="M15.4564 23.223C15.3354 23.752 15.2364 24.292 15.1364 24.832C15.1924 24.633 15.2584 24.38 15.3134 24.126C15.3794 23.84 15.4234 23.543 15.4454 23.234L15.4564 23.224V23.223ZM18.1784 16.36C18.2224 16.239 18.2664 16.129 18.2994 16.007C18.4534 15.611 18.6084 15.225 18.7734 14.829C18.5219 15.318 18.3189 15.8304 18.1674 16.359H18.1784V16.36ZM15.1484 33.348C15.1484 33.348 15.1814 33.392 15.2034 33.403L15.1704 32.037C14.9384 33.05 15.0604 33.227 15.1484 33.337V33.348ZM20.7234 25.867C20.5804 25.922 20.4364 25.967 20.2834 26.01C20.2604 26.076 20.2274 26.154 20.2054 26.22C20.3264 26.187 20.4594 26.154 20.6024 26.12C20.8664 26.054 21.1424 26.01 21.4064 25.966C21.8464 25.889 22.2664 25.812 22.6514 25.691C23.1914 25.515 23.7644 25.239 23.9294 25.096C23.7414 24.699 23.5544 24.314 23.3894 23.928C22.5634 24.865 21.6704 25.514 20.7234 25.867ZM23.3554 30.065C23.2013 30.3433 23.0247 30.6085 22.8274 30.858C22.3924 31.4218 21.8846 31.9255 21.3174 32.356C21.3394 32.389 21.3724 32.433 21.3954 32.466L21.4944 32.599C21.6484 32.808 21.8144 33.017 21.9784 33.227L22.0784 33.347C22.0784 33.347 22.6724 32.775 23.1354 32.202C23.5081 31.7233 23.8227 31.202 24.0724 30.649C24.5674 29.569 24.8214 28.346 24.6444 27.156C24.6444 27.134 24.6444 27.101 24.6344 27.079C24.3474 27.905 23.9944 28.819 23.6644 29.503C23.5784 29.6971 23.4788 29.8849 23.3664 30.065H23.3564H23.3554ZM23.1574 23.268C23.0252 22.8365 22.9657 22.386 22.9814 21.935C22.4964 22.463 21.3514 23.895 20.7014 25.096C20.6784 25.14 20.6454 25.196 20.6234 25.24C21.5814 24.854 22.4304 24.138 23.1574 23.268ZM20.0184 29.823C20.1064 30.143 20.2274 30.462 20.3594 30.759C20.5024 31.056 20.6574 31.354 20.8334 31.629C20.8799 31.6974 20.924 31.7674 20.9654 31.839C21.4724 31.453 21.9354 30.99 22.3424 30.462C22.5194 30.242 22.6724 29.999 22.8164 29.746C22.9164 29.58 23.0034 29.404 23.0914 29.216C23.5434 28.269 24.0394 26.881 24.3144 25.978C24.2704 25.868 24.2264 25.746 24.1824 25.636C23.7744 25.912 23.0694 26.165 22.8384 26.242C22.1554 26.474 21.4284 26.54 20.7344 26.694C20.5244 26.738 20.3264 26.793 20.1174 26.859C20.0844 26.859 20.0514 26.881 20.0174 26.892C19.7974 27.895 19.7644 28.897 20.0174 29.812V29.822L20.0184 29.823ZM26.0004 19.665C25.8565 19.9138 25.7276 20.1709 25.6144 20.435C25.1744 21.549 24.9534 22.716 25.1294 23.796C25.1844 24.126 25.2614 24.446 25.3724 24.766C25.4824 25.085 25.6024 25.383 25.7464 25.691C25.8894 25.988 26.0444 26.286 26.2204 26.561C26.2502 26.6028 26.276 26.6474 26.2974 26.694C26.4294 26.924 26.5724 27.145 26.7164 27.366L26.8044 27.498C26.8044 27.498 27.4644 26.991 27.9724 26.473C28.3904 26.043 28.7544 25.548 29.0624 25.03C29.6684 24.005 30.0544 22.816 29.9994 21.626C29.9756 21.2662 29.9238 20.9088 29.8444 20.557C29.8004 20.347 29.7344 20.15 29.6794 19.94C29.4694 19.268 29.1724 18.618 29.0194 17.924C28.9414 17.594 28.6994 16.294 28.9744 16.051C28.4344 16.525 27.0904 18.034 26.3194 19.158C26.2094 19.323 26.0994 19.488 25.9994 19.654V19.664L26.0004 19.665ZM31.3214 20.976L31.3544 21.13C31.3984 21.384 31.4544 21.648 31.5084 21.901L31.5414 22.056C31.5414 22.056 32.3354 21.813 32.9964 21.494C33.5413 21.235 34.0519 20.9092 34.5164 20.524C35.4414 19.775 36.2134 18.794 36.5764 17.649C36.6864 17.297 36.7524 16.944 36.7964 16.602C36.8184 16.393 36.8404 16.184 36.8524 15.975C36.8854 15.258 36.8294 14.531 36.9404 13.826C36.9954 13.485 37.2264 12.174 37.5794 12.041C36.9074 12.306 35.0894 13.286 33.9654 14.08C33.8004 14.19 33.6454 14.311 33.4914 14.443C33.2604 14.63 33.0514 14.829 32.8634 15.027C32.0594 15.919 31.4534 16.933 31.2444 18.002C31.1784 18.332 31.1444 18.662 31.1344 18.993C31.1344 19.323 31.1344 19.654 31.1674 19.985C31.2004 20.315 31.2444 20.645 31.2994 20.965L31.3214 20.976ZM43.0204 21.13C42.3044 21.064 41.6214 20.822 40.9164 20.69C40.7089 20.6459 40.4993 20.6125 40.2884 20.59C39.9364 20.546 39.5834 20.524 39.2084 20.546C38.0084 20.612 36.8734 21.13 35.9154 21.836C35.4285 22.1945 34.9848 22.6082 34.5934 23.069C34.1304 23.642 33.6674 24.325 33.6894 24.347L33.8334 24.413C34.0634 24.534 34.3064 24.645 34.5484 24.755C34.5934 24.777 34.6484 24.799 34.6924 24.821C34.9894 24.953 35.2984 25.085 35.6174 25.195C36.244 25.4254 36.901 25.5628 37.5674 25.603C38.6574 25.658 39.7924 25.327 40.8504 24.766C41.0924 24.634 41.3354 24.479 41.5774 24.303C41.7314 24.193 41.8864 24.061 42.0404 23.939C43.0754 23.047 44.4864 21.527 44.9044 20.943C44.6954 21.24 43.3624 21.153 43.0204 21.119V21.13ZM38.2504 27.046C37.5564 26.87 36.9064 26.528 36.2344 26.286C36.0364 26.2084 35.834 26.1423 35.6284 26.088C35.2832 25.9879 34.9293 25.9213 34.5714 25.889C33.3814 25.779 32.1694 26.109 31.1224 26.671C30.5901 26.9563 30.0914 27.3001 29.6354 27.696C29.0854 28.181 28.5334 28.798 28.5554 28.82L28.6884 28.908C28.9084 29.062 29.1184 29.205 29.3384 29.348C29.3824 29.382 29.4264 29.404 29.4704 29.437C29.7454 29.613 30.0324 29.789 30.3184 29.943C30.6154 30.098 30.9134 30.241 31.2214 30.363C31.5304 30.483 31.8494 30.583 32.1804 30.648C33.2494 30.868 34.4164 30.704 35.5514 30.318C35.8154 30.23 36.0804 30.108 36.3334 29.977C36.5094 29.888 36.6754 29.789 36.8514 29.679C38.0084 28.963 39.6274 27.663 40.1344 27.145C39.8814 27.41 38.5814 27.123 38.2394 27.035L38.2504 27.046ZM33.6454 32.709C32.9514 32.543 32.3014 32.213 31.6294 31.97C31.4295 31.9011 31.2274 31.8388 31.0234 31.783C30.6766 31.6886 30.3228 31.6223 29.9654 31.585C28.7754 31.485 27.5754 31.827 26.5284 32.4C25.9953 32.6827 25.4994 33.0307 25.0524 33.436C24.5124 33.931 23.9614 34.548 23.9834 34.571L24.1154 34.659C24.3354 34.813 24.5454 34.956 24.7764 35.099C24.8204 35.132 24.8644 35.154 24.9094 35.187C25.1844 35.364 25.4704 35.529 25.7684 35.683C26.0654 35.837 26.3634 35.981 26.6714 36.091C26.9804 36.211 27.3114 36.301 27.6304 36.366C28.6984 36.576 29.8664 36.399 31.0004 36.003C31.2654 35.914 31.5184 35.793 31.7834 35.65C31.9594 35.562 32.1244 35.463 32.2904 35.353C33.4474 34.614 35.0554 33.315 35.5504 32.786C35.2974 33.05 33.9974 32.786 33.6564 32.698L33.6454 32.709ZM46.3484 14.002C44.9484 14.024 43.5384 13.76 42.1504 14.145C40.9834 14.476 39.9914 15.258 39.2424 16.205C38.8526 16.6904 38.5266 17.2237 38.2724 17.792C38.0854 18.2 37.9204 18.662 37.8214 18.971C37.7994 19.037 37.7774 19.103 37.7664 19.147C38.0304 19.004 38.2944 18.872 38.5594 18.74C38.8674 18.596 39.1764 18.453 39.4954 18.365C39.9034 18.244 40.3114 18.211 40.7294 18.211H40.8724H40.8284C40.744 18.2288 40.6625 18.2584 40.5864 18.299C40.2564 18.453 39.9694 18.673 39.6614 18.861C39.5514 18.927 39.4514 18.981 39.3414 19.048C39.0444 19.191 38.7464 19.357 38.4494 19.511C38.7134 19.566 39.0334 19.621 39.3304 19.665C39.7164 19.72 40.1014 19.731 40.4874 19.72C40.7184 19.72 40.9614 19.698 41.1924 19.665C42.3924 19.522 43.5824 19.081 44.4644 18.255C45.5214 17.275 46.0284 15.93 46.7664 14.752C46.8554 14.608 47.1744 14.057 47.4604 13.87C47.1524 14.013 46.5244 14.002 46.3484 14.002Z" fill="black"/>
<path d="M37.7431 19.334C37.7431 19.334 37.7431 19.268 37.7871 19.158C35.8701 20.194 34.1631 21.604 32.4881 23.003C30.5821 24.623 28.7651 26.341 27.1451 28.258C25.7251 29.8676 24.4564 31.6046 23.3551 33.447C22.9843 34.0627 22.6282 34.6872 22.2871 35.32C21.6041 36.554 20.9431 37.81 20.4251 39.12C19.7851 40.751 19.2021 42.393 18.8161 44.1C18.5411 45.169 18.5301 45.94 18.7061 47.03C18.7831 46.766 18.8381 46.502 18.9161 46.226C19.0591 45.698 19.1801 45.213 19.2901 44.662C19.6871 43.042 20.2491 41.478 20.8221 39.914C21.2521 38.801 21.7691 37.721 22.3091 36.664C23.1482 35.0235 24.0901 33.4377 25.1291 31.916C26.3081 30.208 27.6521 28.622 29.0621 27.112C30.9901 25.129 33.0721 23.322 35.2531 21.626C36.2781 20.866 37.3361 20.139 38.4481 19.522C38.0411 19.434 37.7321 19.357 37.7431 19.334Z" fill="black" stroke="black" stroke-width="0.4" stroke-miterlimit="10"/>
<path d="M39.6714 18.8719C39.9804 18.6839 40.2664 18.4639 40.5974 18.3099C40.6744 18.2769 40.7514 18.2439 40.8394 18.2219H40.8834H40.7404C40.3324 18.2219 39.9144 18.2549 39.5064 18.3759C39.1764 18.4639 38.8784 18.6069 38.5704 18.7499C38.2944 18.8829 38.0304 19.0149 37.7764 19.1579C37.7434 19.2679 37.7324 19.3339 37.7324 19.3339C37.7324 19.3339 38.0304 19.4339 38.4384 19.5219C38.7354 19.3559 39.0324 19.2019 39.3304 19.0589C39.4404 19.0039 39.5504 18.9379 39.6504 18.8719H39.6714Z" fill="black"/>
<path d="M0.782227 0.781982L10.7522 10.752M35.5842 35.584L45.5542 45.554" stroke="black" stroke-width="2.01" stroke-miterlimit="10"/>
</g>
<defs>
<clipPath id="clip0_177_4462">
<rect width="48" height="48" fill="white"/>
</clipPath>
</defs>
</svg>
