<svg width="97" height="47" viewBox="0 0 97 47" fill="none" xmlns="http://www.w3.org/2000/svg">
<path d="M15.5893 0.0249023H0V1.77616H2.59821C3.55484 1.77616 4.33036 2.56022 4.33036 3.52741V31.5475C4.33036 32.5147 3.55484 33.2987 2.59821 33.2987H0V35.05H15.5893V33.2987H12.9911C12.0344 33.2987 11.2589 32.5147 11.2589 31.5475V3.52741C11.2589 2.56022 12.0344 1.77616 12.9911 1.77616H15.5893V0.0249023Z" fill="black"/>
<path d="M51.0982 2.21399C48.0794 -0.075068 45.3895 -0.0348047 42.1688 0.0134152C41.6935 0.0205296 41.2066 0.0278184 40.7054 0.0278184C44.7499 1.97141 49.8979 5.27868 49.8979 9.65682H51.0982V2.21399Z" fill="black"/>
<path d="M36.0448 35.9227C29.5988 32.8251 25.1161 25.9541 25.1161 17.9753C25.1161 9.99647 29.5988 3.12544 36.0448 0.0278184C26.1525 0.201619 18.1875 8.17042 18.1875 17.9753C18.1875 27.7801 26.1525 35.7489 36.0448 35.9227Z" fill="black"/>
<path d="M40.2723 35.9256C42.4207 35.7899 47.3568 35.1743 49.9143 33.7975C51.243 33.0419 51.9643 31.1097 51.9643 30.2341V21.6237C51.9643 21.04 52.4839 20.1644 54.5625 20.1644V18.4131H42.4375V20.1644C43.3036 20.1644 45.0357 20.2227 45.0357 21.6237V30.2341C45.0357 32.861 43.3036 35.05 40.2723 35.9256Z" fill="black"/>
<path d="M58.8931 0.0249023H74.4824V1.77616H71.8841C70.9275 1.77616 70.152 2.56022 70.152 3.52741V31.5475C70.152 32.5147 70.9275 33.2987 71.8841 33.2987H74.4824V35.05H58.8931V33.2987H61.4913C62.4479 33.2987 63.2234 32.5147 63.2234 31.5475V3.52741C63.2234 2.56022 62.4479 1.77616 61.4913 1.77616H58.8931V0.0249023Z" fill="black"/>
<path d="M81.4109 0.0249023H95.2681L83.1431 7.90555C83.5761 7.17586 84.4422 5.62892 84.4422 3.52741C84.4422 2.21397 83.5761 1.77616 82.71 1.77616H81.4109V0.0249023Z" fill="black"/>
<path d="M72.3172 18.8509L77.5136 14.0349C81.0637 18.7756 88.8289 28.9196 91.4887 31.5709C92.7998 32.9438 93.969 33.2987 97.0002 33.2987V35.05H88.7725C86.6074 35.05 83.8091 33.1805 81.3741 30.2452C79.4261 27.897 74.3801 21.5246 72.3172 18.8509Z" fill="black"/>
</svg>
