<svg width="125" height="24" viewBox="0 0 125 24" fill="none" xmlns="http://www.w3.org/2000/svg">
<path d="M11.5741 0L14.1726 7.99749H22.5817L15.7786 12.9402L18.3771 20.9377L11.5741 15.995L4.771 20.9377L7.36955 12.9402L0.566476 7.99749H8.97553L11.5741 0Z" fill="black"/>
<path d="M37.037 0L39.6355 7.99749H48.0446L41.2415 12.9402L43.84 20.9377L37.037 15.995L30.2339 20.9377L32.8324 12.9402L26.0294 7.99749H34.4384L37.037 0Z" fill="black"/>
<path d="M62.4999 0L65.0984 7.99749H73.5075L66.7044 12.9402L69.3029 20.9377L62.4999 15.995L55.6968 20.9377L58.2953 12.9402L51.4923 7.99749H59.9013L62.4999 0Z" fill="black"/>
<path d="M87.9627 0L90.5613 7.99749H98.9703L92.1673 12.9402L94.7658 20.9377L87.9627 15.995L81.1597 20.9377L83.7582 12.9402L76.9551 7.99749H85.3642L87.9627 0Z" fill="black"/>
<path d="M113.426 0L116.025 7.99749H124.434L117.631 12.9402L120.229 20.9377L113.426 15.995L106.623 20.9377L109.222 12.9402L102.419 7.99749H110.828L113.426 0Z" fill="black"/>
</svg>
