<?xml version="1.0" encoding="utf-8"?>
<!-- Generator: Adobe Illustrator 27.8.1, SVG Export Plug-In . SVG Version: 6.00 Build 0)  -->
<svg version="1.1" id="Layer_1" xmlns="http://www.w3.org/2000/svg" xmlns:xlink="http://www.w3.org/1999/xlink" x="0px" y="0px"
	 viewBox="0 0 49.86 41.39" style="enable-background:new 0 0 49.86 41.39;" xml:space="preserve">
<style type="text/css">
	.st0{fill:#FFFFFF;}
</style>
<path class="st0" d="M44.14,14.56l2.84-0.06c-1.47-2.55-3.42-4.88-5.84-6.84c-5.65-4.57-12.71-6.21-19.36-5.13
	C27.6,2.24,33.54,4,38.42,7.94C40.78,9.84,42.68,12.09,44.14,14.56z"/>
<path class="st0" d="M14.66,29.32l-2.69,0.91c2.17,1.99,4.73,3.62,7.63,4.76c6.76,2.65,13.99,2.08,20-0.95
	c-5.46,2.04-11.65,2.15-17.5-0.14C19.28,32.8,16.78,31.23,14.66,29.32z"/>
<path class="st0" d="M25.56,10.36c0.74-0.05,1.13-0.39,3.09,0c0-0.02,2.7-0.15,7.6,4.51c1.46,1.39,2.28,3.68,3.05,3.91
	c0.67,0.19,3.81,0.37,4.01,1.63c0.14,1.05-2.02,3.14-4.62,2.98c0.47-0.7,1.97-0.87,2.7-2.74c-0.82-0.48-2.1-0.54-3.3-0.21
	c-2.26-5.27-8.93-8.92-11.22-9.2c-1.89-0.26-2.6,0.06-3.84,0c0.88-0.27,2.09-0.89,2.52-0.89"/>
<path class="st0" d="M17.25,3.96c0.91,0.01,1.23-0.03,2.13,0.57l-2.13,0.18c-0.07,0.01-2.51,0.63-3.55,2.66
	c0.44,0.35,0.42,0.45,0.89,0.46c0.73-0.01,2.52-2.38,5.65-2.38c0.58,0,1.09,0.22,1.1,0.21c0.32,0.19,0.21,0.51,0.21,0.96
	c0,0.01-2,4.6-5.47,4.62h-0.75c2.22-0.52,3.8-2.59,4.97-4.55l-2.31,0.67c-1.59,0.47-3.37,1.93-3.98,1.92
	c-0.68,0.01-1.14-0.58-2.98-0.57C9.6,8.7,7.96,9.48,7.19,10.02c0.36,0.75,1.07,0.41,1.67,0.36c-0.04,0.04-0.2,0.69-1.95,0.85
	c0,0.09,0.37,1.51,1.28,2.41c1.07,1.09,2.74,1.69,3.3,1.7c0,0.23,0.11,1.16,0.75,2.38c2.74,5.31,4.24,0.92,7.53,6.22v0.6
	c-1.78-1.5-4.56-2-6.07-2.24c-2.14-0.33-4.36-0.02-4.44,0c-0.77,0.18-2.84,0.59-2.84,0.6c1.64-2,5.58-2.07,6.32-2.38
	c-2.6-2.6-2.27-3.45-2.59-3.84c-0.24-0.32-3.99-0.74-3.98-5.93C6.16,8.87,9.73,7.5,10.89,7.48c2.12,0.01,2.84-3.54,6.36-3.55"/>
<path class="st0" d="M11.64,9.47c0.5-0.06,0.42-0.07,1.07,0.18l0.04,0.64c-0.68-0.13-1.61-0.03-2.59-0.11
	c0.53-0.4,0.67-0.65,1.49-0.71"/>
<path class="st0" d="M5.07,16.47c1.5,0.01,3.35,1.24,3.55,1.38c-1,0.07-1.12-0.1-3.37,0.07c-0.01,0-1.9,0.11-3.37,0.43
	c1.03-1.44,0.83-1.92,3.2-1.88"/>
<path class="st0" d="M33.73,26.76l2.45,1.17c2.9,1.39,5.64-2.28,6.68-2.95c0.46,2.34,2.77,7.07,6.11,7.96
	c-0.48,0.55-1.03,0.48-1.67,0.5c-1.61-0.02-4.66-2.61-4.65-4.65c0,0.01-0.08-1.51-0.07-1.85c-0.91,1.77-2.8,2.93-4.4,2.91
	c-1.22,0.02-1.49-0.09-2.56-0.57c-0.23-0.11-6.04-3.66-6.36-6.14C29.53,23.27,32.47,26.28,33.73,26.76z"/>
<path class="st0" d="M44.02,34.93l-0.96,0.14c-2.34-0.38-2.77-3.79-2.1-4.72c0,0,0.4-0.7,0.75-1.03c0.06,1.7,0.25,2.99,0.39,3.37
	C42.51,33.64,41.81,33.23,44.02,34.93z"/>
<path class="st0" d="M12.31,29.34l-1.36-1.53l-1.91,0.72c0.31-0.61,0.76-1.14,1.09-1.76c-0.42-0.54-0.85-1.06-1.29-1.58
	c0.65,0.14,1.39,0.32,2.04,0.49l1.09-1.71c0.08,0.65,0.12,1.35,0.18,2.01l2.02,0.55l-1.96,0.79l0.11,2.01L12.31,29.34z"/>
<path class="st0" d="M48.42,20.38l-1.77-1.02l-1.58,1.28c0.1-0.68,0.36-1.33,0.48-2.01c-0.57-0.38-1.14-0.73-1.73-1.1
	c0.66-0.07,1.42-0.14,2.1-0.18l0.49-1.97c0.28,0.59,0.54,1.24,0.8,1.86l2.09-0.12l-1.61,1.37l0.74,1.88L48.42,20.38z"/>
<path class="st0" d="M39.2,38.31v-2.46h0.98c0.56,0,0.78,0.32,0.79,0.73c0,0.3-0.15,0.55-0.45,0.63l0.54,1.1h-0.52l-0.46-1h-0.41v1
	H39.2z M39.67,36.93h0.35c0.37,0,0.48-0.12,0.48-0.35s-0.14-0.35-0.4-0.35h-0.43v0.69V36.93z"/>
<path class="st0" d="M40.02,35.19c1.05,0,1.9,0.85,1.9,1.89c0,1.04-0.85,1.9-1.9,1.9s-1.9-0.85-1.9-1.9
	C38.12,36.03,38.97,35.19,40.02,35.19z M40.02,34.77c-1.28,0-2.31,1.04-2.31,2.31c0,1.27,1.04,2.31,2.31,2.31s2.31-1.04,2.31-2.31
	C42.33,35.81,41.3,34.77,40.02,34.77z"/>
</svg>
