<svg width="48" height="38" viewBox="0 0 48 38" fill="none" xmlns="http://www.w3.org/2000/svg">
<g clip-path="url(#clip0_603_2665)">
<path d="M42.2702 12.35L45.1102 12.29C43.6402 9.73999 41.6902 7.40999 39.2702 5.44999C33.6202 0.879993 26.5602 -0.760007 19.9102 0.319993C25.7302 0.0299931 31.6702 1.78999 36.5502 5.72999C38.9102 7.62999 40.8102 9.87999 42.2702 12.35Z" fill="black"/>
<path d="M12.7896 27.1101L10.0996 28.0201C12.2696 30.0101 14.8296 31.6401 17.7296 32.7801C24.4896 35.4301 31.7196 34.8601 37.7296 31.8301C32.2696 33.8701 26.0796 33.9801 20.2296 31.6901C17.4096 30.5901 14.9096 29.0201 12.7896 27.1101Z" fill="black"/>
<path d="M23.6902 8.15008C24.4302 8.10008 24.8202 7.76008 26.7802 8.15008C26.7802 8.13008 29.4802 8.00008 34.3802 12.6601C35.8402 14.0501 36.6602 16.3401 37.4302 16.5701C38.1002 16.7601 41.2402 16.9401 41.4402 18.2001C41.5802 19.2501 39.4202 21.3401 36.8202 21.1801C37.2902 20.4801 38.7902 20.3101 39.5202 18.4401C38.7002 17.9601 37.4202 17.9001 36.2202 18.2301C33.9602 12.9601 27.2902 9.31008 25.0002 9.03008C23.1102 8.77008 22.4002 9.09008 21.1602 9.03008C22.0402 8.76008 23.2502 8.14008 23.6802 8.14008" fill="black"/>
<path d="M15.3798 1.74997C16.2898 1.75997 16.6098 1.71997 17.5098 2.31997L15.3798 2.49997C15.3098 2.50997 12.8698 3.12997 11.8298 5.15997C12.2698 5.50997 12.2498 5.60997 12.7198 5.61997C13.4498 5.60997 15.2398 3.23997 18.3698 3.23997C18.9498 3.23997 19.4598 3.45997 19.4698 3.44997C19.7898 3.63997 19.6798 3.95997 19.6798 4.40997C19.6798 4.41997 17.6798 9.00997 14.2098 9.02997H13.4598C15.6798 8.50997 17.2598 6.43997 18.4298 4.47997L16.1198 5.14997C14.5298 5.61997 12.7498 7.07997 12.1398 7.06997C11.4598 7.07997 10.9998 6.48997 9.15983 6.49997C7.72983 6.48997 6.08983 7.26997 5.31983 7.80997C5.67983 8.55997 6.38983 8.21997 6.98983 8.16997C6.94983 8.20997 6.78983 8.85997 5.03983 9.01997C5.03983 9.10997 5.40983 10.53 6.31983 11.43C7.38983 12.52 9.05983 13.12 9.61983 13.13C9.61983 13.36 9.72983 14.29 10.3698 15.51C13.1098 20.82 14.6098 16.43 17.8998 21.73V22.33C16.1198 20.83 13.3398 20.33 11.8298 20.09C9.68983 19.76 7.46983 20.07 7.38983 20.09C6.61983 20.27 4.54983 20.68 4.54983 20.69C6.18983 18.69 10.1298 18.62 10.8698 18.31C8.26983 15.71 8.59983 14.86 8.27983 14.47C8.03983 14.15 4.28983 13.73 4.29983 8.53997C4.28983 6.65997 7.85983 5.28997 9.01983 5.26997C11.1398 5.27997 11.8598 1.72997 15.3798 1.71997" fill="black"/>
<path d="M9.77004 7.25999C10.27 7.19999 10.19 7.18999 10.84 7.43999L10.88 8.07999C10.2 7.94999 9.27004 8.04999 8.29004 7.96999C8.82004 7.56999 8.96004 7.31999 9.78004 7.25999" fill="black"/>
<path d="M3.19977 14.2601C4.69977 14.2701 6.54977 15.5001 6.74977 15.6401C5.74977 15.7101 5.62977 15.5401 3.37977 15.7101C3.36977 15.7101 1.47977 15.8201 0.00976562 16.1401C1.03977 14.7001 0.839766 14.2201 3.20977 14.2601" fill="black"/>
<path d="M31.8596 24.5499L34.3097 25.7199C37.2097 27.1099 39.9497 23.4399 40.9897 22.7699C41.4497 25.1099 43.7596 29.8399 47.0996 30.7299C46.6196 31.2799 46.0696 31.2099 45.4296 31.2299C43.8196 31.2099 40.7696 28.6199 40.7796 26.5799C40.7796 26.5899 40.6996 25.0699 40.7096 24.7299C39.7996 26.4999 37.9097 27.6599 36.3097 27.6399C35.0897 27.6599 34.8196 27.5499 33.7496 27.0699C33.5196 26.9599 27.7096 23.4099 27.3896 20.9299C27.6596 21.0599 30.5996 24.0699 31.8596 24.5499Z" fill="black"/>
<path d="M42.1501 32.7201L41.1901 32.8601C38.8501 32.4801 38.4201 29.0701 39.0901 28.1401C39.0901 28.1401 39.4901 27.4401 39.8401 27.1101C39.9001 28.8101 40.0901 30.1001 40.2301 30.4801C40.6401 31.4301 39.9401 31.0201 42.1501 32.7201Z" fill="black"/>
<path d="M10.4397 27.13L9.07973 25.6L7.16973 26.32C7.47973 25.71 7.92973 25.18 8.25973 24.56C7.83973 24.02 7.40973 23.5 6.96973 22.98C7.61973 23.12 8.35973 23.3 9.00973 23.47L10.0997 21.76C10.1797 22.41 10.2197 23.11 10.2797 23.77L12.2997 24.32L10.3397 25.11L10.4497 27.12L10.4397 27.13Z" fill="black"/>
<path d="M46.5404 18.1699L44.7704 17.1499L43.1904 18.4299C43.2904 17.7499 43.5504 17.0999 43.6704 16.4199C43.1004 16.0399 42.5304 15.6899 41.9404 15.3199C42.6004 15.2499 43.3604 15.1799 44.0404 15.1399L44.5304 13.1699C44.8104 13.7599 45.0704 14.4099 45.3304 15.0299L47.4204 14.9099L45.8104 16.2799L46.5504 18.1599L46.5404 18.1699Z" fill="black"/>
<path d="M37.3203 36.0999V33.6399H38.3003C38.8603 33.6399 39.0803 33.9599 39.0903 34.3699C39.0903 34.6699 38.9403 34.9199 38.6403 34.9999L39.1803 36.0999H38.6603L38.2003 35.0999H37.7903V36.0999H37.3203ZM37.7903 34.7199H38.1403C38.5103 34.7199 38.6203 34.5999 38.6203 34.3699C38.6203 34.1399 38.4803 34.0199 38.2203 34.0199H37.7903V34.7099V34.7199Z" fill="black"/>
<path d="M38.1498 32.9801C39.1998 32.9801 40.0498 33.8301 40.0498 34.8701C40.0498 35.9101 39.1998 36.7701 38.1498 36.7701C37.0998 36.7701 36.2498 35.9201 36.2498 34.8701C36.2498 33.8201 37.0998 32.9801 38.1498 32.9801ZM38.1498 32.5601C36.8698 32.5601 35.8398 33.6001 35.8398 34.8701C35.8398 36.1401 36.8798 37.1801 38.1498 37.1801C39.4198 37.1801 40.4598 36.1401 40.4598 34.8701C40.4598 33.6001 39.4298 32.5601 38.1498 32.5601Z" fill="black"/>
</g>
<defs>
<clipPath id="clip0_603_2665">
<rect width="47.41" height="37.18" fill="white"/>
</clipPath>
</defs>
</svg>
