<svg width="1620" height="146" viewBox="0 0 1620 146" fill="none" xmlns="http://www.w3.org/2000/svg">
<path d="M1627 76.0162H1626.61V145.558C1624.13 145.554 1621.42 145.579 1618.99 145.586C1617.87 145.586 1616.67 145.596 1615.5 145.596C1613.19 145.589 1610.73 145.579 1608.5 145.565C1606.67 145.554 1602.13 145.547 1600.45 145.568C1599.79 145.575 1599.72 145.582 1598.91 145.586C1598.68 145.586 1598.36 145.579 1598.11 145.575C1597.51 145.572 1596.8 145.572 1596.21 145.568C1593.08 145.547 1590.56 145.498 1587.55 145.473C1585.6 145.456 1582.37 145.466 1580.14 145.466C1576.1 145.466 1572.2 145.477 1568.19 145.477C1566.95 145.477 1564.93 145.47 1564.29 145.494C1563.78 145.512 1564.52 145.536 1564.15 145.558C1563.23 145.558 1561.92 145.547 1561.03 145.54C1560.02 145.536 1559.1 145.529 1558.11 145.526C1556.07 145.515 1553.94 145.508 1552.06 145.487C1551.51 145.484 1550.89 145.473 1550.36 145.466C1549.67 145.463 1548.61 145.463 1547.83 145.463C1546.11 145.456 1544.25 145.463 1542.56 145.456C1541.59 145.452 1540.65 145.445 1539.62 145.445C1536.02 145.435 1530.67 145.41 1527.18 145.438C1526.15 145.445 1525.32 145.452 1524.11 145.445C1522 145.438 1517.77 145.4 1517.59 145.357C1516.42 145.35 1514.7 145.382 1513.85 145.393C1512.98 145.403 1512.06 145.403 1511.05 145.414C1506.76 145.449 1500.98 145.452 1497.69 145.522C1496.94 145.536 1497.21 145.54 1495.93 145.54H1493.91C1490.95 145.54 1488.03 145.526 1485.4 145.501C1480.83 145.463 1475.83 145.491 1471.1 145.508C1467.54 145.522 1463.96 145.547 1460.34 145.547H1437.83C1435.3 145.551 1432.96 145.543 1430.48 145.536C1430.44 145.533 1430.23 145.529 1429.91 145.529H1427.32C1426.28 145.529 1425.16 145.533 1424.15 145.529C1422.57 145.529 1421.24 145.522 1419.61 145.522C1413 145.522 1406.53 145.519 1400.19 145.554C1399.25 145.561 1398.06 145.582 1397.17 145.582C1396.04 145.582 1394.89 145.554 1393.93 145.547C1391.31 145.526 1388.31 145.515 1385.53 145.505C1384.22 145.498 1383.17 145.494 1381.86 145.494C1377.94 145.491 1374.01 145.494 1370.11 145.494C1367.43 145.494 1364.44 145.487 1361.76 145.494C1360.08 145.494 1358.61 145.512 1357.03 145.519C1355.84 145.522 1354.94 145.519 1353.77 145.515C1351.11 145.505 1348.84 145.491 1346.27 145.473C1345.37 145.473 1344.85 145.466 1343.97 145.466C1341.73 145.463 1339.57 145.473 1337.46 145.484C1334.11 145.501 1330.48 145.512 1326.93 145.505C1324.72 145.498 1322.2 145.473 1320.2 145.456C1316.46 145.424 1312.03 145.417 1307.9 145.414C1305.38 145.41 1302.85 145.41 1300.33 145.41C1299.3 145.41 1297.58 145.41 1296.57 145.41C1296.18 145.414 1296.22 145.417 1295.81 145.421C1292.9 145.428 1290.14 145.403 1287.23 145.403C1285.37 145.4 1283.4 145.407 1281.56 145.4C1279.88 145.396 1278.07 145.382 1276.65 145.368C1275.94 145.361 1275.27 145.347 1274.49 145.34C1272.27 145.322 1270.2 145.35 1268.36 145.364C1267.68 145.368 1266.83 145.368 1266.12 145.361C1264.26 145.35 1262.72 145.336 1260.72 145.329C1258.08 145.319 1255.86 145.319 1253.29 145.326C1251.82 145.333 1250.26 145.329 1248.77 145.329C1247.05 145.329 1247.07 145.336 1246.89 145.364C1245.88 145.364 1244.96 145.375 1243.93 145.375C1242.83 145.378 1241.7 145.371 1240.6 145.375C1239.68 145.375 1238.74 145.382 1237.96 145.389C1236.72 145.407 1237.25 145.417 1236.97 145.438C1236.31 145.487 1232.29 145.477 1230.04 145.477C1223.94 145.477 1217.65 145.463 1211.62 145.445C1210.01 145.442 1207.97 145.435 1206.43 145.449C1205.72 145.452 1205.24 145.463 1204.89 145.477C1204.62 145.484 1204.48 145.494 1204.34 145.505C1204.11 145.522 1204.16 145.547 1203.49 145.565C1202.74 145.582 1201.84 145.575 1200.69 145.575H1196.98C1193.7 145.575 1190.62 145.575 1187.34 145.568C1184.43 145.565 1181.19 145.565 1178.25 145.568C1177.08 145.568 1176.14 145.575 1175.04 145.582C1172.56 145.593 1169.72 145.582 1167.17 145.582C1164.35 145.582 1161.48 145.582 1158.66 145.582C1156.68 145.582 1155.08 145.6 1154.14 145.628C1153.47 145.649 1153.54 145.663 1152.39 145.677C1150.92 145.691 1149.27 145.694 1147.57 145.698C1145.83 145.701 1144.04 145.709 1142.3 145.709C1140.48 145.712 1138.76 145.701 1136.97 145.701C1135.2 145.698 1133.42 145.701 1131.65 145.701C1125.64 145.701 1119.17 145.705 1113.68 145.747C1112.37 145.754 1110.95 145.758 1109.76 145.768C1108.95 145.779 1108.2 145.793 1107.42 145.803C1106.31 145.817 1105.56 145.838 1104.46 145.852C1102.32 145.877 1098.49 145.881 1096.06 145.888C1092.87 145.898 1089.56 145.916 1086.33 145.919C1084.58 145.923 1082.73 145.919 1080.98 145.919C1075.59 145.919 1069.14 145.905 1064.07 145.937C1060.56 145.958 1057.12 146.021 1053.31 145.993C1051.27 145.979 1049.15 145.968 1047.11 145.954C1046.42 145.947 1045.74 145.94 1045 145.937C1042.48 145.926 1039.91 145.898 1037.31 145.891C1035.29 145.888 1033.25 145.895 1031.23 145.895C1028.94 145.891 1026.74 145.884 1024.44 145.884C1023.36 145.884 1021.99 145.877 1020.95 145.884C1019.92 145.888 1019.94 145.895 1018.68 145.891C1016.78 145.888 1014.9 145.877 1013.04 145.87C1012.39 145.867 1011.57 145.859 1011.04 145.859C1010.1 145.852 1009.07 145.856 1008.08 145.852C1003.72 145.845 999.337 145.838 994.954 145.838C993.532 145.838 990.87 145.831 989.378 145.838C988.001 145.845 986.969 145.87 985.615 145.877C984.536 145.884 983.55 145.884 982.402 145.884C979.351 145.884 976.574 145.881 973.614 145.895C971.549 145.905 969.965 145.912 967.831 145.912C965.261 145.912 962.852 145.905 960.305 145.898C958.217 145.895 955.945 145.891 954.063 145.874C952.044 145.856 950.116 145.835 948.051 145.817C941.993 145.768 937.083 145.691 931.346 145.631C929.327 145.61 927.514 145.603 925.104 145.6C923.842 145.596 922.626 145.593 921.341 145.589C918.702 145.589 915.995 145.593 913.356 145.593C909.822 145.589 906.38 145.582 902.846 145.582C899.312 145.582 895.365 145.568 892.176 145.6C891.189 145.61 890.225 145.621 889.537 145.635C889.078 145.645 888.963 145.656 888.275 145.663C887.472 145.67 885.751 145.663 884.833 145.663C883.02 145.663 881.07 145.659 879.28 145.652C877.926 145.649 876.756 145.649 875.402 145.649C873.795 145.649 872.35 145.645 870.721 145.638C867.279 145.628 863.033 145.603 859.408 145.607C858.306 145.61 857.343 145.617 856.287 145.624C854.268 145.631 850.94 145.628 848.852 145.628C849.747 145.582 839.192 145.589 838.32 145.586C833.272 145.568 828.269 145.572 823.129 145.572C820.559 145.572 818.081 145.568 815.534 145.561C813.859 145.558 811.839 145.558 810.256 145.547C809.2 145.536 808.237 145.526 807.112 145.519C803.946 145.501 800.595 145.491 797.406 145.47C795.042 145.456 792.793 145.438 790.522 145.417C787.539 145.393 784.739 145.375 781.756 145.41C781.068 145.417 780.54 145.431 779.806 145.435C779.117 145.438 778.176 145.435 777.465 145.435C776.799 145.435 775.836 145.438 775.147 145.435C774.78 145.431 774.711 145.428 774.367 145.424C772.623 145.41 770.42 145.407 768.539 145.4C766.198 145.396 763.949 145.389 761.609 145.389C759.429 145.389 756.905 145.396 754.817 145.389C754.266 145.385 753.371 145.378 752.705 145.375C751.65 145.368 750.548 145.368 749.493 145.361C747.565 145.35 745.684 145.336 743.756 145.326C741.278 145.315 737.79 145.294 735.174 145.308C735.404 145.333 732.925 145.357 732.076 145.371C730.952 145.385 729.69 145.382 728.244 145.378C725.927 145.371 723.77 145.375 721.475 145.371C719.869 145.371 718.377 145.357 716.748 145.354C715.623 145.35 714.958 145.343 713.902 145.336C709.818 145.301 706.812 145.28 702.268 145.28H694.925C689.166 145.28 683.75 145.284 678.037 145.298H667.229C664.337 145.298 661.308 145.305 658.44 145.298C656.398 145.291 654.516 145.28 652.428 145.28C648.963 145.277 645.705 145.259 642.263 145.263H631.271C629.871 145.259 628.609 145.249 627.233 145.245C624.502 145.238 621.565 145.242 618.788 145.242H613.029C611.055 145.245 608.508 145.256 606.718 145.27C605.295 145.277 604.286 145.28 602.748 145.28C600.201 145.28 597.907 145.291 595.428 145.301C591.344 145.315 586.915 145.308 582.762 145.308H573.331C569.728 145.308 566.24 145.305 562.66 145.298C559.7 145.291 556.579 145.273 553.551 145.27H546.322C544.532 145.27 542.857 145.273 541.068 145.28C539.92 145.284 537.511 145.284 536.409 145.294C534 145.319 532.095 145.361 529.479 145.378C528.653 145.385 527.712 145.385 526.863 145.393C525.693 145.4 524.752 145.414 523.628 145.421C521.953 145.435 519.75 145.424 517.937 145.428C517.088 145.428 516.239 145.428 515.505 145.421C513.44 145.403 512.384 145.35 510.066 145.336C509.539 145.354 508.667 145.364 508.07 145.382C507.359 145.403 506.992 145.424 505.913 145.438C504.077 145.47 502.93 145.505 501.461 145.536C501.002 145.551 500.704 145.568 499.947 145.572C499.327 145.579 497.469 145.575 496.826 145.572C495.794 145.568 495.312 145.561 494.187 145.565C493.43 145.568 492.719 145.568 491.961 145.572C490.63 145.575 489.667 145.582 488.244 145.582C485.926 145.582 483.655 145.582 481.36 145.586C477.574 145.593 473.856 145.617 470.024 145.617C468.854 145.617 467.569 145.614 466.536 145.621C466.307 145.624 466.123 145.631 465.848 145.635C465.389 145.638 464.54 145.638 464.012 145.638C462.406 145.642 456.233 145.649 456.463 145.691C452.998 145.712 449.808 145.694 446.251 145.691C444.852 145.705 443.429 145.709 442.144 145.726C440.63 145.744 439.895 145.772 438.679 145.793C437.876 145.81 436.912 145.821 436.407 145.838C435.994 145.852 436.774 145.856 435.512 145.852C435.283 145.852 434.067 145.842 433.791 145.842C432.483 145.828 432.047 145.807 431.198 145.786C429.799 145.751 428.238 145.716 426.242 145.691C423.878 145.663 422.479 145.659 419.932 145.67C417.889 145.68 415.709 145.673 413.667 145.68C412.176 145.684 411.051 145.691 409.743 145.705C406.921 145.733 404.213 145.765 401.046 145.786C399.394 145.796 397.811 145.807 396.182 145.821C395.401 145.824 394.3 145.831 393.589 145.838C392.808 145.849 392.304 145.874 391.409 145.881C390.445 145.891 387.668 145.888 386.705 145.877C386.154 145.87 385.718 145.863 385.167 145.856C384.158 145.845 383.102 145.845 381.932 145.835C379.431 145.821 376.883 145.81 374.382 145.793C373.143 145.786 372.019 145.772 370.803 145.765C369.495 145.758 366.144 145.758 365.181 145.775C364.469 145.789 365.112 145.793 363.896 145.803C363.161 145.81 362.129 145.807 362.404 145.828C361.234 145.835 359.26 145.828 358.136 145.828C356.92 145.828 355.704 145.831 354.487 145.831C352.376 145.838 350.311 145.838 348.2 145.838C347.076 145.838 346.318 145.831 345.24 145.828C344.414 145.828 343.427 145.831 342.647 145.828C341.775 145.824 340.995 145.81 340.192 145.8C339.205 145.793 338.126 145.786 337.117 145.779C335.465 145.765 334.088 145.747 332.321 145.737C328.787 145.719 325.276 145.701 321.696 145.687C319.218 145.68 316.809 145.68 314.262 145.68C311.531 145.68 308.915 145.677 306.207 145.673C303.431 145.67 300.379 145.666 297.694 145.652C296.937 145.649 296.226 145.642 295.491 145.638C293.311 145.624 291.2 145.628 288.928 145.631C285.991 145.638 281.677 145.638 279.176 145.67C278.373 145.677 277.753 145.691 276.904 145.701C275.596 145.716 274.587 145.73 273.072 145.726C270.663 145.726 268.231 145.723 265.844 145.719C264.375 145.716 262.999 145.709 261.507 145.709C260.75 145.709 260.268 145.709 259.534 145.705C257.491 145.694 255.816 145.691 254.026 145.67C252.191 145.652 250.217 145.642 248.267 145.624C246.684 145.614 245.398 145.593 244.068 145.572C242.117 145.547 239.455 145.536 237.184 145.519C236.036 145.512 234.2 145.494 232.915 145.498C231.814 145.501 232.043 145.512 231.286 145.522C230.736 145.529 230.322 145.526 229.588 145.526C224.976 145.526 220.295 145.522 215.682 145.526C212.998 145.529 210.611 145.558 208.294 145.582C205.632 145.607 204.92 145.628 203.658 145.67C203.154 145.687 202.878 145.698 202.672 145.719C201.318 145.723 199.643 145.719 198.243 145.719C196.017 145.719 193.768 145.723 191.565 145.716C190.28 145.709 188.949 145.712 187.687 145.705C186.058 145.694 184.865 145.68 183.121 145.68C181.836 145.68 180 145.687 178.899 145.701C178.646 145.705 178.509 145.716 178.233 145.716C177.729 145.723 176.765 145.719 176.214 145.719C171.487 145.719 167.242 145.719 162.561 145.709C159.073 145.701 156.021 145.67 152.625 145.656C149.527 145.642 146.36 145.642 143.171 145.645C139.889 145.649 135.805 145.659 132.982 145.691C131.904 145.705 131.674 145.719 130.298 145.719H126.557C123.872 145.719 121.302 145.73 118.641 145.73C116.139 145.73 113.753 145.716 111.252 145.712C109.691 145.709 107.351 145.719 105.951 145.709C105.331 145.705 104.873 145.691 104.414 145.68C103.037 145.656 101.637 145.631 99.6407 145.621C96.5429 145.603 92.2977 145.596 89.1311 145.61C88.5345 145.614 88.1673 145.617 87.5477 145.617C86.6987 145.617 85.6432 145.61 84.7941 145.61C80.4342 145.6 76.0744 145.596 71.7604 145.582C70.7048 145.582 70.4295 145.575 69.5345 145.568C68.2266 145.558 66.5744 145.554 65.1747 145.543C63.4995 145.529 61.2967 145.494 59.3691 145.501C57.7399 145.505 56.5008 145.529 55.7206 145.551C55.2617 145.565 55.1469 145.579 54.1832 145.582C53.4489 145.586 52.2786 145.582 51.5213 145.582C50.4658 145.582 49.4332 145.582 48.4006 145.582C46.6566 145.589 44.7291 145.586 43.054 145.593C40.6446 145.603 38.8777 145.631 37.2255 145.663C35.8946 145.687 35.0226 145.719 33.7835 145.747C31.5576 145.793 28.4369 145.768 25.4079 145.765C23.7099 145.761 23.4116 145.754 22.5625 145.726C22.1954 145.716 21.7364 145.705 21.3922 145.691C20.5891 145.666 19.8089 145.621 19.763 145.589C19.7171 145.572 20.0154 145.558 19.4188 145.543C18.6845 145.526 15.5638 145.522 14.3705 145.515C12.007 145.508 9.57465 145.508 7.18819 145.508C6.408 145.508 5.12299 145.505 4.38869 145.508C4.25101 145.508 3.88386 145.515 3.88386 145.515C2.02517 145.522 0.143539 145.505 -1.60041 145.494C-3.89509 145.48 -6.3045 145.463 -8.66802 145.456C-9.86125 145.452 -11.1922 145.459 -12.3166 145.452C-14.2441 145.442 -15.3685 145.424 -17.6861 145.424C-19.2924 145.424 -23.0556 145.424 -23.9506 145.452C-24.3865 145.466 -23.8817 145.484 -24.1571 145.498C-24.9832 145.501 -26.4976 145.477 -27.2549 145.47C-29.5725 145.452 -31.9819 145.435 -34.3913 145.417C-36.273 145.403 -37.8333 145.389 -39.8756 145.389H-41V69.9838H-40.6099V0.445969C-38.1546 0.44948 -35.4239 0.424901 -33.0145 0.42139C-31.8901 0.417879 -30.674 0.407345 -29.5266 0.410856C-27.209 0.417879 -24.7307 0.428412 -22.5279 0.438946C-20.6692 0.452992 -16.1487 0.456503 -14.4506 0.438946C-13.8081 0.431924 -13.7393 0.42139 -12.9132 0.42139C-12.7066 0.42139 -12.3854 0.428412 -12.11 0.428412C-11.5364 0.431924 -10.825 0.431924 -10.2055 0.438946C-7.08469 0.456503 -4.56055 0.509172 -1.57747 0.533751C0.395954 0.547797 3.6085 0.537263 5.85728 0.537263C9.89591 0.537263 13.7969 0.53024 17.8125 0.53024C19.0287 0.53024 21.048 0.537263 21.7135 0.512684C22.2183 0.491616 21.484 0.467037 21.8512 0.44948C22.7461 0.445969 24.0541 0.460014 24.949 0.463525C25.9816 0.467037 26.8995 0.474059 27.8862 0.481082C29.9055 0.491616 32.0395 0.498638 33.9441 0.516195C34.4948 0.519706 35.1144 0.533751 35.6192 0.537263C36.3076 0.540774 37.3861 0.540774 38.1434 0.544285C39.8873 0.547797 41.7231 0.544285 43.4211 0.551308C44.4078 0.554819 45.3257 0.558331 46.3583 0.561842C49.961 0.572376 55.3305 0.593444 58.8184 0.565353C59.8281 0.558331 60.6541 0.554819 61.8703 0.558331C64.0044 0.565353 68.2036 0.607489 68.4101 0.646113C69.5575 0.656647 71.2785 0.621534 72.1275 0.611C73.0224 0.600466 73.9174 0.600466 74.95 0.589932C79.2181 0.554819 85.0006 0.551308 88.305 0.484593C89.0393 0.467037 88.7639 0.467037 90.0719 0.463525H92.0912C95.0284 0.463525 97.9426 0.481082 100.581 0.50215C105.148 0.540774 110.15 0.512684 114.877 0.495127C118.434 0.481082 122.037 0.456503 125.662 0.456503H148.173C150.674 0.456503 153.015 0.460014 155.493 0.467037C155.562 0.474059 155.745 0.474059 156.09 0.474059H161.826C163.433 0.477571 164.741 0.484593 166.393 0.484593C173.001 0.484593 179.449 0.488105 185.806 0.44948C186.747 0.442458 187.94 0.42139 188.835 0.42139C189.936 0.42139 191.084 0.44948 192.047 0.460014C194.663 0.477571 197.669 0.488105 200.446 0.498638C201.754 0.505661 202.809 0.509172 204.14 0.512684H215.889C218.574 0.512684 221.557 0.516195 224.242 0.512684C225.894 0.509172 227.362 0.491616 228.946 0.484593C230.139 0.481082 231.034 0.484593 232.204 0.491616C234.889 0.498638 237.161 0.516195 239.731 0.53024C240.626 0.537263 241.153 0.537263 242.002 0.537263C244.251 0.544285 246.408 0.53024 248.519 0.519706C251.869 0.50215 255.495 0.491616 259.075 0.50215C261.278 0.509172 263.802 0.53024 265.775 0.547797C269.516 0.579398 273.944 0.586421 278.075 0.593444H285.67C286.703 0.593444 288.424 0.600466 289.41 0.593444C289.823 0.593444 289.778 0.586421 290.168 0.586421C293.082 0.575887 295.835 0.603978 298.75 0.603978C300.631 0.603978 302.582 0.596955 304.44 0.603978C306.093 0.607489 307.905 0.621534 309.328 0.635579C310.062 0.646113 310.728 0.656647 311.485 0.66367C313.734 0.681226 315.776 0.656647 317.612 0.639091C318.323 0.635579 319.149 0.639091 319.861 0.642602C321.719 0.653136 323.257 0.670692 325.253 0.677715C327.892 0.688249 330.118 0.684737 332.711 0.677715C334.157 0.674204 335.717 0.677715 337.231 0.674204C338.952 0.674204 338.929 0.667181 339.09 0.639091C340.123 0.639091 341.041 0.632068 342.073 0.628557C343.152 0.628557 344.299 0.628557 345.378 0.628557C346.318 0.628557 347.236 0.625045 348.016 0.614511C349.278 0.600466 348.751 0.586421 349.026 0.565353C349.691 0.516195 353.684 0.53024 355.933 0.53024C362.06 0.53024 368.324 0.544285 374.359 0.558331C375.988 0.561842 378.008 0.572376 379.568 0.558331C380.28 0.551308 380.738 0.540774 381.106 0.53024C381.358 0.519706 381.496 0.509172 381.633 0.498638C381.886 0.481082 381.817 0.456503 382.482 0.438946C383.24 0.42139 384.158 0.428412 385.282 0.428412H388.999C392.281 0.428412 395.356 0.428412 398.637 0.435435C401.551 0.442458 404.787 0.442458 407.747 0.438946C408.894 0.438946 409.835 0.428412 410.959 0.424901C413.415 0.410856 416.26 0.42139 418.807 0.42139H427.343C429.294 0.42139 430.9 0.403833 431.841 0.372232C432.529 0.351164 432.438 0.337119 433.585 0.326585C435.053 0.309028 436.706 0.305517 438.404 0.302006C440.171 0.298494 441.937 0.291472 443.704 0.291472C445.494 0.28796 447.215 0.302006 449.005 0.302006H454.352C460.341 0.302006 466.835 0.294983 472.319 0.256359C473.604 0.245825 475.027 0.245825 476.22 0.23178C477.023 0.221246 477.78 0.2072 478.56 0.200178C479.662 0.182621 480.442 0.165065 481.544 0.15102C483.655 0.122929 487.487 0.119418 489.919 0.112395C493.109 0.101861 496.436 0.0843049 499.649 0.0807936C501.415 0.0772823 503.251 0.0807936 505.018 0.0807936C510.388 0.0807936 516.836 0.0983501 521.907 0.0667484C525.441 0.0421693 528.86 -0.0210341 532.692 0.00705627C534.734 0.0211015 536.822 0.0316354 538.865 0.0491919C539.576 0.0527032 540.241 0.0597258 540.976 0.0632371C543.5 0.073771 546.07 0.105373 548.686 0.108884C550.682 0.112395 552.747 0.105373 554.767 0.108884C557.038 0.108884 559.241 0.119418 561.559 0.119418C562.614 0.119418 563.991 0.122929 565.047 0.119418C566.056 0.112395 566.056 0.108884 567.296 0.108884C569.223 0.115907 571.082 0.122929 572.94 0.129952C573.606 0.133463 574.409 0.140486 574.937 0.143997C575.878 0.147508 576.91 0.143997 577.897 0.147508C582.257 0.154531 586.64 0.161554 591.046 0.165065C592.468 0.165065 595.107 0.172087 596.622 0.161554C597.975 0.154531 599.008 0.129952 600.385 0.122929C601.44 0.115907 602.45 0.119418 603.574 0.119418C606.649 0.119418 609.426 0.119418 612.363 0.105373C614.428 0.0948388 616.012 0.0913275 618.169 0.0913275C620.716 0.0913275 623.125 0.0983501 625.695 0.101861C627.76 0.101861 630.032 0.108884 631.914 0.126441C633.933 0.143997 635.883 0.165065 637.926 0.182621C643.984 0.235291 648.917 0.309028 654.631 0.36872C656.673 0.389788 658.486 0.396811 660.872 0.400322C662.135 0.403833 663.374 0.410856 664.636 0.410856C667.275 0.414367 669.982 0.407345 672.644 0.410856C676.155 0.410856 679.62 0.42139 683.131 0.42139C686.642 0.42139 690.612 0.431924 693.824 0.400322C694.788 0.393299 695.775 0.379254 696.463 0.365209C696.899 0.354675 697.037 0.344141 697.702 0.337119C698.505 0.330096 700.249 0.337119 701.167 0.337119C702.98 0.337119 704.907 0.344141 706.72 0.347653C708.051 0.351164 709.244 0.354675 710.575 0.354675C712.181 0.351164 713.627 0.354675 715.256 0.361698C718.698 0.375743 722.966 0.396811 726.592 0.393299C727.671 0.393299 728.657 0.382766 729.69 0.379254C731.732 0.36872 735.059 0.372232 737.147 0.372232C736.23 0.417879 746.785 0.414367 747.68 0.414367C752.705 0.431924 757.708 0.428412 762.848 0.428412C765.418 0.428412 767.919 0.435435 770.466 0.438946C772.118 0.442458 774.161 0.442458 775.721 0.456503C776.8 0.463525 777.763 0.474059 778.865 0.481082C782.031 0.50215 785.405 0.509172 788.571 0.53024C790.958 0.544285 793.183 0.565353 795.455 0.58291C798.438 0.607489 801.261 0.625045 804.244 0.589932C804.909 0.58291 805.437 0.568865 806.194 0.565353C806.86 0.561842 807.801 0.565353 808.512 0.565353C809.223 0.565353 810.141 0.561842 810.83 0.565353C811.22 0.565353 811.266 0.575887 811.633 0.575887C813.377 0.593444 815.557 0.596955 817.438 0.600466C819.779 0.603978 822.051 0.611 824.391 0.611C826.548 0.611 829.072 0.607489 831.16 0.614511C831.734 0.614511 832.606 0.625045 833.271 0.628557C834.327 0.628557 835.428 0.628557 836.484 0.639091C838.412 0.649624 840.293 0.66367 842.244 0.674204C844.699 0.688249 848.187 0.705805 850.803 0.69176C850.573 0.670692 853.052 0.642602 853.901 0.632068C855.048 0.614511 856.31 0.618023 857.733 0.621534C860.073 0.628557 862.207 0.628557 864.525 0.628557C866.108 0.628557 867.623 0.646113 869.252 0.649624C870.376 0.649624 871.042 0.656647 872.097 0.667181C876.159 0.698783 879.165 0.723362 883.708 0.723362C886.164 0.71985 888.596 0.71985 891.051 0.71985C896.834 0.71985 902.226 0.71985 907.963 0.705805C909.156 0.702294 910.35 0.702294 911.543 0.702294H918.748C921.639 0.702294 924.668 0.698783 927.537 0.705805C929.579 0.709317 931.484 0.71985 933.549 0.723362C937.014 0.723362 940.295 0.740918 943.737 0.740918H950.713C952.044 0.740918 953.398 0.737407 954.706 0.740918C956.106 0.740918 957.368 0.751452 958.744 0.754964C961.498 0.765497 964.435 0.758475 967.189 0.758475H972.971C974.922 0.754964 977.469 0.74443 979.282 0.733896C980.681 0.723362 981.691 0.723362 983.251 0.723362C985.799 0.723362 988.093 0.709317 990.549 0.698783C994.633 0.684737 999.062 0.695271 1003.24 0.695271H1012.67C1016.27 0.69176 1019.76 0.695271 1023.32 0.705805C1026.28 0.712828 1029.4 0.726873 1032.43 0.730384H1039.65C1041.44 0.730384 1043.14 0.726873 1044.93 0.723362C1046.06 0.71985 1048.47 0.716339 1049.57 0.705805C1051.98 0.684737 1053.88 0.642602 1056.5 0.621534C1057.32 0.618023 1058.26 0.614511 1059.11 0.611C1060.28 0.603978 1061.22 0.589932 1062.35 0.579398C1064.02 0.568865 1066.23 0.575887 1068.04 0.575887C1068.89 0.575887 1069.74 0.572376 1070.47 0.579398C1072.54 0.600466 1073.59 0.649624 1075.91 0.667181C1076.46 0.649624 1077.33 0.635579 1077.91 0.621534C1078.64 0.600466 1079.01 0.579398 1080.06 0.561842C1081.92 0.533751 1083.07 0.498639 1084.52 0.463525C1085 0.452992 1085.3 0.431924 1086.05 0.428412C1086.67 0.424901 1088.51 0.424901 1089.17 0.428412C1090.21 0.431924 1090.69 0.438946 1091.79 0.435435C1092.55 0.431924 1093.28 0.431924 1094.02 0.428412C1095.35 0.424901 1096.33 0.417879 1097.73 0.417879C1100.05 0.42139 1102.32 0.42139 1104.62 0.414367C1108.4 0.407345 1112.12 0.382766 1115.95 0.382766C1117.12 0.382766 1118.41 0.386277 1119.44 0.379254C1119.69 0.375743 1119.85 0.36872 1120.13 0.365209C1120.59 0.361698 1121.46 0.365209 1121.96 0.361698C1123.57 0.358186 1129.74 0.354675 1129.51 0.31254C1132.98 0.291472 1136.12 0.305517 1139.66 0.309028H1139.77C1141.15 0.298494 1142.59 0.291472 1143.86 0.277427C1145.35 0.256359 1146.08 0.23178 1147.3 0.2072C1148.1 0.193155 1149.09 0.182621 1149.57 0.165065C1150.01 0.147508 1149.2 0.143997 1150.46 0.147508C1150.69 0.147508 1151.91 0.158042 1152.19 0.161554C1153.49 0.172087 1153.95 0.196667 1154.78 0.214223C1156.2 0.249336 1157.74 0.284449 1159.74 0.309028C1162.12 0.337119 1163.5 0.34063 1166.05 0.330096C1168.09 0.323073 1170.27 0.330096 1172.31 0.319562C1173.82 0.316051 1174.95 0.31254 1176.23 0.298494C1179.08 0.266893 1181.76 0.235291 1184.93 0.217734C1186.58 0.2072 1188.19 0.193155 1189.8 0.182621C1190.58 0.175599 1191.7 0.172087 1192.39 0.161554C1193.19 0.15102 1193.67 0.126441 1194.57 0.119418C1195.53 0.108884 1198.31 0.115907 1199.27 0.122929C1199.85 0.129952 1200.26 0.140486 1200.83 0.143997C1201.84 0.158042 1202.88 0.158042 1204.05 0.165065C1206.55 0.182621 1209.09 0.193155 1211.62 0.2072C1212.86 0.214223 1213.96 0.228268 1215.17 0.235291C1216.51 0.242313 1219.83 0.245825 1220.8 0.224757C1221.51 0.210712 1220.87 0.2072 1222.1 0.196667C1222.84 0.193155 1223.85 0.193155 1223.57 0.175599C1224.77 0.168576 1226.72 0.175599 1227.86 0.172087C1229.08 0.172087 1230.27 0.172087 1231.49 0.168576C1233.6 0.165065 1235.67 0.165065 1237.78 0.165065C1238.9 0.165065 1239.68 0.168576 1240.76 0.172087C1241.56 0.175599 1242.57 0.168576 1243.35 0.172087C1244.22 0.175599 1244.98 0.193155 1245.81 0.200178C1246.8 0.210712 1247.87 0.214223 1248.86 0.224757C1250.54 0.238802 1251.91 0.256359 1253.68 0.263381C1257.21 0.280938 1260.7 0.302006 1264.3 0.31254C1266.78 0.319562 1269.19 0.319562 1271.74 0.319562C1274.45 0.319562 1277.06 0.326585 1279.77 0.326585C1282.57 0.330096 1285.6 0.333607 1288.28 0.347653C1289.04 0.351164 1289.75 0.358186 1290.51 0.361698C1292.69 0.375743 1294.8 0.375743 1297.05 0.36872C1300.01 0.361698 1304.3 0.361698 1306.8 0.333607C1307.6 0.323073 1308.22 0.309028 1309.07 0.302006C1310.38 0.284449 1311.39 0.273915 1312.93 0.273915C1315.31 0.273915 1317.75 0.280938 1320.13 0.284449C1321.6 0.284449 1323 0.291472 1324.49 0.291472C1325.23 0.291472 1325.71 0.291472 1326.44 0.294983C1328.49 0.305517 1330.16 0.309028 1331.95 0.330096C1333.79 0.351164 1335.76 0.361698 1337.71 0.375743C1339.29 0.389788 1340.58 0.410856 1341.93 0.428412C1343.88 0.456503 1346.54 0.467037 1348.82 0.481082C1349.94 0.488105 1351.78 0.505661 1353.06 0.50215C1354.19 0.498638 1353.93 0.488105 1354.69 0.481082C1355.24 0.474059 1355.65 0.474059 1356.39 0.474059C1361 0.477571 1365.68 0.477571 1370.29 0.474059C1373 0.474059 1375.37 0.442458 1377.68 0.42139C1380.35 0.396811 1381.08 0.372232 1382.32 0.330096C1382.85 0.31254 1383.1 0.305517 1383.31 0.284449C1384.68 0.277427 1386.33 0.280938 1387.73 0.280938C1389.98 0.280938 1392.21 0.280938 1394.41 0.28796C1395.72 0.291472 1397.03 0.291472 1398.29 0.294983C1399.92 0.305517 1401.11 0.319562 1402.88 0.319562C1404.16 0.319562 1406 0.31254 1407.08 0.298494C1407.33 0.294983 1407.47 0.28796 1407.74 0.284449C1408.27 0.277427 1409.24 0.280938 1409.79 0.280938C1414.51 0.284449 1418.74 0.280938 1423.42 0.291472C1426.9 0.298494 1429.96 0.330096 1433.38 0.344141C1436.47 0.358186 1439.62 0.358186 1442.81 0.354675C1446.11 0.351164 1450.17 0.344141 1452.99 0.309028C1454.07 0.298494 1454.33 0.284449 1455.68 0.280938C1456.92 0.280938 1458.18 0.280938 1459.44 0.284449C1462.1 0.284449 1464.67 0.273915 1467.34 0.273915C1469.84 0.273915 1472.22 0.284449 1474.73 0.291472C1476.29 0.291472 1478.63 0.280938 1480.03 0.291472C1480.65 0.298494 1481.13 0.31254 1481.56 0.319562C1482.96 0.344141 1484.34 0.36872 1486.34 0.379254C1489.43 0.396811 1493.68 0.403833 1496.85 0.389788C1497.47 0.386277 1497.81 0.382766 1498.45 0.382766C1499.3 0.382766 1500.33 0.389788 1501.21 0.393299C1505.57 0.400322 1509.9 0.403833 1514.24 0.417879C1515.27 0.42139 1515.55 0.424901 1516.47 0.431924C1517.75 0.442458 1519.4 0.445969 1520.8 0.456503C1522.48 0.470548 1524.7 0.505661 1526.63 0.50215C1528.24 0.495127 1529.48 0.470548 1530.26 0.44948C1530.72 0.435435 1530.85 0.42139 1531.79 0.417879C1532.53 0.417879 1533.7 0.42139 1534.46 0.42139C1535.51 0.42139 1536.57 0.42139 1537.6 0.417879C1539.32 0.410856 1541.25 0.417879 1542.92 0.407345C1545.33 0.396811 1547.1 0.36872 1548.75 0.34063C1550.08 0.316051 1550.95 0.280938 1552.19 0.256359C1554.44 0.2072 1557.56 0.235291 1560.59 0.238802C1562.27 0.238802 1562.57 0.245825 1563.44 0.273915C1563.8 0.284449 1564.24 0.298494 1564.61 0.309028C1565.41 0.333607 1566.17 0.382766 1566.21 0.410856C1566.26 0.428412 1565.96 0.445969 1566.56 0.460014C1567.29 0.474059 1570.44 0.481082 1571.61 0.484593C1573.97 0.491616 1576.4 0.495127 1578.81 0.491616C1579.59 0.491616 1580.85 0.498638 1581.59 0.491616C1581.75 0.491616 1582.12 0.484593 1582.12 0.484593C1583.95 0.477571 1585.83 0.495127 1587.6 0.505661C1589.87 0.519706 1592.28 0.540774 1594.67 0.547797C1595.84 0.551308 1597.17 0.544285 1598.29 0.551308C1600.22 0.561842 1601.37 0.575887 1603.69 0.575887C1605.27 0.575887 1609.03 0.575887 1609.93 0.547797C1610.36 0.533751 1609.88 0.516195 1610.13 0.50215C1610.96 0.498638 1612.5 0.523218 1613.23 0.53024C1615.55 0.551308 1617.98 0.568864 1620.39 0.586421C1622.25 0.600466 1623.83 0.611 1625.85 0.611H1626.98V76.0162H1627Z" fill="black"/>
</svg>
