<svg width="151" height="26" viewBox="0 0 151 26" fill="none" xmlns="http://www.w3.org/2000/svg">
<g clip-path="url(#clip0_305_2607)">
<path d="M32.7203 0.173275L41.4442 14.6683V25.6099H50.1682V14.6683L58.6552 0.173275H48.4234L46.097 6.82494C46.097 6.82494 45.9678 7.51827 45.6662 6.82494L42.8228 0.173275H32.7203ZM67.2068 0.173275V25.6099H83.5347V17.6366H75.78V0.173275H67.2068ZM103.697 25.8916C96.1359 25.8916 89.9969 20.1283 89.9969 13.0216C89.9969 5.91494 96.1359 0.151608 103.697 0.151608C111.257 0.151608 117.397 5.91494 117.397 13.0216C117.397 20.1283 111.257 25.8916 103.697 25.8916ZM98.9362 13.0216C98.9362 15.8599 101.069 18.1349 103.697 18.1349C106.325 18.1349 108.457 15.8383 108.457 13.0216C108.457 10.1833 106.325 7.90827 103.697 7.90827C101.069 7.90827 98.9362 10.2049 98.9362 13.0216ZM8.44394 12.6316L16.0909 25.7183H24.5779V0.281608H16.0909V13.4549L8.44394 0.281608H0V25.7183H8.44394V12.6316ZM134.866 12.4366L142.513 25.5233H151V0.0866081H142.513V13.2599L134.866 0.0649414H126.422V25.5016H134.866V12.4366Z" fill="white"/>
</g>
<defs>
<clipPath id="clip0_305_2607">
<rect width="151" height="26" fill="white"/>
</clipPath>
</defs>
</svg>
