<svg width="262" height="72" viewBox="0 0 262 72" fill="none" xmlns="http://www.w3.org/2000/svg">
<path d="M261 36C261 40.4446 257.71 44.9187 251.161 49.1743C244.654 53.4019 235.172 57.2472 223.366 60.4916C199.768 66.9765 167.112 71 131 71C94.8885 71 62.2318 66.9765 38.634 60.4916C26.828 57.2472 17.3463 53.4019 10.8395 49.1743C4.28957 44.9187 1 40.4446 1 36C1 31.5554 4.28957 27.0813 10.8395 22.8257C17.3463 18.5981 26.828 14.7528 38.634 11.5084C62.2318 5.02352 94.8885 1 131 1C167.112 1 199.768 5.02352 223.366 11.5084C235.172 14.7528 244.654 18.5981 251.161 22.8257C257.71 27.0813 261 31.5554 261 36Z" stroke="white" stroke-width="2"/>
</svg>
