<svg width="2490" height="109" viewBox="0 0 2490 109" fill="none" xmlns="http://www.w3.org/2000/svg">
<path d="M2489.45 104.329C2485.75 104.295 2481.71 104.547 2478.08 104.615C2476.4 104.615 2474.62 104.716 2472.87 104.716C2469.41 104.648 2465.75 104.53 2462.42 104.396C2459.68 104.295 2452.9 104.211 2450.4 104.43C2449.41 104.497 2449.3 104.581 2448.11 104.615C2447.76 104.615 2447.28 104.547 2446.91 104.514C2446.02 104.48 2444.95 104.48 2444.06 104.446C2439.4 104.228 2435.64 103.723 2431.15 103.471C2428.24 103.286 2423.41 103.403 2420.08 103.403C2414.06 103.403 2408.23 103.504 2402.24 103.504C2400.39 103.504 2397.37 103.437 2396.41 103.689C2395.66 103.874 2396.76 104.127 2396.21 104.345C2394.84 104.345 2392.89 104.244 2391.55 104.16C2390.04 104.127 2388.67 104.059 2387.2 104.009C2384.15 103.908 2380.96 103.824 2378.16 103.605C2377.33 103.572 2376.41 103.454 2375.62 103.386C2374.59 103.353 2373.02 103.353 2371.85 103.353C2369.28 103.286 2366.51 103.353 2363.97 103.286C2362.54 103.252 2361.13 103.185 2359.59 103.185C2354.21 103.084 2346.23 102.814 2341.02 103.117C2339.48 103.185 2338.25 103.269 2336.43 103.185C2333.28 103.117 2326.98 102.714 2326.7 102.276C2324.96 102.209 2322.39 102.528 2321.12 102.629C2319.82 102.73 2318.45 102.73 2316.94 102.848C2310.54 103.218 2301.9 103.252 2297 103.975C2295.87 104.127 2296.29 104.16 2294.37 104.16H2291.35C2286.93 104.16 2282.58 104.009 2278.64 103.757C2271.83 103.353 2264.36 103.656 2257.3 103.824C2251.99 103.975 2246.65 104.228 2241.24 104.228H2207.63C2203.86 104.261 2200.37 104.194 2196.67 104.127C2196.6 104.093 2196.29 104.059 2195.81 104.059H2191.94C2190.4 104.059 2188.72 104.093 2187.22 104.059C2184.85 104.059 2182.86 103.992 2180.43 103.992C2170.57 103.992 2160.91 103.958 2151.45 104.312C2150.05 104.379 2148.27 104.598 2146.93 104.598C2145.25 104.598 2143.54 104.312 2142.1 104.244C2138.2 104.026 2133.71 103.925 2129.56 103.807C2127.61 103.74 2126.03 103.706 2124.08 103.706C2118.22 103.672 2112.37 103.706 2106.54 103.706C2102.54 103.706 2098.08 103.639 2094.07 103.706C2091.57 103.74 2089.38 103.891 2087.02 103.958C2085.24 103.992 2083.9 103.958 2082.15 103.925C2078.18 103.824 2074.79 103.672 2070.95 103.487C2069.62 103.454 2068.83 103.42 2067.53 103.42C2064.17 103.386 2060.95 103.487 2057.8 103.605C2052.8 103.79 2047.38 103.891 2042.07 103.824C2038.79 103.757 2035.02 103.504 2032.04 103.319C2026.45 103 2019.84 102.915 2013.68 102.882C2009.91 102.848 2006.14 102.848 2002.37 102.848C2000.83 102.848 1998.26 102.814 1996.75 102.848C1996.17 102.882 1996.24 102.915 1995.62 102.949C1991.27 103.016 1987.16 102.764 1982.81 102.764C1980.04 102.73 1977.09 102.798 1974.35 102.73C1971.85 102.697 1969.14 102.545 1967.02 102.411C1965.96 102.343 1964.97 102.192 1963.8 102.125C1960.48 101.94 1957.39 102.226 1954.65 102.377C1953.63 102.411 1952.36 102.411 1951.3 102.343C1948.52 102.242 1946.23 102.091 1943.25 102.024C1939.31 101.923 1935.99 101.923 1932.15 101.99C1929.96 102.057 1927.63 102.024 1925.4 102.024C1922.83 102.024 1922.87 102.091 1922.59 102.394C1921.08 102.394 1919.71 102.495 1918.17 102.495C1916.53 102.528 1914.85 102.461 1913.21 102.495C1911.84 102.495 1910.43 102.562 1909.27 102.646C1907.42 102.831 1908.2 102.932 1907.79 103.151C1906.8 103.656 1900.8 103.555 1897.45 103.555C1888.34 103.555 1878.95 103.403 1869.94 103.235C1867.54 103.201 1864.49 103.134 1862.2 103.269C1861.14 103.302 1860.42 103.42 1859.9 103.555C1859.49 103.622 1859.29 103.74 1859.08 103.841C1858.74 104.026 1858.81 104.278 1857.81 104.463C1856.68 104.648 1855.35 104.564 1853.64 104.564H1848.09C1843.19 104.564 1838.6 104.564 1833.7 104.497C1829.35 104.463 1824.52 104.463 1820.13 104.497C1818.39 104.497 1816.98 104.564 1815.34 104.648C1811.64 104.749 1807.39 104.682 1803.59 104.682C1799.37 104.682 1795.09 104.648 1790.88 104.682C1787.93 104.682 1785.54 104.867 1784.13 105.153C1783.14 105.372 1783.24 105.506 1781.53 105.658C1779.33 105.809 1776.87 105.843 1774.33 105.876C1771.73 105.91 1769.06 105.977 1766.45 105.977C1763.75 106.011 1761.18 105.91 1758.51 105.91C1755.87 105.876 1753.2 105.91 1750.56 105.91C1741.59 105.91 1731.93 105.944 1723.74 106.381C1721.79 106.448 1719.66 106.482 1717.88 106.6C1716.68 106.701 1715.55 106.852 1714.39 106.97C1712.74 107.121 1711.61 107.323 1709.97 107.475C1706.78 107.727 1701.06 107.761 1697.43 107.845C1692.67 107.946 1687.74 108.131 1682.91 108.164C1680.3 108.198 1677.53 108.164 1674.92 108.164C1666.87 108.164 1657.25 108.013 1649.68 108.35C1644.44 108.568 1639.3 109.224 1633.61 108.922C1630.56 108.77 1627.41 108.669 1624.36 108.518C1623.34 108.45 1622.31 108.366 1621.21 108.333C1617.44 108.232 1613.61 107.929 1609.74 107.862C1606.72 107.828 1603.67 107.895 1600.66 107.895C1597.23 107.862 1593.94 107.794 1590.52 107.794C1588.91 107.794 1586.85 107.727 1585.31 107.794C1583.77 107.828 1583.8 107.895 1581.92 107.862C1579.08 107.828 1576.27 107.71 1573.49 107.643C1572.53 107.609 1571.3 107.542 1570.51 107.542C1569.11 107.475 1567.57 107.508 1566.09 107.475C1559.59 107.407 1553.04 107.323 1546.5 107.323C1544.38 107.323 1540.4 107.256 1538.18 107.323C1536.12 107.391 1534.58 107.643 1532.56 107.727C1530.95 107.794 1529.47 107.794 1527.76 107.794C1523.21 107.794 1519.06 107.761 1514.64 107.895C1511.56 107.996 1509.2 108.08 1506.01 108.08C1502.17 108.08 1498.58 108.013 1494.77 107.929C1491.66 107.895 1488.27 107.862 1485.46 107.677C1482.44 107.491 1479.56 107.273 1476.48 107.105C1467.44 106.6 1460.11 105.809 1451.54 105.187C1448.53 104.968 1445.82 104.901 1442.23 104.867C1440.34 104.833 1438.53 104.8 1436.61 104.766C1432.67 104.766 1428.63 104.8 1424.69 104.8C1419.41 104.766 1414.27 104.699 1409 104.699C1403.72 104.699 1397.83 104.547 1393.07 104.884C1391.6 104.985 1390.16 105.103 1389.13 105.254C1388.44 105.355 1388.27 105.473 1387.25 105.54C1386.05 105.607 1383.48 105.54 1382.11 105.54C1379.4 105.54 1376.49 105.506 1373.82 105.439C1371.8 105.405 1370.05 105.405 1368.03 105.405C1365.63 105.405 1363.47 105.372 1361.04 105.304C1355.9 105.203 1349.57 104.934 1344.15 104.985C1342.51 105.018 1341.07 105.086 1339.49 105.17C1336.48 105.237 1331.51 105.203 1328.4 105.203C1329.73 104.732 1313.97 104.8 1312.67 104.766C1305.14 104.581 1297.67 104.615 1289.99 104.615C1286.16 104.615 1282.46 104.581 1278.66 104.514C1276.16 104.48 1273.14 104.48 1270.78 104.362C1269.2 104.261 1267.76 104.144 1266.08 104.076C1261.36 103.891 1256.36 103.79 1251.59 103.572C1248.07 103.42 1244.71 103.252 1241.32 103.033C1236.86 102.781 1232.69 102.596 1228.23 102.966C1227.2 103.033 1226.42 103.185 1225.32 103.218C1224.29 103.252 1222.89 103.218 1221.83 103.218C1220.83 103.218 1219.39 103.252 1218.37 103.218C1217.82 103.185 1217.72 103.151 1217.2 103.117C1214.6 102.966 1211.31 102.932 1208.5 102.865C1205.01 102.831 1201.65 102.764 1198.16 102.764C1194.9 102.764 1191.13 102.831 1188.02 102.764C1187.19 102.73 1185.86 102.663 1184.86 102.613C1183.29 102.545 1181.64 102.545 1180.07 102.461C1177.19 102.36 1174.38 102.209 1171.5 102.091C1167.81 101.99 1162.6 101.771 1158.69 101.906C1159.04 102.158 1155.34 102.411 1154.07 102.562C1152.39 102.714 1150.51 102.663 1148.35 102.629C1144.89 102.562 1141.67 102.596 1138.24 102.562C1135.84 102.562 1133.62 102.411 1131.19 102.377C1129.51 102.343 1128.51 102.276 1126.94 102.192C1120.84 101.839 1116.35 101.62 1109.57 101.62H1098.61C1090.01 101.62 1081.93 101.654 1073.4 101.805H1057.26C1052.95 101.805 1048.42 101.872 1044.14 101.805C1041.09 101.738 1038.29 101.62 1035.17 101.62C1030 101.586 1025.13 101.401 1019.99 101.435H1003.58C1001.49 101.401 999.61 101.283 997.555 101.25C993.479 101.183 989.094 101.216 984.949 101.216H976.351C973.405 101.25 969.603 101.368 966.931 101.502C964.807 101.569 963.3 101.603 961.005 101.603C957.202 101.603 953.777 101.704 950.077 101.822C943.98 101.973 937.368 101.889 931.168 101.889H917.089C911.711 101.889 906.504 101.855 901.16 101.788C896.741 101.721 892.082 101.536 887.561 101.502H876.77C874.098 101.502 871.598 101.536 868.926 101.603C867.213 101.637 863.616 101.637 861.972 101.755C858.375 102.007 855.532 102.444 851.627 102.629C850.393 102.697 848.989 102.697 847.722 102.781C845.974 102.848 844.57 103 842.891 103.067C840.391 103.218 837.102 103.1 834.396 103.134C833.129 103.134 831.861 103.134 830.765 103.067C827.682 102.882 826.106 102.343 822.646 102.192C821.859 102.377 820.557 102.478 819.666 102.663C818.604 102.882 818.056 103.1 816.446 103.235C813.706 103.555 811.993 103.925 809.801 104.244C809.116 104.396 808.67 104.564 807.54 104.598C806.615 104.665 803.84 104.631 802.881 104.598C801.34 104.564 800.62 104.497 798.942 104.53C797.811 104.564 796.749 104.564 795.619 104.598C793.632 104.631 792.193 104.699 790.069 104.699C786.61 104.699 783.218 104.699 779.793 104.732C774.141 104.8 768.591 105.052 762.871 105.052C761.124 105.052 759.205 105.018 757.664 105.086C757.321 105.119 757.047 105.187 756.636 105.237C755.951 105.271 754.684 105.271 753.896 105.271C751.498 105.304 742.283 105.372 742.626 105.809C737.453 106.028 732.691 105.843 727.382 105.809C725.292 105.961 723.168 105.994 721.25 106.179C718.989 106.364 717.893 106.65 716.077 106.869C714.879 107.054 713.44 107.155 712.686 107.34C712.07 107.492 713.234 107.525 711.35 107.492C711.008 107.492 709.192 107.391 708.781 107.391C706.829 107.239 706.178 107.037 704.91 106.819C702.821 106.465 700.491 106.095 697.511 105.843C693.983 105.557 691.893 105.523 688.091 105.624C685.042 105.725 681.788 105.658 678.739 105.725C676.512 105.759 674.834 105.826 672.881 105.977C668.668 106.263 664.626 106.6 659.898 106.802C657.432 106.903 655.068 107.02 652.636 107.155C651.472 107.189 649.827 107.256 648.765 107.34C647.601 107.441 646.847 107.693 645.511 107.777C644.072 107.878 639.927 107.845 638.489 107.744C637.667 107.677 637.016 107.592 636.194 107.525C634.686 107.424 633.111 107.424 631.364 107.306C627.63 107.155 623.827 107.054 620.094 106.869C618.244 106.802 616.565 106.65 614.75 106.583C612.797 106.516 607.796 106.516 606.357 106.684C605.295 106.835 606.254 106.869 604.439 106.97C603.343 107.037 601.801 107.004 602.212 107.222C600.465 107.29 597.519 107.222 595.841 107.222C594.025 107.222 592.21 107.256 590.394 107.256C587.243 107.323 584.159 107.323 581.008 107.323C579.329 107.323 578.199 107.256 576.589 107.222C575.356 107.222 573.883 107.256 572.718 107.222C571.416 107.189 570.252 107.037 569.053 106.936C567.58 106.869 565.97 106.785 564.463 106.718C561.996 106.566 559.941 106.398 557.303 106.28C552.028 106.095 546.787 105.927 541.443 105.775C537.743 105.708 534.146 105.708 530.344 105.708C526.268 105.708 522.363 105.675 518.32 105.641C514.175 105.607 509.619 105.574 505.612 105.422C504.481 105.389 503.419 105.321 502.323 105.271C499.069 105.119 495.917 105.17 492.526 105.203C488.141 105.271 481.701 105.271 477.967 105.607C476.768 105.675 475.843 105.826 474.576 105.927C472.623 106.078 471.116 106.213 468.855 106.179C465.259 106.179 461.627 106.146 458.065 106.112C455.873 106.078 453.817 106.011 451.591 106.011C450.46 106.011 449.741 106.011 448.645 105.977C445.596 105.876 443.095 105.826 440.423 105.607C437.683 105.422 434.737 105.321 431.825 105.136C429.462 105.035 427.543 104.816 425.556 104.598C422.645 104.345 418.671 104.244 415.28 104.059C413.567 103.992 410.827 103.807 408.908 103.841C407.264 103.874 407.607 103.992 406.476 104.093C405.654 104.16 405.037 104.127 403.941 104.127C397.056 104.127 390.068 104.093 383.182 104.127C379.174 104.16 375.612 104.446 372.152 104.699C368.178 104.951 367.116 105.17 365.232 105.607C364.479 105.792 364.068 105.893 363.759 106.112C361.738 106.146 359.238 106.112 357.148 106.112C353.825 106.112 350.468 106.146 347.18 106.078C345.261 106.011 343.275 106.045 341.391 105.977C338.958 105.876 337.177 105.725 334.574 105.725C332.655 105.725 329.915 105.792 328.271 105.944C327.894 105.977 327.688 106.095 327.277 106.095C326.524 106.162 325.085 106.129 324.263 106.129C317.206 106.129 310.869 106.129 303.881 106.028C298.674 105.961 294.118 105.624 289.048 105.489C284.424 105.338 279.696 105.338 274.935 105.389C270.036 105.422 263.939 105.54 259.725 105.86C258.115 106.011 257.773 106.146 255.718 106.146H250.134C246.126 106.146 242.289 106.247 238.316 106.247C234.582 106.247 231.019 106.095 227.285 106.061C224.956 106.028 221.462 106.129 219.372 106.028C218.447 105.994 217.762 105.843 217.077 105.742C215.022 105.489 212.932 105.237 209.952 105.119C205.328 104.934 198.99 104.867 194.263 105.018C193.372 105.052 192.824 105.086 191.899 105.086C190.632 105.086 189.056 105.018 187.789 105.018C181.28 104.917 174.772 104.867 168.332 104.732C166.756 104.699 166.345 104.665 165.009 104.581C163.056 104.48 160.59 104.43 158.5 104.329C156 104.177 152.711 103.824 149.834 103.891C147.402 103.925 145.552 104.177 144.387 104.396C143.702 104.547 143.531 104.682 142.092 104.716C140.996 104.749 139.249 104.716 138.118 104.716C136.543 104.716 135.001 104.682 133.46 104.716C130.856 104.783 127.979 104.749 125.478 104.816C121.881 104.917 119.243 105.22 116.777 105.54C114.79 105.792 113.489 106.112 111.639 106.415C108.316 106.886 103.657 106.633 99.1355 106.6C96.6006 106.566 96.1553 106.499 94.8878 106.196C94.3397 106.095 93.6546 105.977 93.1408 105.826C91.9418 105.574 90.7771 105.103 90.7086 104.783C90.6401 104.598 91.0854 104.463 90.1948 104.312C89.0986 104.127 84.4399 104.093 82.6586 104.026C79.1303 103.958 75.4992 103.958 71.9366 103.958C70.7719 103.958 68.8536 103.925 67.7574 103.958C67.5519 103.958 67.0038 104.026 67.0038 104.026C64.2291 104.093 61.4202 103.925 58.8167 103.807C55.3912 103.656 51.7944 103.487 48.266 103.403C46.4847 103.37 44.4979 103.437 42.8194 103.37C39.9419 103.269 38.2634 103.084 34.8036 103.084C32.4057 103.084 26.7878 103.084 25.4519 103.37C24.801 103.521 25.5546 103.689 25.1436 103.841C23.9104 103.874 21.6495 103.622 20.5191 103.555C17.0593 103.37 13.4624 103.201 9.86559 103.016C7.05664 102.865 4.72726 102.73 1.67852 102.73H0L0.582344 4.57962C4.24769 4.61327 8.32409 4.36091 11.9209 4.32726C13.5994 4.29362 15.415 4.17585 17.1278 4.22632C20.5876 4.29362 24.2872 4.41138 27.5757 4.51233C30.3504 4.66374 37.0987 4.69739 39.6336 4.51233C40.5928 4.44503 40.6956 4.32726 41.9288 4.32726C42.2371 4.32726 42.7166 4.39456 43.1277 4.39456C43.9841 4.42821 45.046 4.42821 45.9709 4.4955C50.6297 4.68057 54.3978 5.21893 58.851 5.47129C61.797 5.62271 66.5927 5.50494 69.9498 5.50494C75.9788 5.50494 81.8022 5.43764 87.7969 5.43764C89.6125 5.43764 92.6269 5.50494 93.6204 5.25258C94.374 5.03387 93.2778 4.78151 93.8259 4.59645C95.1618 4.5628 97.1144 4.69739 98.4504 4.74786C99.9919 4.78151 101.362 4.84881 102.835 4.93293C105.85 5.03387 109.035 5.11799 111.879 5.30305C112.701 5.3367 113.626 5.48811 114.379 5.52176C115.407 5.55541 117.017 5.55541 118.147 5.58906C120.751 5.62271 123.491 5.58906 126.026 5.65635C127.499 5.69 128.869 5.72365 130.411 5.7573C135.789 5.85824 143.805 6.07695 149.012 5.79094C150.519 5.72365 151.752 5.69 153.568 5.72365C156.753 5.79094 163.022 6.22837 163.33 6.63214C165.043 6.73308 167.612 6.37978 168.88 6.27884C170.216 6.17789 171.552 6.17789 173.093 6.06013C179.465 5.70682 188.097 5.65635 193.03 4.9834C194.126 4.79833 193.715 4.79833 195.668 4.76469H198.682C203.067 4.76469 207.417 4.94975 211.357 5.16846C218.173 5.57223 225.641 5.2694 232.698 5.10116C238.007 4.94975 243.386 4.69739 248.798 4.69739H282.403C286.136 4.69739 289.63 4.73104 293.33 4.79833C293.433 4.86563 293.707 4.86563 294.221 4.86563H302.785C305.182 4.89928 307.135 4.96657 309.601 4.96657C319.467 4.96657 329.093 5.00022 338.582 4.61327C339.986 4.54598 341.767 4.32726 343.103 4.32726C344.748 4.32726 346.46 4.61327 347.899 4.73104C351.804 4.9161 356.292 5.01704 360.437 5.13481C362.389 5.20211 363.965 5.23576 365.952 5.28623H383.491C387.499 5.28623 391.952 5.31988 395.96 5.28623C398.426 5.25258 400.618 5.06752 402.982 5.00022C404.763 4.96657 406.099 5.00022 407.846 5.06752C411.854 5.13481 415.245 5.31988 419.082 5.47129C420.418 5.53859 421.206 5.53859 422.473 5.53859C425.83 5.60588 429.05 5.47129 432.202 5.35352C437.203 5.16846 442.616 5.06752 447.96 5.16846C451.248 5.23576 455.016 5.45447 457.962 5.63953C463.546 5.95918 470.157 6.0433 476.323 6.1106H487.662C489.203 6.1106 491.772 6.17789 493.245 6.1106C493.862 6.1106 493.793 6.0433 494.376 6.0433C498.726 5.94236 502.837 6.22837 507.187 6.22837C509.996 6.22837 512.908 6.16107 515.683 6.22837C518.149 6.26201 520.855 6.41343 522.979 6.54802C524.075 6.64896 525.069 6.76673 526.199 6.83403C529.556 7.01909 532.605 6.76673 535.345 6.58167C536.407 6.54802 537.64 6.58167 538.702 6.61532C541.477 6.71626 543.772 6.90132 546.752 6.96862C550.692 7.06956 554.015 7.03591 557.885 6.96862C560.044 6.93497 562.373 6.96862 564.634 6.93497C567.203 6.93497 567.169 6.86768 567.409 6.58167C568.95 6.58167 570.32 6.51437 571.862 6.48072C573.472 6.48072 575.185 6.51437 576.795 6.48072C578.199 6.48072 579.569 6.44708 580.734 6.32931C582.618 6.17789 581.83 6.0433 582.241 5.82459C583.235 5.31988 589.195 5.47129 592.552 5.47129C601.698 5.47129 611.05 5.62271 620.059 5.7573C622.491 5.79094 625.506 5.90871 627.835 5.7573C628.897 5.69 629.582 5.57223 630.13 5.47129C630.507 5.37035 630.713 5.25258 630.918 5.15164C631.295 4.96657 631.192 4.71421 632.186 4.52915C633.316 4.34409 634.686 4.42821 636.365 4.42821H641.914C646.813 4.42821 651.403 4.42821 656.302 4.4955C660.652 4.5628 665.482 4.5628 669.901 4.52915C671.614 4.52915 673.018 4.42821 674.697 4.37774C678.362 4.22632 682.61 4.34409 686.412 4.34409H699.155C702.067 4.34409 704.465 4.15902 705.869 3.83937C706.897 3.62066 706.76 3.48607 708.473 3.3683C710.665 3.18324 713.132 3.14959 715.666 3.11594C718.304 3.08229 720.942 3.015 723.579 3.015C726.251 2.98135 728.821 3.11594 731.492 3.11594H739.474C748.415 3.11594 758.109 3.04865 766.296 2.64487C768.214 2.54393 770.338 2.54393 772.12 2.39251C773.318 2.29157 774.449 2.14016 775.614 2.07286C777.258 1.8878 778.423 1.71956 780.067 1.56814C783.218 1.28214 788.939 1.24849 792.57 1.16437C797.332 1.06343 802.299 0.878362 807.094 0.844714C809.732 0.811067 812.473 0.844714 815.11 0.844714C823.126 0.844714 832.752 1.02978 840.322 0.693299C845.598 0.44094 850.702 -0.215192 856.422 0.0708144C859.471 0.22223 862.588 0.323173 865.637 0.508236C866.699 0.541884 867.692 0.60918 868.789 0.659651C872.557 0.760595 876.393 1.09707 880.299 1.13072C883.279 1.16437 886.362 1.09707 889.376 1.13072C892.768 1.13072 896.056 1.23166 899.516 1.23166C901.092 1.23166 903.147 1.26531 904.723 1.23166C906.23 1.16437 906.23 1.13072 908.08 1.13072C910.957 1.19802 913.732 1.28214 916.507 1.34943C917.5 1.38308 918.699 1.45038 919.487 1.50085C920.891 1.53449 922.433 1.50085 923.906 1.53449C930.414 1.60179 936.957 1.68591 943.534 1.71956C945.658 1.71956 949.597 1.78685 951.858 1.68591C953.879 1.61861 955.421 1.36626 957.476 1.28214C959.052 1.21484 960.559 1.24849 962.238 1.24849C966.828 1.24849 970.973 1.24849 975.358 1.09707C978.441 0.99613 980.804 0.945658 984.024 0.945658C987.827 0.945658 991.423 1.01295 995.26 1.0466C998.343 1.08025 1001.73 1.1139 1004.54 1.29896C1007.56 1.48402 1010.47 1.70273 1013.52 1.87097C1022.56 2.40934 1029.93 3.16641 1038.46 3.7889C1041.5 4.00761 1044.21 4.07491 1047.77 4.10855C1049.66 4.1422 1051.51 4.2095 1053.39 4.2095C1057.33 4.24314 1061.37 4.17585 1065.35 4.2095C1070.59 4.2095 1075.76 4.31044 1081 4.31044C1086.24 4.31044 1092.17 4.41138 1096.96 4.09173C1098.4 4.02443 1099.88 3.87302 1100.9 3.73843C1101.55 3.63748 1101.76 3.51972 1102.75 3.45242C1103.95 3.38512 1106.56 3.45242 1107.93 3.45242C1110.63 3.45242 1113.51 3.51972 1116.22 3.55336C1118.2 3.58701 1119.98 3.62066 1121.97 3.62066C1124.37 3.58701 1126.53 3.62066 1128.96 3.68796C1134.1 3.83937 1140.47 4.04126 1145.88 4.00761C1147.49 3.97396 1148.96 3.90667 1150.51 3.85619C1153.55 3.75525 1158.52 3.7889 1161.64 3.7889C1160.27 4.25997 1176.03 4.22632 1177.36 4.22632C1184.86 4.41138 1192.33 4.37774 1200.01 4.37774C1203.84 4.37774 1207.58 4.44503 1211.38 4.47868C1213.84 4.51233 1216.89 4.51233 1219.22 4.66374C1220.83 4.73104 1222.27 4.84881 1223.92 4.9161C1228.64 5.13481 1233.68 5.20211 1238.41 5.42082C1241.97 5.57223 1245.29 5.77412 1248.68 5.95918C1253.14 6.21154 1257.35 6.39661 1261.8 6.02648C1262.8 5.95918 1263.58 5.80777 1264.71 5.77412C1265.71 5.74047 1267.11 5.77412 1268.17 5.77412C1269.24 5.77412 1270.61 5.74047 1271.63 5.77412C1272.22 5.80777 1272.28 5.87506 1272.83 5.87506C1275.44 6.06013 1278.69 6.09378 1281.5 6.12742C1284.99 6.16107 1288.38 6.22837 1291.88 6.22837C1295.1 6.22837 1298.87 6.19472 1301.98 6.26201C1302.84 6.26201 1304.14 6.36296 1305.14 6.41343C1306.71 6.44708 1308.36 6.44708 1309.93 6.51437C1312.81 6.61532 1315.62 6.76673 1318.53 6.86768C1322.19 7.01909 1327.4 7.18733 1331.31 7.05274C1330.96 6.83403 1334.66 6.54802 1335.93 6.43025C1337.64 6.24519 1339.53 6.27884 1341.65 6.32931C1345.15 6.39661 1348.33 6.39661 1351.79 6.39661C1354.16 6.43025 1356.42 6.58167 1358.85 6.61532C1360.53 6.61532 1361.52 6.68261 1363.1 6.80038C1369.16 7.12003 1373.65 7.37239 1380.43 7.37239C1384.09 7.33874 1387.73 7.33874 1391.39 7.33874C1400.02 7.33874 1408.07 7.33875 1416.64 7.18733C1418.42 7.15368 1420.2 7.15368 1421.98 7.15368H1432.74C1437.05 7.15368 1441.58 7.12003 1445.86 7.18733C1448.91 7.22098 1451.75 7.33874 1454.83 7.37239C1460 7.37239 1464.9 7.55746 1470.04 7.55746H1480.46C1482.44 7.55746 1484.46 7.52381 1486.42 7.55746C1488.51 7.5911 1490.39 7.6584 1492.44 7.70887C1496.56 7.80981 1500.94 7.74252 1505.05 7.74252H1513.68C1516.59 7.70887 1520.4 7.5911 1523.1 7.49016C1525.19 7.38922 1526.7 7.38922 1529.03 7.38922C1532.83 7.38922 1536.26 7.2378 1539.92 7.13686C1546.02 6.98544 1552.63 7.10321 1558.87 7.10321H1572.95C1578.32 7.06956 1583.53 7.10321 1588.84 7.20415C1593.26 7.27145 1597.92 7.42286 1602.44 7.45651H1613.23C1615.9 7.45651 1618.44 7.42286 1621.11 7.38922C1622.79 7.35557 1626.38 7.32192 1628.03 7.20415C1631.62 6.98544 1634.47 6.54802 1638.37 6.32931C1639.61 6.29566 1641.01 6.26201 1642.28 6.22837C1644.03 6.16107 1645.43 6.00966 1647.11 5.90871C1649.61 5.80777 1652.9 5.87506 1655.6 5.87506C1656.87 5.87506 1658.14 5.84142 1659.23 5.90871C1662.32 6.12742 1663.89 6.63214 1667.35 6.8172C1668.18 6.63214 1669.48 6.49755 1670.33 6.34613C1671.43 6.12742 1671.98 5.90871 1673.55 5.72365C1676.33 5.43764 1678.04 5.06752 1680.2 4.71421C1680.92 4.61327 1681.36 4.39456 1682.49 4.36091C1683.42 4.32726 1686.16 4.32726 1687.15 4.36091C1688.69 4.39456 1689.41 4.46186 1691.06 4.42821C1692.19 4.39456 1693.28 4.39456 1694.38 4.36091C1696.37 4.32726 1697.84 4.25997 1699.93 4.25997C1703.39 4.29362 1706.78 4.29362 1710.21 4.22632C1715.86 4.15903 1721.41 3.90667 1727.13 3.90667C1728.88 3.90667 1730.79 3.94031 1732.34 3.87302C1732.71 3.83937 1732.95 3.77208 1733.36 3.7216C1734.05 3.68796 1735.35 3.7216 1736.1 3.68796C1738.5 3.65431 1747.72 3.62066 1747.37 3.18324C1752.55 2.96453 1757.24 3.11594 1762.52 3.14959H1762.69C1764.74 3.04865 1766.9 2.96453 1768.78 2.82994C1771.01 2.61123 1772.11 2.35887 1773.92 2.10651C1775.12 1.95509 1776.59 1.85415 1777.31 1.66909C1777.96 1.48402 1776.77 1.45038 1778.65 1.48402C1778.99 1.48402 1780.81 1.58497 1781.22 1.63544C1783.17 1.73638 1783.86 1.98874 1785.09 2.1738C1787.21 2.52711 1789.51 2.89723 1792.49 3.14959C1796.05 3.4356 1798.11 3.46924 1801.91 3.3683C1804.96 3.30101 1808.21 3.3683 1811.26 3.26736C1813.52 3.23371 1815.2 3.20006 1817.12 3.04865C1821.37 2.72899 1825.37 2.39251 1830.1 2.22428C1832.57 2.12333 1834.97 1.97192 1837.36 1.87097C1838.53 1.80368 1840.21 1.77003 1841.23 1.65226C1842.43 1.55132 1843.15 1.29896 1844.49 1.21484C1845.93 1.1139 1850.07 1.18119 1851.51 1.24849C1852.37 1.31578 1852.98 1.43355 1853.84 1.4672C1855.35 1.61861 1856.89 1.61861 1858.64 1.68591C1862.37 1.87097 1866.17 1.97192 1869.94 2.12333C1871.79 2.19063 1873.43 2.34204 1875.25 2.40934C1877.24 2.47663 1882.2 2.51028 1883.64 2.30839C1884.7 2.15698 1883.75 2.12333 1885.6 2.02239C1886.69 1.98874 1888.2 1.98874 1887.79 1.80368C1889.57 1.73638 1892.48 1.80368 1894.19 1.77003C1896.01 1.77003 1897.79 1.77003 1899.61 1.73638C1902.76 1.70273 1905.84 1.70273 1908.99 1.70273C1910.67 1.70273 1911.84 1.73638 1913.45 1.77003C1914.64 1.80368 1916.15 1.73638 1917.32 1.77003C1918.62 1.80368 1919.75 1.98874 1920.98 2.05604C1922.45 2.15698 1924.06 2.20745 1925.54 2.30839C1928.04 2.45981 1930.09 2.62805 1932.73 2.71217C1938.01 2.89723 1943.21 3.11594 1948.59 3.21689C1952.29 3.28418 1955.89 3.28418 1959.69 3.28418C1963.73 3.28418 1967.64 3.35148 1971.68 3.35148C1975.86 3.38513 1980.38 3.41877 1984.39 3.57019C1985.52 3.60384 1986.58 3.67113 1987.71 3.7216C1990.97 3.87302 1994.12 3.87302 1997.47 3.7889C2001.89 3.7216 2008.3 3.7216 2012.03 3.4356C2013.23 3.33465 2014.16 3.18324 2015.42 3.11594C2017.38 2.93088 2018.88 2.82994 2021.18 2.82994C2024.74 2.82994 2028.37 2.89723 2031.93 2.93088C2034.13 2.93088 2036.22 2.99818 2038.44 2.99818C2039.54 2.99818 2040.26 2.99818 2041.36 3.03182C2044.4 3.13277 2046.9 3.18324 2049.58 3.38513C2052.32 3.60384 2055.26 3.70478 2058.17 3.85619C2060.54 4.00761 2062.46 4.2095 2064.48 4.39456C2067.39 4.68057 2071.36 4.79833 2074.75 4.93293C2076.43 5.00022 2079.17 5.18528 2081.09 5.15164C2082.77 5.11799 2082.39 5.00022 2083.52 4.93293C2084.35 4.86563 2084.96 4.86563 2086.06 4.86563C2092.94 4.89928 2099.93 4.89928 2106.82 4.86563C2110.86 4.86563 2114.39 4.54597 2117.85 4.32726C2121.82 4.07491 2122.92 3.82255 2124.77 3.38513C2125.56 3.20006 2125.93 3.13277 2126.24 2.91406C2128.3 2.84676 2130.76 2.88041 2132.85 2.88041C2136.21 2.88041 2139.53 2.88041 2142.82 2.9477C2144.77 2.98135 2146.73 2.98135 2148.61 3.015C2151.04 3.11594 2152.82 3.26736 2155.46 3.26736C2157.38 3.26736 2160.12 3.20006 2161.73 3.04865C2162.11 3.015 2162.31 2.9477 2162.72 2.89723C2163.51 2.82994 2164.95 2.86358 2165.77 2.86358C2172.83 2.89723 2179.13 2.86358 2186.12 2.96453C2191.33 3.03182 2195.88 3.3683 2200.99 3.50289C2205.61 3.65431 2210.3 3.65431 2215.07 3.60384C2220 3.57019 2226.06 3.50289 2230.27 3.13277C2231.88 3.03182 2232.26 2.88041 2234.28 2.84676C2236.13 2.84676 2238.02 2.84676 2239.9 2.88041C2243.87 2.88041 2247.71 2.77946 2251.68 2.77946C2255.42 2.77946 2258.98 2.88041 2262.71 2.96453C2265.04 2.96453 2268.54 2.86358 2270.63 2.96453C2271.55 3.03182 2272.27 3.18324 2272.92 3.25053C2275.01 3.50289 2277.07 3.75525 2280.05 3.87302C2284.67 4.05808 2291.01 4.12538 2295.74 3.97396C2296.66 3.94031 2297.18 3.90667 2298.13 3.90667C2299.4 3.90667 2300.94 3.97396 2302.25 4.00761C2308.75 4.07491 2315.23 4.10855 2321.7 4.25997C2323.24 4.29362 2323.66 4.32726 2325.03 4.41138C2326.94 4.51233 2329.41 4.5628 2331.5 4.66374C2334 4.81516 2337.32 5.16846 2340.2 5.13481C2342.6 5.06752 2344.45 4.81516 2345.61 4.59645C2346.3 4.44503 2346.5 4.31044 2347.91 4.27679C2349 4.27679 2350.75 4.31044 2351.88 4.31044C2353.46 4.31044 2355.03 4.31044 2356.57 4.27679C2359.14 4.2095 2362.02 4.27679 2364.52 4.17585C2368.12 4.07491 2370.76 3.77207 2373.22 3.48607C2375.21 3.23371 2376.51 2.86358 2378.36 2.61123C2381.72 2.10651 2386.38 2.39251 2390.9 2.42616C2393.4 2.42616 2393.84 2.49346 2395.15 2.79629C2395.69 2.89723 2396.35 3.04865 2396.89 3.14959C2398.09 3.40195 2399.22 3.90667 2399.29 4.19267C2399.36 4.37774 2398.91 4.5628 2399.81 4.69739C2400.9 4.84881 2405.59 4.9161 2407.34 4.94975C2410.87 5.01704 2414.5 5.05069 2418.1 5.01704C2419.26 5.01704 2421.15 5.08434 2422.24 5.01704C2422.48 5.01704 2423.03 4.94975 2423.03 4.94975C2425.77 4.88245 2428.58 5.05069 2431.22 5.16846C2434.61 5.31987 2438.21 5.53859 2441.77 5.60588C2443.52 5.63953 2445.5 5.57223 2447.18 5.63953C2450.06 5.74047 2451.77 5.89189 2455.23 5.89189C2457.59 5.89189 2463.21 5.89189 2464.55 5.60588C2465.2 5.45447 2464.48 5.28623 2464.86 5.13481C2466.09 5.10116 2468.38 5.35352 2469.48 5.42082C2472.94 5.63953 2476.57 5.82459 2480.17 5.99283C2482.94 6.14425 2485.31 6.24519 2488.32 6.24519H2490L2489.45 104.295V104.329Z" fill="white"/>
</svg>
