<svg width="2387" height="109" viewBox="0 0 2387 109" fill="none" xmlns="http://www.w3.org/2000/svg">
<path d="M2386.47 104.329C2382.93 104.295 2379.05 104.547 2375.57 104.615C2373.96 104.615 2372.26 104.716 2370.58 104.716C2367.26 104.648 2363.75 104.53 2360.56 104.396C2357.94 104.295 2351.44 104.211 2349.04 104.43C2348.09 104.497 2347.99 104.581 2346.84 104.615C2346.51 104.615 2346.05 104.547 2345.69 104.514C2344.84 104.48 2343.82 104.48 2342.96 104.446C2338.5 104.228 2334.89 103.723 2330.58 103.471C2327.79 103.286 2323.16 103.403 2319.98 103.403C2314.2 103.403 2308.61 103.504 2302.87 103.504C2301.09 103.504 2298.2 103.437 2297.29 103.689C2296.56 103.874 2297.61 104.127 2297.09 104.345C2295.77 104.345 2293.9 104.244 2292.62 104.16C2291.18 104.127 2289.86 104.059 2288.45 104.009C2285.53 103.908 2282.47 103.824 2279.78 103.605C2278.99 103.572 2278.11 103.454 2277.35 103.386C2276.37 103.353 2274.86 103.353 2273.74 103.353C2271.28 103.286 2268.62 103.353 2266.19 103.286C2264.81 103.252 2263.46 103.185 2261.98 103.185C2256.83 103.084 2249.18 102.814 2244.19 103.117C2242.71 103.185 2241.53 103.269 2239.78 103.185C2236.76 103.117 2230.72 102.714 2230.46 102.276C2228.78 102.209 2226.32 102.528 2225.11 102.629C2223.86 102.73 2222.54 102.73 2221.1 102.848C2214.96 103.218 2206.68 103.252 2201.99 103.975C2200.9 104.127 2201.3 104.16 2199.46 104.16H2196.57C2192.33 104.16 2188.16 104.009 2184.39 103.757C2177.85 103.353 2170.69 103.656 2163.93 103.824C2158.84 103.975 2153.72 104.228 2148.53 104.228H2116.31C2112.7 104.261 2109.35 104.194 2105.8 104.127C2105.74 104.093 2105.44 104.059 2104.98 104.059H2101.27C2099.79 104.059 2098.19 104.093 2096.74 104.059C2094.47 104.059 2092.57 103.992 2090.24 103.992C2080.78 103.992 2071.52 103.958 2062.46 104.312C2061.11 104.379 2059.4 104.598 2058.12 104.598C2056.51 104.598 2054.87 104.312 2053.49 104.244C2049.75 104.026 2045.45 103.925 2041.47 103.807C2039.6 103.74 2038.09 103.706 2036.22 103.706C2030.6 103.672 2024.99 103.706 2019.41 103.706C2015.56 103.706 2011.29 103.639 2007.45 103.706C2005.05 103.74 2002.95 103.891 2000.69 103.958C1998.98 103.992 1997.7 103.958 1996.02 103.925C1992.22 103.824 1988.96 103.672 1985.29 103.487C1984.01 103.454 1983.25 103.42 1982 103.42C1978.78 103.386 1975.7 103.487 1972.68 103.605C1967.88 103.79 1962.69 103.891 1957.6 103.824C1954.45 103.757 1950.84 103.504 1947.98 103.319C1942.63 103 1936.29 102.915 1930.38 102.882C1926.77 102.848 1923.16 102.848 1919.54 102.848C1918.07 102.848 1915.6 102.814 1914.16 102.848C1913.6 102.882 1913.67 102.915 1913.07 102.949C1908.9 103.016 1904.96 102.764 1900.79 102.764C1898.13 102.73 1895.31 102.798 1892.68 102.73C1890.28 102.697 1887.69 102.545 1885.65 102.411C1884.64 102.343 1883.68 102.192 1882.57 102.125C1879.38 101.94 1876.43 102.226 1873.8 102.377C1872.81 102.411 1871.6 102.411 1870.58 102.343C1867.92 102.242 1865.72 102.091 1862.86 102.024C1859.09 101.923 1855.9 101.923 1852.22 101.99C1850.12 102.057 1847.89 102.024 1845.76 102.024C1843.29 102.024 1843.33 102.091 1843.06 102.394C1841.62 102.394 1840.3 102.495 1838.83 102.495C1837.25 102.528 1835.64 102.461 1834.06 102.495C1832.75 102.495 1831.4 102.562 1830.29 102.646C1828.52 102.831 1829.27 102.932 1828.88 103.151C1827.92 103.656 1822.18 103.555 1818.96 103.555C1810.22 103.555 1801.23 103.403 1792.59 103.235C1790.29 103.201 1787.37 103.134 1785.17 103.269C1784.15 103.302 1783.46 103.42 1782.97 103.555C1782.57 103.622 1782.38 103.74 1782.18 103.841C1781.85 104.026 1781.92 104.278 1780.96 104.463C1779.88 104.648 1778.6 104.564 1776.96 104.564H1771.64C1766.94 104.564 1762.54 104.564 1757.85 104.497C1753.68 104.463 1749.05 104.463 1744.84 104.497C1743.17 104.497 1741.82 104.564 1740.25 104.648C1736.7 104.749 1732.63 104.682 1728.98 104.682C1724.94 104.682 1720.84 104.648 1716.8 104.682C1713.97 104.682 1711.68 104.867 1710.33 105.153C1709.38 105.372 1709.48 105.506 1707.83 105.658C1705.73 105.809 1703.37 105.843 1700.94 105.876C1698.44 105.91 1695.88 105.977 1693.38 105.977C1690.79 106.011 1688.33 105.91 1685.77 105.91C1683.24 105.876 1680.68 105.91 1678.15 105.91C1669.54 105.91 1660.28 105.944 1652.43 106.381C1650.56 106.448 1648.53 106.482 1646.82 106.6C1645.67 106.701 1644.59 106.852 1643.47 106.97C1641.89 107.121 1640.81 107.323 1639.23 107.475C1636.18 107.727 1630.7 107.761 1627.21 107.845C1622.65 107.946 1617.92 108.131 1613.29 108.164C1610.8 108.198 1608.14 108.164 1605.64 108.164C1597.92 108.164 1588.7 108.013 1581.44 108.35C1576.41 108.568 1571.49 109.224 1566.04 108.922C1563.11 108.77 1560.09 108.669 1557.17 108.518C1556.19 108.45 1555.2 108.366 1554.15 108.333C1550.54 108.232 1546.86 107.929 1543.15 107.862C1540.26 107.828 1537.34 107.895 1534.45 107.895C1531.16 107.862 1528.01 107.794 1524.73 107.794C1523.18 107.794 1521.21 107.727 1519.73 107.794C1518.26 107.828 1518.29 107.895 1516.48 107.862C1513.76 107.828 1511.06 107.71 1508.41 107.643C1507.49 107.609 1506.3 107.542 1505.55 107.542C1504.2 107.475 1502.72 107.508 1501.31 107.475C1495.07 107.407 1488.8 107.323 1482.53 107.323C1480.49 107.323 1476.68 107.256 1474.55 107.323C1472.58 107.391 1471.1 107.643 1469.16 107.727C1467.62 107.794 1466.21 107.794 1464.57 107.794C1460.2 107.794 1456.22 107.761 1451.99 107.895C1449.03 107.996 1446.77 108.08 1443.71 108.08C1440.04 108.08 1436.59 108.013 1432.94 107.929C1429.95 107.895 1426.7 107.862 1424.01 107.677C1421.12 107.491 1418.36 107.273 1415.41 107.105C1406.74 106.6 1399.71 105.809 1391.5 105.187C1388.61 104.968 1386.02 104.901 1382.57 104.867C1380.76 104.833 1379.02 104.8 1377.18 104.766C1373.41 104.766 1369.53 104.8 1365.75 104.8C1360.7 104.766 1355.77 104.699 1350.71 104.699C1345.66 104.699 1340.01 104.547 1335.44 104.884C1334.03 104.985 1332.65 105.103 1331.67 105.254C1331.01 105.355 1330.85 105.473 1329.86 105.54C1328.71 105.607 1326.25 105.54 1324.94 105.54C1322.34 105.54 1319.55 105.506 1316.99 105.439C1315.05 105.405 1313.38 105.405 1311.44 105.405C1309.14 105.405 1307.07 105.372 1304.74 105.304C1299.81 105.203 1293.74 104.934 1288.55 104.985C1286.97 105.018 1285.6 105.086 1284.09 105.17C1281.2 105.237 1276.43 105.203 1273.45 105.203C1274.73 104.732 1259.62 104.8 1258.37 104.766C1251.15 104.581 1243.99 104.615 1236.63 104.615C1232.96 104.615 1229.41 104.581 1225.76 104.514C1223.37 104.48 1220.48 104.48 1218.21 104.362C1216.7 104.261 1215.32 104.144 1213.71 104.076C1209.18 103.891 1204.39 103.79 1199.82 103.572C1196.44 103.42 1193.22 103.252 1189.97 103.033C1185.7 102.781 1181.69 102.596 1177.43 102.966C1176.44 103.033 1175.69 103.185 1174.63 103.218C1173.65 103.252 1172.3 103.218 1171.28 103.218C1170.33 103.218 1168.95 103.252 1167.97 103.218C1167.44 103.185 1167.34 103.151 1166.85 103.117C1164.36 102.966 1161.2 102.932 1158.51 102.865C1155.16 102.831 1151.94 102.764 1148.59 102.764C1145.47 102.764 1141.86 102.831 1138.87 102.764C1138.08 102.73 1136.8 102.663 1135.85 102.613C1134.34 102.545 1132.77 102.545 1131.25 102.461C1128.5 102.36 1125.8 102.209 1123.04 102.091C1119.5 101.99 1114.51 101.771 1110.76 101.906C1111.09 102.158 1107.55 102.411 1106.33 102.562C1104.72 102.714 1102.91 102.663 1100.85 102.629C1097.53 102.562 1094.44 102.596 1091.16 102.562C1088.86 102.562 1086.73 102.411 1084.39 102.377C1082.78 102.343 1081.83 102.276 1080.32 102.192C1074.48 101.839 1070.17 101.62 1063.67 101.62H1053.16C1044.92 101.62 1037.17 101.654 1029 101.805H1013.53C1009.39 101.805 1005.06 101.872 1000.95 101.805C998.029 101.738 995.336 101.62 992.348 101.62C987.389 101.586 982.726 101.401 977.8 101.435H962.07C960.067 101.401 958.261 101.283 956.291 101.25C952.383 101.183 948.18 101.216 944.206 101.216H935.964C933.14 101.25 929.495 101.368 926.933 101.502C924.897 101.569 923.452 101.603 921.252 101.603C917.607 101.603 914.323 101.704 910.777 101.822C904.931 101.973 898.594 101.889 892.65 101.889H879.153C873.997 101.889 869.006 101.855 863.883 101.788C859.647 101.721 855.181 101.536 850.846 101.502H840.502C837.941 101.502 835.544 101.536 832.982 101.603C831.34 101.637 827.892 101.637 826.316 101.755C822.868 102.007 820.142 102.444 816.399 102.629C815.217 102.697 813.87 102.697 812.655 102.781C810.98 102.848 809.634 103 808.025 103.067C805.628 103.218 802.475 103.1 799.881 103.134C798.666 103.134 797.451 103.134 796.4 103.067C793.445 102.882 791.934 102.343 788.617 102.192C787.862 102.377 786.614 102.478 785.76 102.663C784.742 102.882 784.217 103.1 782.674 103.235C780.046 103.555 778.404 103.925 776.303 104.244C775.646 104.396 775.219 104.564 774.136 104.598C773.249 104.665 770.589 104.631 769.669 104.598C768.192 104.564 767.502 104.497 765.893 104.53C764.809 104.564 763.791 104.564 762.708 104.598C760.803 104.631 759.424 104.699 757.388 104.699C754.071 104.699 750.82 104.699 747.536 104.732C742.118 104.8 736.798 105.052 731.314 105.052C729.639 105.052 727.8 105.018 726.323 105.086C725.994 105.119 725.732 105.187 725.337 105.237C724.681 105.271 723.466 105.271 722.71 105.271C720.412 105.304 711.578 105.372 711.906 105.809C706.948 106.028 702.383 105.843 697.293 105.809C695.29 105.961 693.254 105.994 691.415 106.179C689.248 106.364 688.197 106.65 686.457 106.869C685.307 107.054 683.928 107.155 683.206 107.34C682.615 107.492 683.731 107.525 681.925 107.492C681.597 107.492 679.856 107.391 679.462 107.391C677.59 107.239 676.966 107.037 675.751 106.819C673.748 106.465 671.515 106.095 668.658 105.843C665.276 105.557 663.273 105.523 659.628 105.624C656.705 105.725 653.585 105.658 650.663 105.725C648.528 105.759 646.919 105.826 645.047 105.977C641.008 106.263 637.133 106.6 632.601 106.802C630.237 106.903 627.971 107.02 625.64 107.155C624.523 107.189 622.947 107.256 621.929 107.34C620.812 107.441 620.09 107.693 618.809 107.777C617.43 107.878 613.457 107.845 612.077 107.744C611.289 107.677 610.665 107.592 609.877 107.525C608.432 107.424 606.922 107.424 605.247 107.306C601.668 107.155 598.023 107.054 594.443 106.869C592.67 106.802 591.061 106.65 589.32 106.583C587.448 106.516 582.654 106.516 581.275 106.684C580.257 106.835 581.176 106.869 579.436 106.97C578.385 107.037 576.907 107.004 577.301 107.222C575.627 107.29 572.802 107.222 571.193 107.222C569.453 107.222 567.713 107.256 565.972 107.256C562.951 107.323 559.995 107.323 556.974 107.323C555.365 107.323 554.282 107.256 552.738 107.222C551.556 107.222 550.144 107.256 549.027 107.222C547.78 107.189 546.663 107.037 545.514 106.936C544.102 106.869 542.558 106.785 541.113 106.718C538.749 106.566 536.779 106.398 534.25 106.28C529.193 106.095 524.169 105.927 519.046 105.775C515.499 105.708 512.051 105.708 508.406 105.708C504.498 105.708 500.755 105.675 496.88 105.641C492.906 105.607 488.539 105.574 484.697 105.422C483.613 105.389 482.595 105.321 481.544 105.271C478.425 105.119 475.403 105.17 472.152 105.203C467.949 105.271 461.775 105.271 458.196 105.607C457.047 105.675 456.16 105.826 454.945 105.927C453.073 106.078 451.628 106.213 449.461 106.179C446.013 106.179 442.532 106.146 439.117 106.112C437.015 106.078 435.045 106.011 432.91 106.011C431.827 106.011 431.137 106.011 430.086 105.977C427.164 105.876 424.766 105.826 422.205 105.607C419.578 105.422 416.754 105.321 413.962 105.136C411.697 105.035 409.858 104.816 407.953 104.598C405.162 104.345 401.353 104.244 398.102 104.059C396.46 103.992 393.833 103.807 391.994 103.841C390.417 103.874 390.746 103.992 389.662 104.093C388.874 104.16 388.283 104.127 387.232 104.127C380.631 104.127 373.932 104.093 367.332 104.127C363.49 104.16 360.074 104.446 356.758 104.699C352.949 104.951 351.931 105.17 350.124 105.607C349.402 105.792 349.008 105.893 348.712 106.112C346.775 106.146 344.378 106.112 342.375 106.112C339.189 106.112 335.971 106.146 332.819 106.078C330.98 106.011 329.075 106.045 327.269 105.977C324.937 105.876 323.23 105.725 320.734 105.725C318.895 105.725 316.268 105.792 314.692 105.944C314.33 105.977 314.133 106.095 313.739 106.095C313.017 106.162 311.638 106.129 310.85 106.129C304.085 106.129 298.01 106.129 291.311 106.028C286.319 105.961 281.952 105.624 277.092 105.489C272.658 105.338 268.127 105.338 263.562 105.389C258.866 105.422 253.021 105.54 248.982 105.86C247.438 106.011 247.11 106.146 245.14 106.146H239.787C235.945 106.146 232.267 106.247 228.458 106.247C224.878 106.247 221.463 106.095 217.884 106.061C215.651 106.028 212.301 106.129 210.298 106.028C209.411 105.994 208.755 105.843 208.098 105.742C206.127 105.489 204.124 105.237 201.267 105.119C196.834 104.934 190.759 104.867 186.227 105.018C185.374 105.052 184.848 105.086 183.961 105.086C182.746 105.086 181.236 105.018 180.021 105.018C173.782 104.917 167.542 104.867 161.369 104.732C159.858 104.699 159.464 104.665 158.183 104.581C156.311 104.48 153.947 104.43 151.944 104.329C149.547 104.177 146.394 103.824 143.636 103.891C141.304 103.925 139.531 104.177 138.414 104.396C137.758 104.547 137.593 104.682 136.214 104.716C135.163 104.749 133.489 104.716 132.405 104.716C130.894 104.716 129.417 104.682 127.939 104.716C125.443 104.783 122.685 104.749 120.288 104.816C116.839 104.917 114.311 105.22 111.947 105.54C110.042 105.792 108.794 106.112 107.021 106.415C103.835 106.886 99.3694 106.633 95.0347 106.6C92.6047 106.566 92.1778 106.499 90.9627 106.196C90.4373 106.095 89.7805 105.977 89.288 105.826C88.1386 105.574 87.0221 105.103 86.9564 104.783C86.8907 104.598 87.3176 104.463 86.4639 104.312C85.413 104.127 80.947 104.093 79.2394 104.026C75.857 103.958 72.3761 103.958 68.9609 103.958C67.8444 103.958 66.0054 103.925 64.9546 103.958C64.7576 103.958 64.2322 104.026 64.2322 104.026C61.5722 104.093 58.8795 103.925 56.3838 103.807C53.0999 103.656 49.6519 103.487 46.2695 103.403C44.5619 103.37 42.6572 103.437 41.0482 103.37C38.2897 103.269 36.6806 103.084 33.3639 103.084C31.0652 103.084 25.6797 103.084 24.399 103.37C23.7751 103.521 24.4975 103.689 24.1035 103.841C22.9213 103.874 20.754 103.622 19.6703 103.555C16.3536 103.37 12.9055 103.201 9.4575 103.016C6.76474 102.865 4.53172 102.73 1.60909 102.73H0L0.558255 4.57962C4.07198 4.61327 7.97976 4.36091 11.4278 4.32726C13.0369 4.29362 14.7773 4.17585 16.4193 4.22632C19.736 4.29362 23.2825 4.41138 26.435 4.51233C29.0949 4.66374 35.5641 4.69739 37.9942 4.51233C38.9137 4.44503 39.0122 4.32726 40.1944 4.32726C40.4899 4.32726 40.9496 4.39456 41.3437 4.39456C42.1647 4.42821 43.1827 4.42821 44.0693 4.4955C48.5353 4.68057 52.1476 5.21893 56.4166 5.47129C59.2407 5.62271 63.8381 5.50494 67.0563 5.50494C72.8359 5.50494 78.4184 5.43764 84.1652 5.43764C85.9056 5.43764 88.7954 5.50494 89.7477 5.25258C90.4702 5.03387 89.4193 4.78151 89.9447 4.59645C91.2254 4.5628 93.0972 4.69739 94.3779 4.74786C95.8557 4.78151 97.1692 4.84881 98.5813 4.93293C101.471 5.03387 104.525 5.11799 107.251 5.30305C108.039 5.3367 108.925 5.48811 109.648 5.52176C110.633 5.55541 112.176 5.55541 113.26 5.58906C115.756 5.62271 118.383 5.58906 120.813 5.65635C122.225 5.69 123.539 5.72365 125.016 5.7573C130.172 5.85824 137.856 6.07695 142.848 5.79094C144.292 5.72365 145.475 5.69 147.215 5.72365C150.269 5.79094 156.279 6.22837 156.574 6.63214C158.216 6.73308 160.679 6.37978 161.894 6.27884C163.175 6.17789 164.455 6.17789 165.933 6.06013C172.041 5.70682 180.316 5.65635 185.045 4.9834C186.096 4.79833 185.702 4.79833 187.574 4.76469H190.463C194.667 4.76469 198.837 4.94975 202.614 5.16846C209.149 5.57223 216.307 5.2694 223.072 5.10116C228.162 4.94975 233.318 4.69739 238.506 4.69739H270.721C274.3 4.69739 277.65 4.73104 281.196 4.79833C281.295 4.86563 281.558 4.86563 282.05 4.86563H290.26C292.558 4.89928 294.43 4.96657 296.795 4.96657C306.252 4.96657 315.48 5.00022 324.576 4.61327C325.922 4.54598 327.63 4.32726 328.911 4.32726C330.487 4.32726 332.129 4.61327 333.508 4.73104C337.252 4.9161 341.554 5.01704 345.527 5.13481C347.399 5.20211 348.909 5.23576 350.814 5.28623H367.627C371.469 5.28623 375.738 5.31988 379.581 5.28623C381.945 5.25258 384.047 5.06752 386.312 5.00022C388.02 4.96657 389.301 5.00022 390.976 5.06752C394.818 5.13481 398.069 5.31988 401.747 5.47129C403.027 5.53859 403.783 5.53859 404.998 5.53859C408.216 5.60588 411.303 5.47129 414.324 5.35352C419.118 5.16846 424.307 5.06752 429.429 5.16846C432.582 5.23576 436.194 5.45447 439.018 5.63953C444.371 5.95918 450.709 6.0433 456.62 6.1106H467.489C468.967 6.1106 471.43 6.17789 472.842 6.1106C473.433 6.1106 473.367 6.0433 473.926 6.0433C478.096 5.94236 482.037 6.22837 486.207 6.22837C488.9 6.22837 491.691 6.16107 494.351 6.22837C496.716 6.26201 499.31 6.41343 501.346 6.54802C502.397 6.64896 503.349 6.76673 504.433 6.83403C507.651 7.01909 510.573 6.76673 513.201 6.58167C514.219 6.54802 515.401 6.58167 516.419 6.61532C519.079 6.71626 521.279 6.90132 524.136 6.96862C527.912 7.06956 531.098 7.03591 534.808 6.96862C536.877 6.93497 539.11 6.96862 541.278 6.93497C543.74 6.93497 543.708 6.86768 543.937 6.58167C545.415 6.58167 546.729 6.51437 548.206 6.48072C549.75 6.48072 551.392 6.51437 552.935 6.48072C554.282 6.48072 555.595 6.44708 556.712 6.32931C558.518 6.17789 557.762 6.0433 558.156 5.82459C559.109 5.31988 564.823 5.47129 568.041 5.47129C576.809 5.47129 585.774 5.62271 594.41 5.7573C596.742 5.79094 599.632 5.90871 601.865 5.7573C602.883 5.69 603.539 5.57223 604.065 5.47129C604.426 5.37035 604.623 5.25258 604.82 5.15164C605.181 4.96657 605.083 4.71421 606.035 4.52915C607.119 4.34409 608.432 4.42821 610.041 4.42821H615.361C620.057 4.42821 624.457 4.42821 629.153 4.4955C633.324 4.5628 637.954 4.5628 642.19 4.52915C643.832 4.52915 645.179 4.42821 646.788 4.37774C650.301 4.22632 654.373 4.34409 658.018 4.34409H670.234C673.026 4.34409 675.324 4.15903 676.671 3.83937C677.656 3.62066 677.525 3.48607 679.167 3.3683C681.268 3.18324 683.633 3.14959 686.063 3.11594C688.591 3.08229 691.12 3.015 693.648 3.015C696.21 2.98135 698.673 3.11594 701.234 3.11594H708.885C717.456 3.11594 726.75 3.04865 734.598 2.64487C736.437 2.54393 738.473 2.54393 740.18 2.39251C741.33 2.29157 742.414 2.14016 743.53 2.07286C745.106 1.8878 746.223 1.71956 747.799 1.56814C750.82 1.28214 756.304 1.24849 759.785 1.16437C764.35 1.06343 769.111 0.878362 773.709 0.844714C776.237 0.811067 778.864 0.844714 781.393 0.844714C789.077 0.844714 798.305 1.02978 805.562 0.693299C810.619 0.44094 815.512 -0.215192 820.996 0.0708144C823.919 0.22223 826.907 0.323173 829.83 0.508236C830.848 0.541884 831.8 0.60918 832.851 0.659651C836.463 0.760595 840.141 1.09707 843.885 1.13072C846.742 1.16437 849.697 1.09707 852.587 1.13072C855.838 1.13072 858.99 1.23166 862.307 1.23166C863.818 1.23166 865.788 1.26531 867.298 1.23166C868.743 1.16437 868.743 1.13072 870.517 1.13072C873.275 1.19802 875.935 1.28214 878.595 1.34943C879.547 1.38308 880.697 1.45038 881.452 1.50085C882.798 1.53449 884.276 1.50085 885.688 1.53449C891.927 1.60179 898.2 1.68591 904.505 1.71956C906.54 1.71956 910.317 1.78685 912.484 1.68591C914.422 1.61861 915.899 1.36626 917.87 1.28214C919.38 1.21484 920.825 1.24849 922.434 1.24849C926.835 1.24849 930.808 1.24849 935.012 1.09707C937.967 0.99613 940.233 0.945658 943.32 0.945658C946.965 0.945658 950.413 1.01295 954.091 1.0466C957.046 1.08025 960.297 1.1139 962.99 1.29896C965.88 1.48402 968.671 1.70273 971.594 1.87097C980.263 2.40934 987.323 3.16641 995.5 3.7889C998.423 4.00761 1001.02 4.07491 1004.43 4.10855C1006.24 4.1422 1008.01 4.2095 1009.82 4.2095C1013.59 4.24314 1017.47 4.17585 1021.28 4.2095C1026.3 4.2095 1031.26 4.31044 1036.29 4.31044C1041.31 4.31044 1046.99 4.41138 1051.59 4.09173C1052.97 4.02443 1054.38 3.87302 1055.36 3.73843C1055.99 3.63748 1056.19 3.51972 1057.14 3.45242C1058.29 3.38512 1060.78 3.45242 1062.1 3.45242C1064.69 3.45242 1067.45 3.51972 1070.04 3.55336C1071.95 3.58701 1073.66 3.62066 1075.56 3.62066C1077.86 3.58701 1079.93 3.62066 1082.26 3.68796C1087.19 3.83937 1093.29 4.04126 1098.48 4.00761C1100.03 3.97396 1101.44 3.90667 1102.91 3.85619C1105.84 3.75525 1110.6 3.7889 1113.59 3.7889C1112.27 4.25997 1127.38 4.22632 1128.66 4.22632C1135.85 4.41138 1143.01 4.37774 1150.37 4.37774C1154.04 4.37774 1157.62 4.44503 1161.27 4.47868C1163.63 4.51233 1166.56 4.51233 1168.79 4.66374C1170.33 4.73104 1171.71 4.84881 1173.29 4.9161C1177.82 5.13481 1182.65 5.20211 1187.18 5.42082C1190.59 5.57223 1193.78 5.77412 1197.03 5.95918C1201.3 6.21154 1205.34 6.39661 1209.61 6.02648C1210.56 5.95918 1211.31 5.80777 1212.4 5.77412C1213.35 5.74047 1214.7 5.77412 1215.72 5.77412C1216.73 5.77412 1218.05 5.74047 1219.03 5.77412C1219.59 5.80777 1219.66 5.87506 1220.18 5.87506C1222.68 6.06013 1225.8 6.09378 1228.49 6.12742C1231.84 6.16107 1235.09 6.22837 1238.44 6.22837C1241.53 6.22837 1245.14 6.19472 1248.13 6.26201C1248.95 6.26201 1250.2 6.36296 1251.15 6.41343C1252.66 6.44708 1254.23 6.44708 1255.75 6.51437C1258.5 6.61532 1261.2 6.76673 1263.99 6.86768C1267.5 7.01909 1272.49 7.18733 1276.24 7.05274C1275.91 6.83403 1279.45 6.54802 1280.67 6.43025C1282.31 6.24519 1284.12 6.27884 1286.15 6.32931C1289.5 6.39661 1292.56 6.39661 1295.87 6.39661C1298.14 6.43025 1300.31 6.58167 1302.64 6.61532C1304.25 6.61532 1305.2 6.68261 1306.71 6.80038C1312.52 7.12003 1316.83 7.37239 1323.33 7.37239C1326.84 7.33874 1330.32 7.33874 1333.84 7.33874C1342.11 7.33874 1349.83 7.33875 1358.04 7.18733C1359.74 7.15368 1361.45 7.15368 1363.16 7.15368H1373.47C1377.61 7.15368 1381.94 7.12003 1386.05 7.18733C1388.97 7.22098 1391.7 7.33874 1394.65 7.37239C1399.61 7.37239 1404.31 7.55746 1409.23 7.55746H1419.22C1421.12 7.55746 1423.06 7.52381 1424.93 7.55746C1426.93 7.5911 1428.74 7.6584 1430.71 7.70887C1434.65 7.80981 1438.85 7.74252 1442.79 7.74252H1451.07C1453.86 7.70887 1457.51 7.5911 1460.1 7.49016C1462.1 7.38922 1463.55 7.38922 1465.78 7.38922C1469.43 7.38922 1472.71 7.2378 1476.22 7.13686C1482.07 6.98544 1488.41 7.10321 1494.38 7.10321H1507.88C1513.04 7.06956 1518.03 7.10321 1523.12 7.20415C1527.35 7.27145 1531.82 7.42286 1536.15 7.45651H1546.5C1549.06 7.45651 1551.49 7.42286 1554.05 7.38922C1555.66 7.35557 1559.11 7.32192 1560.68 7.20415C1564.13 6.98544 1566.86 6.54802 1570.6 6.32931C1571.78 6.29566 1573.13 6.26201 1574.34 6.22837C1576.02 6.16107 1577.37 6.00966 1578.97 5.90871C1581.37 5.80777 1584.52 5.87506 1587.12 5.87506C1588.33 5.87506 1589.55 5.84142 1590.6 5.90871C1593.56 6.12742 1595.07 6.63214 1598.38 6.8172C1599.17 6.63214 1600.42 6.49755 1601.24 6.34613C1602.29 6.12742 1602.82 5.90871 1604.33 5.72365C1606.99 5.43764 1608.63 5.06752 1610.7 4.71421C1611.39 4.61327 1611.81 4.39456 1612.9 4.36091C1613.78 4.32726 1616.41 4.32726 1617.36 4.36091C1618.84 4.39456 1619.53 4.46186 1621.11 4.42821C1622.19 4.39456 1623.24 4.39456 1624.29 4.36091C1626.2 4.32726 1627.61 4.25997 1629.61 4.25997C1632.93 4.29362 1636.18 4.29362 1639.46 4.22632C1644.88 4.15903 1650.2 3.90667 1655.69 3.90667C1657.36 3.90667 1659.2 3.94031 1660.68 3.87302C1661.04 3.83937 1661.27 3.77208 1661.66 3.7216C1662.32 3.68796 1663.57 3.7216 1664.29 3.68796C1666.59 3.65431 1675.42 3.62066 1675.09 3.18324C1680.05 2.96453 1684.55 3.11594 1689.61 3.14959H1689.77C1691.74 3.04865 1693.81 2.96453 1695.62 2.82994C1697.75 2.61123 1698.8 2.35887 1700.54 2.10651C1701.69 1.95509 1703.1 1.85415 1703.79 1.66909C1704.42 1.48402 1703.27 1.45038 1705.07 1.48402C1705.4 1.48402 1707.14 1.58497 1707.54 1.63544C1709.41 1.73638 1710.07 1.98874 1711.25 2.1738C1713.28 2.52711 1715.48 2.89723 1718.34 3.14959C1721.76 3.4356 1723.73 3.46924 1727.37 3.3683C1730.3 3.30101 1733.41 3.3683 1736.34 3.26736C1738.5 3.23371 1740.11 3.20006 1741.95 3.04865C1746.02 2.72899 1749.87 2.39251 1754.4 2.22428C1756.76 2.12333 1759.06 1.97192 1761.36 1.87097C1762.48 1.80368 1764.09 1.77003 1765.07 1.65226C1766.22 1.55132 1766.91 1.29896 1768.19 1.21484C1769.57 1.1139 1773.54 1.18119 1774.92 1.24849C1775.74 1.31578 1776.33 1.43355 1777.16 1.4672C1778.6 1.61861 1780.08 1.61861 1781.75 1.68591C1785.33 1.87097 1788.98 1.97192 1792.59 2.12333C1794.36 2.19063 1795.94 2.34204 1797.68 2.40934C1799.58 2.47663 1804.35 2.51028 1805.73 2.30839C1806.74 2.15698 1805.82 2.12333 1807.6 2.02239C1808.65 1.98874 1810.09 1.98874 1809.7 1.80368C1811.41 1.73638 1814.2 1.80368 1815.84 1.77003C1817.58 1.77003 1819.29 1.77003 1821.03 1.73638C1824.05 1.70273 1827 1.70273 1830.03 1.70273C1831.63 1.70273 1832.75 1.73638 1834.29 1.77003C1835.44 1.80368 1836.89 1.73638 1838.01 1.77003C1839.25 1.80368 1840.34 1.98874 1841.52 2.05604C1842.93 2.15698 1844.47 2.20745 1845.89 2.30839C1848.28 2.45981 1850.25 2.62805 1852.78 2.71217C1857.84 2.89723 1862.83 3.11594 1867.99 3.21689C1871.53 3.28418 1874.98 3.28418 1878.63 3.28418C1882.5 3.28418 1886.25 3.35148 1890.12 3.35148C1894.13 3.38513 1898.46 3.41877 1902.3 3.57019C1903.39 3.60384 1904.4 3.67113 1905.49 3.7216C1908.61 3.87302 1911.63 3.87302 1914.85 3.7889C1919.08 3.7216 1925.22 3.7216 1928.8 3.4356C1929.95 3.33465 1930.84 3.18324 1932.05 3.11594C1933.93 2.93088 1935.37 2.82994 1937.57 2.82994C1940.99 2.82994 1944.47 2.89723 1947.88 2.93088C1949.98 2.93088 1951.99 2.99818 1954.12 2.99818C1955.17 2.99818 1955.86 2.99818 1956.91 3.03182C1959.84 3.13277 1962.23 3.18324 1964.8 3.38512C1967.42 3.60384 1970.25 3.70478 1973.04 3.85619C1975.3 4.00761 1977.14 4.2095 1979.08 4.39456C1981.87 4.68057 1985.68 4.79833 1988.93 4.93293C1990.54 5.00022 1993.17 5.18528 1995.01 5.15164C1996.62 5.11799 1996.25 5.00022 1997.34 4.93293C1998.13 4.86563 1998.72 4.86563 1999.77 4.86563C2006.37 4.89928 2013.07 4.89928 2019.67 4.86563C2023.54 4.86563 2026.93 4.54597 2030.24 4.32726C2034.05 4.07491 2035.1 3.82255 2036.88 3.38512C2037.63 3.20006 2037.99 3.13277 2038.29 2.91406C2040.26 2.84676 2042.62 2.88041 2044.63 2.88041C2047.84 2.88041 2051.03 2.88041 2054.18 2.9477C2056.05 2.98135 2057.93 2.98135 2059.73 3.015C2062.06 3.11594 2063.77 3.26736 2066.3 3.26736C2068.14 3.26736 2070.76 3.20006 2072.31 3.04865C2072.67 3.015 2072.87 2.9477 2073.26 2.89723C2074.02 2.82994 2075.4 2.86358 2076.18 2.86358C2082.95 2.89723 2088.99 2.86358 2095.69 2.96453C2100.68 3.03182 2105.05 3.3683 2109.94 3.50289C2114.37 3.65431 2118.87 3.65431 2123.44 3.60384C2128.17 3.57019 2133.98 3.50289 2138.02 3.13277C2139.56 3.03182 2139.92 2.88041 2141.86 2.84676C2143.63 2.84676 2145.44 2.84676 2147.25 2.88041C2151.06 2.88041 2154.73 2.77946 2158.54 2.77946C2162.12 2.77946 2165.54 2.88041 2169.12 2.96453C2171.35 2.96453 2174.7 2.86358 2176.7 2.96453C2177.59 3.03182 2178.28 3.18324 2178.9 3.25053C2180.91 3.50289 2182.88 3.75525 2185.73 3.87302C2190.17 4.05808 2196.24 4.12538 2200.77 3.97396C2201.66 3.94031 2202.15 3.90667 2203.07 3.90667C2204.29 3.90667 2205.76 3.97396 2207.01 4.00761C2213.25 4.07491 2219.46 4.10855 2225.66 4.25997C2227.14 4.29362 2227.54 4.32726 2228.85 4.41138C2230.69 4.51233 2233.05 4.5628 2235.06 4.66374C2237.45 4.81516 2240.64 5.16846 2243.4 5.13481C2245.7 5.06752 2247.47 4.81516 2248.59 4.59645C2249.24 4.44503 2249.44 4.31044 2250.79 4.27679C2251.84 4.27679 2253.51 4.31044 2254.59 4.31044C2256.11 4.31044 2257.62 4.31044 2259.09 4.27679C2261.56 4.2095 2264.32 4.27679 2266.71 4.17585C2270.16 4.07491 2272.69 3.77207 2275.05 3.48607C2276.96 3.23371 2278.21 2.86358 2279.98 2.61123C2283.2 2.10651 2287.66 2.39251 2292 2.42616C2294.4 2.42616 2294.82 2.49346 2296.07 2.79629C2296.6 2.89723 2297.22 3.04865 2297.74 3.14959C2298.89 3.40195 2299.98 3.90667 2300.04 4.19267C2300.11 4.37774 2299.68 4.5628 2300.54 4.69739C2301.59 4.84881 2306.09 4.9161 2307.76 4.94975C2311.14 5.01704 2314.62 5.05069 2318.07 5.01704C2319.19 5.01704 2320.99 5.08434 2322.05 5.01704C2322.28 5.01704 2322.8 4.94975 2322.8 4.94975C2325.43 4.88245 2328.12 5.05069 2330.65 5.16846C2333.9 5.31987 2337.35 5.53859 2340.76 5.60588C2342.44 5.63953 2344.34 5.57223 2345.95 5.63953C2348.71 5.74047 2350.35 5.89189 2353.67 5.89189C2355.93 5.89189 2361.32 5.89189 2362.6 5.60588C2363.22 5.45447 2362.54 5.28623 2362.9 5.13481C2364.08 5.10116 2366.28 5.35352 2367.33 5.42082C2370.65 5.63953 2374.13 5.82459 2377.58 5.99283C2380.24 6.14425 2382.5 6.24519 2385.39 6.24519H2387L2386.47 104.295V104.329Z" fill="black"/>
</svg>
