<svg width="70" height="70" viewBox="0 0 70 70" fill="none" xmlns="http://www.w3.org/2000/svg">
<circle cx="35" cy="35" r="34.5" transform="matrix(-1 0 0 1 70 0)" fill="white" stroke="black"/>
<g clip-path="url(#clip0_511_2692)">
<path d="M51.2876 26.7064C51.2876 26.7064 51.1888 23.8318 54.9908 21.3576C51.1888 18.8834 51.2876 16.0088 51.2876 16.0088C51.2876 16.0088 51.3865 18.8834 47.5845 21.3576C51.3865 23.8318 51.2876 26.7064 51.2876 26.7064Z" fill="black"/>
<path d="M35.7021 51.9822C36.0886 50.6561 36.4751 49.3211 36.8706 47.995C38.12 43.7231 39.3783 39.4512 40.6187 35.1792C40.6996 34.9122 40.7895 34.8054 41.0951 34.8054C44.1691 34.8232 47.252 34.8143 50.326 34.8143C50.4429 34.8143 50.5507 34.8143 50.7485 34.8143C45.7151 40.5814 40.7356 46.2952 35.7561 52C35.7381 52 35.7201 51.9822 35.7021 51.9822Z" fill="black"/>
<path d="M32.2778 51.9822C31.8913 50.6561 31.5048 49.3211 31.1093 47.995C29.8599 43.7231 28.6016 39.4512 27.3612 35.1792C27.2803 34.9122 27.1904 34.8054 26.8848 34.8054C23.8108 34.8232 20.7279 34.8143 17.6539 34.8143C17.537 34.8143 17.4292 34.8143 17.2314 34.8143C22.2649 40.5814 27.2444 46.2952 32.2238 52C32.2418 52 32.2598 51.9822 32.2778 51.9822Z" fill="black"/>
<path d="M34.7674 48.8673C36.0168 44.1771 37.2751 39.4957 38.5335 34.7788H29.4644C30.7227 39.4868 31.9721 44.1771 33.2304 48.8673C33.4731 49.8285 33.7158 50.7808 33.9585 51.742C33.9765 51.742 33.9944 51.742 34.0034 51.742C34.0214 51.742 34.0394 51.742 34.0484 51.742C34.291 50.7808 34.5337 49.8285 34.7764 48.8673H34.7674Z" fill="black"/>
<path d="M21.7705 27.0002C23.1187 28.8781 24.4849 30.7738 25.8691 32.714H16C17.9055 30.8272 19.829 28.9226 21.7705 27.0002Z" fill="black"/>
<path d="M27.7388 32.7585C26.2378 30.5602 24.7637 28.3798 23.2627 26.1726H31.6577C30.3544 28.3709 29.0601 30.5424 27.7478 32.7585H27.7388Z" fill="black"/>
<path d="M51.8359 32.723H42.3174C43.6387 30.7828 44.942 28.8783 46.2722 26.9292C48.1238 28.8516 49.9574 30.765 51.8359 32.723Z" fill="black"/>
<path d="M38.1021 32.7229H29.77C31.1183 30.5336 32.4395 28.3887 33.7878 26.1904C35.2349 28.3798 36.655 30.5336 38.1021 32.7229Z" fill="black"/>
<path d="M35.7471 26.1726H44.0163C42.7489 28.3531 41.4995 30.4979 40.2232 32.6962C38.7312 30.5157 37.2571 28.3709 35.7471 26.1726Z" fill="black"/>
</g>
<defs>
<clipPath id="clip0_511_2692">
<rect width="39" height="36" fill="white" transform="translate(16 16)"/>
</clipPath>
</defs>
</svg>
