<svg width="27" height="48" viewBox="0 0 27 48" fill="none" xmlns="http://www.w3.org/2000/svg">
<g clip-path="url(#clip0_442_4371)">
<path d="M26.5145 29.4095C25.4387 24.7386 23.1165 20.6665 20.86 16.7275C19.981 15.1838 19.0626 13.5869 18.2361 11.9767C17.6588 10.8589 16.9897 9.52814 16.3731 8.10424C15.809 6.80011 15.2711 5.42944 14.7725 4.04547C14.3133 2.74134 13.8804 1.37067 13.4868 0C13.2113 0.94483 12.9227 1.91627 12.6209 2.8478C12.1486 4.24508 11.6501 5.62905 11.0991 6.94649C10.548 8.29055 9.94454 9.62129 9.3148 10.8855C9.13112 11.2581 8.94745 11.6174 8.75066 11.9767C7.92413 13.5869 7.01888 15.1838 6.12675 16.7142C3.87019 20.6532 1.53492 24.7253 0.472233 29.3962C-0.367417 33.2021 -0.105027 36.9947 1.22005 40.0421C2.82063 43.715 6.0218 46.443 9.99701 47.4943C14.0903 48.5855 18.4066 47.8137 21.5553 45.4317C23.3789 44.0477 24.8352 42.1846 25.7667 40.0421C27.0786 36.9814 27.3542 33.2021 26.5145 29.3962V29.4095ZM13.4999 42.5706C13.4999 42.5706 13.5262 42.5706 13.5393 42.5839H13.4606C13.4606 42.5839 13.4868 42.5839 13.4999 42.5706C3.6734 38.4719 4.67048 27.1605 4.67048 27.1605C4.67048 27.1605 8.80314 24.9515 13.4999 22.5961C13.4999 22.5961 13.4737 22.5961 13.4606 22.5828H13.5393C13.5393 22.5828 13.513 22.5828 13.4999 22.5961C18.1967 24.9515 22.3294 27.1605 22.3294 27.1605C22.3294 27.1605 23.3265 38.4852 13.4999 42.5706ZM17.6982 26.8944C17.0947 26.6149 16.3862 26.8944 16.1238 27.5065L12.7915 35.1051L11.0072 33.4549C10.5218 33.0025 9.76086 33.0291 9.3148 33.5348C8.86873 34.0272 8.89497 34.799 9.39352 35.2515L12.3979 38.046C12.6209 38.2589 12.9095 38.3654 13.2113 38.3654C13.29 38.3654 13.3687 38.3654 13.4606 38.3388C13.841 38.2589 14.1559 38.0061 14.3133 37.6468L18.3148 28.5046C18.5903 27.8924 18.3148 27.1738 17.7113 26.9077L17.6982 26.8944Z" fill="black"/>
</g>
<defs>
<clipPath id="clip0_442_4371">
<rect width="27" height="48" fill="white"/>
</clipPath>
</defs>
</svg>
