<svg width="43" height="42" viewBox="0 0 43 42" fill="none" xmlns="http://www.w3.org/2000/svg">
<g clip-path="url(#clip0_603_2678)">
<path d="M10.8202 12.1001C10.8202 12.1001 10.7102 8.87008 14.9402 6.09008C10.7102 3.31008 10.8202 0.0800781 10.8202 0.0800781C10.8202 0.0800781 10.9302 3.31008 6.7002 6.09008C10.9302 8.87008 10.8202 12.1001 10.8202 12.1001Z" fill="black"/>
<path d="M23.4 41.04C22.24 40.89 21.07 40.8 19.92 40.59C9.94 38.8 3.61 32.86 0.46 23.36C0.3 22.87 0.17 22.38 0 21.8C0.41 21.71 0.8 21.6 1.2 21.55C4.95 21 8.72 20.79 12.47 21.48C18.6 22.61 23.17 25.96 26.23 31.39C27.65 33.92 28.69 36.55 28.81 39.68C28.58 39.32 28.42 39.1 28.28 38.88C26.37 35.88 24.16 33.14 21.19 31.11C18.8 29.47 16.15 28.55 13.2 28.37C13.4 28.49 13.61 28.6 13.81 28.72C15.91 29.97 18.12 31.07 20.1 32.49C22.77 34.41 24.51 37.12 25.57 40.23C25.65 40.46 25.5 40.77 25.46 41.04H23.4Z" fill="black"/>
<path d="M42.4002 15.4299C42.4202 18.0399 42.2102 20.6099 41.3602 23.0999C39.6902 28.0099 36.3802 31.3799 31.6802 33.4499C31.6202 33.4799 31.5402 33.4799 31.3902 33.5099C31.7802 29.7599 32.3702 26.1199 34.9802 23.1599C34.9202 23.0999 34.8602 23.0499 34.8102 22.9899C34.0902 23.6299 33.3002 24.2199 32.6702 24.9399C32.0302 25.6699 31.4702 26.4999 31.0402 27.3599C30.5902 28.2499 30.2902 29.2099 30.0102 30.1699C29.7402 31.0899 29.5902 32.0499 29.3702 33.0799C28.1502 29.2899 28.2302 25.5899 29.7902 22.0299C31.2902 18.6299 34.2302 16.9299 37.6902 16.0399C38.7902 15.7599 39.9402 15.6199 41.0602 15.4199C41.5002 15.4199 41.9402 15.4199 42.3902 15.4199L42.4002 15.4299Z" fill="black"/>
<path d="M25.0304 22.87C25.0304 22.87 24.8204 16.73 32.8704 11.43C24.8104 6.14 25.0304 0 25.0304 0C25.0304 0 25.2404 6.14 17.1904 11.44C25.2404 16.73 25.0304 22.88 25.0304 22.88V22.87Z" fill="black"/>
</g>
<defs>
<clipPath id="clip0_603_2678">
<rect width="42.4" height="41.04" fill="white"/>
</clipPath>
</defs>
</svg>
