<svg width="21" height="37" viewBox="0 0 21 37" fill="none" xmlns="http://www.w3.org/2000/svg">
<g clip-path="url(#clip0_443_4402)">
<path d="M20.2096 22.1C19.3896 18.59 17.6196 15.53 15.8996 12.57C15.2296 11.41 14.5296 10.21 13.8996 9C13.4596 8.16 12.9496 7.16 12.4796 6.09C12.0496 5.11 11.6396 4.08 11.2596 3.04C10.9096 2.06 10.5796 1.03 10.2796 0C10.0696 0.71 9.84958 1.44 9.61958 2.14C9.25958 3.19 8.87958 4.23 8.45958 5.22C8.03958 6.23 7.57958 7.23 7.09958 8.18C6.95958 8.46 6.81958 8.73 6.66958 9C6.03958 10.21 5.34958 11.41 4.66958 12.56C2.94958 15.52 1.16958 18.58 0.359578 22.09C-0.280422 24.95 -0.0804225 27.8 0.929577 30.09C2.14958 32.85 4.58958 34.9 7.61958 35.69C10.7396 36.51 14.0296 35.93 16.4296 34.14C17.8196 33.1 18.9296 31.7 19.6396 30.09C20.6396 27.79 20.8496 24.95 20.2096 22.09V22.1ZM10.2896 31.99C10.2896 31.99 10.3096 31.99 10.3196 32H10.2596C10.2596 32 10.2796 32 10.2896 31.99C2.79958 28.91 3.55958 20.41 3.55958 20.41C3.55958 20.41 6.70958 18.75 10.2896 16.98C10.2896 16.98 10.2696 16.98 10.2596 16.97H10.3196C10.3196 16.97 10.2996 16.97 10.2896 16.98C13.8696 18.75 17.0196 20.41 17.0196 20.41C17.0196 20.41 17.7796 28.92 10.2896 31.99ZM13.4896 20.21C13.0296 20 12.4896 20.21 12.2896 20.67L9.74958 26.38L8.38958 25.14C8.01958 24.8 7.43958 24.82 7.09958 25.2C6.75958 25.57 6.77958 26.15 7.15958 26.49L9.44958 28.59C9.61958 28.75 9.83958 28.83 10.0696 28.83C10.1296 28.83 10.1896 28.83 10.2596 28.81C10.5496 28.75 10.7896 28.56 10.9096 28.29L13.9596 21.42C14.1696 20.96 13.9596 20.42 13.4996 20.22L13.4896 20.21Z" fill="white"/>
</g>
<defs>
<clipPath id="clip0_443_4402">
<rect width="20.58" height="36.07" fill="white"/>
</clipPath>
</defs>
</svg>
