<svg width="47" height="43" viewBox="0 0 47 43" fill="none" xmlns="http://www.w3.org/2000/svg">
<g clip-path="url(#clip0_443_4404)">
<path d="M9.78 42.4699C9.78 42.4699 9.52 34.8099 19.56 28.1999C9.52 21.5899 9.78 13.9299 9.78 13.9299C9.78 13.9299 10.04 21.5899 0 28.1999C10.04 34.8099 9.78 42.4699 9.78 42.4699Z" fill="white"/>
<path d="M38.3595 27.37C38.3595 27.37 38.1495 21.23 46.1995 15.93C38.1495 10.64 38.3595 4.48999 38.3595 4.48999C38.3595 4.48999 38.5695 10.63 30.5195 15.93C38.5695 21.22 38.3595 27.37 38.3595 27.37Z" fill="white"/>
<path d="M20.1796 12.03C20.1796 12.03 20.0696 8.80001 24.2996 6.02001C20.0696 3.24001 20.1796 0.0100098 20.1796 0.0100098C20.1796 0.0100098 20.2896 3.24001 16.0596 6.02001C20.2896 8.80001 20.1796 12.03 20.1796 12.03Z" fill="white"/>
<path d="M31.5497 40.8501C31.5497 40.8501 31.4397 37.6201 35.6697 34.8401C31.4397 32.0601 31.5497 28.8301 31.5497 28.8301C31.5497 28.8301 31.6597 32.0601 27.4297 34.8401C31.6597 37.6201 31.5497 40.8501 31.5497 40.8501Z" fill="white"/>
</g>
<defs>
<clipPath id="clip0_443_4404">
<rect width="46.19" height="42.47" fill="white"/>
</clipPath>
</defs>
</svg>
