<svg width="70" height="70" viewBox="0 0 70 70" fill="none" xmlns="http://www.w3.org/2000/svg">
<circle cx="35" cy="35" r="34.5" fill="white" stroke="black"/>
<g clip-path="url(#clip0_511_2690)">
<path d="M23.2576 53C23.2576 53 23.0381 46.5069 31.5153 40.9039C23.0381 35.3009 23.2576 28.8079 23.2576 28.8079C23.2576 28.8079 23.4772 35.3009 15 40.9039C23.4772 46.5069 23.2576 53 23.2576 53Z" fill="black"/>
<path d="M47.3887 40.2003C47.3887 40.2003 47.2113 34.9957 54.0083 30.5031C47.2113 26.019 47.3887 20.8059 47.3887 20.8059C47.3887 20.8059 47.566 26.0105 40.769 30.5031C47.566 34.9872 47.3887 40.2003 47.3887 40.2003Z" fill="black"/>
<path d="M32.0387 27.1974C32.0387 27.1974 31.9459 24.4595 35.5174 22.103C31.9459 19.7465 32.0387 17.0085 32.0387 17.0085C32.0387 17.0085 32.1316 19.7465 28.5601 22.103C32.1316 24.4595 32.0387 27.1974 32.0387 27.1974Z" fill="black"/>
<path d="M41.6388 51.6268C41.6388 51.6268 41.546 48.8889 45.1175 46.5324C41.546 44.1759 41.6388 41.438 41.6388 41.438C41.6388 41.438 41.7317 44.1759 38.1602 46.5324C41.7317 48.8889 41.6388 51.6268 41.6388 51.6268Z" fill="black"/>
</g>
<defs>
<clipPath id="clip0_511_2690">
<rect width="39" height="36" fill="white" transform="translate(15 17)"/>
</clipPath>
</defs>
</svg>
