<?xml version="1.0" encoding="UTF-8"?><svg id="Layer_2" xmlns="http://www.w3.org/2000/svg" viewBox="0 0 1334.81 5.64"><g id="Layer_1-2"><path d="m0,0h400.14c-.77.08-1.53.19-2.39.33-.46.07-.75.11-1.24.13-.71.03-1.36.14-2.06.15-1.01.02-1.94.01-2.95.06-.63.03-1.18.06-1.68-.07-.36-.09-1.45-.31-1.34-.49-1.15-.11-2.67.04-3.74.15-.84.08-1.66.19-2.5.28-.46.04-.95.05-1.4.09-.29.03-.68.09-.92.11-.92.06-2.01.02-2.96.02-1.02-.01-2.01.05-3.02.09-.83.03-1.78.06-2.54.18-.15.02-.18.07-.35.09-.29.02-.71,0-1.01,0s-.72.03-1.01,0c-.33-.03-.56-.14-.85-.2-1.3-.27-2.52-.13-3.82.06-1,.15-1.97.3-3.01.42-1.38.17-2.84.24-4.23.4-.48.06-.9.14-1.36.21-.69.09-1.58.09-2.3.12-1.11.04-2.19.09-3.31.09-2.25,0-4.42-.03-6.62.1-.39.03-4.98-.01-4.59.34-.91,0-2.36.04-3.24-.03-.46-.04-.89-.11-1.36-.12-1.58-.05-3.43.14-4.94.24-.71.05-1.33.08-2.04.07-.58,0-1.09.03-1.68.05-.78.03-1.63.08-2.42.08-.4.01-1.15.05-1.51,0-.29-.05-.34-.14-.54-.22-.3-.12-.73-.22-1.15-.29-1.39-.24-3.11-.15-4.66-.15s-3.04.07-4.57.08c-1.16,0-2.33-.03-3.49-.01-.55.02-1.08.06-1.64.08-1.04.03-1.83.09-2.71.26-2.5.47-4.65,1.08-7.28,1.49-.9.14-1.75.3-2.63.45-.81.14-1.81.17-2.71.2-1.12.03-2.16.09-3.28.09-.93,0-1.62-.05-2.52-.13-1.29-.11-2.5-.09-3.83-.09-.5,0-.94.01-1.4-.04-.6-.06-1.05-.27-1.64-.32-.65-.06-1.81-.02-2.43-.01-1.92.01-3.82.07-5.73.13-.43.02-.88,0-1.29.03-.22.02-.58.08-.86.1-.82.07-1.63.13-2.46.17-.55.02-.54-.03-.99-.07-.45-.03-1.05.01-1.52.01-1.01-.01-1.96.06-2.96.07-.88.02-1.77-.02-2.65,0-1.14.04-2.25.27-3.35.36-.32.03-.62.08-.92.12-.89.12-1.81.21-2.7.33-1.67.22-3.16-.29-4.69-.46-2.21-.25-5.03-.13-7.37-.13-.77,0-1.57.02-2.34,0-1.4-.03-2.85-.17-4.23-.26-1.07-.06-2.74-.07-3.66-.28-.48-.12-.82-.28-1.29-.4-.34-.08-.68-.19-1.03-.26-.52-.11-1.13-.11-1.7-.19-2.39-.33-5.22-.37-7.83-.37-.77,0-1.55-.01-2.33,0-.78,0-1.53.1-2.31.08-.76-.01-1.54-.07-2.3-.09-.74-.03-1.46-.06-2.1-.19-.51-.09-.47-.21-.76-.37-.42-.24-1.11-.38-1.97-.38-1.24-.01-2.48,0-3.72,0-1.1,0-2.34.06-3.42-.03-.48-.04-.89-.11-1.4-.12-1.29-.02-2.69-.02-3.97.02-1.42.05-2.76.06-4.19.06-.54,0-1.09-.01-1.63,0-.49.01-.88.05-1.22-.09-.28-.13-.26-.34-.37-.48-.06-.08-.11-.16-.23-.24-.15-.09-.36-.17-.67-.22-.67-.11-1.56-.04-2.26,0-2.64.12-5.37.24-8.03.24-.99-.01-2.73.1-3.02-.3-.12-.16.11-.27-.43-.39-.35-.07-.75-.11-1.16-.12-.47-.01-.97.02-1.44,0-.45-.01-.85-.07-1.3-.08-.07-.22-.06-.28-.81-.29-.65,0-1.33.03-1.97-.01-1.12-.07-2.1-.07-3.25.01-.86.06-1.54.18-2.35.27-.3.03-.67.06-.97.01-.81-.11-1.7-.32-2.68-.18-.33.05-.62.15-.93.22-.62.12-1.41.22-2.14.26-.81.04-1.66,0-2.47,0-1.28.01-2.47.23-3.75.15-.17-.01-.15-.05-.32-.07-.44-.04-1.19,0-1.64,0-1.1,0-2.2-.01-3.3.01-1.81.04-3.74.09-5.36.36-.87.14-1.97.32-2.93.37-1.56.08-3.14,0-4.6-.15-.92-.1-1.86-.18-2.83-.15-.38.01-.61.02-1,.07-1.12.12-2.11.24-3.27.32-.51.03-.9.08-1.42.04-.69-.05-1.33-.18-2.06-.21-1.17-.05-2.47,0-3.64,0-1.71,0-3.41,0-5.12,0-.57.01-1.03.05-1.6.09-1.22.09-2.53.17-3.66.33-.42.07-.93.3-1.41.3-.39,0-.91-.18-1.32-.22-2.76-.31-5.58-.27-8.46-.28-.72,0-1.29.06-1.98.08-.44.01-.94,0-1.38-.01h-1.13c-.14,0-.23.02-.26.06-1.07.06-2.09.09-3.19.09h-9.81c-1.58,0-3.15-.2-4.7-.31-2.05-.15-4.23-.37-6.22-.06-1.15.18-2.42.3-3.71.3h-.88c-.57-.01-.45-.02-.77-.15-1.43-.54-3.96-.57-5.82-.86-.44-.07-.84-.08-1.22-.16-.37-.08-1.13-.35-1.63-.29-.08.33-1.92.65-2.84.72-.53.03-.9,0-1.34-.07-1.52-.22-3.86-.03-5.42.04-.45.02-.86.06-1.28.09-.74.06-1.55.02-2.31.06-.33.01-.79.01-1.09.05-.23.03-.5.12-.74.16-.82.15-1.76.2-2.64.3-.43.04-.83.09-1.28.13-.39.02-.96.12-1.35.12-.16-.16.16-.36-.06-.52-.28-.19-1.17-.14-1.7-.13-1.75,0-3.45-.08-5.21-.08-.98,0-2.38-.08-3.23.05-1.31.2-2.41.6-3.77.76-.27.03-.57.04-.83.07-.11.01-.25.07-.35.07-.36-.01-.39-.08-.67-.14-.73-.16-2.71-.11-3.51-.02-.97.11-2.05.19-3.06.24-.5.02-1.02-.06-1.52-.08-1.05-.05-2.24-.24-3.31-.23V0Z"/><path d="m413.12,0h8.97c-.06,0-.11.01-.17.01-1.25.06-2.58.01-3.83.01h-3.14c-.53,0-1.05.02-1.57-.01-.09,0-.17-.01-.26-.01Z"/><path d="m448.71,0h15.14c-.07,0-.13.01-.2.01-1.55.07-3.07.09-4.64.09-1.37-.01-2.74,0-4.11,0-1.81,0-3.74.06-5.52-.05-.23-.01-.45-.03-.67-.05Z"/><path d="m475.1,0h533.12c-.77.08-1.53.19-2.39.33-.46.07-.75.11-1.24.13-.71.03-1.36.14-2.06.15-1.01.02-1.94.01-2.95.06-.63.03-1.18.06-1.68-.07-.36-.09-1.45-.31-1.34-.49-1.15-.11-2.67.04-3.74.15-.84.08-1.66.19-2.5.28-.46.04-.95.05-1.4.09-.29.03-.68.09-.92.11-.92.06-2.01.02-2.96.02-1.02-.01-2.01.05-3.02.09-.83.03-1.78.06-2.54.18-.15.02-.18.07-.35.09-.29.02-.71,0-1.01,0s-.72.03-1.01,0c-.33-.03-.56-.14-.85-.2-1.3-.27-2.52-.13-3.82.06-1,.15-1.97.3-3.01.42-1.38.17-2.84.24-4.23.4-.48.06-.9.14-1.36.21-.69.09-1.58.09-2.3.12-1.11.04-2.19.09-3.31.09-2.25,0-4.42-.03-6.62.1-.39.03-4.98-.01-4.59.34-.91,0-2.36.04-3.24-.03-.46-.04-.89-.11-1.36-.12-1.58-.05-3.43.14-4.94.24-.71.05-1.33.08-2.04.07-.58,0-1.09.03-1.68.05-.78.03-1.63.08-2.42.08-.4.01-1.15.05-1.51,0-.29-.05-.34-.14-.54-.22-.3-.12-.73-.22-1.15-.29-1.39-.24-3.11-.15-4.66-.15s-3.04.07-4.57.08c-1.16,0-2.33-.03-3.49-.01-.55.02-1.08.06-1.64.08-1.04.03-1.83.09-2.71.26-2.5.47-4.65,1.08-7.28,1.49-.9.14-1.75.3-2.63.45-.81.14-1.81.17-2.71.2-1.12.03-2.16.09-3.28.09-.93,0-1.62-.05-2.52-.13-1.29-.11-2.5-.09-3.83-.09-.5,0-.94.01-1.4-.04-.6-.06-1.05-.27-1.64-.32-.65-.06-1.81-.02-2.43-.01-1.92.01-3.82.07-5.73.13-.43.02-.88,0-1.29.03-.22.02-.58.08-.86.1-.82.07-1.63.13-2.46.17-.55.02-.54-.03-.99-.07-.45-.03-1.05.01-1.52.01-1.01-.01-1.96.06-2.96.07-.88.02-1.77-.02-2.65,0-1.14.04-2.25.27-3.35.36-.32.03-.62.08-.92.12-.89.12-1.81.21-2.7.33-1.67.22-3.16-.29-4.69-.46-2.21-.25-5.03-.13-7.37-.13-.77,0-1.57.02-2.34,0-1.4-.03-2.85-.17-4.23-.26-1.07-.06-2.74-.07-3.66-.28-.48-.12-.82-.28-1.29-.4-.34-.08-.68-.19-1.03-.26-.52-.11-1.13-.11-1.7-.19-2.39-.33-5.22-.37-7.83-.37-.77,0-1.55-.01-2.33,0-.78,0-1.53.1-2.31.08-.76-.01-1.54-.07-2.3-.09-.74-.03-1.46-.06-2.1-.19-.51-.09-.47-.21-.76-.37-.42-.24-1.11-.38-1.97-.38-1.24-.01-2.48,0-3.72,0-1.1,0-2.34.06-3.42-.03-.48-.04-.89-.11-1.4-.12-1.29-.02-2.69-.02-3.97.02-1.42.05-2.76.06-4.19.06-.54,0-1.09-.01-1.63,0-.49.01-.88.05-1.22-.09-.28-.13-.26-.34-.37-.48-.06-.08-.11-.16-.23-.24-.15-.09-.36-.17-.67-.22-.67-.11-1.56-.04-2.26,0-2.64.12-5.37.24-8.03.24-.99-.01-2.73.1-3.02-.3-.12-.16.11-.27-.43-.39-.35-.07-.75-.11-1.16-.12-.47-.01-.97.02-1.44,0-.45-.01-.85-.07-1.3-.08-.07-.22-.06-.28-.81-.29-.65,0-1.33.03-1.97-.01-1.12-.07-2.1-.07-3.25.01-.86.06-1.54.18-2.35.27-.3.03-.67.06-.97.01-.81-.11-1.7-.32-2.68-.18-.33.05-.62.15-.93.22-.62.12-1.41.22-2.14.26-.81.04-1.66,0-2.47,0-1.28.01-2.47.23-3.75.15-.17-.01-.15-.05-.32-.07-.44-.04-1.19,0-1.64,0-1.1,0-2.2-.01-3.3.01-1.81.04-3.74.09-5.36.36-.87.14-1.97.32-2.93.37-1.56.08-3.14,0-4.6-.15-.92-.1-1.86-.18-2.83-.15-.38.01-.61.02-1,.07-1.12.12-2.11.24-3.27.32-.51.03-.9.08-1.42.04-.69-.05-1.33-.18-2.06-.21-1.12-.05-2.35,0-3.47,0h-.68c0-.1.1-.2-.06-.29-.39-.23-2.02-.23-2.72-.23-1.01-.01-1.5.13-2.35.21-.48.05-1.07,0-1.58.03-1.04.06-2.09.21-3.08.32-.77.08-1.58.22-2.39.17,0,0-.16-.06-.22-.07-.33-.03-.88.01-1.22,0-1.05,0-2.1.01-3.13.08-.13.01-.31.01-.52.02h0c-1.25-.02-2.51-.02-3.78-.02-.72,0-1.29.06-1.98.08-.44.01-.94,0-1.38-.01h-1.13c-.14,0-.23.02-.26.06-1.07.06-2.09.09-3.19.09h-5.9c-.34-.17-.84-.32-1.46-.36-.84-.05-1.8.24-2.54.35-.02,0-.03,0-.05,0-1.53,0-3.06-.2-4.56-.31-2.05-.15-4.23-.37-6.22-.06-1.15.18-2.42.3-3.71.3h-.88c-.57-.01-.45-.02-.77-.15-1.43-.54-3.96-.57-5.82-.86-.44-.07-.84-.08-1.22-.16-.37-.08-1.13-.35-1.63-.29-.08.33-1.92.65-2.84.72-.53.03-.9,0-1.34-.07-1.52-.22-3.86-.03-5.42.04-.45.02-.86.06-1.28.09-.74.06-1.55.02-2.31.06-.33.01-.79.01-1.09.05-.23.03-.5.12-.74.16-.82.15-1.76.2-2.64.3-.43.04-.83.09-1.28.13-.39.02-.96.12-1.35.12-.16-.16.16-.36-.06-.52-.28-.19-1.17-.14-1.7-.13-1.75,0-3.45-.08-5.21-.08-.98,0-2.38-.08-3.23.05-1.31.2-2.41.6-3.77.76-.27.03-.57.04-.83.07-.11.01-.25.07-.35.07-.36-.01-.39-.08-.67-.14-.52-.11-1.69-.12-2.6-.08-.64-.11-1.3-.21-2.02-.22-2-.02-4.05-.01-6.06,0-.3.01-.49.02-.72-.04h-.02c-.32-.07-.22-.16-.71-.19-.56-.03-1.36.11-1.85.17-.99.13-2.15.22-3,.43-.59.15-1.14.32-1.83.42-.86.12-1.71.21-2.51.37-.79.16-1.52.19-2.41.27-.32.03-.52.04-.85.04-.65-.01-1.26.04-1.9.06-1.04.03-2.1.08-3.14.08-.66,0-1.1-.09-1.68-.21-.36-.08-.63-.19-.99-.26-1.09-.23-2.96-.24-4.25-.29-.98-.05-1.9-.05-2.85.05-.33.04-.64.09-.96.12-1.18.1-2.5.13-3.72.15-1.17.03-2.32.08-3.5.08-1.11,0-2.16-.01-3.24.05-1.56.1-3.09.24-4.63.39-.77.07-1.37.21-2.09.32-.44.07-.91.12-1.34.19-.36.06-.69.18-1.07.22-.34.03-.78-.01-1.13,0-.47.03-.8.07-1.3.07-.92,0-1.82,0-2.73-.03-.53-.03-1.06-.04-1.59-.05-.5,0-1.35.05-1.87,0,.12-.16-.32-.14-.64-.19-.54-.08-.25-.11-.56-.23-.43-.15-1.88-.13-2.45-.07-.54.06-1.02.16-1.56.22-1.1.13-2.2.2-3.29.34-.51.06-.97.07-1.41.16-.24.04-.43.12-.68.16-.41.08-1.62.12-2.05.04-.38-.06-.6-.25-.94-.33-.31-.08-.79-.11-1.14-.16-.7-.1-1.4-.2-2.12-.28-1.37-.15-2.55-.4-3.78-.65-.57-.11-1.06-.14-1.71-.19-.9-.06-1.84-.01-2.73-.07-1.12-.08-1.72-.05-2.76.17-.86.19-1.54.48-2.15.75-.37.15-.57.35-1.13.43-.13.02-.65.11-.75.11-.56.02-.21-.01-.39-.13-.22-.14-.65-.22-1-.34-.52-.19-.84-.41-1.5-.56-.56-.12-1.19-.17-1.79-.27h-.03c-1.54.02-2.92.14-4.43-.01.1-.34-2.58-.38-3.29-.41-.22,0-.6,0-.8-.03-.12-.02-.19-.09-.29-.1-.46-.06-1.02-.03-1.53-.03-1.66-.01-3.29-.2-4.94-.26-1-.04-1.99-.04-2.99-.04-.62.01-1.04-.04-1.63-.07-.32-.02-.63-.04-.96-.06-.49-.03-.7.04-1.15.06-.29.02-1.09.04-1.36,0-.33-.03-.46-.19-.67-.28-.63-.27-1.13-.55-1.94-.78-.46-.13-.62-.31-.94-.47-.25-.14-.63-.23-.87-.36-1,.12-1.47.53-2.36.68-.33.06-.7.04-1.07.04-.78,0-1.75.05-2.48-.04-.48-.06-.89-.18-1.4-.24-.38-.04-.79-.05-1.15-.1-1.13-.15-1.96-.49-3.01-.67Z"/><path d="m1021.2,0h8.97c-.06,0-.11.01-.17.01-1.25.06-2.58.01-3.83.01h-3.14c-.53,0-1.05.02-1.57-.01-.09,0-.17-.01-.26-.01Z"/><path d="m1056.79,0h15.14c-.07,0-.13.01-.2.01-1.55.07-3.07.09-4.64.09-1.37-.01-2.74,0-4.11,0-1.81,0-3.74.06-5.52-.05-.23-.01-.45-.03-.67-.05Z"/><path d="m1334.81,0v.76c-.06,0-.31-.01-.49-.01-.89.01-1.58.11-2.39.22-1.05.14-2.11.28-3.12.44-.32.06-.99.24-1.34.22-.12-.12.1-.25-.1-.36-.39-.23-2.02-.23-2.72-.23-1.01-.01-1.5.13-2.35.21-.48.05-1.07,0-1.58.03-1.04.06-2.09.21-3.08.32-.77.08-1.58.22-2.39.17,0,0-.16-.06-.22-.07-.33-.03-.88.01-1.22,0-1.05,0-2.1.01-3.13.08-.52.03-1.89.07-2.2.2-.27.11-.14.24-.15.38-.03.24-.36.61-.71.82-.16.09-.35.18-.51.28-.37.22-.51.28-1.24.29-1.32.03-2.68.24-3.66-.14-.54-.21-.91-.48-1.49-.67-.73-.24-1.49-.48-2.54-.56-.73-.06-1.57-.02-2.33-.07-.45-.03-.91-.02-1.37-.02-.33,0-.84.03-1.15.01-.42-.03-.48-.13-.68-.24-.34-.19-.88-.37-1.58-.42-.84-.05-1.8.24-2.54.35-.61.09-1.33.11-1.89.19-.4.06-.51.1-.97.13-1.89.11-3.78.12-5.68.2-.38.02-.83.08-1.2.08-.27,0-.43-.04-.7-.06-1.37-.11-3.23-.06-4.57.07-.87.09-1.48.29-2.08.49-.2.07-.4.18-.67.22-.61.09-1.63,0-2.32.02-1.09.04-2.12.14-3.22.14-1.16,0-2.28-.09-3.44-.08-.54,0-1.09.01-1.64,0-.59-.01-.7-.11-1.16-.22-1.23-.27-3.01-.34-4.44-.36-1.39-.02-2.77-.03-4.12.08-1.49.12-2.81.36-4.33.43-2.04.08-3.89.06-5.95.07-.24,0-.66.03-.89-.01-.12-.02-.18-.09-.29-.12-.47-.11-1.27-.17-1.83-.17-.77,0-1.28.12-2,.19-.55.05-1.12.04-1.68.07-.96.06-1.94.04-2.91.04-.62,0-1.34.04-1.93-.01-.09-.16-.21-.23-.43-.37-.55-.35-.87-.52-2.02-.72-1.01-.18-2.05-.42-3.23-.44-2-.02-4.05-.01-6.06,0-.31.01-.5.02-.74-.04-.32-.07-.22-.16-.71-.19-.56-.03-1.36.11-1.85.17-.99.13-2.15.22-3,.43-.59.15-1.14.32-1.83.42-.86.12-1.71.21-2.51.37-.79.16-1.52.19-2.41.27-.32.03-.52.04-.85.04-.65-.01-1.26.04-1.9.06-1.04.03-2.1.08-3.14.08-.66,0-1.1-.09-1.68-.21-.36-.08-.63-.19-.99-.26-1.09-.23-2.96-.24-4.25-.29-.98-.05-1.9-.05-2.85.05-.33.04-.64.09-.96.12-1.18.1-2.5.13-3.72.15-1.17.03-2.32.08-3.5.08-1.11,0-2.16-.01-3.24.05-1.56.1-3.09.24-4.63.39-.77.07-1.37.21-2.09.32-.44.07-.91.12-1.34.19-.36.06-.69.18-1.07.22-.34.03-.78-.01-1.13,0-.47.03-.8.07-1.3.07-.92,0-1.82,0-2.73-.03-.53-.03-1.06-.04-1.59-.05-.5,0-1.35.05-1.87,0,.12-.16-.32-.14-.64-.19-.54-.08-.25-.11-.56-.23-.43-.15-1.88-.13-2.45-.07-.54.06-1.02.16-1.56.22-1.1.13-2.2.2-3.29.34-.51.06-.97.07-1.41.16-.24.04-.43.12-.68.16-.41.08-1.62.12-2.05.04-.38-.06-.6-.25-.94-.33-.31-.08-.79-.11-1.14-.16-.7-.1-1.4-.2-2.12-.28-1.37-.15-2.55-.4-3.78-.65-.57-.11-1.06-.14-1.71-.19-.9-.06-1.84-.01-2.73-.07-1.12-.08-1.72-.05-2.76.17-.86.19-1.54.48-2.15.75-.37.15-.57.35-1.13.43-.13.02-.65.11-.75.11-.56.02-.21-.01-.39-.13-.22-.14-.65-.22-1-.34-.52-.19-.84-.41-1.5-.56-.56-.12-1.19-.17-1.79-.27h-.03c-1.54.02-2.92.14-4.43-.01.1-.34-2.58-.38-3.29-.41-.22,0-.6,0-.8-.03-.12-.02-.19-.09-.29-.1-.46-.06-1.02-.03-1.53-.03-1.66-.01-3.29-.2-4.94-.26-1-.04-1.99-.04-2.99-.04-.62.01-1.04-.04-1.63-.07-.32-.02-.63-.04-.96-.06-.49-.03-.7.04-1.15.06-.29.02-1.09.04-1.36,0-.33-.03-.46-.19-.67-.28-.63-.27-1.13-.55-1.94-.78-.46-.13-.62-.31-.94-.47-.25-.14-.63-.23-.87-.36-1,.12-1.47.53-2.36.68-.33.06-.7.04-1.07.04-.78,0-1.75.05-2.48-.04-.48-.06-.89-.18-1.4-.24-.38-.04-.79-.05-1.15-.1-1.13-.15-1.96-.49-3.01-.67h251.63Z"/><path d="m675.84,1.69c1.5.11,3.03.3,4.56.31-.6.08-1.29.1-1.84.18-.4.06-.51.1-.97.13-1.89.11-3.78.12-5.68.2-.38.02-.83.08-1.2.08-.27,0-.43-.04-.7-.06-1.37-.11-3.23-.06-4.57.07-.87.09-1.48.29-2.08.49-.2.07-.4.18-.67.22-.61.09-1.63,0-2.32.02-1.09.04-2.12.14-3.22.14-1.16,0-2.28-.09-3.44-.08-.54,0-1.09.01-1.64,0-.59-.01-.7-.11-1.16-.22-1.23-.27-3.01-.34-4.44-.36-1.39-.02-2.77-.03-4.12.08-1.49.12-2.81.36-4.33.43-2.04.08-3.89.06-5.95.07-.24,0-.66.03-.89-.01-.12-.02-.18-.09-.29-.12-.47-.11-1.27-.17-1.83-.17-.77,0-1.28.12-2,.19-.55.05-1.12.04-1.68.07-.96.06-1.94.04-2.91.04-.62,0-1.34.04-1.93-.01-.09-.16-.21-.23-.43-.37-.55-.35-.87-.52-2.02-.72-.4-.07-.8-.15-1.21-.22.91-.04,2.08-.03,2.6.08.28.06.31.13.67.14.1,0,.24-.06.35-.07.26-.03.56-.04.83-.07,1.36-.16,2.46-.56,3.77-.76.85-.13,2.25-.05,3.23-.05,1.76,0,3.46.08,5.21.08.53-.01,1.42-.06,1.7.13.22.16-.1.36.06.52.39,0,.96-.1,1.35-.12.45-.04.85-.09,1.28-.13.88-.1,1.82-.15,2.64-.3.24-.04.51-.13.74-.16.3-.04.76-.04,1.09-.05.76-.04,1.57,0,2.31-.06.42-.03.83-.07,1.28-.09,1.56-.07,3.9-.26,5.42-.04.44.07.81.1,1.34.07.92-.07,2.76-.39,2.84-.72.5-.06,1.26.21,1.63.29.38.08.78.09,1.22.16,1.86.29,4.39.32,5.82.86.32.13.2.14.77.15h.88c1.29,0,2.56-.12,3.71-.3,1.99-.31,4.17-.09,6.22.06Z"/><path d="m698.29,1.78c1.27,0,2.53,0,3.78.02-.62.04-1.44.08-1.67.18-.27.11-.14.24-.15.38-.03.24-.36.61-.71.82-.16.09-.35.18-.51.28-.37.22-.51.28-1.24.29-1.32.03-2.68.24-3.66-.14-.54-.21-.91-.48-1.49-.67-.73-.24-1.49-.48-2.54-.56-.73-.06-1.57-.02-2.33-.07-.45-.03-.91-.02-1.37-.02-.33,0-.84.03-1.15.01-.42-.03-.48-.13-.68-.24-.04-.02-.08-.04-.12-.06h5.9c1.1,0,2.12-.03,3.19-.09.03-.04.12-.06.26-.06h1.13c.44.01.94.02,1.38.01.69-.02,1.26-.08,1.98-.08Z"/><path d="m720.03,1.56c-.24.04-.47.08-.64.07-.02-.02-.04-.05-.04-.07h.68Z"/><path d="m614.86,1.85c.72.01,1.38.11,2.02.22-.36.01-.69.03-.91.06-.97.11-2.05.19-3.06.24-.5.02-1.02-.06-1.52-.08-1.05-.05-2.24-.24-3.31-.23v-.25c.23.06.42.05.72.04,2.01-.01,4.06-.02,6.06,0Z"/><path d="m682.99,1.64c.62.04,1.12.19,1.46.36h-4.05s.03,0,.05,0c.74-.11,1.7-.4,2.54-.35Z"/><path d="m719.35,1.56c-1.54,0-3.07,0-4.61,0-.57.01-1.03.05-1.6.09-1.22.09-2.53.17-3.66.33-.42.07-.93.3-1.41.3-.39,0-.91-.18-1.32-.22-1.54-.17-3.09-.24-4.67-.26.21-.01.39-.01.52-.02,1.03-.07,2.08-.08,3.13-.08.34.01.89-.03,1.22,0,.06.01.22.07.22.07.81.05,1.62-.09,2.39-.17.99-.11,2.04-.26,3.08-.32.51-.03,1.1.02,1.58-.03.85-.08,1.34-.22,2.35-.21.7,0,2.33,0,2.72.23.16.09.05.19.06.29Z"/><path d="m400.14,0c-.77.08-1.53.19-2.39.33-.46.07-.75.11-1.24.13-.71.03-1.36.14-2.06.15-1.01.02-1.94.01-2.95.06-.63.03-1.18.06-1.68-.07-.36-.09-1.45-.31-1.34-.49-1.15-.11-2.67.04-3.74.15-.84.08-1.66.19-2.5.28-.46.04-.95.05-1.4.09-.29.03-.68.09-.92.11-.92.06-2.01.02-2.96.02-1.02-.01-2.01.05-3.02.09-.83.03-1.78.06-2.54.18-.15.02-.18.07-.35.09-.29.02-.71,0-1.01,0s-.72.03-1.01,0c-.33-.03-.56-.14-.85-.2-1.3-.27-2.52-.13-3.82.06-1,.15-1.97.3-3.01.42-1.38.17-2.84.24-4.23.4-.48.06-.9.14-1.36.21-.69.09-1.58.09-2.3.12-1.11.04-2.19.09-3.31.09-2.25,0-4.42-.03-6.62.1-.39.03-4.98-.01-4.59.34-.91,0-2.36.04-3.24-.03-.46-.04-.89-.11-1.36-.12-1.58-.05-3.43.14-4.94.24-.71.05-1.33.08-2.04.07-.58,0-1.09.03-1.68.05-.78.03-1.63.08-2.42.08-.4.01-1.15.05-1.51,0-.29-.05-.34-.14-.54-.22-.3-.12-.73-.22-1.15-.29-1.39-.24-3.11-.15-4.66-.15s-3.04.07-4.57.08c-1.16,0-2.33-.03-3.49-.01-.55.02-1.08.06-1.64.08-1.04.03-1.83.09-2.71.26-2.5.47-4.65,1.08-7.28,1.49-.9.14-1.75.3-2.63.45-.81.14-1.81.17-2.71.2-1.12.03-2.16.09-3.28.09-.93,0-1.62-.05-2.52-.13-1.29-.11-2.5-.09-3.83-.09-.5,0-.94.01-1.4-.04-.6-.06-1.05-.27-1.64-.32-.65-.06-1.81-.02-2.43-.01-1.92.01-3.82.07-5.73.13-.43.02-.88,0-1.29.03-.22.02-.58.08-.86.1-.82.07-1.63.13-2.46.17-.55.02-.54-.03-.99-.07-.45-.03-1.05.01-1.52.01-1.01-.01-1.96.06-2.96.07-.88.02-1.77-.02-2.65,0-1.14.04-2.25.27-3.35.36-.32.03-.62.08-.92.12-.89.12-1.81.21-2.7.33-1.67.22-3.16-.29-4.69-.46-2.21-.25-5.03-.13-7.37-.13-.77,0-1.57.02-2.34,0-1.4-.03-2.85-.17-4.23-.26-1.07-.06-2.74-.07-3.66-.28-.48-.12-.82-.28-1.29-.4-.34-.08-.68-.19-1.03-.26-.52-.11-1.13-.11-1.7-.19-2.39-.33-5.22-.37-7.83-.37-.77,0-1.55-.01-2.33,0-.78,0-1.53.1-2.31.08-.76-.01-1.54-.07-2.3-.09-.74-.03-1.46-.06-2.1-.19-.51-.09-.47-.21-.76-.37-.42-.24-1.11-.38-1.97-.38-1.24-.01-2.48,0-3.72,0-1.1,0-2.34.06-3.42-.03-.48-.04-.89-.11-1.4-.12-1.29-.02-2.69-.02-3.97.02-1.42.05-2.76.06-4.19.06-.54,0-1.09-.01-1.63,0-.49.01-.88.05-1.22-.09-.28-.13-.26-.34-.37-.48-.06-.08-.11-.16-.23-.24-.15-.09-.36-.17-.67-.22-.67-.11-1.56-.04-2.26,0-2.64.12-5.37.24-8.03.24-.99-.01-2.73.1-3.02-.3-.12-.16.11-.27-.43-.39-.35-.07-.75-.11-1.16-.12-.47-.01-.97.02-1.44,0-.45-.01-.85-.07-1.3-.08-.07-.22-.06-.28-.81-.29-.65,0-1.33.03-1.97-.01-1.12-.07-2.1-.07-3.25.01-.86.06-1.54.18-2.35.27-.3.03-.67.06-.97.01-.81-.11-1.7-.32-2.68-.18-.33.05-.62.15-.93.22-.62.12-1.41.22-2.14.26-.81.04-1.66,0-2.47,0-1.28.01-2.47.23-3.75.15-.17-.01-.15-.05-.32-.07-.44-.04-1.19,0-1.64,0-1.1,0-2.2-.01-3.3.01-1.81.04-3.74.09-5.36.36-.87.14-1.97.32-2.93.37-1.56.08-3.14,0-4.6-.15-.92-.1-1.86-.18-2.83-.15-.38.01-.61.02-1,.07-1.12.12-2.11.24-3.27.32-.51.03-.9.08-1.42.04-.69-.05-1.33-.18-2.06-.21-1.17-.05-2.47,0-3.64,0-1.71,0-3.41,0-5.12,0-.57.01-1.03.05-1.6.09-1.22.09-2.53.17-3.66.33-.42.07-.93.3-1.41.3-.39,0-.91-.18-1.32-.22-2.76-.31-5.58-.27-8.46-.28-.72,0-1.29.06-1.98.08-.44.01-.94,0-1.38-.01h-1.13c-.14,0-.23.02-.26.06-1.07.06-2.09.09-3.19.09h-9.81c-1.58,0-3.15-.2-4.7-.31-2.05-.15-4.23-.37-6.22-.06-1.15.18-2.42.3-3.71.3h-.88c-.57-.01-.45-.02-.77-.15-1.43-.54-3.96-.57-5.82-.86-.44-.07-.84-.08-1.22-.16-.37-.08-1.13-.35-1.63-.29-.08.33-1.92.65-2.84.72-.53.03-.9,0-1.34-.07-1.52-.22-3.86-.03-5.42.04-.45.02-.86.06-1.28.09-.74.06-1.55.02-2.31.06-.33.01-.79.01-1.09.05-.23.03-.5.12-.74.16-.82.15-1.76.2-2.64.3-.43.04-.83.09-1.28.13-.39.02-.96.12-1.35.12-.16-.16.16-.36-.06-.52-.28-.19-1.17-.14-1.7-.13-1.75,0-3.45-.08-5.21-.08-.98,0-2.38-.08-3.23.05-1.31.2-2.41.6-3.77.76-.27.03-.57.04-.83.07-.11.01-.25.07-.35.07-.36-.01-.39-.08-.67-.14-.73-.16-2.71-.11-3.51-.02-.97.11-2.05.19-3.06.24-.5.02-1.02-.06-1.52-.08-1.05-.05-2.24-.24-3.31-.23V0h400.14Z"/><path d="m422.09,0c-.06,0-.11.01-.17.01-1.25.06-2.58.01-3.83.01h-3.14c-.53,0-1.05.02-1.57-.01-.09,0-.17-.01-.26-.01h8.97Z"/><path d="m463.85,0c-.07,0-.13.01-.2.01-1.55.07-3.07.09-4.64.09-1.37-.01-2.74,0-4.11,0-1.81,0-3.74.06-5.52-.05-.23-.01-.45-.03-.67-.05h15.14Z"/><path d="m1008.22,0c-.77.08-1.53.19-2.39.33-.46.07-.75.11-1.24.13-.71.03-1.36.14-2.06.15-1.01.02-1.94.01-2.95.06-.63.03-1.18.06-1.68-.07-.36-.09-1.45-.31-1.34-.49-1.15-.11-2.67.04-3.74.15-.84.08-1.66.19-2.5.28-.46.04-.95.05-1.4.09-.29.03-.68.09-.92.11-.92.06-2.01.02-2.96.02-1.02-.01-2.01.05-3.02.09-.83.03-1.78.06-2.54.18-.15.02-.18.07-.35.09-.29.02-.71,0-1.01,0s-.72.03-1.01,0c-.33-.03-.56-.14-.85-.2-1.3-.27-2.52-.13-3.82.06-1,.15-1.97.3-3.01.42-1.38.17-2.84.24-4.23.4-.48.06-.9.14-1.36.21-.69.09-1.58.09-2.3.12-1.11.04-2.19.09-3.31.09-2.25,0-4.42-.03-6.62.1-.39.03-4.98-.01-4.59.34-.91,0-2.36.04-3.24-.03-.46-.04-.89-.11-1.36-.12-1.58-.05-3.43.14-4.94.24-.71.05-1.33.08-2.04.07-.58,0-1.09.03-1.68.05-.78.03-1.63.08-2.42.08-.4.01-1.15.05-1.51,0-.29-.05-.34-.14-.54-.22-.3-.12-.73-.22-1.15-.29-1.39-.24-3.11-.15-4.66-.15s-3.04.07-4.57.08c-1.16,0-2.33-.03-3.49-.01-.55.02-1.08.06-1.64.08-1.04.03-1.83.09-2.71.26-2.5.47-4.65,1.08-7.28,1.49-.9.14-1.75.3-2.63.45-.81.14-1.81.17-2.71.2-1.12.03-2.16.09-3.28.09-.93,0-1.62-.05-2.52-.13-1.29-.11-2.5-.09-3.83-.09-.5,0-.94.01-1.4-.04-.6-.06-1.05-.27-1.64-.32-.65-.06-1.81-.02-2.43-.01-1.92.01-3.82.07-5.73.13-.43.02-.88,0-1.29.03-.22.02-.58.08-.86.1-.82.07-1.63.13-2.46.17-.55.02-.54-.03-.99-.07-.45-.03-1.05.01-1.52.01-1.01-.01-1.96.06-2.96.07-.88.02-1.77-.02-2.65,0-1.14.04-2.25.27-3.35.36-.32.03-.62.08-.92.12-.89.12-1.81.21-2.7.33-1.67.22-3.16-.29-4.69-.46-2.21-.25-5.03-.13-7.37-.13-.77,0-1.57.02-2.34,0-1.4-.03-2.85-.17-4.23-.26-1.07-.06-2.74-.07-3.66-.28-.48-.12-.82-.28-1.29-.4-.34-.08-.68-.19-1.03-.26-.52-.11-1.13-.11-1.7-.19-2.39-.33-5.22-.37-7.83-.37-.77,0-1.55-.01-2.33,0-.78,0-1.53.1-2.31.08-.76-.01-1.54-.07-2.3-.09-.74-.03-1.46-.06-2.1-.19-.51-.09-.47-.21-.76-.37-.42-.24-1.11-.38-1.97-.38-1.24-.01-2.48,0-3.72,0-1.1,0-2.34.06-3.42-.03-.48-.04-.89-.11-1.4-.12-1.29-.02-2.69-.02-3.97.02-1.42.05-2.76.06-4.19.06-.54,0-1.09-.01-1.63,0-.49.01-.88.05-1.22-.09-.28-.13-.26-.34-.37-.48-.06-.08-.11-.16-.23-.24-.15-.09-.36-.17-.67-.22-.67-.11-1.56-.04-2.26,0-2.64.12-5.37.24-8.03.24-.99-.01-2.73.1-3.02-.3-.12-.16.11-.27-.43-.39-.35-.07-.75-.11-1.16-.12-.47-.01-.97.02-1.44,0-.45-.01-.85-.07-1.3-.08-.07-.22-.06-.28-.81-.29-.65,0-1.33.03-1.97-.01-1.12-.07-2.1-.07-3.25.01-.86.06-1.54.18-2.35.27-.3.03-.67.06-.97.01-.81-.11-1.7-.32-2.68-.18-.33.05-.62.15-.93.22-.62.12-1.41.22-2.14.26-.81.04-1.66,0-2.47,0-1.28.01-2.47.23-3.75.15-.17-.01-.15-.05-.32-.07-.44-.04-1.19,0-1.64,0-1.1,0-2.2-.01-3.3.01-1.81.04-3.74.09-5.36.36-.87.14-1.97.32-2.93.37-1.56.08-3.14,0-4.6-.15-.92-.1-1.86-.18-2.83-.15-.38.01-.61.02-1,.07-1.12.12-2.11.24-3.27.32-.51.03-.9.08-1.42.04-.69-.05-1.33-.18-2.06-.21-1.12-.05-2.35,0-3.47,0h-.68c0-.1.1-.2-.06-.29-.39-.23-2.02-.23-2.72-.23-1.01-.01-1.5.13-2.35.21-.48.05-1.07,0-1.58.03-1.04.06-2.09.21-3.08.32-.77.08-1.58.22-2.39.17,0,0-.16-.06-.22-.07-.33-.03-.88.01-1.22,0-1.05,0-2.1.01-3.13.08-.13.01-.31.01-.52.02h0c-1.25-.02-2.51-.02-3.78-.02-.72,0-1.29.06-1.98.08-.44.01-.94,0-1.38-.01h-1.13c-.14,0-.23.02-.26.06-1.07.06-2.09.09-3.19.09h-5.9c-.34-.17-.84-.32-1.46-.36-.84-.05-1.8.24-2.54.35-.02,0-.03,0-.05,0-1.53,0-3.06-.2-4.56-.31-2.05-.15-4.23-.37-6.22-.06-1.15.18-2.42.3-3.71.3h-.88c-.57-.01-.45-.02-.77-.15-1.43-.54-3.96-.57-5.82-.86-.44-.07-.84-.08-1.22-.16-.37-.08-1.13-.35-1.63-.29-.08.33-1.92.65-2.84.72-.53.03-.9,0-1.34-.07-1.52-.22-3.86-.03-5.42.04-.45.02-.86.06-1.28.09-.74.06-1.55.02-2.31.06-.33.01-.79.01-1.09.05-.23.03-.5.12-.74.16-.82.15-1.76.2-2.64.3-.43.04-.83.09-1.28.13-.39.02-.96.12-1.35.12-.16-.16.16-.36-.06-.52-.28-.19-1.17-.14-1.7-.13-1.75,0-3.45-.08-5.21-.08-.98,0-2.38-.08-3.23.05-1.31.2-2.41.6-3.77.76-.27.03-.57.04-.83.07-.11.01-.25.07-.35.07-.36-.01-.39-.08-.67-.14-.52-.11-1.69-.12-2.6-.08-.64-.11-1.3-.21-2.02-.22-2-.02-4.05-.01-6.06,0-.3.01-.49.02-.72-.04h-.02c-.32-.07-.22-.16-.71-.19-.56-.03-1.36.11-1.85.17-.99.13-2.15.22-3,.43-.59.15-1.14.32-1.83.42-.86.12-1.71.21-2.51.37-.79.16-1.52.19-2.41.27-.32.03-.52.04-.85.04-.65-.01-1.26.04-1.9.06-1.04.03-2.1.08-3.14.08-.66,0-1.1-.09-1.68-.21-.36-.08-.63-.19-.99-.26-1.09-.23-2.96-.24-4.25-.29-.98-.05-1.9-.05-2.85.05-.33.04-.64.09-.96.12-1.18.1-2.5.13-3.72.15-1.17.03-2.32.08-3.5.08-1.11,0-2.16-.01-3.24.05-1.56.1-3.09.24-4.63.39-.77.07-1.37.21-2.09.32-.44.07-.91.12-1.34.19-.36.06-.69.18-1.07.22-.34.03-.78-.01-1.13,0-.47.03-.8.07-1.3.07-.92,0-1.82,0-2.73-.03-.53-.03-1.06-.04-1.59-.05-.5,0-1.35.05-1.87,0,.12-.16-.32-.14-.64-.19-.54-.08-.25-.11-.56-.23-.43-.15-1.88-.13-2.45-.07-.54.06-1.02.16-1.56.22-1.1.13-2.2.2-3.29.34-.51.06-.97.07-1.41.16-.24.04-.43.12-.68.16-.41.08-1.62.12-2.05.04-.38-.06-.6-.25-.94-.33-.31-.08-.79-.11-1.14-.16-.7-.1-1.4-.2-2.12-.28-1.37-.15-2.55-.4-3.78-.65-.57-.11-1.06-.14-1.71-.19-.9-.06-1.84-.01-2.73-.07-1.12-.08-1.72-.05-2.76.17-.86.19-1.54.48-2.15.75-.37.15-.57.35-1.13.43-.13.02-.65.11-.75.11-.56.02-.21-.01-.39-.13-.22-.14-.65-.22-1-.34-.52-.19-.84-.41-1.5-.56-.56-.12-1.19-.17-1.79-.27h-.03c-1.54.02-2.92.14-4.43-.01.1-.34-2.58-.38-3.29-.41-.22,0-.6,0-.8-.03-.12-.02-.19-.09-.29-.1-.46-.06-1.02-.03-1.53-.03-1.66-.01-3.29-.2-4.94-.26-1-.04-1.99-.04-2.99-.04-.62.01-1.04-.04-1.63-.07-.32-.02-.63-.04-.96-.06-.49-.03-.7.04-1.15.06-.29.02-1.09.04-1.36,0-.33-.03-.46-.19-.67-.28-.63-.27-1.13-.55-1.94-.78-.46-.13-.62-.31-.94-.47-.25-.14-.63-.23-.87-.36-1,.12-1.47.53-2.36.68-.33.06-.7.04-1.07.04-.78,0-1.75.05-2.48-.04-.48-.06-.89-.18-1.4-.24-.38-.04-.79-.05-1.15-.1-1.13-.15-1.96-.49-3.01-.67h533.12Z"/><path d="m1030.17,0c-.06,0-.11.01-.17.01-1.25.06-2.58.01-3.83.01h-3.14c-.53,0-1.05.02-1.57-.01-.09,0-.17-.01-.26-.01h8.97Z"/><path d="m1071.93,0c-.07,0-.13.01-.2.01-1.55.07-3.07.09-4.64.09-1.37-.01-2.74,0-4.11,0-1.81,0-3.74.06-5.52-.05-.23-.01-.45-.03-.67-.05h15.14Z"/><path d="m1334.81,0v.76c-.06,0-.31-.01-.49-.01-.89.01-1.58.11-2.39.22-1.05.14-2.11.28-3.12.44-.32.06-.99.24-1.34.22-.12-.12.1-.25-.1-.36-.39-.23-2.02-.23-2.72-.23-1.01-.01-1.5.13-2.35.21-.48.05-1.07,0-1.58.03-1.04.06-2.09.21-3.08.32-.77.08-1.58.22-2.39.17,0,0-.16-.06-.22-.07-.33-.03-.88.01-1.22,0-1.05,0-2.1.01-3.13.08-.52.03-1.89.07-2.2.2-.27.11-.14.24-.15.38-.03.24-.36.61-.71.82-.16.09-.35.18-.51.28-.37.22-.51.28-1.24.29-1.32.03-2.68.24-3.66-.14-.54-.21-.91-.48-1.49-.67-.73-.24-1.49-.48-2.54-.56-.73-.06-1.57-.02-2.33-.07-.45-.03-.91-.02-1.37-.02-.33,0-.84.03-1.15.01-.42-.03-.48-.13-.68-.24-.34-.19-.88-.37-1.58-.42-.84-.05-1.8.24-2.54.35-.61.09-1.33.11-1.89.19-.4.06-.51.1-.97.13-1.89.11-3.78.12-5.68.2-.38.02-.83.08-1.2.08-.27,0-.43-.04-.7-.06-1.37-.11-3.23-.06-4.57.07-.87.09-1.48.29-2.08.49-.2.07-.4.18-.67.22-.61.09-1.63,0-2.32.02-1.09.04-2.12.14-3.22.14-1.16,0-2.28-.09-3.44-.08-.54,0-1.09.01-1.64,0-.59-.01-.7-.11-1.16-.22-1.23-.27-3.01-.34-4.44-.36-1.39-.02-2.77-.03-4.12.08-1.49.12-2.81.36-4.33.43-2.04.08-3.89.06-5.95.07-.24,0-.66.03-.89-.01-.12-.02-.18-.09-.29-.12-.47-.11-1.27-.17-1.83-.17-.77,0-1.28.12-2,.19-.55.05-1.12.04-1.68.07-.96.06-1.94.04-2.91.04-.62,0-1.34.04-1.93-.01-.09-.16-.21-.23-.43-.37-.55-.35-.87-.52-2.02-.72-1.01-.18-2.05-.42-3.23-.44-2-.02-4.05-.01-6.06,0-.31.01-.5.02-.74-.04-.32-.07-.22-.16-.71-.19-.56-.03-1.36.11-1.85.17-.99.13-2.15.22-3,.43-.59.15-1.14.32-1.83.42-.86.12-1.71.21-2.51.37-.79.16-1.52.19-2.41.27-.32.03-.52.04-.85.04-.65-.01-1.26.04-1.9.06-1.04.03-2.1.08-3.14.08-.66,0-1.1-.09-1.68-.21-.36-.08-.63-.19-.99-.26-1.09-.23-2.96-.24-4.25-.29-.98-.05-1.9-.05-2.85.05-.33.04-.64.09-.96.12-1.18.1-2.5.13-3.72.15-1.17.03-2.32.08-3.5.08-1.11,0-2.16-.01-3.24.05-1.56.1-3.09.24-4.63.39-.77.07-1.37.21-2.09.32-.44.07-.91.12-1.34.19-.36.06-.69.18-1.07.22-.34.03-.78-.01-1.13,0-.47.03-.8.07-1.3.07-.92,0-1.82,0-2.73-.03-.53-.03-1.06-.04-1.59-.05-.5,0-1.35.05-1.87,0,.12-.16-.32-.14-.64-.19-.54-.08-.25-.11-.56-.23-.43-.15-1.88-.13-2.45-.07-.54.06-1.02.16-1.56.22-1.1.13-2.2.2-3.29.34-.51.06-.97.07-1.41.16-.24.04-.43.12-.68.16-.41.08-1.62.12-2.05.04-.38-.06-.6-.25-.94-.33-.31-.08-.79-.11-1.14-.16-.7-.1-1.4-.2-2.12-.28-1.37-.15-2.55-.4-3.78-.65-.57-.11-1.06-.14-1.71-.19-.9-.06-1.84-.01-2.73-.07-1.12-.08-1.72-.05-2.76.17-.86.19-1.54.48-2.15.75-.37.15-.57.35-1.13.43-.13.02-.65.11-.75.11-.56.02-.21-.01-.39-.13-.22-.14-.65-.22-1-.34-.52-.19-.84-.41-1.5-.56-.56-.12-1.19-.17-1.79-.27h-.03c-1.54.02-2.92.14-4.43-.01.1-.34-2.58-.38-3.29-.41-.22,0-.6,0-.8-.03-.12-.02-.19-.09-.29-.1-.46-.06-1.02-.03-1.53-.03-1.66-.01-3.29-.2-4.94-.26-1-.04-1.99-.04-2.99-.04-.62.01-1.04-.04-1.63-.07-.32-.02-.63-.04-.96-.06-.49-.03-.7.04-1.15.06-.29.02-1.09.04-1.36,0-.33-.03-.46-.19-.67-.28-.63-.27-1.13-.55-1.94-.78-.46-.13-.62-.31-.94-.47-.25-.14-.63-.23-.87-.36-1,.12-1.47.53-2.36.68-.33.06-.7.04-1.07.04-.78,0-1.75.05-2.48-.04-.48-.06-.89-.18-1.4-.24-.38-.04-.79-.05-1.15-.1-1.13-.15-1.96-.49-3.01-.67h251.63Z"/></g></svg>