<svg width="70" height="70" viewBox="0 0 70 70" fill="none" xmlns="http://www.w3.org/2000/svg">
<circle cx="35" cy="35" r="34.5" fill="white" stroke="black"/>
<path d="M28.3371 38.2138C29.6371 36.9138 30.9171 35.6338 32.2071 34.3438C32.4171 34.8638 32.8371 35.2238 33.2271 35.6138C33.7971 36.1838 34.3671 36.7538 34.9371 37.3238C35.9971 38.3738 37.5171 38.3738 38.5771 37.3238C41.3171 34.5838 44.0671 31.8338 46.8071 29.0938C47.9471 27.9538 47.9471 26.4738 46.8071 25.3338C46.1171 24.6438 45.4271 23.9538 44.7371 23.2638C43.6671 22.2038 42.1571 22.1938 41.0871 23.2638C40.1271 24.2238 39.1671 25.1838 38.2071 26.1438C38.1471 26.2038 38.1071 26.2738 38.0471 26.3438C37.0571 25.7638 36.0371 25.3738 34.9371 25.1738C33.8471 24.9838 32.7671 24.9938 31.6271 25.1938C31.7171 25.0938 31.7671 25.0338 31.8271 24.9738C33.7371 23.0638 35.6371 21.1638 37.5471 19.2538C40.5571 16.2538 45.2671 16.2438 48.2771 19.2538C49.1271 20.1038 49.9872 20.9638 50.8372 21.8138C53.8572 24.8438 53.8572 29.5538 50.8372 32.5838C47.9572 35.4638 45.0671 38.3438 42.1871 41.2338C40.5171 42.9038 38.5071 43.6938 36.1471 43.5238C34.3971 43.3938 32.8671 42.7238 31.6071 41.5138C30.5771 40.5238 29.5871 39.5038 28.5771 38.4938C28.4871 38.4038 28.4071 38.3038 28.3271 38.2138H28.3371Z" fill="black"/>
<path d="M41.7973 31.9035C40.4973 33.2035 39.2173 34.4835 37.9473 35.7535C37.1673 34.6035 36.0673 33.7335 35.1073 32.7335C34.1573 31.7535 32.6073 31.7535 31.6373 32.7135C28.8073 35.5335 25.9773 38.3535 23.1673 41.1835C22.2073 42.1535 22.2273 43.6935 23.1873 44.6735C23.9373 45.4335 24.6873 46.1835 25.4473 46.9335C26.4273 47.9035 27.9773 47.9035 28.9573 46.9335C29.9473 45.9535 30.9373 44.9635 31.9173 43.9735C31.9773 43.9135 32.0173 43.8435 32.0673 43.7835C34.0773 44.9535 36.1873 45.3235 38.4673 44.9235C38.4073 44.9935 38.3773 45.0435 38.3473 45.0735C36.3873 47.0335 34.4373 49.0035 32.4673 50.9435C29.5673 53.8035 24.9173 53.8235 21.9773 50.9835C20.9173 49.9535 19.8473 48.9335 18.8573 47.8235C16.2873 44.9435 16.3973 40.4535 19.1073 37.6935C22.0973 34.6635 25.1073 31.6435 28.1373 28.6635C31.0573 25.7935 35.7573 25.8535 38.6573 28.7335C39.5773 29.6435 40.4873 30.5535 41.3973 31.4735C41.5273 31.6035 41.6573 31.7435 41.7873 31.8835L41.7973 31.9035Z" fill="black"/>
</svg>
