<svg width="33" height="47" viewBox="0 0 33 47" fill="none" xmlns="http://www.w3.org/2000/svg">
<mask id="mask0_177_4847" style="mask-type:luminance" maskUnits="userSpaceOnUse" x="0" y="0" width="33" height="47">
<path d="M0 0H32.1699V46.4911H0V0Z" fill="white"/>
</mask>
<g mask="url(#mask0_177_4847)">
<path d="M25.2852 12.8812C25.2852 12.8812 25.3055 12.8492 25.3055 12.8386C25.3055 12.8386 25.3172 12.8173 25.3269 12.8066L25.2745 12.8918L25.2842 12.8812H25.2852ZM20.7184 34.1828C19.4477 33.007 17.9328 32.6041 16.9585 32.4559C16.6712 32.4071 16.3809 32.379 16.0896 32.3716H15.2741C15.1153 32.3716 14.7976 32.3716 14.3947 32.4249C13.4203 32.5411 11.8958 32.9014 10.5921 34.0453C8.14548 36.1849 8.68594 39.1719 8.73824 39.479C8.80216 39.7966 9.15182 41.3967 10.5495 42.6888C11.365 43.451 11.9694 43.5576 13.3254 44.5533C14.3424 45.3049 15.0513 46.0148 15.4853 46.4807C15.9308 46.0255 16.6727 45.3262 17.6994 44.6162C19.0767 43.6525 19.6811 43.5576 20.5179 42.8263C21.9475 41.5769 22.3388 39.9884 22.4134 39.6698C22.488 39.3627 23.1021 36.396 20.7087 34.1828H20.7184ZM2.74282 10.7726C2.60528 10.0317 2.65856 9.2791 2.37283 8.57011C2.28687 8.36782 2.17274 8.17869 2.03383 8.00834C1.9176 7.87081 1.78975 7.74393 1.66287 7.60542C0.497687 6.27074 -0.349807 4.71426 0.137381 2.97665C0.465725 1.83278 1.29191 0.731518 2.54233 0.264669C4.12109 -0.338747 6.07953 0.16975 7.38225 1.09086C7.61567 1.25067 7.83747 1.42017 8.0399 1.61001C8.33628 1.8967 8.60167 2.22504 8.83413 2.55339C9.20509 3.12484 9.46951 3.73988 9.74458 4.35395C9.90342 4.70263 10.0623 5.05325 10.2637 5.39225C10.9098 6.48286 11.6943 7.42624 12.0653 8.64372C12.259 9.26797 12.3589 9.91755 12.3616 10.5712C12.3713 11.6308 12.1176 12.8386 12.5621 13.8546C12.721 14.2159 12.9011 14.5655 13.029 14.9249C13.3883 15.9322 13.3573 17.0547 13.4416 18.0824C13.4629 18.2829 13.4736 18.4843 13.4842 18.6858C13.6159 19.1995 13.7008 19.724 13.738 20.2529C13.7593 20.4438 13.7806 20.6452 13.7593 20.8467C13.7273 21.2496 13.7699 21.6622 13.7176 22.0651C13.6014 22.8913 13.4736 23.6855 13.5375 24.5117C13.368 24.0458 13.2827 23.5693 13.1452 23.1025C12.9011 22.2986 12.4672 21.5034 12.0963 20.7614C12.0545 20.687 12.0188 20.6092 11.9897 20.529C11.9268 20.3914 11.8735 20.2423 11.8212 20.1048C11.7657 19.9512 11.7057 19.7994 11.641 19.6495C11.3553 18.8873 11.1112 18.1027 10.8468 17.3405C10.7829 17.1603 10.7199 16.9802 10.6453 16.8C10.5633 16.6133 10.4748 16.4295 10.38 16.2489C10.285 16.0804 10.1795 15.9002 10.0729 15.7307C9.95669 15.5506 9.84047 15.3704 9.72424 15.1786C9.65088 15.0628 9.58364 14.9431 9.52278 14.8203C9.44764 14.6915 9.37657 14.5603 9.30969 14.427C9.25739 14.3215 9.21477 14.2159 9.16247 14.1093C9.1092 13.9834 9.04624 13.8556 8.99297 13.7287C8.9397 13.6125 8.89708 13.4953 8.84478 13.3684L8.71693 13.0178L8.67528 12.8802C8.59005 12.6478 8.51644 12.4037 8.4312 12.1703C8.34694 11.9378 8.25105 11.6937 8.17744 11.4603C8.11538 11.2622 8.05178 11.0646 7.98663 10.8675C7.6796 9.88252 7.38225 8.87618 6.90571 7.94345C6.86265 7.85191 6.81313 7.76355 6.75752 7.67903C6.70488 7.58502 6.64833 7.49325 6.58802 7.40396C6.53163 7.31307 6.47153 7.22453 6.40787 7.13857C6.34491 7.05431 6.27033 6.96908 6.19672 6.88481C6.15411 6.83154 6.11149 6.77827 6.05822 6.73662C6.05822 6.73662 6.05822 6.72597 6.04853 6.72597C6.04853 6.72597 6.09018 6.77827 6.10084 6.79958C6.16476 6.88481 6.21706 6.97973 6.28099 7.07562C6.34491 7.17054 6.38753 7.26546 6.45049 7.36134C6.55703 7.5415 6.65195 7.72165 6.74687 7.9018C6.78949 7.98607 6.8321 8.08099 6.87472 8.16622C6.92702 8.26114 6.96964 8.36768 7.01226 8.4626C7.0539 8.55849 7.08587 8.65341 7.1188 8.74833C7.16045 8.85487 7.19241 8.94979 7.23503 9.05633C7.26602 9.16191 7.30864 9.25683 7.3406 9.36337C7.37256 9.44763 7.40356 9.54352 7.43552 9.62779L7.53141 9.91351C7.5624 10.0201 7.59436 10.115 7.62633 10.2109C7.65829 10.3058 7.70091 10.4123 7.73287 10.5072C7.76386 10.6022 7.79583 10.7087 7.81713 10.8036C7.8704 11.0051 7.93336 11.1959 7.98663 11.3974C8.11351 11.7993 8.25105 12.2129 8.3789 12.6148L8.56874 13.2192C8.63266 13.41 8.70724 13.5999 8.78182 13.7907C8.85544 13.9815 8.9397 14.1829 9.02397 14.3738C9.1092 14.5646 9.20509 14.7341 9.30001 14.9142C9.73392 15.7084 10.2318 16.4077 10.5601 17.2543C10.8894 18.1124 11.1432 18.9919 11.4928 19.8394C11.8105 20.6239 12.2028 21.3755 12.5524 22.1484C12.8595 22.8477 13.0493 23.5683 13.2934 24.289C13.3147 24.3732 13.3467 24.4468 13.3786 24.5214L13.399 24.5737C13.3147 24.3732 12.9864 24.1611 12.8275 23.9809C12.6048 23.7165 12.4033 23.4405 12.1921 23.1654C11.7925 22.6298 11.3719 22.1102 10.9311 21.608C10.5708 21.206 10.2221 20.7924 9.85112 20.4011C9.27967 19.8287 8.70724 19.2563 8.12417 18.6848C7.54206 18.1134 6.93768 17.541 6.53572 16.8417C5.88872 15.7404 5.0635 14.8396 4.21601 13.8866C3.44213 13.0071 2.95494 11.8526 2.75347 10.7513L2.74379 10.7717L2.74282 10.7726Z" fill="white"/>
<path d="M29.2357 11.1326C29.3946 10.4014 29.3626 9.64977 29.6697 8.93981C29.7655 8.73835 29.8827 8.5582 30.03 8.3887C30.1462 8.25117 30.2847 8.13494 30.4116 7.9974C31.6087 6.69468 32.4979 5.15854 32.0533 3.41028C31.7569 2.25575 30.9627 1.14384 29.7336 0.635339C28.1761 -0.0106935 26.1954 0.444532 24.8714 1.33464C24.6389 1.49349 24.4055 1.65233 24.204 1.83249C23.9016 2.11104 23.6284 2.41967 23.3885 2.75359C22.9972 3.31536 22.7212 3.92943 22.4354 4.53381C22.2659 4.8825 22.0964 5.23215 21.895 5.56049C21.217 6.64141 20.4121 7.55186 19.9985 8.75966C19.7887 9.3783 19.6712 10.0245 19.6499 10.6774C19.6072 11.7361 19.83 12.9545 19.3632 13.9512C19.1937 14.2999 19.0145 14.6485 18.876 15.0098C18.4953 16.0055 18.4953 17.1281 18.3781 18.1557L18.3152 18.7591C18.1683 19.268 18.0688 19.7894 18.0178 20.3166C17.9965 20.5074 17.9655 20.7088 17.9762 20.9093C17.9965 21.3123 17.9442 21.7142 17.9762 22.1278C18.0604 22.954 18.167 23.7482 18.0924 24.585C18.2726 24.1298 18.3781 23.6533 18.5263 23.1874C18.7917 22.3932 19.2469 21.6086 19.6392 20.8774C19.6808 20.8038 19.7128 20.7292 19.7554 20.6546C19.8193 20.518 19.8823 20.3795 19.9356 20.242C19.9995 20.0938 20.0625 19.935 20.1264 19.7868C20.4334 19.0352 20.6978 18.2613 20.9845 17.499C21.0497 17.3153 21.1241 17.1349 21.2073 16.9586C21.2916 16.7784 21.3865 16.5983 21.4921 16.4181L21.8107 15.9096C21.9269 15.7295 22.0538 15.5503 22.1701 15.3701C22.2446 15.2539 22.3192 15.1367 22.3831 15.0205C22.4568 14.8926 22.5304 14.7657 22.6049 14.6282C22.6582 14.5217 22.7115 14.4267 22.7638 14.3212C22.8277 14.1943 22.88 14.0771 22.9439 13.9502L23.1028 13.6015C23.1551 13.4843 23.1977 13.3681 23.2403 13.2509L23.2936 13.1134C23.3779 12.8809 23.4631 12.6475 23.558 12.4141C23.6539 12.1816 23.7488 11.9491 23.8331 11.7051C23.9077 11.5143 23.9716 11.3128 24.0462 11.1113C24.3852 10.1263 24.7019 9.14128 25.2104 8.2192C25.2637 8.13494 25.3063 8.04002 25.3692 7.95478C25.4225 7.85987 25.4855 7.77463 25.5387 7.69037C25.6505 7.50738 25.786 7.33998 25.9416 7.19252C25.9843 7.13925 26.0366 7.08598 26.0792 7.04433L26.0889 7.03368C26.0889 7.03368 26.0472 7.08598 26.0259 7.10729C25.963 7.19252 25.9 7.28744 25.8351 7.37268C25.7722 7.4676 25.7189 7.56252 25.6666 7.64775C25.56 7.8279 25.4535 7.99643 25.3586 8.17755C25.3169 8.26182 25.2637 8.34705 25.221 8.44197C25.1678 8.53786 25.1261 8.64343 25.0728 8.73835C25.0302 8.83424 24.9992 8.92916 24.9566 9.01439C24.914 9.11997 24.8714 9.21489 24.8297 9.32143C24.7871 9.41635 24.7552 9.52289 24.7135 9.61781C24.6806 9.70304 24.6389 9.79796 24.607 9.8832C24.575 9.97812 24.5324 10.073 24.5004 10.1689C24.4694 10.2638 24.4268 10.3704 24.3949 10.4653C24.3522 10.5602 24.3203 10.6668 24.2883 10.7617C24.2573 10.8576 24.2254 10.9631 24.1934 11.0581C24.1304 11.2595 24.0665 11.4503 24.0026 11.6518C23.865 12.0538 23.7169 12.4567 23.5793 12.8596C23.5047 13.0601 23.4418 13.2616 23.3672 13.4524L23.1444 14.0238C23.0602 14.2156 22.9759 14.4054 22.88 14.5962C22.7894 14.7808 22.6905 14.9611 22.5836 15.1367C22.1284 15.9096 21.6093 16.6089 21.2596 17.4458C20.91 18.2932 20.6242 19.162 20.2639 20.0095C19.9249 20.7825 19.5113 21.5244 19.1404 22.2973C18.813 22.985 18.6009 23.7056 18.3462 24.4155C18.3164 24.4938 18.2848 24.5713 18.2512 24.648L18.2299 24.7013C18.3258 24.5008 18.6542 24.2993 18.8237 24.1192C19.0561 23.8654 19.2682 23.5894 19.4804 23.3143C19.9036 22.7951 20.3172 22.276 20.7831 21.7888C21.154 21.3965 21.5134 20.9946 21.895 20.6023C22.4781 20.0405 23.0708 19.4904 23.6636 18.9393C24.2573 18.3775 24.8714 17.8274 25.3063 17.1377C25.9843 16.0578 26.8318 15.1793 27.6996 14.2466C28.4938 13.3884 29.013 12.2552 29.2464 11.154L29.2357 11.1326ZM12.774 24.1831C13.6222 26.6212 14.2289 29.1367 14.5852 31.6933V31.7776C14.9562 31.7147 15.2419 31.704 15.3794 31.704H15.6545C15.6342 31.3437 15.5596 30.4642 15.4317 29.9664C15.2206 29.1295 15.0085 28.2714 14.7867 27.4772C14.4317 26.2029 14.0108 24.9479 13.5256 23.7172C13.484 23.6107 13.4413 23.5157 13.3997 23.4092H12.4883C12.5725 23.6426 12.6675 23.8964 12.774 24.1937V24.1831Z" fill="white"/>
<path d="M14.5962 31.8848C14.5962 31.8848 14.5536 31.8848 14.5323 31.8635C14.512 31.8422 14.4907 31.8209 14.4907 31.7889V31.7143C14.0958 28.886 13.396 26.1088 12.4034 23.4311C12.3937 23.3992 12.4034 23.3575 12.4141 23.3246C12.4354 23.2936 12.4673 23.283 12.5099 23.283H13.4204C13.4204 23.283 13.5056 23.3256 13.5163 23.3682C13.5366 23.4098 13.5579 23.4631 13.5792 23.5057C13.6005 23.558 13.6219 23.6123 13.6538 23.6646C14.141 24.8927 14.5643 26.1635 14.9139 27.4352C15.126 28.2091 15.3382 29.0459 15.5396 29.8401L15.56 29.9244C15.6878 30.4223 15.7508 31.2378 15.7827 31.6833C15.7827 31.7143 15.7827 31.7463 15.7508 31.7676C15.7278 31.7887 15.6977 31.8001 15.6665 31.7996H15.3905C15.2849 31.7996 14.9992 31.7996 14.6175 31.8732H14.5962V31.8848ZM12.8799 24.1518C13.7269 26.5865 14.3335 29.0984 14.6912 31.6514C15.0302 31.5981 15.2849 31.5874 15.3905 31.5874H15.5493C15.5183 31.1855 15.4544 30.4329 15.3382 29.9883L15.3168 29.9031C15.1174 29.0995 14.9092 28.2981 14.6921 27.4991C14.342 26.2265 13.921 24.9745 13.431 23.7488L13.3671 23.59C13.3574 23.5687 13.3468 23.5377 13.3361 23.5164H12.6581C12.7317 23.7072 12.8063 23.9183 12.8906 24.1624L12.8799 24.1518Z" fill="white"/>
<path d="M18.1981 23.4636C18.1555 23.5595 18.1032 23.6651 18.0606 23.76C17.5407 24.9785 17.0846 26.2232 16.6939 27.489C16.4498 28.2832 16.2174 29.1307 15.9733 29.9685C15.8358 30.4654 15.7409 31.3439 15.6982 31.7051H15.9733C16.1109 31.7051 16.3975 31.7371 16.7675 31.8107V31.7265C17.191 29.1802 17.8652 26.6821 18.7802 24.2685C18.8964 23.9721 18.9933 23.7184 19.0882 23.4743H18.1778L18.1981 23.4636Z" fill="white"/>
<path d="M16.7783 31.917H16.758C16.5031 31.8637 16.2443 31.8316 15.9841 31.8211H15.709C15.709 31.8211 15.6451 31.7998 15.6238 31.7785C15.6031 31.7554 15.592 31.7253 15.5928 31.6943C15.6238 31.334 15.7187 30.4448 15.8679 29.9353L15.8892 29.8511C16.112 29.0569 16.3444 28.2307 16.5769 27.4568C16.9679 26.1878 17.4244 24.9399 17.9445 23.7181C17.9648 23.6649 17.9968 23.6116 18.0181 23.5486C18.0394 23.506 18.0607 23.4634 18.082 23.4111C18.1033 23.3685 18.1343 23.3472 18.1886 23.3472H19.099C19.099 23.3472 19.1726 23.3791 19.1833 23.4111C19.2046 23.4421 19.2046 23.474 19.1939 23.5167C19.099 23.7607 19.0031 24.0145 18.8869 24.3109C17.9731 26.7168 17.3024 29.2081 16.8849 31.7475V31.8318C16.8849 31.8318 16.8529 31.8851 16.8316 31.9064C16.8124 31.9178 16.7909 31.9247 16.7687 31.9267L16.7783 31.917ZM15.8359 31.5993H15.9948C16.1013 31.5993 16.3551 31.6197 16.6941 31.6836C17.1204 29.1418 17.7945 26.6478 18.7068 24.2373C18.8017 23.9932 18.8763 23.7917 18.9605 23.5903H18.2825L18.2515 23.6542C18.2515 23.6542 18.1983 23.7607 18.1769 23.813C17.656 25.0262 17.2033 26.2676 16.821 27.5314C16.5885 28.2936 16.356 29.1198 16.1333 29.914L16.111 29.9993C15.9851 30.4448 15.8999 31.1964 15.8572 31.5984L15.8359 31.5993Z" fill="white"/>
</g>
</svg>
