<svg width="135" height="36" viewBox="0 0 135 36" fill="none" xmlns="http://www.w3.org/2000/svg">
<g clip-path="url(#clip0_305_2609)">
<path d="M39.7382 1.02737C31.9718 1.08316 25.6191 9.75484 25.6191 17.3186C25.6191 25.2781 30.2759 34.9875 39.7382 34.956C49.2004 34.9244 54.1117 24.4715 54.1117 17.3186C54.1117 9.41758 47.5046 0.971593 39.7382 1.02737ZM39.7382 1.32405C46.2383 1.32405 47.992 8.5362 47.992 17.3186C47.992 28.9067 45.8766 34.6237 39.7382 34.6128C33.5997 34.6019 31.6028 29.9228 31.6028 17.3186C31.6028 9.423 33.238 1.32405 39.7382 1.32405Z" fill="white"/>
<path d="M56.6764 17.5323C56.6416 8.92598 63.4979 1.30244 69.3019 0.924204C71.3984 0.77499 74.0932 1.73948 75.6665 2.42655C76.8089 2.92546 79.141 2.2033 79.5552 0.878418H79.781V12.6018H79.5552C79.5552 12.1021 77.3941 1.21895 69.3019 1.21895C63.3248 1.21895 62.7473 11.7776 62.7473 17.5323C62.7473 23.287 62.9215 34.6794 69.8965 34.6794C73.2754 34.6794 75.7765 33.1942 76.4249 30.1897V21.0542H73.5887V20.665H84.5822V21.0542H81.8707V34.4103H81.6499C81.6499 34.4103 81.2091 32.4832 78.9722 32.4896C76.1133 32.4978 73.4171 34.9932 70.1304 34.9628C61.4385 34.8825 56.7112 26.1386 56.6764 17.5323Z" fill="white"/>
<path d="M4.29754 2.18197H0.874512V1.79541H12.8656V2.18197H9.8573L18.4252 25.5574C21.1044 17.2708 23.18 11.1453 25.9731 2.18197H22.9976V1.79541H29.3289V2.18197H26.4457L16.0323 34.7952L4.29754 2.18197Z" fill="white"/>
<path d="M86.2606 26.8106L86.2064 2.14439H82.9482V1.7749H94.9522V2.14439H91.6958L91.7682 29.1896C92.489 32.2865 93.7707 34.6363 98.1493 34.6713C102.528 34.7063 105.505 32.0691 106.611 28.465V2.14439H102.884L102.884 1.78579H133.391L133.454 13.6266H133.161C132.595 5.98141 129.659 3.0921 124.523 2.24918C122.756 1.95913 120.903 2.17415 118.559 2.15585V17.2678C120.6 17.4262 122.774 17.2966 124.239 16.0326C125.571 14.8831 125.947 12.2273 126.045 11.1484H126.303V24.3062H126.024C125.943 24.3062 125.836 21.0043 124.239 19.4378C122.63 17.861 120.583 17.4733 118.559 17.849V33.9919C121.418 33.9919 123.696 34.2351 125.675 33.6901C131.69 32.0334 133.807 26.9354 133.791 21.8223H134.125V34.374H110.197V33.9919H112.902V2.14439H107.056V28.465C106.394 30.9834 103.972 35.1497 97.7663 35.1213C91.9961 35.0948 86.2731 32.4814 86.2606 26.8106Z" fill="white"/>
</g>
<defs>
<clipPath id="clip0_305_2609">
<rect width="135" height="36" fill="white"/>
</clipPath>
</defs>
</svg>
