<svg width="12" height="13" viewBox="0 0 12 13" fill="none" xmlns="http://www.w3.org/2000/svg">
<g clip-path="url(#clip0_603_2892)">
<path d="M11.5 2.73386V7.53141C11.5 10.4101 8.1313 12.5209 6.00044 13C3.8687 12.5209 0.5 10.4101 0.5 7.53141V2.73386L6.00044 0L11.5 2.73386Z" fill="white"/>
<path d="M5.41006 9.69457C5.30308 9.69457 5.19963 9.65617 5.11917 9.58637L2.78584 7.57153C2.60193 7.41272 2.58336 7.13698 2.74428 6.95547C2.9052 6.77397 3.1846 6.75565 3.36851 6.91446L5.35171 8.6265L9.04932 3.99823C9.20051 3.80888 9.47814 3.77659 9.67001 3.92581C9.86187 4.07502 9.89459 4.34902 9.7434 4.53837L5.75754 9.52703C5.68239 9.62127 5.57187 9.68061 5.45073 9.69108C5.43747 9.69195 5.42332 9.69282 5.41006 9.69282V9.69457Z" fill="black"/>
</g>
<defs>
<clipPath id="clip0_603_2892">
<rect width="11" height="13" fill="white" transform="translate(0.5)"/>
</clipPath>
</defs>
</svg>
