<?xml version="1.0" encoding="utf-8"?>
<!-- Generator: Adobe Illustrator 27.8.1, SVG Export Plug-In . SVG Version: 6.00 Build 0)  -->
<svg version="1.1" id="Layer_1" xmlns="http://www.w3.org/2000/svg" xmlns:xlink="http://www.w3.org/1999/xlink" x="0px" y="0px"
	 viewBox="0 0 90 30" style="enable-background:new 0 0 90 30;" xml:space="preserve">
<style type="text/css">
	.st0{fill:#FFFFFF;}
</style>
<path class="st0" d="M21.28,8.04l4.77,7.88v5.95h4.77v-5.95l4.64-7.88h-5.59l-1.27,3.62c0,0-0.07,0.38-0.24,0L26.8,8.04H21.28z
	 M40.13,8.04v13.83h8.93v-4.33h-4.24V8.04H40.13z M60.08,22.02c-4.13,0-7.49-3.13-7.49-7s3.36-7,7.49-7s7.49,3.13,7.49,7
	S64.22,22.02,60.08,22.02z M57.48,15.02c0,1.54,1.17,2.78,2.6,2.78s2.6-1.25,2.6-2.78c0-1.54-1.17-2.78-2.6-2.78
	S57.48,13.49,57.48,15.02z M8,14.81l4.18,7.11h4.64V8.1h-4.64v7.16L8,8.1H3.39v13.83H8V14.81z M77.12,14.71l4.18,7.11h4.64V7.99
	h-4.64v7.16l-4.18-7.17h-4.62v13.83h4.62V14.71L77.12,14.71z"/>
</svg>
