<?xml version="1.0" encoding="utf-8"?>
<!-- Generator: Adobe Illustrator 27.8.1, SVG Export Plug-In . SVG Version: 6.00 Build 0)  -->
<svg version="1.1" id="Layer_1" xmlns="http://www.w3.org/2000/svg" xmlns:xlink="http://www.w3.org/1999/xlink" x="0px" y="0px"
	 viewBox="0 0 90 30" style="enable-background:new 0 0 90 30;" xml:space="preserve">
<style type="text/css">
	.st0{fill-rule:evenodd;clip-rule:evenodd;fill:#FFFFFF;}
</style>
<g id="Page-1" transform="matrix(13.466788,0,0,13.466788,20,20)">
	<g id="logo">
		<g id="Group">
			<path id="Shape" class="st0" d="M-0.09,0.43h-0.12v0.02h0.69V0.01H0.46c0,0,0,0.25-0.08,0.33C0.3,0.42,0.23,0.42,0.11,0.42v-0.8
				c0,0,0.08-0.01,0.12,0.04C0.3-0.28,0.3-0.2,0.3-0.08h0.02V-0.7H0.3c0,0.11-0.01,0.2-0.07,0.26C0.19-0.4,0.11-0.4,0.11-0.4v-0.76
				c0.12,0,0.18,0.01,0.25,0.08c0.08,0.08,0.08,0.33,0.08,0.33h0.02l0-0.43h-0.67v0.02h0.12V0.43L-0.09,0.43z"/>
			<path id="path14" class="st0" d="M1.26-1.16v1.59c0.12,0,0.2-0.01,0.27-0.08c0.08-0.08,0.08-0.33,0.08-0.33h0.02v0.44H0.94V0.43
				h0.12v-1.59H0.94v-0.02h0.43v0.02L1.26-1.16L1.26-1.16L1.26-1.16z"/>
			<path id="path16" class="st0" d="M2.37-1.16v1.59c0.12,0,0.2-0.01,0.27-0.08c0.08-0.08,0.08-0.33,0.08-0.33h0.02v0.44H2.05V0.43
				h0.12v-1.59H2.05v-0.02h0.43v0.02L2.37-1.16L2.37-1.16L2.37-1.16z"/>
			<path id="path18" class="st0" d="M3.31,0.43H3.19v0.02h0.69V0.01H3.85c0,0,0,0.25-0.08,0.33C3.7,0.42,3.63,0.42,3.51,0.42v-0.8
				c0,0,0.08-0.01,0.12,0.04C3.69-0.28,3.7-0.2,3.7-0.08h0.02V-0.7H3.7c0,0.11-0.01,0.2-0.07,0.26C3.59-0.4,3.51-0.4,3.51-0.4v-0.76
				c0.12,0,0.18,0.01,0.25,0.08c0.08,0.08,0.08,0.33,0.08,0.33h0.02v-0.43H3.19v0.02h0.12L3.31,0.43L3.31,0.43L3.31,0.43L3.31,0.43z
				"/>
		</g>
	</g>
</g>
</svg>
