<?xml version="1.0" encoding="utf-8"?>
<!-- Generator: Adobe Illustrator 27.8.1, SVG Export Plug-In . SVG Version: 6.00 Build 0)  -->
<svg version="1.1" id="Layer_1" xmlns="http://www.w3.org/2000/svg" xmlns:xlink="http://www.w3.org/1999/xlink" x="0px" y="0px"
	 viewBox="0 0 90 30" style="enable-background:new 0 0 90 30;" xml:space="preserve">
<style type="text/css">
	.st0{fill:#FFFFFF;}
</style>
<path vector-effect="non-scaling-stroke" class="st0" d="M80.53,20.68c-3.49,3.8-7.99,2.17-8.21-3.28h8.38
	c0.3-2.37-0.67-7.19-5.48-7.19c-3.98,0-6.47,3.23-6.47,7.08c0,4.14,2.83,7.32,6.57,7.32c2.11,0,4.51-1.5,5.58-3.47L80.53,20.68z
	 M74.9,11.52c1.36,0,2.2,1.71,2.3,4.7h-4.86C72.49,13.49,73.53,11.52,74.9,11.52z M20.7,14.61v-0.06c2.11-0.59,3.79-2.2,3.79-4.46
	c0-2.56-2.14-4.46-6.15-4.46h-8.23v0.85c1.63,0.13,1.82,0.21,1.82,1.12v14.8c0,0.89-0.19,0.96-1.84,1.07v0.85h9.03
	c4,0,6.17-1.97,6.17-4.8C25.29,17.36,24.03,15.33,20.7,14.61z M15.8,6.76h1.84c2.11,0,2.92,1.58,2.92,3.58
	c0,2.22-0.99,3.68-3.13,3.68L15.8,14V6.76z M21.17,19.53c0,1.9-0.61,3.72-3.23,3.72H15.8V15.3h1.71
	C20.08,15.28,21.21,16.94,21.17,19.53z M44.9,12.9c0-1.31,1.2-2.03,2.35-2.03c1.36,0,2.77,0.99,3.1,3.05h0.89L51,10.44
	c-1.14-0.51-2.83-0.83-4.27-0.83c-3.34,0-5.08,1.65-5.08,3.82c0,4.97,6.98,5.05,6.98,7.99c0,1.31-1.2,1.95-2.45,1.95
	c-1.46,0-3.26-0.89-3.82-4h-0.83l0.32,4.3c1.1,0.53,2.88,0.93,4.59,0.93c3.42,0,5.56-1.58,5.56-4.08
	C51.98,15.94,44.9,15.87,44.9,12.9z M39.32,21.37V10h-0.42l-5.35,1.18v0.78c1.86,0.13,2.05,0.21,2.05,1.23v7.67
	c-0.67,0.61-2.03,1.33-3.23,1.33c-1.23,0-1.5-0.74-1.5-1.95V10.01h-0.41l-4.8,1.18v0.74c1.33,0.13,1.52,0.21,1.52,1.25v7.45
	c0,2.92,1.65,3.98,3.49,3.98c2.14,0,3.95-1.44,4.95-2.77h0.13v2.73h0.45l4.44-1.12l-0.11-0.72C39.8,22.79,39.32,22.28,39.32,21.37z
	 M59.24,22.87c-0.96,0-1.44-0.78-1.44-2.33v-8.73h3.23v-1.36H57.8V6.42h-0.96c-0.34,1.55-1.58,3.85-4.57,4.4v1.02h1.82v9.6
	c0,2.24,1.18,3.17,3.39,3.17c1.55,0,2.62-0.45,3.74-2.09l-0.57-0.59C60.15,22.54,59.78,22.87,59.24,22.87z M66.86,22.47V5.39h-0.42
	l-5.35,1.18v0.78c1.86,0.13,2.05,0.21,2.05,1.23v13.89c0,0.89-0.19,0.96-1.31,1.1v0.78h6.3v-0.79
	C67.04,23.43,66.86,23.34,66.86,22.47z"/>
</svg>
