<?xml version="1.0" encoding="utf-8"?>
<!-- Generator: Adobe Illustrator 27.8.1, SVG Export Plug-In . SVG Version: 6.00 Build 0)  -->
<svg version="1.1" id="Layer_1" xmlns="http://www.w3.org/2000/svg" xmlns:xlink="http://www.w3.org/1999/xlink" x="0px" y="0px"
	 viewBox="0 0 90 30" style="enable-background:new 0 0 90 30;" xml:space="preserve">
<style type="text/css">
	.st0{fill:#FFFFFF;}
</style>
<path id="path3140" class="st0" d="M10.96,25.42c-0.14-0.06-0.39-0.21-0.57-0.32c-0.51-0.32-0.66-0.38-0.98-0.42
	c-0.36-0.04-0.49-0.12-0.8-0.52c-0.11-0.14-0.32-0.35-0.47-0.47c-0.58-0.46-0.7-0.71-0.76-1.55c-0.02-0.3-0.06-0.76-0.08-1.01
	l-0.05-0.46l0.13-0.36c0.32-0.85,0.67-1.41,1.15-1.86c0.4-0.38,0.76-0.57,0.98-0.53c0.14,0.02,0.17,0.01,0.35-0.16
	c0.28-0.26,0.38-0.3,0.98-0.4c0.29-0.05,0.68-0.13,0.86-0.18c0.18-0.05,0.46-0.11,0.61-0.13c0.16-0.02,0.38-0.06,0.49-0.11
	c0.14-0.05,0.31-0.08,0.54-0.08c0.41,0,0.65-0.09,1.26-0.44L15,16.2l0.4,0.01c0.45,0.01,0.58-0.02,0.66-0.18
	c0.15-0.3,0.27-1.39,0.19-1.83c-0.05-0.3-0.2-0.67-0.3-0.75c-0.04-0.03-0.27-0.08-0.53-0.11c-0.33-0.04-0.52-0.09-0.67-0.16
	c-0.25-0.13-0.43-0.13-0.84-0.02c-0.4,0.11-0.47,0.1-0.69-0.04c-0.15-0.1-0.22-0.12-0.43-0.12c-0.14,0-0.36-0.03-0.49-0.06
	c-0.32-0.08-0.54-0.08-0.84,0.02c-0.3,0.1-0.5,0.28-0.5,0.45c0,0.07,0.08,0.26,0.19,0.45l0.19,0.33l-0.02,0.4
	c-0.03,0.48-0.18,0.99-0.36,1.22c-0.29,0.37-0.56,0.45-1.08,0.34c-0.26-0.06-0.36-0.06-0.56-0.03c-0.2,0.04-0.27,0.03-0.43-0.03
	c-0.28-0.1-0.63-0.35-0.79-0.55c-0.24-0.31-0.41-0.99-0.41-1.67c0-0.99,0.34-1.63,1.07-2.03c0.21-0.11,0.42-0.28,0.71-0.57
	c0.23-0.23,0.49-0.46,0.59-0.52s0.29-0.19,0.42-0.29l0.25-0.18l0.64,0.01c0.51,0.01,0.69,0,0.88-0.06c0.13-0.04,0.5-0.1,0.8-0.13
	c0.52-0.05,0.57-0.06,0.8-0.2c0.27-0.17,0.36-0.18,0.7-0.09c0.13,0.03,0.46,0.09,0.74,0.12c0.63,0.08,0.72,0.1,1.01,0.28
	c0.13,0.08,0.41,0.21,0.62,0.29c0.37,0.15,0.4,0.17,0.82,0.59c0.54,0.55,0.81,0.9,1.04,1.37c0.26,0.53,0.35,0.86,0.41,1.53
	c0.03,0.33,0.09,0.68,0.12,0.79c0.06,0.16,0.06,0.23,0.02,0.38c-0.06,0.23-0.06,0.44,0,0.79c0.04,0.23,0.04,0.38-0.02,0.85
	c-0.04,0.31-0.09,0.93-0.11,1.37c-0.02,0.44-0.06,0.87-0.09,0.96c-0.08,0.3-0.08,0.66-0.01,0.89c0.09,0.32,0.08,0.5-0.06,0.84
	c-0.07,0.18-0.12,0.38-0.12,0.5c0,0.29,0.33,1.1,0.47,1.15c0.04,0.01,0.14,0.03,0.23,0.03c0.15,0,0.17-0.02,0.36-0.28
	c0.23-0.32,0.39-0.41,0.67-0.41c0.33,0,1.75,0.16,2.23,0.25c0.52,0.1,0.56,0.09,0.67-0.14c0.11-0.22,0.15-0.45,0.3-1.77
	c0.18-1.55,0.18-1.62,0.06-1.79c-0.09-0.12-0.09-0.15-0.07-0.66c0.01-0.29,0.05-0.8,0.07-1.13c0.05-0.64,0.03-1.26-0.07-1.9
	c-0.09-0.59-0.08-0.97,0.02-1.37c0.14-0.53,0.13-0.59-0.11-0.98c-0.26-0.42-0.27-0.55-0.09-1.09c0.13-0.39,0.14-0.46,0.02-0.88
	l-0.08-0.27l0.1-0.2c0.12-0.26,0.1-0.39-0.15-0.97c-0.11-0.25-0.23-0.55-0.27-0.67c-0.12-0.38-0.22-0.44-0.51-0.29
	c-0.22,0.11-0.39,0.1-0.69-0.04c-0.3-0.14-0.36-0.15-0.49-0.06c-0.14,0.1-0.38,0.14-0.53,0.1c-0.07-0.02-0.22-0.11-0.33-0.2
	c-0.11-0.09-0.38-0.26-0.6-0.38c-0.47-0.26-0.76-0.54-0.93-0.89c-0.25-0.52-0.14-1.13,0.33-1.81c0.32-0.47,0.63-0.79,0.91-0.93
	c0.32-0.16,0.51-0.16,0.97,0c0.6,0.21,0.89,0.26,2.07,0.33c0.4,0.02,0.86,0.07,1.02,0.1c0.38,0.08,0.43,0.08,0.76-0.03l0.28-0.09
	l0.3,0.15c0.44,0.22,0.52,0.32,0.59,0.73c0.12,0.68,0.47,1.86,0.67,2.24c0.17,0.32,0.16,0.61-0.03,1.14
	c-0.22,0.61-0.22,0.6-0.26,1.37c-0.04,0.69-0.04,0.74-0.17,1.04l-0.13,0.32v1.66v1.66l0.18,0.45l0.18,0.45l-0.15,0.45
	c-0.08,0.25-0.15,0.52-0.15,0.61c0,0.09,0.06,0.34,0.13,0.57c0.13,0.41,0.13,0.41,0.08,0.82c-0.07,0.53-0.06,0.65,0.04,0.97
	c0.11,0.33,0.11,0.47,0,0.97c-0.06,0.3-0.09,0.56-0.09,1.06c-0.01,0.72,0.04,1.03,0.21,1.34c0.12,0.22,0.13,0.22,0.78,0.39
	c0.42,0.1,0.48,0.11,0.65,0.06c0.11-0.03,0.34-0.15,0.52-0.27c0.61-0.4,0.56-0.39,1.84-0.32c0.7,0.04,1.6,0.07,1.76,0.05
	c0.13-0.01,0.3-0.74,0.42-1.73c0.05-0.4,0.13-0.95,0.19-1.22c0.11-0.53,0.11-0.56-0.07-0.79c-0.09-0.11-0.09-0.12-0.04-0.8
	c0.07-0.98,0.06-2.28-0.02-3.02l-0.07-0.62l0.11-0.49c0.15-0.67,0.14-0.72-0.08-1.08c-0.24-0.38-0.27-0.57-0.13-0.97
	c0.11-0.33,0.12-0.69,0.04-1.07c-0.05-0.24-0.05-0.26,0.03-0.4c0.13-0.21,0.11-0.38-0.08-0.83c-0.09-0.22-0.23-0.56-0.31-0.76
	c-0.17-0.45-0.24-0.55-0.35-0.55c-0.05,0-0.16,0.05-0.24,0.11l-0.15,0.11l-0.33-0.07c-0.18-0.04-0.43-0.07-0.55-0.07
	c-0.22,0-0.23-0.01-0.34-0.18C30.35,7.29,30.33,7.27,30,7.23c-0.22-0.03-0.34-0.07-0.48-0.17c-0.25-0.17-0.46-0.43-0.59-0.7
	c-0.15-0.31-0.15-0.86-0.01-1.31c0.13-0.43,0.42-0.97,0.64-1.2c0.19-0.19,0.54-0.39,0.7-0.39c0.05,0,0.28,0.07,0.52,0.16
	c0.24,0.09,0.54,0.17,0.67,0.19c0.13,0.01,0.35,0.06,0.49,0.11C32.15,4,32.24,4.01,32.79,4c0.58-0.01,0.63-0.01,0.89,0.09l0.28,0.11
	l0.36-0.11l0.36-0.11l0.25,0.12c0.32,0.15,0.38,0.21,0.44,0.35c0.02,0.06,0.15,0.56,0.29,1.1c0.2,0.82,0.28,1.05,0.45,1.41
	c0.19,0.4,0.21,0.45,0.19,0.64c-0.01,0.12-0.1,0.41-0.19,0.66c-0.16,0.43-0.17,0.49-0.22,1.19c-0.05,0.65-0.07,0.78-0.18,1.08
	c-0.16,0.42-0.2,0.85-0.2,1.88c0,1.03,0.05,1.58,0.2,2.04c0.2,0.61,0.2,0.8,0.03,1.28l-0.15,0.41l0.15,0.43l0.15,0.43l-0.03,0.62
	c-0.03,0.6-0.03,0.63,0.08,0.93l0.11,0.32l-0.13,0.66c-0.18,0.94-0.21,1.15-0.21,1.51c0,0.3,0.01,0.35,0.17,0.65
	c0.2,0.38,0.23,0.4,0.84,0.55c0.5,0.12,0.65,0.12,1.2-0.04c0.45-0.13,1.16-0.21,1.45-0.17c0.38,0.05,0.65,0.24,0.85,0.6
	c0.19,0.34,0.26,0.7,0.2,0.96c-0.11,0.44-0.5,1.06-0.76,1.21c-0.05,0.03-0.27,0.05-0.56,0.05c-0.37,0-0.56,0.03-0.88,0.11
	l-0.41,0.11l-0.33-0.08c-0.46-0.11-0.85-0.14-1.19-0.09c-0.22,0.03-0.47,0.03-0.98,0c-1.1-0.08-1.45-0.07-1.86,0.04
	c-0.39,0.11-0.4,0.11-0.9-0.08c-0.23-0.09-0.27-0.09-0.57-0.04l-0.33,0.05l-0.25-0.13c-0.14-0.07-0.3-0.13-0.36-0.13
	c-0.06,0-0.2,0.07-0.32,0.15l-0.21,0.15l-0.4-0.01c-0.32-0.01-0.48,0.01-0.83,0.1c-0.41,0.1-0.45,0.1-0.79,0.05
	c-0.21-0.03-0.79-0.05-1.44-0.06c-0.6,0-1.28-0.02-1.51-0.04c-0.41-0.03-0.44-0.03-0.79,0.09l-0.36,0.12l-0.3-0.13
	c-0.28-0.12-0.32-0.13-0.76-0.12c-0.46,0.01-0.47,0.01-0.76-0.13c-0.24-0.12-0.32-0.14-0.46-0.12c-0.25,0.04-0.74,0.18-0.93,0.27
	c-0.13,0.06-0.27,0.08-0.59,0.08c-0.23,0-0.56,0.02-0.73,0.04c-0.69,0.1-1.23-0.1-1.71-0.63c-0.32-0.36-0.58-0.54-0.81-0.58
	c-0.17-0.03-0.26,0.01-0.51,0.21c-0.09,0.08-0.41,0.25-0.7,0.4c-0.29,0.14-0.6,0.32-0.69,0.38c-0.09,0.07-0.2,0.14-0.25,0.17
	c-0.11,0.06-1.07,0.13-1.79,0.13c-0.76,0-1.12,0.05-1.56,0.22c-0.21,0.08-0.44,0.15-0.51,0.15C11.26,25.54,11.09,25.49,10.96,25.42
	L10.96,25.42L10.96,25.42z M12.32,22.95c0.32-0.16,0.45-0.19,1.17-0.22c0.59-0.03,0.7-0.05,0.75-0.11c0.03-0.04,0.18-0.24,0.32-0.44
	c0.36-0.51,0.45-0.59,1.2-1.09c0.56-0.37,0.68-0.47,0.73-0.6c0.07-0.18,0.12-1.38,0.07-1.6c-0.02-0.08-0.09-0.18-0.15-0.22
	c-0.11-0.08-0.11-0.08-0.47,0.01c-0.2,0.05-0.58,0.15-0.85,0.23c-0.42,0.12-0.58,0.15-1.14,0.18c-1.15,0.07-1.5,0.15-2.15,0.47
	c-0.19,0.1-0.55,0.26-0.8,0.37c-0.25,0.1-0.49,0.23-0.54,0.28c-0.13,0.12-0.32,0.54-0.38,0.84c-0.15,0.78,0.21,1.43,0.92,1.64
	c0.17,0.05,0.45,0.15,0.61,0.23C11.95,23.07,12.06,23.08,12.32,22.95L12.32,22.95L12.32,22.95z"/>
<path id="path3142" class="st0" d="M52.09,25.08c-0.22-0.07-0.57-0.14-0.78-0.16c-0.29-0.04-0.51-0.1-0.99-0.29
	c-0.8-0.32-0.79-0.31-0.94-0.52c-0.07-0.1-0.17-0.23-0.22-0.3l-0.1-0.12l-0.17,0.09c-0.09,0.05-0.58,0.36-1.07,0.69l-0.9,0.6
	l-1.11,0.05l-1.11,0.05l-0.25-0.11c-0.21-0.09-0.27-0.11-0.44-0.08c-0.11,0.02-0.35,0.03-0.54,0.04c-0.3,0-0.38-0.01-0.58-0.11
	c-0.81-0.4-2.05-2.24-2.6-3.86C40,20.18,40,20.2,39.98,17.52c-0.01-1.32-0.04-2.66-0.06-2.98c-0.04-0.58-0.15-1.21-0.24-1.45
	c-0.05-0.12-0.05-0.12-0.3-0.09c-0.32,0.03-0.76-0.03-0.96-0.15c-0.47-0.27-0.89-0.71-1.01-1.07c-0.08-0.23-0.09-0.77-0.02-1.32
	c0.05-0.44,0.13-0.59,0.48-0.86c0.48-0.38,0.96-0.45,1.56-0.22c0.36,0.13,0.6,0.16,0.64,0.06c0.02-0.06,0.19-0.13,0.45-0.16
	c0.78-0.12,2.08,0.7,2.48,1.55c0.08,0.18,0.09,0.26,0.09,0.71c0,0.48-0.01,0.54-0.16,0.98c-0.15,0.43-0.16,0.51-0.16,0.92
	c0,0.51,0.05,0.67,0.34,1.17c0.24,0.4,0.25,0.5,0.08,0.82c-0.07,0.14-0.16,0.31-0.19,0.37c-0.08,0.16-0.2,0.65-0.24,0.93
	c-0.02,0.21-0.02,0.25,0.13,0.51l0.16,0.28l0.02,1.64l0.02,1.64l0.16,0.2c0.43,0.53,0.88,0.94,1.16,1.06
	c0.1,0.04,0.35,0.07,0.8,0.09l0.65,0.02l0.3-0.32c0.51-0.54,1.6-1.98,1.96-2.57c0.19-0.31,0.48-1.05,0.59-1.48l0.09-0.36l-0.1-0.35
	c-0.13-0.49-0.14-0.66-0.06-1.23c0.08-0.55,0.07-0.57-0.13-1.2c-0.09-0.29-0.13-0.48-0.12-0.56c0.01-0.06,0.12-0.21,0.23-0.34
	c0.24-0.27,0.3-0.42,0.22-0.61c-0.08-0.2-0.18-0.26-0.51-0.34c-0.17-0.04-0.48-0.14-0.69-0.23c-0.37-0.15-0.41-0.16-0.72-0.14
	c-0.66,0.04-1.15-0.13-1.57-0.54c-0.41-0.41-0.46-0.63-0.22-1.08c0.25-0.49,1.15-1.47,1.52-1.66c0.21-0.11,0.32-0.11,0.79,0
	c0.54,0.12,0.82,0.12,1.08,0l0.21-0.1l0.28,0.1c0.34,0.12,0.42,0.14,1.29,0.22c0.81,0.07,1.07,0.15,1.33,0.41
	c0.19,0.19,0.22,0.29,0.29,0.84c0.02,0.19,0.07,0.5,0.11,0.7c0.08,0.43,0.1,2.23,0.02,3.26c-0.05,0.69-0.11,0.99-0.31,1.52
	c-0.1,0.27-0.12,0.36-0.12,0.8c0,0.38,0.02,0.57,0.09,0.82c0.08,0.28,0.09,0.48,0.11,1.41c0.01,0.66,0.01,1.33-0.02,1.7
	c-0.04,0.59-0.04,0.63,0.03,0.76c0.1,0.18,0.34,0.26,0.93,0.34c0.74,0.1,1.21,0.3,1.41,0.58c0.2,0.28,0.26,1.12,0.1,1.4
	c-0.04,0.06-0.26,0.24-0.5,0.4c-0.24,0.16-0.6,0.42-0.8,0.57c-0.2,0.16-0.4,0.29-0.43,0.29C52.52,25.21,52.31,25.15,52.09,25.08
	L52.09,25.08L52.09,25.08z"/>
<path id="path3144" class="st0" d="M55.58,24.85c-0.54-0.39-0.83-1.02-0.72-1.54c0.14-0.65,0.55-1.01,1.17-1.01
	c0.16,0,0.43,0.02,0.59,0.05c0.27,0.05,0.32,0.05,0.51-0.02c0.28-0.1,0.64-0.34,0.73-0.5c0.1-0.18,0.27-1.03,0.27-1.36
	c0-0.15-0.02-0.43-0.04-0.63c-0.03-0.28-0.03-0.74,0.02-2c0.09-2.19,0.07-4.73-0.04-5.03c-0.1-0.27-0.32-0.47-0.79-0.74
	c-0.62-0.35-0.55-0.34-0.99-0.14c-0.43,0.19-0.61,0.21-0.9,0.1c-0.65-0.26-1.27-0.89-1.48-1.53c-0.05-0.14-0.05-0.23-0.02-0.36
	c0.14-0.61,0.6-1.06,1.29-1.27c0.28-0.09,0.35-0.09,1.61-0.07c1.27,0.01,1.33,0.02,1.49,0.11C58.5,9,58.59,9,58.9,8.89
	c0.49-0.17,1.11-0.1,1.49,0.17c0.2,0.14,0.28,0.31,0.47,0.97c0.16,0.54,0.3,0.81,0.44,0.85c0.21,0.05,0.38-0.05,1.1-0.68
	c0.38-0.34,0.68-0.49,0.94-0.49c0.18,0,0.22-0.02,0.5-0.26c0.51-0.43,1.02-0.64,1.62-0.64c0.21,0,0.39,0.03,0.55,0.08
	c0.13,0.04,0.28,0.08,0.34,0.08c0.05,0,0.17-0.04,0.26-0.08c0.26-0.13,0.36-0.11,0.61,0.15c0.12,0.13,0.5,0.63,0.82,1.12l0.6,0.88
	l0.03,0.39c0.05,0.7,0.11,1.2,0.19,1.67c0.13,0.74,0.04,1.11-0.37,1.48c-0.26,0.23-1.05,0.77-1.4,0.95l-0.23,0.12l-0.36-0.17
	c-0.2-0.09-0.44-0.2-0.55-0.24c-0.43-0.18-0.95-0.72-1.21-1.26c-0.17-0.36-0.18-0.59-0.04-1.15c0.11-0.45,0.12-0.57,0.06-0.72
	c-0.06-0.14-0.14-0.16-0.38-0.09c-0.15,0.04-0.3,0.14-0.54,0.34c-0.18,0.15-0.51,0.43-0.74,0.61c-0.47,0.38-0.61,0.54-0.79,0.89
	c-0.33,0.63-0.48,0.84-0.9,1.28c-0.35,0.37-0.47,0.52-0.61,0.8l-0.17,0.35l0.07,0.46c0.08,0.57,0.08,0.98,0.01,2.14
	c-0.03,0.49-0.07,1.23-0.09,1.64l-0.03,0.74l0.26,0.23c0.35,0.3,0.61,0.49,0.94,0.66l0.27,0.14h1.27h1.27l0.22,0.19
	c0.57,0.49,0.61,1.08,0.1,1.74c-0.25,0.32-0.53,0.44-1.37,0.57c-0.57,0.08-1.04,0.08-1.45-0.02c-0.3-0.07-0.35-0.07-0.44-0.02
	c-0.38,0.21-0.33,0.2-1.41,0.2l-1.02,0l-0.24-0.11c-0.29-0.13-0.41-0.14-0.76-0.03c-0.33,0.1-0.73,0.1-1.15,0.02
	c-0.3-0.06-0.32-0.06-0.66,0.03C55.88,24.99,55.77,24.99,55.58,24.85L55.58,24.85L55.58,24.85z"/>
<path id="path3146" class="st0" d="M75.98,25.18c-0.79-0.05-1.13-0.18-1.55-0.59c-0.33-0.33-0.4-0.36-0.69-0.36
	c-0.69,0-1.4-0.32-2.15-0.97c-0.34-0.29-0.43-0.44-0.55-0.89c-0.14-0.5-0.24-0.73-0.74-1.6c-0.77-1.35-0.84-1.52-1.06-2.61
	c-0.2-1.01-0.21-1.16-0.11-1.55c0.08-0.29,0.09-0.38,0.06-0.88c-0.03-0.67-0.02-0.74,0.39-1.7c0.15-0.36,0.32-0.8,0.37-0.98
	c0.22-0.82,0.43-1.31,0.78-1.78c0.23-0.32,0.39-0.44,0.71-0.58c0.2-0.09,0.24-0.13,0.31-0.28c0.11-0.24,0.29-0.39,1.24-1.04
	l0.8-0.54l0.26,0c0.53,0,1.11-0.08,1.16-0.14c0.03-0.04,0.15-0.1,0.27-0.15c0.2-0.08,0.3-0.09,1.35-0.1l1.13-0.01l0.44,0.23
	c0.24,0.13,0.68,0.32,0.98,0.43c0.95,0.35,1.68,0.75,2.07,1.15c0.15,0.15,0.41,0.37,0.58,0.49c0.38,0.26,0.46,0.37,0.84,1.23
	c0.42,0.94,0.59,1.45,0.6,1.88c0.01,0.31,0.03,0.39,0.18,0.74c0.24,0.54,0.25,0.73,0.08,1.21c-0.07,0.2-0.19,0.52-0.25,0.71
	c-0.07,0.19-0.17,0.42-0.24,0.51c-0.24,0.35-0.61,0.62-1.01,0.76c-0.27,0.09-0.41,0.1-0.87,0.01c-0.39-0.07-0.63-0.06-1.2,0.07
	c-0.45,0.1-0.68,0.1-1.69-0.01c-0.45-0.05-1.03-0.09-1.29-0.09c-0.43-0.01-0.5,0-0.89,0.13l-0.42,0.14l-0.38-0.08
	c-0.36-0.07-0.41-0.07-0.79-0.01c-0.29,0.05-0.53,0.06-0.86,0.04c-0.43-0.02-0.46-0.02-0.7,0.09c-0.14,0.06-0.3,0.17-0.36,0.23
	l-0.11,0.12l0.07,0.4c0.16,0.85,0.38,1.59,0.56,1.93c0.24,0.42,0.47,0.59,1.02,0.74c0.34,0.09,0.44,0.14,0.72,0.38
	c0.26,0.21,0.41,0.28,0.79,0.35c0.4,0.07,0.66,0.15,0.98,0.29l0.23,0.1l0.54-0.15c0.3-0.08,0.65-0.17,0.79-0.19
	c0.41-0.07,0.52-0.12,0.81-0.36c0.35-0.28,0.73-0.72,1.2-1.35c0.47-0.63,0.73-0.94,0.88-1.02c0.1-0.06,0.24-0.07,0.76-0.07
	c0.73,0,0.86,0.03,1.1,0.27c0.49,0.49,0.42,1.5-0.18,2.7c-0.22,0.45-0.41,0.72-0.6,0.86c-0.07,0.06-0.32,0.18-0.54,0.27
	c-0.22,0.09-0.67,0.31-0.98,0.49c-0.74,0.42-1.38,0.73-1.85,0.92c-0.33,0.13-0.41,0.15-0.59,0.13C77.72,25,77.45,25,77.02,25.08
	C76.53,25.18,76.27,25.2,75.98,25.18L75.98,25.18L75.98,25.18z M78.36,15.15c0.36-0.09,0.71-0.19,0.8-0.21
	c0.19-0.05,0.49-0.35,0.63-0.63c0.21-0.44,0.18-1.2-0.07-1.45c-0.29-0.3-1.17-0.78-1.61-0.88c-0.15-0.04-0.41-0.14-0.58-0.23
	c-0.29-0.16-0.32-0.17-0.65-0.17c-0.26,0-0.44,0.03-0.71,0.11c-0.81,0.25-1.26,0.49-1.48,0.8c-0.29,0.4-0.29,0.41-0.66,0.47
	c-0.61,0.11-0.84,0.28-1.14,0.87c-0.12,0.24-0.16,0.37-0.17,0.58c-0.03,0.6,0.24,0.73,1.28,0.6c0.35-0.04,0.41-0.04,0.73,0.04
	c0.39,0.1,0.6,0.11,0.94,0.04c0.26-0.05,0.35-0.03,0.96,0.15C77.11,15.4,77.51,15.38,78.36,15.15L78.36,15.15z"/>
</svg>
