<?xml version="1.0" encoding="utf-8"?>
<!-- Generator: Adobe Illustrator 27.8.1, SVG Export Plug-In . SVG Version: 6.00 Build 0)  -->
<svg version="1.1" id="Layer_1" xmlns="http://www.w3.org/2000/svg" xmlns:xlink="http://www.w3.org/1999/xlink" x="0px" y="0px"
	 viewBox="0 0 90 30" style="enable-background:new 0 0 90 30;" xml:space="preserve">
<style type="text/css">
	.st0{fill:#FFFFFF;}
</style>
<g>
	<g id="g170" transform="matrix(11.759172,0,0,-11.759172,269.70834,464.50948)">
		<path id="path172" class="st0" d="M-21.64,37.45h-0.14l-0.04,0.19c-0.05-0.11-0.12-0.21-0.31-0.21c-0.35,0-0.47,0.32-0.47,0.78
			c0,0.36,0.08,0.82,0.51,0.82c0.37,0,0.43-0.35,0.45-0.52l-0.26-0.05c-0.03,0.17-0.04,0.3-0.18,0.3c-0.08,0-0.12-0.04-0.14-0.11
			c-0.03-0.1-0.04-0.33-0.04-0.45c0-0.37,0.05-0.49,0.18-0.49c0.09,0,0.17,0.04,0.17,0.31h-0.19v0.26h0.47V37.45z"/>
	</g>
	<g id="g174" transform="matrix(11.759172,0,0,-11.759172,285.70905,-20.931443)">
		<path id="path176" class="st0" d="M-22.95-2.28h0.32v-1.26h0.39v-0.29h-0.71V-2.28z"/>
	</g>
	<g id="g180">
		<g id="g186" transform="translate(98.2917,228.8145)">
			<path id="path188" class="st0" d="M-69.25-211.59l0.98-5.02c0.22-1.12,0.33-2.13,0.44-2.89c0.08,1.64,0.22,2.32,0.38,3.06
				l1.01,4.86H-69.25z M-69.53-222.92l-4.18,18.21h3.36l0.71-3.93h3.6l0.74,3.93h3.77l-4.12-18.21
				C-65.65-222.92-69.53-222.92-69.53-222.92z"/>
		</g>
		<g id="g190" transform="translate(116.4864,254.5)">
			<path id="path192" class="st0" d="M-79.42-248.6h5.13l1.39,7.67c0.33,1.69,0.46,3.58,0.57,5.21c0.14-1.99,0.55-4.61,0.76-5.6
				l1.56-7.29h5.02v18.21h-3.58v-10.37c0-1.17,0.03-1.94,0.19-5.51c-0.16,1.17-0.6,4.4-0.79,5.35l-2.21,10.54h-2.35l-2.13-10.7
				c-0.25-1.26-0.52-3.47-0.71-5.19c0.03,1.42,0.11,3.66,0.11,5.08v10.81h-2.98L-79.42-248.6z"/>
		</g>
		<g id="g194" transform="translate(163.2928,247.7536)">
			<path id="path196" class="st0" d="M-105.58-238.88c0.71,0,1.12,0.27,1.42,1.17c0.36,1.09,0.36,3.66,0.36,4.78
				c0,0.25,0,3.44-0.22,4.7c-0.16,0.96-0.46,1.61-1.47,1.61c-0.93,0-1.26-0.6-1.45-1.34c-0.33-1.28-0.33-3.06-0.33-4.61
				c0-2.29,0.05-4.26,0.38-5.16C-106.59-238.55-106.16-238.88-105.58-238.88 M-105.5-242.13c-4.29,0-5.73,3.6-5.73,9.17
				c0,2.92,0.35,5.6,1.53,7.51c0.22,0.36,1.28,2.07,4.12,2.07c4.5,0,5.73-3.88,5.73-9.26C-99.85-238.15-101.1-242.13-105.5-242.13"
				/>
		</g>
		<g id="g198" transform="translate(186.2379,254.5)">
			<path id="path200" class="st0" d="M-118.41-248.6v11.6c0,2.27,0.19,3.55,1.86,3.55c1.77,0,1.8-1.61,1.8-3.74v-11.41h3.17v11.41
				c0,3.22-0.19,7.07-5.21,7.07c-4.15,0-5.35-2.1-5.35-6.77v-11.71H-118.41z"/>
		</g>
		<g id="g202" transform="translate(211.3512,248.0013)">
			<path id="path204" class="st0" d="M-132.44-239.24h1.04c1.2,0,2.02,0.63,2.02,2.51c0,1.72-0.57,2.68-2.02,2.68h-1.04V-239.24z
				 M-136.1-223.9h3.66v-7.15h1.17l2.05,7.15h3.93l-2.76-7.89c0.85-0.52,2.38-1.47,2.38-4.91c0-0.68,0-2.84-1.69-4.42
				c-0.95-0.87-2.07-0.98-4.04-0.98h-4.7V-223.9L-136.1-223.9z"/>
		</g>
	</g>
</g>
</svg>
