<?xml version="1.0" encoding="utf-8"?>
<!-- Generator: Adobe Illustrator 27.8.1, SVG Export Plug-In . SVG Version: 6.00 Build 0)  -->
<svg version="1.1" id="Layer_1" xmlns="http://www.w3.org/2000/svg" xmlns:xlink="http://www.w3.org/1999/xlink" x="0px" y="0px"
	 viewBox="0 0 90 30" style="enable-background:new 0 0 90 30;" xml:space="preserve">
<style type="text/css">
	.st0{fill:#FFFFFF;}
</style>
<g id="layer1" transform="translate(-1687.849,1694.3458)">
	<g id="g3846" transform="matrix(1.5770358,0,0,1.5770358,-1570.7398,-1303.8993)">
		<g id="g3863">
			<path id="path3064" class="st0" d="M2085.5-243.29c-2.55,0.02-4.63,2.85-4.63,5.32c0,2.6,1.53,5.77,4.63,5.76
				s4.71-3.42,4.71-5.76C2090.21-240.55,2088.04-243.31,2085.5-243.29z M2085.5-243.2c2.13,0,2.71,2.35,2.71,5.22
				c0,3.78-0.69,5.65-2.71,5.64c-2.01,0-2.67-1.53-2.67-5.64C2082.83-240.55,2083.37-243.2,2085.5-243.2z"/>
			<path id="path3060" class="st0" d="M2091.05-237.91c-0.01-2.81,2.24-5.3,4.14-5.42c0.69-0.05,1.57,0.27,2.09,0.49
				c0.37,0.16,1.14-0.07,1.27-0.51h0.07v3.83h-0.07c0-0.16-0.71-3.71-3.36-3.71c-1.96,0-2.15,3.45-2.15,5.32s0.06,5.6,2.34,5.6
				c1.11,0,1.93-0.48,2.14-1.46v-2.98h-0.93v-0.13h3.6v0.13h-0.89v4.36h-0.07c0,0-0.14-0.63-0.88-0.63c-0.94,0-1.82,0.82-2.9,0.81
				C2092.61-232.25,2091.06-235.1,2091.05-237.91L2091.05-237.91z"/>
			<path id="path3058" class="st0" d="M2073.88-242.92h-1.12v-0.13h3.93v0.13h-0.99l2.81,7.63c0.88-2.7,1.56-4.7,2.47-7.63h-0.98
				v-0.13h2.08v0.13h-0.95l-3.41,10.64L2073.88-242.92z"/>
			<path id="path3054" class="st0" d="M2100.75-234.88l-0.02-8.05h-1.07v-0.12h3.94v0.12h-1.07l0.02,8.83
				c0.24,1.01,0.66,1.78,2.09,1.79c1.44,0.01,2.41-0.85,2.77-2.03v-8.59h-1.22v-0.12h10l0.02,3.86h-0.1
				c-0.19-2.49-1.15-3.44-2.83-3.71c-0.58-0.09-1.19-0.02-1.96-0.03v4.93c0.67,0.05,1.38,0.01,1.86-0.4
				c0.44-0.38,0.56-1.24,0.59-1.59h0.08v4.29h-0.09c-0.03,0-0.06-1.08-0.59-1.59c-0.53-0.51-1.2-0.64-1.86-0.52v5.27
				c0.94,0,1.68,0.08,2.33-0.1c1.97-0.54,2.67-2.2,2.66-3.87h0.11v4.1h-7.84v-0.12h0.89v-10.39h-1.92v8.59
				c-0.22,0.82-1.01,2.18-3.05,2.17C2102.63-232.18,2100.75-233.03,2100.75-234.88L2100.75-234.88z"/>
		</g>
	</g>
</g>
</svg>
