<svg width="46" height="46" viewBox="0 0 46 46" fill="none" xmlns="http://www.w3.org/2000/svg">
<g clip-path="url(#clip0_177_4492)">
<path d="M24.8362 32.157C24.1377 31.1338 22.9275 28.0098 21.953 27.5133C20.8795 26.964 19.7694 29.4738 18.8324 30.7417C17.7668 32.183 14.3141 37.6475 12.4362 36.5055C12.3894 36.4762 18.4741 27.5498 19.101 26.4952C20.3598 24.3731 20.0932 24.4823 19.0566 22.153C18.1023 20.0089 17.2374 17.7187 16.098 15.7099C15.5441 14.736 12.9634 12.1301 13.1915 10.8897C13.3594 9.98475 15.7614 9.54735 16.2443 9.68411C17.4136 10.0156 18.8659 11.9298 19.6544 12.9129C20.7911 14.3344 21.5442 17.3737 22.8133 18.3893C24.1994 19.4956 23.7288 19.1589 25.1668 17.1286C26.6154 15.0869 28.2562 13.3324 29.7777 11.3793C33.3921 6.7338 32.6851 11.4694 30.3573 14.2864C28.9523 15.9878 27.5618 17.5936 26.3121 19.4775C24.7116 21.8928 24.9409 21.7174 26.4337 23.7326C28.1369 26.0305 30.4043 29.8014 30.2464 33.2238C30.1718 33.2359 30.1092 33.2731 30.053 33.3338C30.4598 35.4644 31.7173 38.206 29.3567 36.9309C27.6541 36.0144 26.0437 33.7532 24.8432 32.1494C24.8432 32.1494 24.8397 32.1532 24.838 32.1551L24.8362 32.157Z" fill="black"/>
</g>
<defs>
<clipPath id="clip0_177_4492">
<rect width="33.2069" height="30.7116" fill="white" transform="translate(0 25) rotate(-47.2265)"/>
</clipPath>
</defs>
</svg>
